<svg width="413" height="192" viewBox="0 0 413 192" fill="none" xmlns="http://www.w3.org/2000/svg">
<path d="M230.525 243.685C312.6 243.685 379.134 177.32 379.134 95.4545C379.134 13.5887 312.6 -52.7766 230.525 -52.7766C148.451 -52.7766 81.9164 13.5887 81.9164 95.4545C81.9164 177.32 148.451 243.685 230.525 243.685Z" fill="#3F3D56" fill-opacity="0.43"/>
<path d="M275.945 39.8186C297.289 39.8186 314.591 22.5601 314.591 1.27063C314.591 -20.0188 297.289 -37.2774 275.945 -37.2774C254.601 -37.2774 237.299 -20.0188 237.299 1.27063C237.299 22.5601 254.601 39.8186 275.945 39.8186Z" fill="#FF6584"/>
<path d="M113.932 -23.9715L114.989 -2.00446C119.368 3.82106 124.092 10.4875 128.754 17.7529L129.42 -15.76L129.787 -15.5259C124.394 -19.3687 118.912 -22.3088 113.565 -24.1751L113.932 -23.9715Z" fill="#7250F8"/>
<path d="M162.703 23.1823L163.057 23.5197C161.602 20.7895 160.059 18.1351 158.43 15.5565L148.499 54.5307L148.331 54.3829C149.049 56.0927 149.732 57.7908 150.379 59.4773L162.703 23.1823Z" fill="#7250F8"/>
<path d="M147.575 1.02492L147.941 1.31683C142.691 -4.88795 136.722 -10.4507 130.16 -15.2551L129.482 18.8964C133.82 25.7259 137.705 32.4529 141.135 39.0773L147.575 1.02492Z" fill="#7250F8"/>
<path d="M75.5403 11.6871C76.0982 17.4434 77.2377 23.1287 78.9415 28.6565L138.159 34.7489C135.067 29.0627 131.876 23.7279 128.778 18.8658L75.6908 12.1515L75.5403 11.6871Z" fill="#7250F8"/>
<path d="M81.0961 35.031L80.9366 34.5674L140.87 39.8812C140.146 38.4685 139.414 37.0746 138.673 35.6995L79.2378 29.5845L79.0815 29.1203C79.6806 31.0687 80.3521 33.039 81.0961 35.031Z" fill="#7250F8"/>
<path d="M157.755 14.7439L158.115 15.0608C155.144 10.3994 151.86 5.94324 148.287 1.72278L141.76 40.2897C144.022 44.7199 146.071 49.0878 147.907 53.3933L157.755 14.7439Z" fill="#7250F8"/>
<path d="M156.487 79.1683C158.869 89.4493 159.772 99.1703 159.176 108.224C162.527 101.101 175.273 71.5922 170.509 44.0911L156.487 79.1683Z" fill="#7250F8"/>
<path d="M92.0906 55.8163C95.2618 60.0771 98.7157 64.1212 102.429 67.9213L102.285 67.4062L155.597 78.346C154.21 72.6051 152.479 66.9524 150.413 61.4183L92.0906 55.8163Z" fill="#7250F8"/>
<path d="M150.873 60.7854C151.07 61.3099 151.27 61.8355 151.46 62.3576C153.291 67.3608 154.847 72.4597 156.122 77.6317L170.011 42.887L170.35 43.2264C169.471 38.3917 167.981 33.6876 165.916 29.2264C165.097 27.4772 164.239 25.7544 163.343 24.0579L150.873 60.7854Z" fill="#7250F8"/>
<path d="M128.157 17.897C123.543 10.7173 118.872 4.13107 114.544 -1.6259L78.0478 -9.85166L77.9241 -10.3111C75.6457 -4.32638 74.8127 3.02578 75.5027 11.2374L128.157 17.897Z" fill="#7250F8"/>
<path d="M155.813 79.2586L102.891 68.3988C125.151 91.1917 156.294 108.672 158.282 109.777C159.209 99.7348 158.157 89.4197 155.813 79.2586Z" fill="#7250F8"/>
<path d="M150.038 60.4825L150.05 60.4477C147.505 53.7562 144.601 47.2062 141.35 40.8262L81.2699 35.4993C82.2899 38.1936 83.4428 40.9167 84.7284 43.6687C86.6009 47.5893 88.828 51.3315 91.3821 54.8486L150.038 60.4825Z" fill="#7250F8"/>
<path d="M226.463 50.0196L213.23 67.6104C212.878 74.883 212.253 83.0228 211.198 91.5847L233.141 66.1969L233.274 66.6109C231.577 60.2202 229.235 54.468 226.311 49.6291L226.463 50.0196Z" fill="#7250F8"/>
<path d="M213.29 66.3345L226.109 49.2949C222.79 43.9016 218.736 39.673 214.029 37.0146C213.784 36.8763 213.538 36.7467 213.292 36.6181C213.408 38.5943 214.013 50.1976 213.29 66.3345Z" fill="#7250F8"/>
<path d="M233.874 117.365L233.931 117.85C234.556 114.821 235.065 111.796 235.459 108.773L202.889 132.473L202.854 132.252C202.314 134.025 201.754 135.768 201.174 137.479L233.874 117.365Z" fill="#7250F8"/>
<path d="M236.391 90.675L236.486 91.1324C236.41 83.0135 235.37 74.9321 233.388 67.0571L211.028 92.9284C210.002 100.949 208.693 108.601 207.099 115.885L236.391 90.675Z" fill="#7250F8"/>
<path d="M174.093 53.0588C170.842 57.8471 168.084 62.9509 165.861 68.2923L207.574 110.658C208.829 104.312 209.782 98.1729 210.505 92.4572L173.912 53.5122L174.093 53.0588Z" fill="#7250F8"/>
<path d="M163.445 74.5724L163.618 74.1139L206.38 116.336C206.726 114.787 207.053 113.248 207.363 111.718L165.496 69.1954L165.672 68.7384C164.888 70.6202 164.145 72.5648 163.445 74.5724Z" fill="#7250F8"/>
<path d="M235.459 107.717L235.534 108.191C236.226 102.71 236.547 97.1891 236.494 91.6654L206.805 117.217C205.715 122.068 204.5 126.736 203.161 131.22L235.459 107.717Z" fill="#7250F8"/>
<path d="M193.287 156.53C188.547 165.964 183.027 174.025 176.779 180.619C183.915 177.265 212.6 162.646 226.516 138.434L193.287 156.53Z" fill="#7250F8"/>
<path d="M158.621 97.5756C158.339 102.875 158.414 108.187 158.844 113.476L159.062 112.987L193.127 155.33C195.729 150.026 198.011 144.571 199.959 138.995L158.621 97.5756Z" fill="#7250F8"/>
<path d="M212.706 66.3182C213.484 48.859 212.697 36.7688 212.686 36.5953L212.979 36.4565C205.643 32.7542 197.804 33.3434 190.37 37.4275L212.706 66.3182Z" fill="#7250F8"/>
<path d="M200.718 138.8C200.534 139.329 200.352 139.861 200.164 140.384C198.375 145.403 196.314 150.32 193.989 155.115L226.903 137.19L226.947 137.668C229.361 133.384 231.222 128.814 232.484 124.064C232.971 122.196 233.413 120.323 233.807 118.446L200.718 138.8Z" fill="#7250F8"/>
<path d="M210.647 91.3163C211.684 82.8509 212.298 74.8069 212.645 67.619L189.796 38.0651L189.995 37.6326C184.413 40.7925 179.07 45.925 174.351 52.6885L210.647 91.3163Z" fill="#7250F8"/>
<path d="M192.71 156.17L158.894 114.138C161.464 145.854 174.272 179.131 175.097 181.246C182.232 174.102 188.018 165.488 192.71 156.17Z" fill="#7250F8"/>
<path d="M200.269 138.036L200.3 138.016C202.619 131.244 204.571 124.351 206.146 117.369L163.279 75.0438C162.342 77.7678 161.489 80.5986 160.719 83.536C159.654 87.7469 158.977 92.046 158.695 96.3797L200.269 138.036Z" fill="#7250F8"/>
<path d="M94.5195 73.5051L102.331 94.0707C108.301 98.2608 114.86 103.144 121.545 108.617L111.793 76.5395L112.215 76.649C105.895 74.6571 99.7702 73.5512 94.1071 73.4247L94.5195 73.5051Z" fill="#7250F8"/>
<path d="M101.283 93.3375L93.7159 73.4161C87.3723 73.3249 81.6214 74.4767 76.8502 77.0196C76.602 77.1519 76.3605 77.2898 76.1199 77.4283C77.8556 78.3882 88.0051 84.0901 101.283 93.3375Z" fill="#7250F8"/>
<path d="M155.514 103.313L155.956 103.525C153.726 101.377 151.436 99.3281 149.087 97.3783L151.72 137.506L151.515 137.417C152.727 138.822 153.903 140.226 155.041 141.63L155.514 103.313Z" fill="#7250F8"/>
<path d="M134.261 86.9049L134.699 87.0697C127.784 82.7875 120.384 79.3373 112.654 76.7913L122.592 109.48C128.834 114.637 134.613 119.837 139.928 125.079L134.261 86.9049Z" fill="#7250F8"/>
<path d="M69.0576 119.254C71.372 124.557 74.2175 129.612 77.5508 134.344L135.756 121.881C131.054 117.426 126.366 113.336 121.913 109.668L69.3447 119.649L69.0576 119.254Z" fill="#7250F8"/>
<path d="M81.5753 139.742L81.28 139.35L139.925 125.926C138.799 124.806 137.67 123.706 136.54 122.626L78.1202 135.135L77.8278 134.742C79.0012 136.41 80.2504 138.077 81.5753 139.742Z" fill="#7250F8"/>
<path d="M148.193 96.8137L148.634 97.0039C144.364 93.4868 139.86 90.2612 135.154 87.349L140.898 126.04C144.423 129.556 147.725 133.078 150.805 136.606L148.193 96.8137Z" fill="#7250F8"/>
<path d="M166.952 158.474C172.403 167.517 176.274 176.484 178.513 185.278C179.493 177.47 182.47 145.477 169.417 120.792L166.952 158.474Z" fill="#7250F8"/>
<path d="M98.4723 156.12C102.809 159.194 107.347 161.975 112.056 164.445L111.759 163.999L165.85 157.967C162.752 152.934 159.354 148.092 155.675 143.466L98.4723 156.12Z" fill="#7250F8"/>
<path d="M100.957 93.8206C86.5883 83.8192 75.9295 78.0092 75.7764 77.9262L75.816 77.6046C68.7537 81.8031 65.0562 88.7229 64.5345 97.1731L100.957 93.8206Z" fill="#7250F8"/>
<path d="M155.916 142.722C156.266 143.16 156.619 143.599 156.962 144.036C160.253 148.23 163.314 152.599 166.129 157.125L168.571 119.8L168.998 120.018C166.664 115.691 163.789 111.677 160.443 108.071C159.122 106.66 157.772 105.286 156.395 103.948L155.916 142.722Z" fill="#7250F8"/>
<path d="M121.022 108.938C114.409 103.532 107.926 98.7083 102.026 94.5679L64.7678 97.997L64.5078 97.5982C64.1955 103.992 65.6816 111.241 68.8825 118.838L121.022 108.938Z" fill="#7250F8"/>
<path d="M166.338 158.768L112.642 164.756C140.876 179.57 175.911 186.593 178.144 187.031C175.914 177.194 171.717 167.708 166.338 158.768Z" fill="#7250F8"/>
<path d="M155.028 142.692L155.029 142.655C150.535 137.075 145.744 131.742 140.675 126.676L81.8857 140.134C83.6907 142.382 85.631 144.616 87.7064 146.837C90.7022 149.988 93.9799 152.86 97.4988 155.418L155.028 142.692Z" fill="#7250F8"/>
<path d="M413 199.177C413 216.955 321.314 248.455 208.215 248.455C95.115 248.455 3.42957 216.955 3.42957 199.177C3.42957 181.399 95.115 184.076 208.215 184.076C321.314 184.076 413 181.399 413 199.177Z" fill="#3F3D56"/>
<path opacity="0.1" d="M413 199.177C413 216.955 321.314 248.455 208.215 248.455C95.115 248.455 3.42957 216.955 3.42957 199.177C3.42957 181.399 95.115 184.076 208.215 184.076C321.314 184.076 413 181.399 413 199.177Z" fill="black"/>
<path d="M208.215 231.366C321.314 231.366 413 216.955 413 199.177C413 181.399 321.314 166.987 208.215 166.987C95.115 166.987 3.42957 181.399 3.42957 199.177C3.42957 216.955 95.115 231.366 208.215 231.366Z" fill="#3F3D56"/>
<path opacity="0.1" d="M243.719 165.532C243.719 184.9 216.653 178.909 183.513 178.909C150.373 178.909 123.709 184.9 123.709 165.532C123.709 146.163 150.772 141.951 183.911 141.951C217.051 141.951 243.719 146.163 243.719 165.532Z" fill="black"/>
<path d="M243.719 160.763C243.719 180.131 216.653 174.141 183.513 174.141C150.373 174.141 123.709 180.131 123.709 160.763C123.709 141.395 150.772 137.182 183.911 137.182C217.051 137.182 243.719 141.395 243.719 160.763Z" fill="#3F3D56"/>
<path d="M137.11 107.469C137.839 106.952 138.643 106.549 139.495 106.276C144.895 104.272 150.554 103.043 156.301 102.627C161.298 102.273 166.714 102.693 170.617 105.826C171.224 106.27 171.721 106.848 172.069 107.513C172.56 108.57 172.411 109.799 172.252 110.953C172.217 111.401 172.104 111.839 171.918 112.248C171.393 113.245 170.1 113.595 168.977 113.475C167.853 113.356 166.8 112.882 165.692 112.662C165.006 112.543 164.313 112.472 163.617 112.451L156.669 112.076C152.348 111.842 147.97 111.613 143.732 112.483C142.428 112.717 141.167 113.15 139.995 113.767C139.027 114.31 138.375 115.087 137.477 114.086C135.898 112.327 135.025 109.094 137.11 107.469Z" fill="#2F2E41"/>
<path d="M147.877 110.534C147.877 110.534 157.222 106.355 160.767 111.177C164.312 115.998 158.834 114.07 158.834 114.07L152.711 115.998L145.943 114.713L147.877 110.534Z" fill="#EAEDF2"/>
<path d="M148.36 107.48C148.36 107.48 149.649 113.588 148.682 115.195C147.716 116.802 154.161 119.052 154.161 119.052L160.284 116.481C160.284 116.481 158.673 106.516 160.284 104.587L148.36 107.48Z" fill="#FFB9B9"/>
<path opacity="0.1" d="M148.36 107.48C148.36 107.48 149.649 113.588 148.682 115.195C147.716 116.802 154.161 119.052 154.161 119.052L160.284 116.481C160.284 116.481 158.673 106.516 160.284 104.587L148.36 107.48Z" fill="black"/>
<path d="M142.321 180.918C143.188 182.71 143.9 184.572 144.451 186.485C144.46 186.548 144.482 186.608 144.516 186.662C144.551 186.716 144.596 186.762 144.649 186.798C144.702 186.833 144.762 186.857 144.825 186.867C144.888 186.878 144.953 186.875 145.015 186.859L150.747 186.853C151.455 186.852 152.404 186.625 152.396 185.919C152.391 185.424 151.883 185.115 151.505 184.793C150.456 183.9 150.182 182.427 149.748 181.121C148.903 178.606 147.275 176.425 145.101 174.897C144.808 174.667 144.469 174.5 144.108 174.407C143.745 174.354 143.375 174.374 143.019 174.466C142.013 174.668 138.255 175.361 138.965 176.821C139.271 177.45 140.403 178.104 140.878 178.691C141.432 179.384 141.915 180.13 142.321 180.918Z" fill="#575A89"/>
<path d="M162.254 174.287C162.052 174.71 161.827 175.123 161.58 175.522C160.75 176.888 159.77 178.163 158.997 179.562C158.475 180.417 158.154 181.377 158.055 182.373C158.011 182.871 158.087 183.372 158.278 183.834C158.468 184.297 158.767 184.706 159.149 185.03C159.981 185.66 161.122 185.689 162.156 185.542C163.19 185.395 164.218 185.1 165.26 185.177C164.909 183.195 166.585 181.45 167.004 179.481C167.122 178.928 167.139 178.355 167.297 177.812C167.467 177.315 167.684 176.836 167.946 176.381C168.781 174.76 169.37 173.024 169.697 171.231C169.736 171.013 164.601 170.978 164.119 171.082C162.616 171.406 162.836 173.043 162.254 174.287Z" fill="#575A89"/>
<path d="M122.677 143.144C121.211 145.432 121.549 148.464 122.579 150.978C123.608 153.492 125.247 155.714 126.368 158.188C127.083 159.766 127.585 161.438 128.39 162.972C129.387 164.871 130.842 166.545 131.511 168.582C131.938 169.88 132.036 171.304 132.727 172.484C133.144 173.114 133.621 173.704 134.15 174.245C135.638 175.945 136.755 177.936 137.43 180.09C138.062 178.214 139.952 176.984 141.894 176.578C143.836 176.172 145.848 176.448 147.813 176.725C146.717 175.031 145.61 173.316 144.957 171.409C144.325 169.564 144.139 167.602 143.713 165.699C142.841 161.798 140.976 158.2 139.131 154.651L148.617 153.901C150.166 153.746 151.722 153.688 153.278 153.728C155.727 153.843 158.125 154.442 160.561 154.719C162.996 154.996 165.573 154.923 167.743 153.787C163.593 159.727 161.431 166.823 161.568 174.062C162.495 173.345 163.572 172.844 164.719 172.596C165.866 172.348 167.054 172.358 168.196 172.627C169.338 172.896 170.405 173.416 171.32 174.15C172.234 174.883 172.973 175.811 173.481 176.866C177.199 171.799 176.757 164.744 179.703 159.195C180.308 158.054 181.051 156.991 181.704 155.877C182.94 153.639 183.997 151.307 184.868 148.905C185.692 146.802 186.522 144.463 185.731 142.348C185.403 141.546 184.925 140.813 184.323 140.188C182.623 138.319 180.258 136.936 177.728 136.879C173.846 136.79 170.638 139.661 167.232 141.522C163.166 143.678 158.567 144.629 153.978 144.264C149.299 143.934 144.831 142.406 140.374 141.061C138.144 140.357 135.878 139.774 133.585 139.314C131.673 138.956 129.853 139.353 127.969 139.84C125.919 140.371 123.857 141.302 122.677 143.144Z" fill="#2F2E41"/>
<path d="M163.184 101.373C163.182 103.93 162.163 106.381 160.35 108.189C158.537 109.997 156.08 111.014 153.516 111.016C152.94 111.017 152.365 110.965 151.798 110.862C149.989 110.536 148.311 109.702 146.959 108.458C145.608 107.214 144.641 105.612 144.171 103.839C143.7 102.066 143.747 100.196 144.304 98.4487C144.861 96.7011 145.907 95.1483 147.318 93.9724C148.729 92.7966 150.447 92.0464 152.27 91.8099C154.093 91.5733 155.946 91.8603 157.611 92.6371C159.277 93.4139 160.686 94.6484 161.673 96.1956C162.66 97.7429 163.184 99.5388 163.184 101.373Z" fill="#FFB9B9"/>
<path d="M147.877 110.534C147.877 110.534 149.649 111.337 150.294 111.98C150.938 112.623 152.872 116.159 156.095 113.909C159.317 111.659 159.639 110.373 160.606 110.373C161.573 110.373 162.862 112.302 162.862 112.302L171.724 138.821C169.336 141.51 166.568 143.838 163.507 145.732C158.35 148.946 152.227 150.554 149.327 149.268C146.427 147.982 140.948 147.018 139.981 144.446C139.015 141.875 137.403 134.16 137.403 134.16L141.915 114.552L147.877 110.534Z" fill="#EAEDF2"/>
<path d="M146.632 137.355C147.335 135.841 147.437 134.127 147.497 132.46C147.591 130.809 147.547 129.153 147.365 127.509C147.08 125.359 146.378 123.288 145.935 121.164C145.546 119.302 145.357 117.404 145.371 115.501C145.377 114.633 145.44 113.72 145.915 112.992C146.245 112.484 146.763 112.091 146.97 111.521C147.375 110.405 146.373 109.236 145.276 108.776C143.939 108.276 142.477 108.218 141.104 108.609C139.743 109.002 138.427 109.538 137.18 110.21C136.237 110.612 135.37 111.171 134.616 111.864C133.616 112.896 133.176 114.334 132.821 115.726C132.537 116.839 132.284 118.001 132.5 119.13C132.851 120.963 134.35 122.341 135.148 124.029C136.076 125.989 136.013 128.272 135.644 130.408C135.275 132.544 134.621 134.632 134.419 136.79C134.217 138.947 134.527 141.267 135.882 142.96C136.434 143.651 137.933 145.287 138.944 145.101C139.738 144.956 140.889 143.212 141.529 142.659C143.378 141.062 145.571 139.642 146.632 137.355Z" fill="#2F2E41"/>
<path d="M163.516 109.486C163.545 111.278 162.752 112.982 161.821 114.516C160.889 116.049 159.794 117.499 159.108 119.156C158.255 121.231 158.08 123.521 158.61 125.7C158.807 126.442 159.044 127.173 159.321 127.889L161.087 132.72C161.324 133.48 161.669 134.202 162.111 134.865C162.51 135.372 162.978 135.822 163.502 136.2C164.843 137.28 166.387 138.083 168.042 138.562C169.709 139.038 171.489 138.937 173.091 138.275C173.261 131.726 174.316 125.23 176.227 118.962C176.58 117.805 176.966 116.587 176.693 115.408C176.388 114.088 175.325 113.097 174.315 112.192C171.224 109.424 167.826 106.516 163.689 106.143C161.295 105.927 163.496 108.189 163.516 109.486Z" fill="#2F2E41"/>
<path d="M142.368 146.858C142.613 147.337 142.766 147.858 143.008 148.338C143.366 148.982 143.808 149.575 144.323 150.102C146.478 152.485 149.112 154.859 152.326 155.003C152.645 155.032 152.967 154.992 153.269 154.884C153.541 154.745 153.775 154.542 153.95 154.293C154.125 154.043 154.236 153.755 154.273 153.453C154.501 152.208 153.95 150.966 153.398 149.826C152.203 147.356 150.858 144.824 148.619 143.231C147.502 142.467 146.225 141.966 144.885 141.764C143.545 141.563 142.177 141.668 140.883 142.07C139.718 142.428 137.784 143.054 139.328 144.115C140.499 144.92 141.689 145.533 142.368 146.858Z" fill="#FFB9B9"/>
<path d="M156.262 115.414C155.927 114.51 155.413 113.683 154.75 112.982C154.082 112.418 153.291 112.018 152.44 111.814C151.337 111.5 150.197 111.337 149.051 111.33C147.686 111.321 146.103 111.686 145.524 112.919C145.064 113.898 145.42 115.057 145.884 116.034C146.082 116.54 146.412 116.985 146.839 117.321C147.428 117.718 148.189 117.705 148.887 117.838C149.968 118.112 150.993 118.575 151.913 119.206L154.303 120.647L158.409 123.123C158.301 123.058 158.34 120.249 158.213 119.789C157.807 118.306 156.893 116.818 156.262 115.414Z" fill="#FFB9B9"/>
<path d="M144.302 185.757C143.341 187.059 143.534 188.921 142.683 190.297C141.945 191.49 140.555 192.115 139.632 193.172C139.338 193.523 139.075 193.9 138.848 194.297C137.992 195.728 137.296 197.56 138.139 198.998C138.817 200.155 140.243 200.607 141.55 200.915C143.202 201.304 144.919 201.616 146.59 201.318C148.262 201.021 149.895 200 150.491 198.414C150.608 198.015 150.748 197.624 150.908 197.24C151.814 195.461 154.656 195.442 155.583 193.674C156.232 192.437 155.635 190.941 155.039 189.678L153.218 185.819C152.614 184.539 150.164 185.275 148.887 184.968C147.222 184.568 145.5 184.127 144.302 185.757Z" fill="#2F2E41"/>
<path d="M158.386 182.442C157.64 183.028 157.07 183.806 156.738 184.693C155.837 186.767 155.528 189.04 155.227 191.281C155.056 192.172 155.038 193.086 155.175 193.983C155.563 195.812 157.225 197.159 159.014 197.719C160.803 198.278 162.722 198.192 164.595 198.1C165.199 198.116 165.799 197.994 166.349 197.745C167.29 197.228 167.658 196.011 167.496 194.951C167.335 193.891 166.755 192.948 166.186 192.038C165.618 191.128 165.037 190.186 164.875 189.126C164.601 187.344 165.373 184.728 164.275 183.115C163.175 181.499 159.854 181.416 158.386 182.442Z" fill="#2F2E41"/>
<path d="M162.941 96.3471C162.769 95.7704 162.39 95.2771 161.877 94.9614C161.903 94.3436 161.827 93.7257 161.652 93.1327C161.066 91.4062 159.679 91.5051 158.371 90.7418C157.803 90.4106 157.838 90.118 157.543 89.574C157.155 88.8609 156.575 88.2706 155.868 87.87C155.029 87.3364 154.142 86.7869 153.149 86.7194C151.062 86.5775 149.461 88.5357 147.466 89.1642C146.587 89.4412 145.642 89.4526 144.758 89.7145C143.874 89.9764 142.992 90.6017 142.861 91.5121C142.8 91.9324 142.907 92.3635 142.845 92.7837C142.723 93.6188 141.988 94.2037 141.497 94.8905C140.409 96.4095 140.534 98.5553 141.403 100.208C141.586 100.55 141.796 100.877 142.03 101.187C142.103 101.968 142.328 102.727 142.692 103.422C143.562 105.075 145.058 106.31 146.621 107.336C146.493 106.788 146.416 106.229 146.389 105.667C146.367 105.48 146.392 105.29 146.46 105.114C146.635 104.751 147.094 104.655 147.445 104.456C148.172 104.044 148.456 103.133 148.477 102.3C148.498 101.467 148.321 100.632 148.409 99.8036C148.412 99.613 148.456 99.4252 148.536 99.2524C148.617 99.0796 148.733 98.9256 148.877 98.8002C149.145 98.6477 149.451 98.5748 149.76 98.5903C151.248 98.5298 152.803 98.5025 154.116 97.8005C154.539 97.52 154.994 97.2904 155.472 97.1163C156.587 96.8262 157.728 97.6061 158.371 98.5607C159.013 99.5153 159.334 100.651 159.927 101.637C160.521 102.624 161.545 103.503 162.692 103.386C162.757 103.386 162.821 103.373 162.88 103.347C162.939 103.32 162.992 103.282 163.035 103.234C163.084 103.146 163.106 103.044 163.098 102.943L163.162 98.5699C163.215 97.8218 163.141 97.0702 162.941 96.3471Z" fill="#2F2E41"/>
<path d="M132.345 119.223C131.423 120.58 130.359 121.885 129.852 123.445C129.554 124.362 129.461 125.331 129.246 126.271C128.527 129.4 126.451 132.18 126.242 135.383C126.169 136.095 126.274 136.814 126.547 137.475C127.143 138.768 128.568 139.449 129.928 139.877C131.287 140.305 132.747 140.614 133.833 141.536C134.379 142.059 134.875 142.632 135.312 143.247C137.083 145.444 139.465 147.07 142.159 147.92C141.946 146.457 141.846 144.694 143.018 143.79C143.653 143.301 144.501 143.214 145.3 143.145L149.076 142.819C146.558 140.383 143.783 138.227 140.798 136.388C139.754 135.744 138.618 135.066 138.141 133.938C137.895 133.211 137.793 132.443 137.84 131.677C137.814 128.876 137.576 126.081 137.129 123.316C136.818 121.396 136.406 119.493 135.936 117.605C135.804 117.075 135.022 114.698 134.061 115.255C133.835 115.386 133.623 116.893 133.49 117.206C133.176 117.914 132.792 118.59 132.345 119.223Z" fill="#2F2E41"/>
<path d="M175.835 114.093L177.377 117.292C178.12 118.607 178.458 120.112 178.349 121.617L178.441 131.213C178.512 132.495 178.405 133.78 178.124 135.033C178.028 135.446 177.847 135.835 177.592 136.174C177.331 136.467 177.023 136.714 176.68 136.907C173.762 138.726 169.978 139.76 166.895 138.236C166.188 137.86 165.517 137.423 164.888 136.929C163.659 136.021 162.413 135.096 161.493 133.877C160.531 132.602 159.98 131.074 159.332 129.615C158.171 126.996 156.67 124.54 154.868 122.311C154.569 122.016 154.375 121.632 154.315 121.217C154.296 120.376 155.296 119.962 156.076 119.642C157.409 119.096 158.666 118.041 158.889 116.621C161.722 120.328 164.849 124.244 169.321 125.598C169.391 125.643 169.472 125.668 169.555 125.671C169.638 125.673 169.721 125.653 169.794 125.613C169.866 125.573 169.927 125.513 169.968 125.442C170.01 125.37 170.032 125.288 170.031 125.205C170.285 124.146 170.374 123.055 170.56 121.982C170.901 120.027 171.556 118.141 172.502 116.395C173.031 115.417 174.746 111.835 175.835 114.093Z" fill="#2F2E41"/>
<path opacity="0.1" d="M137.57 123.343C137.613 125.614 137.129 127.864 136.157 129.918C135.904 130.372 135.718 130.859 135.604 131.366C135.435 132.447 136.051 133.493 136.756 134.331C138.146 135.979 139.949 137.23 141.982 137.957" fill="black"/>
<path opacity="0.1" d="M171.054 121.43C170.827 122.039 171.033 122.713 171.208 123.339C171.716 125.156 171.952 127.037 171.911 128.923C171.919 128.956 171.918 128.99 171.908 129.022C171.899 129.055 171.882 129.084 171.858 129.109C171.835 129.133 171.805 129.151 171.773 129.161C171.741 129.171 171.706 129.173 171.673 129.166C170.929 129.212 170.078 129.216 169.573 128.669" fill="black"/>
<path opacity="0.1" d="M297.46 212.291C325.185 212.291 347.66 207.487 347.66 201.561C347.66 195.635 325.185 190.831 297.46 190.831C269.735 190.831 247.26 195.635 247.26 201.561C247.26 207.487 269.735 212.291 297.46 212.291Z" fill="black"/>
<path d="M322.56 105.787L318.974 109.364L322.56 112.94L326.146 105.787H322.56Z" fill="#A0616A"/>
<path d="M323.367 74.7739C324.373 75.1847 324.852 76.3076 325.231 77.324L329.883 89.7911L330.788 92.2178C331.232 93.4078 331.676 94.5987 332.052 95.8119C332.289 96.5794 332.499 97.3547 332.681 98.1379C332.87 98.8081 332.942 99.5055 332.895 100.2C332.77 100.964 332.49 101.695 332.073 102.348C330.455 105.16 328.15 107.517 325.374 109.202C325.214 108.171 324.797 107.197 324.162 106.368C323.526 105.54 322.693 104.883 321.738 104.459L324.143 103.139C324.652 102.901 325.109 102.567 325.491 102.155C325.724 101.833 325.889 101.468 325.978 101.082C326.066 100.695 326.076 100.295 326.005 99.9042C325.861 99.1253 325.621 98.367 325.291 97.6464C324.484 95.6374 323.784 93.5874 323.194 91.5049C322.844 90.2731 322.523 89.0071 321.831 87.9292C321.203 86.9513 320.293 86.1693 319.723 85.1571C318.853 83.6144 318.875 81.7148 319.259 79.9869C319.584 78.528 320.127 77.124 320.585 75.7038C320.944 74.5879 322.29 74.3341 323.367 74.7739Z" fill="#CBD2E0"/>
<path d="M301.191 41.4651C299.341 42.0881 297.665 43.5453 297.287 45.4555C297.111 46.341 297.219 47.2615 297.071 48.152C296.728 50.2173 295.103 51.7945 293.604 53.2596C292.105 54.7246 290.557 56.427 290.447 58.5175C290.328 60.8067 291.992 62.9513 291.704 65.2255C291.369 67.8676 288.572 69.5797 287.88 72.152C287.418 73.8696 287.984 75.7198 288.915 77.2364C290.689 80.1263 293.722 82.0883 296.952 83.1401C300.181 84.1918 303.621 84.4131 307.018 84.4486C311.155 84.4919 315.646 84.1376 318.754 81.4145C320.529 79.8451 321.644 77.6644 321.875 75.3095C322.17 72.1551 320.85 68.8959 321.761 65.8608C322.334 63.9507 323.771 62.2062 323.556 60.2239C323.346 58.2858 321.649 56.9119 320.485 55.3462C319.398 53.8842 318.738 52.1578 318.092 50.4557L315.88 44.6319C315.445 43.4871 314.968 42.283 313.999 41.5316C312.185 40.1249 309.268 40.4013 307.146 40.6914C305.178 40.9606 303.083 40.8276 301.191 41.4651Z" fill="#2F2E41"/>
<path d="M302.902 60.6578C302.902 60.6578 303.118 67.1364 302.469 67.7843C301.819 68.4321 305.067 72.7512 305.067 72.7512L310.912 72.5353L313.944 70.1598L311.345 66.7045C311.345 66.7045 310.263 61.0897 311.129 59.794C311.995 58.4982 302.902 60.6578 302.902 60.6578Z" fill="#A0616A"/>
<path opacity="0.1" d="M302.902 60.6578C302.902 60.6578 303.118 67.1364 302.469 67.7843C301.819 68.4321 305.067 72.7512 305.067 72.7512L310.912 72.5353L313.944 70.1598L311.345 66.7045C311.345 66.7045 310.263 61.0897 311.129 59.794C311.995 58.4982 302.902 60.6578 302.902 60.6578Z" fill="black"/>
<path d="M289.37 110.651L293.05 118.857L295.865 115.402L290.236 108.06L289.37 110.651Z" fill="#A0616A"/>
<path d="M307.232 187.639L306.366 199.732L308.531 201.46L311.995 198.436V189.582L307.232 187.639Z" fill="#A0616A"/>
<path d="M306.474 63.1412C310.778 63.1412 314.268 59.6605 314.268 55.3668C314.268 51.0732 310.778 47.5925 306.474 47.5925C302.169 47.5925 298.68 51.0732 298.68 55.3668C298.68 59.6605 302.169 63.1412 306.474 63.1412Z" fill="#A0616A"/>
<path d="M312.488 65.8234C312.255 65.7113 312 65.6507 311.741 65.6457C311.481 65.6408 311.224 65.6915 310.986 65.7946C310.514 66.0035 310.055 66.2421 309.612 66.5091C308.475 67.0994 307.185 67.3334 305.912 67.1803C305.762 67.169 305.616 67.1315 305.479 67.0693C305.335 66.9796 305.202 66.8724 305.083 66.7503C304.622 66.3762 304.032 66.1956 303.44 66.2466C302.847 66.2975 302.298 66.576 301.907 67.0233C301.678 67.3078 301.522 67.6475 301.272 67.914C300.625 68.6041 299.557 68.632 298.61 68.6303C296.646 68.5757 294.683 68.7552 292.762 69.165C290.832 69.5804 289.054 70.5198 287.626 71.8794C287.236 72.2451 286.926 72.6866 286.714 73.1768C286.452 73.8488 286.487 74.6035 286.252 75.2851C285.99 76.0441 285.411 76.6669 285.177 77.4347C285 78.013 285.025 78.6567 284.729 79.1845C285.995 80.2769 287.067 81.7336 288.332 82.8259C289.17 83.5492 290.047 84.3316 290.362 85.3912C290.503 86.0444 290.566 86.7122 290.549 87.3804C290.705 90.5748 292.442 93.4725 294.385 96.0171C294.917 96.7719 295.554 97.4473 296.277 98.0231C297.259 98.6898 298.374 99.1363 299.545 99.3319C301.757 99.7832 304.034 99.7809 306.291 99.7585C308.624 99.7353 310.998 99.686 313.216 98.9628C314.345 98.6487 315.36 98.0197 316.143 97.1499C317.055 96.0324 317.411 94.4158 318.656 93.6838C318.957 93.5461 319.242 93.376 319.507 93.1767C319.76 92.9024 319.94 92.5684 320.028 92.2059C320.464 90.8496 320.703 89.4384 320.741 88.0147C320.709 87.1603 320.767 86.305 320.914 85.4628C321.129 84.7206 321.443 84.0103 321.847 83.3509L324.426 78.6856C324.635 78.3064 324.581 77.7485 324.6 77.3159C324.581 76.6921 324.389 76.0859 324.045 75.5643C322.372 72.6154 319.745 70.3211 316.593 69.0575C316.344 68.9733 316.108 68.8577 315.889 68.7136C315.631 68.4973 315.413 68.2378 315.245 67.9467C314.56 66.918 313.724 65.7592 312.488 65.8234Z" fill="#CBD2E0"/>
<path d="M280.346 91.2318C279.837 92.4652 279.464 93.7497 279.232 95.0631C278.983 96.8777 279.276 98.7252 280.075 100.374C281.465 103.228 284.201 105.163 286.133 107.684C287.927 110.026 288.995 112.833 290.549 115.34C290.278 114.702 290.607 113.963 291.051 113.43C291.494 112.896 292.061 112.453 292.386 111.841C292.607 111.366 292.747 110.858 292.798 110.337C293.03 108.783 293.155 107.093 292.36 105.736C291.762 104.714 290.729 104.036 289.911 103.179C289.092 102.307 288.491 101.256 288.155 100.11C287.819 98.9635 287.758 97.7547 287.976 96.5806C288.133 95.7724 288.423 94.9964 288.64 94.202C288.908 93.1343 289.111 92.0514 289.248 90.9592L290.223 84.2798C290.483 82.5032 290.702 80.5372 289.693 79.0504C289.497 78.7391 289.224 78.4822 288.902 78.3035C288.635 78.1818 288.351 78.1021 288.06 78.067C286.999 77.894 285.562 77.4305 285.043 78.5646C284.418 79.9334 283.983 81.4255 283.459 82.8368L280.346 91.2318Z" fill="#CBD2E0"/>
<path d="M317.504 94.8865C317.504 94.8865 304.634 97.3699 301.602 97.3699H296.19C296.19 97.3699 294.241 100.825 294.241 104.28C294.241 107.736 281.468 156.109 281.468 156.109C281.468 156.109 269.343 195.845 282.767 196.061C296.19 196.277 304.634 196.925 304.85 192.39C305.067 187.855 306.366 129.331 306.366 129.331L308.386 159.424C308.93 166.874 308.35 174.362 306.666 181.641C305.697 185.721 305.847 190.194 310.696 191.094C320.005 192.822 331.697 191.31 331.697 188.071C331.697 184.831 325.634 112.919 325.634 112.919C325.634 112.919 322.603 102.337 320.871 101.473C319.139 100.609 317.504 94.8865 317.504 94.8865Z" fill="#2F2E41"/>
<path d="M306.365 194.549L305.499 201.028C305.499 201.028 307.881 204.483 308.53 204.483C309.18 204.483 312.644 201.46 312.644 201.46C312.644 201.46 312.427 198.22 312.644 197.357C312.86 196.493 313.293 192.39 312.644 192.174C311.994 191.958 311.994 196.987 311.994 196.987L309.18 199.948L306.466 198.325L306.365 194.549Z" fill="#2F2E41"/>
<path d="M307.123 55.3669C311.787 55.3669 315.567 53.3365 315.567 50.8318C315.567 48.3272 311.787 46.2968 307.123 46.2968C302.46 46.2968 298.68 48.3272 298.68 50.8318C298.68 53.3365 302.46 55.3669 307.123 55.3669Z" fill="#2F2E41"/>
<path d="M0 139.828C0 165.269 16.0005 185.854 35.774 185.854L0 139.828Z" fill="#3F3D56"/>
<path d="M35.774 185.854C35.774 160.128 53.6297 139.311 75.6958 139.311L35.774 185.854Z" fill="#7250F8"/>
<path d="M12.9615 142.135C12.9615 166.3 23.1648 185.854 35.774 185.854L12.9615 142.135Z" fill="#7250F8"/>
<path d="M35.774 185.854C35.774 152.982 56.4123 126.383 81.9173 126.383L35.774 185.854Z" fill="#3F3D56"/>
<path d="M28.248 186.179C28.248 186.179 33.3214 186.023 34.8504 184.937C36.3793 183.851 42.6544 182.554 43.0337 184.296C43.4131 186.038 50.658 192.958 44.9303 193.004C39.2025 193.051 31.6215 192.115 30.0954 191.187C28.5694 190.26 28.248 186.179 28.248 186.179Z" fill="#808080"/>
<path opacity="0.2" d="M45.0325 192.398C39.3047 192.444 31.7237 191.508 30.1976 190.581C29.0355 189.875 28.5724 187.341 28.4174 186.172C28.3101 186.177 28.248 186.179 28.248 186.179C28.248 186.179 28.5694 190.26 30.0954 191.187C31.6215 192.115 39.2025 193.051 44.9303 193.004C46.5836 192.991 47.1548 192.404 47.1234 191.535C46.8937 192.06 46.2631 192.388 45.0325 192.398Z" fill="black"/>
</svg>
