<svg width="184" height="306" viewBox="0 0 184 306" fill="none" xmlns="http://www.w3.org/2000/svg">
<path d="M75.6048 220.264L45.0225 242.353C27.5681 233.499 12.4089 220.206 0.861185 203.626C34.1639 212.63 65.9563 182.975 100.214 179.812C110.906 178.913 121.641 180.604 131.623 184.759C141.606 188.914 150.58 195.426 157.881 203.814L182.069 214.27C170.167 227.783 155.682 238.379 139.612 245.33C123.543 252.281 106.27 255.421 88.9854 254.533C79.2935 253.931 69.7152 252.024 60.4764 248.856C68.6348 235.281 75.6048 220.264 75.6048 220.264Z" fill="#EAEDF2"/>
<path d="M96.119 86.3657L91.8583 22.6155C63.9488 7.6066 33.0555 0.153698 1.86086 0.904011C45.7474 37.3975 42.2322 110.336 72.626 160.252C82.2164 175.743 94.9241 188.713 109.808 198.202C124.691 207.691 141.369 213.455 158.604 215.067L195.128 237.672C199.307 207.965 197.448 177.637 189.682 148.776C181.915 119.916 168.425 93.2101 150.141 70.4986C139.766 57.8669 127.954 46.6911 114.983 37.2347C107 61.8929 96.119 86.3657 96.119 86.3657Z" fill="#EAEDF2"/>
</svg>
