<svg width="559" height="632" viewBox="0 0 559 632" fill="none" xmlns="http://www.w3.org/2000/svg">
<g filter="url(#filter0_d_919_13334)">
<rect x="58.8271" y="131.827" width="476.173" height="476.173" rx="32" fill="white"/>
<rect x="60.8082" y="133.808" width="472.21" height="472.21" rx="30.0189" stroke="black" stroke-width="3.96217"/>
</g>
<path fill-rule="evenodd" clip-rule="evenodd" d="M12.8834 332.955C19.8169 333.636 26.7504 334.317 33.6839 334.998C66.8903 337.538 100.084 342.843 133.036 346.026C133.856 344.69 135.462 344.91 136.437 345.839C139.725 345.551 143.41 343.034 146.389 345.652C146.486 345.638 146.582 345.622 146.68 345.613C151.983 335.422 155.649 324.553 159.207 313.67C161.478 306.978 164.533 300.501 170.179 296.008C179.815 289.312 201.892 275.733 213.206 276.304C213.394 274.276 214.338 272.185 215.889 270.835C212.471 265.002 226.135 261.196 227.099 261.872C226.482 242.385 235.638 225.461 255.827 221.581C273.915 217.807 299.641 217.174 309.368 236.098C310.438 235.977 321.368 235.92 322.426 236.039C324.07 233.954 342.128 253.71 334.727 260.589C400.895 289.893 438.519 286.396 456.833 368.778C459.309 376.517 459.489 384.985 462.104 392.552C471.405 414.296 478.95 437.45 480.827 461.111C485.362 462.274 485.884 470.279 480.631 471.437C478.624 471.879 476.947 472.484 475.484 473.631C476.627 493.02 471.943 537.312 468.992 537.176C462.974 556.349 436.132 561.761 417.128 555.023C420.404 561.193 417.128 565.073 417.128 568.369C348.748 570.959 273.982 569.468 205.621 573.02C196.877 572.895 187.679 575.17 179.054 573.861C173.794 572.598 173.786 564.318 179.121 563.295L155.808 558.225C156.329 558.028 146.198 551.282 138.541 538.676C131.414 524.573 136.265 507.551 133.036 492.211C107.814 490.146 82.1746 489.263 57.2286 484.987C53.8272 495.175 39.1033 482.99 34.4231 478.089C34.429 478.081 34.4348 478.074 34.4406 478.066C32.1756 477.445 30.3593 475.32 30.2985 472.804C28.7101 470.532 28.3767 467.329 29.8999 465.134C22.9183 424.802 12.2748 383.622 8.42776 342.91C7.06778 342.609 5.78705 342.012 4.7012 341.092L4.78922 341.004C2.94949 338.951 2.59177 335.407 5.65872 333.662C8.13272 332.253 10.1984 332.69 12.8834 332.955Z" fill="white"/>
<path fill-rule="evenodd" clip-rule="evenodd" d="M308.107 231.702C306.047 226.519 299.083 228.534 299.859 233.979C300.324 237.241 302.108 240.686 303.711 243.545C305.016 245.872 306.505 248.143 308.524 249.888C304.93 253.244 301.201 256.477 297.377 259.548C293.204 262.897 288.816 265.985 284.28 268.823C280.303 271.312 276.146 273.517 272.397 276.357C268.911 278.997 265.736 282.172 264.12 286.318C262.398 290.732 263.146 295.29 264.414 299.701L264.56 300.2C265.855 304.57 268.096 309.838 264.988 313.956C263.405 316.052 261.105 317.536 259.118 319.212C257.353 320.702 255.696 322.321 254.176 324.061C250.862 327.854 248.167 332.121 246.466 336.877L246.314 337.309C244.856 341.518 243.79 346.675 245.76 350.808C246.325 351.992 248.148 351.607 248.465 350.454C249.18 347.84 249.143 345.104 249.743 342.453C250.368 339.697 251.407 337.081 252.764 334.605C255.39 329.817 258.946 325.726 263.147 322.268L264.405 321.244C267.683 318.551 270.694 315.695 271.359 311.238C272.071 306.47 270.163 301.927 268.936 297.414C268.081 294.269 267.802 291.254 268.726 288.412C269.855 290.257 271.395 292.008 272.613 293.569C275.039 296.681 277.489 299.774 279.931 302.872C282.436 306.05 284.879 309.277 287.205 312.588C288.246 314.069 289.275 315.559 290.301 317.05C291.073 318.171 292.149 319.291 292.99 320.435C292.785 321.046 292.801 321.751 293.171 322.252C297.631 328.284 303.976 315.697 305.631 312.517C309 306.04 311.508 299.16 314.889 292.685C318.393 285.972 322.382 279.439 326.828 273.311C329.518 269.604 332.532 266.123 334.992 262.299C340.788 267.56 348.416 271.088 355.421 274.286C363.119 277.8 371.115 280.671 379.007 283.719L381.338 284.625C394.936 289.938 408.867 295.775 420.169 305.212C433.451 316.302 441.308 331.759 447.157 347.765C453.891 366.191 459.462 385.114 464.655 404.026C467.312 413.702 469.834 423.422 472.204 433.173C474.293 441.763 476.025 450.44 478.443 458.942C473.539 458.768 467.946 460.669 463.759 461.218C444.677 463.718 425.852 467.704 407.836 474.606C405.611 475.459 404.967 477.683 405.451 479.487C404.168 479.124 402.886 478.757 401.602 478.396C403.008 476.239 402.337 472.383 402.227 469.993L402.22 469.828C402.106 466.643 401.761 463.454 401.537 460.274C401.111 454.213 400.556 448.196 399.818 442.169L399.63 440.662C398.794 434.106 398.176 427.51 397.263 420.965L397.155 420.216C397.593 418.541 398.102 416.887 398.637 415.24C400.062 410.853 402.072 406.723 403.834 402.474C404.042 401.974 403.33 401.687 402.998 401.986C400.014 404.674 397.643 408.084 395.739 411.65C395.706 411.482 395.676 411.313 395.642 411.145L395.425 410.074C394.889 407.463 394.237 404.715 392.637 402.597C392.466 402.372 392.129 402.325 391.968 402.597C390.437 405.191 390.265 408.477 390.03 411.429C389.763 414.769 389.73 418.151 389.777 421.5C389.869 428.044 390.33 434.607 390.697 441.141C391.057 447.562 391.764 453.901 392.675 460.259L392.849 461.451C393.294 464.477 393.659 467.541 394.247 470.546L394.413 471.364C394.727 472.855 394.92 474.956 395.545 476.702C379.455 472.209 363.34 467.818 347.194 463.505C335.524 460.387 323.843 457.316 312.166 454.225C311.55 453.113 310.783 452.075 309.825 451.147C306.671 448.088 302.49 446.724 298.656 449.078C298.344 449.27 298.318 449.759 298.656 449.944C299.39 450.346 300.126 450.758 300.849 451.188L293.838 449.287C288.597 447.865 283.294 446.088 277.93 445.097C268.05 440.216 257.424 436.683 247.017 433.191L245.79 432.776C240.462 430.957 234.95 428.921 229.444 427.912C225.413 427.175 220.682 428.065 219.061 432.199C217.009 433.553 215.079 435.144 213.216 436.709C211.869 437.839 210.578 439.042 209.265 440.212L209.023 440.425C207.949 441.357 207.099 441.982 206.835 443.466C206.699 444.232 207.186 445.269 208.13 445.167C211.02 444.858 213.37 441.504 215.329 439.502C216.843 437.954 218.369 436.354 219.751 434.653C220.557 435.092 221.661 435.013 222.174 434.041C224.833 429 232.116 432.493 236.147 433.689L241.92 435.399C244.806 436.256 247.692 437.117 250.572 437.993C258.489 440.399 266.366 443.093 274.355 445.303C273.64 446.09 273.739 447.489 275.096 448.021C281.349 450.477 288.209 451.748 294.706 453.433C298.807 454.498 302.906 455.57 307.004 456.647C307.706 457.787 308.212 459.076 308.424 460.577C309.206 466.094 307.698 472.46 306.229 477.797L306.008 478.593C304.8 482.884 303.024 488.144 299.326 490.853C298.423 491.513 297.274 491.973 296.116 492.077C288.877 488.347 281.64 484.618 274.397 480.895C273.056 480.205 271.816 481.139 271.515 482.25C268.962 481.83 266.414 481.169 264.093 480.38C260.194 479.055 257.15 476.527 253.495 474.778C246.422 471.396 239.199 475.55 232.867 478.709L231.407 479.427C228.568 480.807 222.66 483.456 221.297 479.684C219.979 476.034 224.146 472.133 226.837 470.491C230.045 468.532 233.78 467.484 237.405 466.611C239.475 466.112 241.57 465.706 243.678 465.409C246.069 465.072 248.538 465.122 250.84 464.346C251.984 463.961 252.16 462.142 250.84 461.841C247.296 461.034 243.067 461.915 239.369 462.815L237.436 463.292C233.711 464.207 229.949 465.356 226.555 467.181C224.088 468.509 221.483 470.527 219.782 472.996C218.304 471.622 216.465 471.669 214.55 472.178L213.51 472.468C211.793 472.944 210.402 473.272 208.731 472.942C208.508 471.725 208.281 470.508 208.039 469.291C205.658 457.325 203.048 445.406 200.167 433.55C195.198 413.1 189.448 392.875 182.965 372.857L182.315 370.856C180.82 366.277 179.616 361.288 177.206 357.082C174.926 353.105 171.274 350.814 166.935 349.6C162.01 348.223 156.835 347.503 151.812 346.573C150.691 346.366 149.568 346.169 148.446 345.965C149.394 344.252 150.101 342.307 150.739 340.815L150.85 340.556C152.22 337.431 153.449 334.249 154.637 331.051L155.526 328.647C157.67 322.857 159.884 317.162 162.899 311.746C166.072 306.047 170.283 301.388 175.531 297.531C186.232 289.668 199.564 286.313 209.942 277.91C210.368 277.566 210.937 276.004 210.505 276.221C209.942 275.096 194.183 281.287 187.094 285.331L185.656 285.899C179.895 288.185 174.044 290.674 169.057 294.376C163.497 298.505 159.119 303.631 155.827 309.727C152.584 315.737 150.509 322.463 148.221 328.882L147.609 330.592C146.686 333.157 145.732 335.714 144.64 338.209C143.772 340.191 142.154 342.453 141.418 344.716C139.406 344.367 137.394 344.016 135.379 343.679C91.7434 336.386 47.6201 332.1 3.39883 330.846C1.66879 330.797 0.773926 332.45 1.02884 333.961C5.27261 359.084 9.04395 384.293 13.1819 409.435C14.9882 420.408 16.8304 431.373 18.7158 442.332C19.6709 447.885 20.7751 453.416 21.6797 458.976C22.4099 463.467 22.9402 467.993 24.1939 472.379C25.3184 476.313 27.0441 480.105 29.8783 483.106C32.9335 486.341 37.1976 487.906 41.49 488.646C52.3864 490.524 63.563 491.29 74.5478 492.541L133.032 499.202C132.177 506.98 132.113 514.636 132.505 522.503L132.729 526.798C132.912 530.253 133.13 533.713 133.626 537.132C134.247 541.421 136.207 545.053 139.094 548.256C141.744 551.198 144.965 553.709 148.097 556.114C151.348 558.612 154.708 561.022 158.531 562.567L159.027 562.764C162.38 564.075 168.672 566.105 173.256 565.363C172.656 568.368 171.497 571.6 172.525 574.574C173.002 575.955 174.806 576.644 175.911 575.469C178.1 573.14 178.271 570.064 178.79 567.026C179.329 563.864 179.794 560.691 180.207 557.511C181.007 551.361 181.629 545.154 181.818 538.953C182.014 532.583 181.938 526.206 181.596 519.843C181.419 516.576 181.201 513.311 180.787 510.065C180.61 508.68 180.429 507.295 180.223 505.914C180.148 505.41 180.064 504.909 179.974 504.409L185.224 505.002C193.273 505.901 201.325 506.714 209.431 506.84C210.391 506.854 211.13 506.417 211.612 505.78C212.127 506.618 213.022 507.218 214.304 507.213C225.624 507.171 236.166 503.465 246.461 499.098C251.651 496.896 256.76 494.512 261.957 492.329C266.809 490.291 271.995 488.837 276.729 486.541L289.169 493.074C289.26 493.395 289.377 493.699 289.502 493.953C290.312 495.609 291.909 496.506 293.54 497.183C295.105 497.833 296.726 498.035 298.306 497.871C307.74 502.821 317.177 507.766 326.62 512.699L336.065 517.628C354.884 527.437 373.628 537.408 392.565 546.987L393.959 547.689C400.5 550.973 407.523 554.301 414.782 556.785C414.911 558.624 414.829 560.413 414.675 562.36L414.638 562.784C414.422 565.085 413.958 567.968 415.801 569.606C416.76 570.457 418.473 570.461 419.126 569.176C420.309 566.847 419.246 563.176 418.872 560.645C418.739 559.746 418.576 558.821 418.337 557.923C426.658 560.403 435.232 561.606 443.7 560.213C451.944 558.859 458.33 553.659 463.478 547.298C468.911 540.586 472.772 532.764 474.843 524.379C477.2 514.838 477.354 504.984 477.299 495.211C477.24 484.804 476.856 474.345 475.591 464.008C476.977 463.681 478.513 463.399 479.913 463.497C480.606 464.607 481.951 465.075 483.166 464.931C485.809 467.849 479.106 470.831 476.963 471.578C476.22 471.837 476.299 473.047 477.157 473.01L477.698 472.985C481.008 472.808 484.428 472.243 486.374 469.163C487.934 466.694 487.465 463.77 485.606 461.757C484.378 450.133 481.442 438.814 478.71 427.474C476.029 416.345 473.047 405.287 469.886 394.284L468.47 389.36C463.493 372.108 458.292 354.718 451.428 338.152C448 329.88 444.052 321.76 438.699 314.548C433.71 307.824 427.82 302.071 421.049 297.157C408.427 287.996 393.617 282.461 379.064 277.187L378.413 276.951C370.872 274.22 363.349 271.457 355.894 268.498C349.3 265.881 342.984 262.563 336.421 259.907C336.634 259.519 336.84 259.128 337.038 258.731L337.16 258.834C337.181 258.85 337.202 258.866 337.224 258.881C337.884 259.339 338.855 259.114 339.399 258.6C340.935 257.15 340.415 255.539 339.39 254.035L339.256 253.844C338.003 252.085 336.885 250.226 335.727 248.404L335.003 247.265C333.061 244.221 331.02 241.157 328.43 238.641C327.231 237.476 325.918 236.603 324.527 235.954C324.646 235.702 323.603 235.187 323.307 235.446C318.899 233.831 313.829 234.169 309.024 234.615M135.862 499.524L141.989 500.222C148.731 500.99 155.475 501.732 162.22 502.468L176.871 504.062C176.908 504.898 177.009 505.715 177.028 506.347C177.123 509.602 177.195 512.859 177.262 516.116C177.398 522.643 177.249 529.177 176.82 535.692C176.404 542.005 175.856 548.319 175.005 554.589L174.83 555.842L174.729 556.501C174.034 556.568 173.352 556.899 172.784 557.578C171.545 559.059 167.058 557.619 165.305 556.995C162.424 555.969 159.71 554.234 157.206 552.495C154.76 550.796 152.559 548.816 150.443 546.73L148.711 545.016C146.989 543.302 145.265 541.477 144.21 539.322C142.779 536.399 142.594 532.812 142.174 529.629C141.658 525.714 141.043 521.799 140.392 517.903M313.749 458.427L314.384 458.594C337.473 464.736 360.527 471.06 383.687 476.93C395.148 479.836 406.664 482.531 418.139 485.381L419.997 485.846C429.049 488.137 438.211 490.894 445.143 497.467C445.399 497.709 445.771 497.338 445.53 497.08C438.058 489.118 427.432 485.747 417.23 482.825C415.344 482.285 413.456 481.758 411.569 481.22C425.445 476.268 439.539 471.96 453.959 468.887C457.672 468.096 461.428 467.515 465.138 466.721C467.726 466.166 470.252 465.365 472.813 464.7L474.826 464.193L474.853 470.565C474.887 479.59 474.871 488.607 474.411 497.631L474.324 499.302C473.787 509.344 472.95 519.594 469.39 529.063C466.498 536.757 461.887 544.006 455.858 549.61C452.807 552.446 449.527 554.653 445.473 555.743C441.708 556.755 437.764 556.873 433.894 556.603C415.332 555.307 398.808 545.212 382.684 536.853C356.31 523.182 329.933 509.518 303.532 495.9C304.246 495.411 304.918 494.848 305.529 494.216C309.069 490.555 310.937 485.544 312.163 480.691C313.469 475.526 314.25 469.99 314.34 464.657M280.156 501.177C279.923 501.052 279.653 501.209 279.642 501.472C279.561 503.491 280.675 505.482 281.508 507.3L281.596 507.495C282.607 509.747 283.715 511.97 284.86 514.157C287.15 518.528 289.529 522.852 292.012 527.115C297.006 535.69 302.555 543.905 309.113 551.371C310.595 553.058 313.031 550.896 312.081 549.079C307.497 540.324 302.153 532.058 296.653 523.864C293.899 519.761 291.148 515.654 288.367 511.57C287.207 509.865 286.032 508.167 284.825 506.495L284.097 505.495M6.32281 335.861C29.4922 336.561 52.6344 338.074 75.6936 340.445C97.1388 342.649 118.505 345.584 139.751 349.242C144.189 350.006 148.621 350.802 153.048 351.629L155.703 352.128C160.13 352.968 165.539 353.315 169.481 355.683C173.637 358.179 174.76 363.396 176.143 367.698C177.768 372.758 179.353 377.832 180.894 382.918C187.016 403.113 192.608 423.482 197.597 443.987C200.073 454.165 202.271 464.399 204.586 474.614C206.643 483.69 208.912 492.663 211.283 501.648C210.991 501.421 210.632 501.247 210.2 501.155C198.426 498.647 186.408 497.557 174.458 496.172L173.302 496.037C160.94 494.581 148.578 493.137 136.209 491.744L54.3149 482.524C49.4851 481.981 44.311 481.907 39.6108 480.609C31.6196 478.402 29.7465 469.458 28.4057 462.335L28.3652 462.119C24.3229 440.598 21.1052 418.889 17.3353 397.312M209.377 476.63C212.557 476.42 216.908 473.504 219.321 473.713C218.054 475.841 217.483 478.267 218.212 480.858C220.244 488.068 229.429 484.337 233.853 482.135C237.481 480.328 240.984 478.117 245 477.271C249.549 476.313 252.632 478.124 256.475 480.212C259.633 481.927 263.071 483.158 266.607 483.795C268.487 484.135 270.273 484.171 272.055 484.038C272.162 484.126 272.283 484.207 272.421 484.28L273.364 484.775C269.101 484.97 264.758 486.288 260.79 487.494C256.678 488.743 252.641 490.249 248.626 491.789L244.677 493.309C234.934 497.044 224.848 500.591 214.304 500.56C213.546 500.558 212.925 500.768 212.436 501.111M227.166 454.038C224.025 453.653 221.126 454.065 218.616 456.113C215.589 458.581 213.555 462.675 209.204 462.944C207.935 463.022 207.64 464.808 208.901 465.182C212.14 466.142 214.763 464.387 216.97 462.109L218.454 460.557C220.634 458.296 222.646 456.549 226.346 456.684C230.31 456.829 234.279 457.745 238.217 458.212C242.677 458.74 247.137 459.19 251.611 459.578C251.819 459.596 251.854 459.268 251.66 459.22L246.648 457.972M230.198 441.182L229.68 441.13C225.119 440.687 220.947 440.669 216.874 443.126L216.093 443.599C212.42 445.834 208.422 448.467 206.126 452.085C205.75 452.678 206.371 453.374 207 453.223C211.414 452.163 214.641 448.92 218.353 446.494C222.519 443.77 226.823 444.22 231.573 444.643C236.172 445.052 240.769 445.615 245.323 446.383C249.602 447.103 253.895 448.241 258.217 448.603L258.216 448.595C258.71 448.594 258.992 447.851 258.488 447.6C254.102 445.407 249.021 444.369 244.25 443.367M386.384 317.012C386.39 316.65 385.882 316.515 385.705 316.828C382.737 322.055 381.186 328.463 379.605 334.222C377.949 340.254 376.613 346.348 375.412 352.487C372.98 364.917 371.684 377.276 371.596 389.946C371.584 391.754 374.527 392.236 374.815 390.382C376.727 378.059 378.558 365.722 380.484 353.402C381.454 347.206 382.581 341.033 383.661 334.855M357.004 326.116C357.222 325.396 356.174 325.154 355.906 325.814C349.951 340.45 347.934 357.037 351.757 372.479C352.342 374.841 355.798 373.818 355.357 371.485M280.18 313.111C280.21 312.571 279.51 312.486 279.247 312.858C276.425 316.838 275.254 322.17 270.303 324.227C267.831 325.254 265.049 325.075 262.865 326.81C261.405 327.971 260.285 329.802 261.381 331.56C261.734 332.127 262.724 332.412 263.204 331.795C263.904 330.896 264.274 329.82 265.226 329.146C266.567 328.196 268.376 328.137 269.915 327.69C271.904 327.113 273.658 326.102 275.095 324.6M233.033 246.715C232.742 246.567 232.463 246.662 232.277 246.914C232.011 247.272 232.044 247.621 232.369 247.867C231.935 248.757 231.421 250.984 231.348 251.308C231.051 252.623 230.735 253.929 230.404 255.235C229.737 257.868 229.152 260.522 228.485 263.156C227.777 265.949 226.933 268.711 225.995 271.434C225.934 271.61 225.868 271.79 225.798 271.973L225.691 272.249L225.665 272.207C225.474 271.905 225.077 272.116 225.124 272.435C225.168 272.725 225.226 273.015 225.276 273.305L225.177 273.566C224.563 275.22 224.143 276.963 225.269 278.422C225.691 278.968 226.155 279.291 226.732 279.388C227.659 282.445 228.821 285.446 230.066 288.328L230.431 289.169C232.261 293.374 234.214 297.524 237.128 301.104C240.311 305.012 244.688 307.681 247.46 311.964C248.75 313.956 249.647 316.051 250.375 318.3L250.649 319.154C251.166 320.746 251.763 322.288 253.254 323.221C253.73 323.519 254.442 323.424 254.826 323.018C257.883 319.78 254.683 313.734 252.839 310.599C250.276 306.239 246.567 303.45 242.853 300.161C238.85 296.616 236.296 291.874 233.826 287.202C232.313 284.339 230.852 281.415 229.315 278.54C230.921 277.119 231.436 274.295 231.98 272.332L232.029 272.156C232.929 269.013 233.644 265.788 234.095 262.549C234.53 259.435 234.711 256.365 234.596 253.233L234.563 252.436M227.059 261.538C227.414 261.051 226.827 260.499 226.34 260.601C223.379 261.214 220.484 263.008 217.826 264.459L217.543 264.613C215.421 265.758 213.287 267.161 212.173 269.386C210.961 271.804 211.061 274.59 211.226 277.218L211.242 277.464C211.444 280.615 211.477 283.889 212.143 286.984C212.484 288.568 213.917 289.014 215.142 288.64C216.6 293.248 220.694 296.643 223.685 300.279C227.499 304.914 226.781 311.173 226.383 316.756C226.221 319.017 229.03 319.659 230.476 318.453L233.81 315.681C234.365 315.219 234.919 314.755 235.472 314.29C235.946 313.891 236.415 313.489 236.881 313.082L237.576 312.467C237.884 312.191 239.244 310.67 239.642 310.607C240.605 310.454 242.893 312.995 243.677 313.792L243.776 313.892C245.25 315.339 246.582 316.896 247.822 318.547C248.051 318.85 248.497 318.599 248.334 318.248C247.222 315.864 245.93 313.585 244.395 311.452L244.085 311.027C243.064 309.649 241.693 307.217 239.89 306.81C237.69 306.313 235.492 308.523 233.891 309.749L233.789 309.826C233.027 310.398 232.274 310.981 231.523 311.567C231.601 307.41 231.077 303.21 228.933 299.628C227.422 297.102 225.157 295.231 223.219 293.06C221.062 290.642 219.935 287.671 217.982 285.153C217.731 284.83 217.384 284.655 217.009 284.6C216.934 282.576 216.636 280.532 216.406 278.53L216.339 277.93C216.107 275.755 215.557 273.098 216.621 271.06C217.626 269.136 219.932 267.778 221.639 266.472L223.033 265.39M323.159 238.536C324.05 239.052 324.883 239.694 325.639 240.497C328.019 243.024 329.721 246.169 331.376 249.195C332.268 250.824 333.127 252.472 334.026 254.097C334.417 254.805 334.819 255.504 335.225 256.203C335.413 256.524 335.972 257.164 336.248 257.558C335.941 257.99 335.623 258.415 335.299 258.835C335.175 258.995 326.638 268.305 323.663 271.948C319.106 277.53 315.033 283.425 311.551 289.734C308.142 295.913 305.546 302.456 302.388 308.754C300.807 311.908 299.041 315.039 296.79 317.768C296.704 317.874 296.612 317.975 296.523 318.08C295.664 315.757 293.463 313.269 292.382 311.841L292.281 311.706C289.83 308.398 287.241 305.189 284.595 302.035C282.179 299.154 279.702 296.336 277.164 293.564L276.21 292.527C274.442 290.615 272.196 287.754 269.608 286.389C269.885 285.894 270.206 285.404 270.575 284.921C273 281.749 276.428 279.446 279.81 277.369L282.004 276.033C290.272 270.989 298.411 265.711 305.589 259.157C309.386 255.689 313.131 252.056 316.324 248.011L317.452 246.581M309.363 236.039C313.235 236.364 317.416 236.286 320.994 237.549C317.813 240.56 314.79 243.811 311.684 246.872C311.407 244.801 310.842 242.756 310.363 240.737" fill="black"/>
<g clip-path="url(#clip0_919_13334)">
<path d="M82.831 401.28L108.903 404.037C111.076 404.267 113.182 406.492 113.606 409.007L118.703 439.189C119.128 441.704 117.711 443.557 115.538 443.327L89.466 440.57C87.2932 440.34 85.1875 438.115 84.7627 435.599L79.6659 405.418C79.2411 402.903 80.6582 401.05 82.831 401.28Z" fill="black"/>
<path fill-rule="evenodd" clip-rule="evenodd" d="M107.553 426.394L106.675 421.197L102.186 420.722L103.064 425.919C103.427 428.072 102.214 429.658 100.355 429.461C98.4952 429.264 96.693 427.36 96.3295 425.207L95.4519 420.01L90.9625 419.535L91.8402 424.732C92.6884 429.755 96.8934 434.199 101.232 434.658C105.571 435.117 108.401 431.417 107.553 426.394Z" fill="white"/>
<path d="M100.431 410.329L104.92 410.803L105.798 416L101.308 415.526L100.431 410.329Z" fill="white"/>
<path d="M89.1976 409.098L93.687 409.573L94.5647 414.77L90.0753 414.295L89.1976 409.098Z" fill="white"/>
</g>
<path fill-rule="evenodd" clip-rule="evenodd" d="M198.69 81.7966C202.127 69.4026 201.635 68.0621 206.757 56.2237C223.742 21.831 337.246 33.3466 348.83 67.6781C355.114 86.3031 353.638 112.533 355.274 128.684C355.774 137.246 356.266 145.81 356.775 154.372C356.951 157.329 357.129 160.286 357.311 163.242C357.664 168.998 358.007 174.753 358.327 180.511C360.461 198.247 351.558 200.051 336.287 199.526C332.249 209.278 325.71 217.419 317.633 224.042C319.583 229.351 312.513 232.1 308.699 234.223C287.95 245.822 262.462 252.897 239.48 246.375C232.727 244.458 204.839 237.821 196.264 217.275C192.054 207.186 183.494 154.935 194.782 107.934L198.69 81.7966Z" fill="white"/>
<path fill-rule="evenodd" clip-rule="evenodd" d="M271.24 0.954226C268.031 0.385957 264.442 0.604709 262.602 3.7596C262.204 4.43968 261.951 5.12559 261.83 5.80129C253.061 3.82766 243.957 3.61377 234.998 4.90683C232.328 5.29038 231.39 8.85361 232.565 10.8909C232.687 11.1 232.808 11.3036 232.939 11.5034C230.133 11.7314 227.331 12.2175 224.554 12.9666C222.577 13.5014 220.732 16.0632 221.611 18.1632C221.689 18.3479 221.771 18.5327 221.854 18.7169C217.489 19.4514 213.318 21.1674 209.671 23.9383C209.234 24.264 208.831 24.6869 208.496 25.1681C200.344 24.2489 191.948 25.9362 184.67 29.8737C182.631 30.9767 181.645 34.1564 183.029 36.1398C183.461 36.7571 183.912 37.3453 184.398 37.9141C181.232 39.0856 178.43 40.981 176.542 44.0683C174.488 47.4177 173.857 51.7295 174.959 55.4143C172.657 57.7622 171.453 61.359 172.274 64.966C173.021 68.2575 175.036 70.3473 177.62 71.6019C177.095 73.2061 177.518 75.029 178.707 76.2682C180.533 78.1689 182.718 79.6272 185.097 80.5854C185.102 81.2027 185.257 81.8395 185.568 82.4326C187.714 86.5544 192.342 89.2917 197.047 89.7049C195.464 96.3593 194.163 103.097 192.9 109.796C190.656 121.711 188.919 133.742 187.86 145.822L187.732 147.315C186.007 167.756 185.606 189.169 189.759 209.333C192.405 222.171 200.426 232.992 211.128 240.323C222.009 247.78 235.304 251.489 248.385 252.077C255.057 252.374 261.791 251.809 268.326 250.439C271.43 249.788 274.425 248.864 277.373 247.688C280.543 246.419 283.155 244.547 285.836 242.443C287.23 241.349 286.433 238.767 284.782 238.441C283.603 238.204 282.437 237.946 281.262 237.732C280.184 237.532 279.009 238.612 279.232 239.608L276.959 240.194C276.201 240.39 275.444 240.588 274.688 240.791L273.556 241.1C270.337 242 267.045 242.758 263.743 243.298C257.023 244.392 250.031 244.416 243.277 243.565C231.92 242.141 220.32 238.087 211.487 230.615C207.156 226.95 203.548 222.609 200.931 217.568C197.605 211.165 196.6 204.034 195.765 196.952C193.352 176.472 194.095 155.962 195.969 135.478C196.901 125.289 198.173 115.119 199.523 104.974C200.218 99.7723 200.965 94.5612 201.581 89.3403C202.956 88.9709 204.267 88.3584 205.442 87.4688C206.238 86.866 206.705 86.1655 206.909 85.4514C208.095 85.2273 209.232 84.5755 210.052 83.4734L210.157 83.327C212.308 80.2106 216.027 78.427 219.47 77.1291C221.558 76.3416 223.685 75.6557 225.802 74.9561C228.006 74.2221 230.337 73.1381 232.653 72.8561C235.28 72.545 237.926 73.3374 240.577 73.0554C242.986 72.7929 245.107 71.9271 246.84 70.1971C247.447 69.5943 247.972 68.8991 248.39 68.1505C256.474 69.8806 264.967 67.6984 273.367 68.2234C278.893 68.5734 283.768 71.9957 289.352 71.9033C290.876 71.879 292.352 71.3443 293.425 70.4061C298.693 71.4123 304.049 73.3466 309.002 75.0091C313.897 76.6527 318.606 78.8645 323.443 80.6583C323.447 80.6631 323.447 80.6631 323.447 80.668C324.079 82.7145 325.963 83.5988 327.968 83.2395C334.528 82.068 340.054 77.9258 346.439 76.4096C348.196 82.8215 350.085 89.1502 351.376 95.689C352.683 102.286 353.601 108.97 354.208 115.668C354.819 122.391 355.111 129.182 355.125 135.93C355.13 139.371 355.043 142.822 354.926 146.264C354.832 149.147 354.283 152.793 355.324 155.566L355.417 155.802H355.421C355.548 156.206 356.116 156.449 356.436 156.074C358.393 153.799 358.859 150.178 359.403 147.319C360.063 143.848 360.486 140.344 360.825 136.828C361.506 129.775 361.656 122.751 361.297 115.668C360.593 101.727 358.359 87.0016 353.591 73.8235C355.057 73.9591 355.713 71.7964 355.81 70.5762C355.996 68.1241 355.612 65.522 355.196 63.0627L354.762 60.5168C354.349 58.1136 353.913 55.7732 353.096 53.4358C351.134 47.8255 348.313 42.5565 344.797 37.7683C337.626 28.0022 327.686 20.6079 316.368 16.3451C315.659 16.0778 314.989 16.0826 314.397 16.2863C304.098 10.7305 293.027 6.45268 281.782 3.4096C278.305 2.47139 274.785 1.58666 271.24 0.954226ZM356.766 157.693C352.09 154.757 342.442 153.989 339.835 160.245C339.728 160.498 340.029 160.721 340.253 160.663L340.891 160.502C343.342 159.894 345.459 159.544 347.973 160.552C350.182 161.436 352.328 162.821 353.79 164.727C357.245 169.233 357.619 175.355 357.297 180.821L357.281 181.085C356.98 185.883 355.752 191.726 351.066 194.098C348.692 195.299 346.123 195.211 343.545 195.192C340.607 195.172 337.606 195.493 334.8 196.398C333.231 196.903 332.493 198.984 333.795 200.204C334.227 200.608 334.678 200.986 335.154 201.327C333.731 202.844 332.333 204.38 330.978 205.999C328.682 208.745 326.239 211.399 323.69 213.912C321.223 216.338 318.611 218.686 315.795 220.698C312.833 222.809 309.288 224.291 306.725 226.877C305.054 228.559 305.341 230.907 306.725 232.608C310.16 236.837 316.008 232.391 319.292 229.891L319.689 229.589C323.103 227.003 326.346 224.213 329.109 220.927C331.925 217.573 334.363 214.005 336.164 210.004C337.223 207.651 337.898 205.43 338.262 203.106C344.166 205.673 351.61 204.856 356.902 201.244C363.928 196.451 365.9 187.653 365.924 179.622L365.924 179.145C365.872 171.339 363.823 162.123 356.766 157.693ZM343.446 169.007L343.229 169.01C340.629 169.066 338.31 170.004 336.101 171.296L335.873 171.431C333.727 172.709 330.648 173.734 329.512 176.127C328.832 177.57 328.881 179.223 330.066 180.418C332.212 182.587 335.45 182.227 337.771 180.535C339.505 179.267 340.646 177.366 342.345 176.082C345.54 173.662 350.58 173.798 353.906 175.893C354.11 176.024 354.309 175.777 354.217 175.582C352.175 171.398 348.127 168.991 343.446 169.007Z" fill="black"/>
<path fill-rule="evenodd" clip-rule="evenodd" d="M227.034 215.163C230.611 216.2 234.45 216.293 238.097 215.221C241.404 214.25 244.799 212.112 247.233 209.282C249.395 206.769 250.796 203.714 250.741 200.454C250.734 200.081 250.601 199.771 250.397 199.529C250.176 199.27 249.869 199.091 249.539 199.014C249.2 198.934 248.842 198.962 248.537 199.101C248.261 199.227 248.024 199.44 247.876 199.752C247.502 200.244 247.13 200.728 246.756 201.2C243.748 204.918 240.835 207.696 236.313 208.693C233.859 209.234 231.409 208.994 229.16 208.169C226.753 207.285 224.577 205.732 222.872 203.745C222.102 202.847 221.192 202.48 220.302 202.474C219.294 202.467 218.298 202.936 217.547 203.686C216.81 204.422 216.316 205.424 216.271 206.471C216.231 207.39 216.531 208.35 217.328 209.207C219.952 212.028 223.354 214.095 227.034 215.163ZM227.145 168.597C223.478 170.828 217.891 176.031 221.836 181.563C226.479 186.44 233.163 180.848 236.458 178.319C239.512 176.358 242.944 181.4 240.11 183.688C216.306 201.332 206.646 169.18 225.29 165.973C227.343 165.62 228.105 167.906 227.145 168.597ZM261.444 158.779C262.623 158.024 264.009 157.765 265.545 158.465C266.746 159.011 268.852 160.834 270.317 163.229C271.32 164.868 272.031 166.79 271.883 168.793C271.848 169.258 272.02 169.601 272.291 169.855C272.505 170.055 272.813 170.202 273.176 170.248C273.484 170.287 273.829 170.252 274.109 170.164C274.643 169.998 274.925 169.651 275.031 169.369C276.057 166.64 275.615 163.596 274.465 160.849C272.913 157.143 270.095 154.038 268.248 153.037C265.088 151.323 261.361 151.244 258.196 152.99C255.503 154.476 253.818 156.875 252.143 159.32C251.787 159.84 251.434 160.356 251.068 160.862C250.336 161.878 250.263 162.886 250.547 163.749C250.861 164.706 251.662 165.514 252.663 165.937C253.589 166.327 254.663 166.382 255.614 165.981C256.416 165.642 257.153 164.981 257.62 163.859C258.405 161.971 259.713 159.887 261.444 158.779ZM201.591 162.981C202.398 163.402 203.03 163.529 203.925 163.26C204.42 163.111 204.91 162.826 205.293 162.442C205.672 162.062 205.946 161.59 206.053 161.065C206.315 159.771 207.022 158.56 208.03 157.77C208.891 157.095 209.979 156.737 211.185 156.939C212.486 157.156 213.726 157.992 214.581 158.977C214.866 159.307 215.09 159.681 215.315 160.053C215.735 160.749 216.144 161.395 216.725 161.906C216.945 162.1 217.276 162.235 217.597 162.235C217.728 162.235 217.86 162.214 217.986 162.174C219.282 160.873 219.531 159.885 219.489 158.906C219.445 157.879 219.041 156.839 218.387 155.868C216.854 153.592 213.943 151.726 211.979 151.304C209.288 150.725 206.617 151.42 204.475 152.924C202.271 154.472 200.637 156.875 200.128 159.583C200.006 160.235 200.058 160.939 200.306 161.55C200.548 162.146 200.971 162.657 201.591 162.981ZM255.511 134.513C257.125 136.088 259.036 136.332 260.969 136.549C262.043 136.67 262.901 136.768 263.745 136.959C266.064 137.483 268.356 138.273 270.448 139.409C272.634 140.598 275.017 142.031 276.731 143.867C277.138 144.304 277.523 144.763 277.907 145.222C278.258 145.641 278.596 146.044 278.952 146.433C279.361 146.88 279.75 147.348 280.136 147.815C280.375 148.209 280.422 148.306 280.47 148.407C280.543 148.559 280.627 148.728 280.723 148.91C280.855 149.159 281.009 149.432 281.171 149.68C281.44 150.132 281.584 150.256 281.709 150.312C281.916 150.404 282.112 150.45 282.302 150.425C282.481 150.402 282.649 150.316 282.815 150.176C283.644 149.475 283.888 148.324 283.863 147.103C283.825 145.249 283.142 143.197 282.513 141.936C281.049 139.005 279.019 135.957 276.578 133.77C273.793 131.273 270.746 129.382 267.246 128.079C265.071 127.27 262.553 126.526 260.183 126.62C258.478 126.688 256.85 127.195 255.505 128.463C254.679 129.241 254.283 130.348 254.283 131.454C254.283 132.582 254.694 133.717 255.511 134.513ZM198.308 148.934C198.411 149.102 198.553 149.218 198.711 149.288C198.877 149.361 199.062 149.382 199.239 149.352C199.416 149.322 199.584 149.242 199.717 149.119C199.845 149.002 199.942 148.846 199.986 148.655C201.058 143.942 203.139 140.435 207.581 138.174C209.767 137.061 212.28 136.355 214.658 135.791C215.35 135.627 216.08 135.521 216.816 135.414C219.121 135.077 221.443 134.691 222.946 132.825C223.851 131.701 224.231 130.264 224.017 128.95C223.814 127.712 223.092 126.578 221.779 125.898C218.51 124.205 214.447 125.866 211.146 127.28C210.901 127.385 210.661 127.488 210.426 127.588C207.198 128.952 204.253 130.753 201.833 133.328C199.912 135.371 198.133 138.391 197.416 141.499C196.82 144.084 196.96 146.722 198.308 148.934Z" fill="black"/>
<path fill-rule="evenodd" clip-rule="evenodd" d="M270.403 218.582C266.471 209.362 257.891 202.585 248.013 200.108C240.758 198.293 233.145 198.351 225.75 199.071C221.876 199.446 217.72 199.753 214.069 201.193C210.951 202.424 208.41 204.75 206.499 207.481C204.225 210.716 202.678 214.42 201.592 218.216C201.438 218.755 201.293 219.299 201.157 219.845C201.63 222.709 202.632 225.147 205.282 226.947C207.868 228.705 210.953 229.425 214.028 229.68C214.33 229.535 214.621 229.386 214.888 229.233C219.681 226.487 223.054 219.996 229.103 220.874C234.501 221.659 238.054 228.459 241.264 232.446C251.569 233.648 261.865 230.548 270.249 224.649C270.675 222.63 270.7 220.594 270.403 218.582ZM194.154 211.588C194.978 209.272 196.016 207.029 197.247 204.916C201.315 197.928 207.561 192.361 214.975 189.178C232.515 181.659 255.209 186.959 269.373 199.29C274.212 203.506 279.104 209.7 280.583 216.363C281.025 216.451 281.442 216.681 281.786 217.005C292.019 210.554 302.558 204.348 310.804 195.407C316.793 188.91 320.958 181.222 323.509 172.773C323.718 172.078 324.838 172.18 324.804 172.949C324.794 173.129 324.784 173.309 324.775 173.489C324.881 173.158 325.386 173.328 325.424 173.649C326.797 183.913 328.513 194.794 326.933 205.11C325.987 211.266 323.194 215.773 319.46 220.639C315.459 225.856 310.93 230.707 306.299 235.36C303.361 238.314 300.291 241.72 296.693 243.886C292.508 246.401 287.761 248.314 283.295 250.256C278.751 252.236 274.14 254.066 269.441 255.652C260.048 258.835 250.34 261.035 240.463 261.998C232.554 262.767 223.515 263.605 215.936 260.626C210.126 258.344 205.437 254.217 201.718 249.253C197.669 243.847 194.468 237.688 192.699 231.194C190.86 224.448 193.766 212.675 194.154 211.588Z" fill="black"/>
<defs>
<filter id="filter0_d_919_13334" x="58.8271" y="131.827" width="499.946" height="499.946" filterUnits="userSpaceOnUse" color-interpolation-filters="sRGB">
<feFlood flood-opacity="0" result="BackgroundImageFix"/>
<feColorMatrix in="SourceAlpha" type="matrix" values="0 0 0 0 0 0 0 0 0 0 0 0 0 0 0 0 0 0 127 0" result="hardAlpha"/>
<feOffset dx="23.773" dy="23.773"/>
<feComposite in2="hardAlpha" operator="out"/>
<feColorMatrix type="matrix" values="0 0 0 0 0.447059 0 0 0 0 0.313726 0 0 0 0 0.972549 0 0 0 1 0"/>
<feBlend mode="normal" in2="BackgroundImageFix" result="effect1_dropShadow_919_13334"/>
<feBlend mode="normal" in="SourceGraphic" in2="effect1_dropShadow_919_13334" result="shape"/>
</filter>
<clipPath id="clip0_919_13334">
<rect width="34.1343" height="39.8515" fill="white" transform="matrix(-0.994454 -0.10517 0.166515 0.986039 112.837 404.453)"/>
</clipPath>
</defs>
</svg>
