<svg width="480" height="392" viewBox="0 0 480 392" fill="none" xmlns="http://www.w3.org/2000/svg">
<g clip-path="url(#clip0_2122_4053)">
<path d="M383.196 71.7215C380.703 99.3142 373.599 128.409 362.458 156.482C348.681 191.198 329.859 221.775 308.024 244.909L306.812 243.847C328.541 220.825 347.278 190.383 360.998 155.811C373.397 124.568 380.772 92.0562 382.335 61.8032L383.883 62.0636C383.719 65.2587 383.49 68.478 383.196 71.7215Z" fill="#EAEDF2"/>
<path d="M393.126 231.975C362.458 280.977 325.252 315.989 288.36 330.561L287.613 329.187C324.25 314.716 361.239 279.883 391.767 231.104L393.126 231.975Z" fill="#EAEDF2"/>
<path d="M382.45 106.075C379.957 133.668 372.853 162.763 361.712 190.836C347.935 225.552 329.112 256.129 307.278 279.263L306.066 278.201C327.795 255.179 346.532 224.737 360.252 190.165C372.651 158.922 380.026 126.41 381.589 96.1572L383.137 96.4176C382.973 99.6127 382.744 102.832 382.45 106.075Z" fill="#EAEDF2"/>
<path d="M38.1657 176.915H18.0439C17.614 176.916 17.1895 176.819 16.8022 176.631C16.4149 176.444 16.0748 176.171 15.8076 175.833C15.5435 175.503 15.3573 175.118 15.2627 174.706C15.1682 174.293 15.1678 173.865 15.2617 173.453C17.1781 164.96 17.0577 156.131 14.9104 147.695C14.7746 147.139 14.8075 146.555 15.0047 146.019C15.202 145.482 15.5547 145.017 16.0173 144.684C26.364 137.21 34.5123 137.427 40.2361 145.329C40.4941 145.69 40.6655 146.105 40.7369 146.543C42.2662 155.777 42.3509 165.194 40.9877 174.455C40.893 175.138 40.5549 175.764 40.036 176.216C39.5172 176.668 38.8527 176.917 38.1657 176.915Z" fill="#EAEDF2"/>
<path d="M31.9276 156.677H25.0057C24.623 156.677 24.2558 156.524 23.9852 156.252C23.7145 155.98 23.5625 155.612 23.5625 155.227C23.5625 154.843 23.7145 154.474 23.9852 154.202C24.2558 153.931 24.623 153.778 25.0057 153.778H31.9276C32.3099 153.779 32.6762 153.932 32.9462 154.203C33.2162 154.475 33.3678 154.843 33.3678 155.227C33.3678 155.611 33.2162 155.979 32.9462 156.251C32.6762 156.523 32.3099 156.676 31.9276 156.677Z" fill="white"/>
<path d="M31.9276 161.76H25.0057C24.623 161.76 24.2558 161.608 23.9852 161.336C23.7145 161.064 23.5625 160.695 23.5625 160.311C23.5625 159.926 23.7145 159.558 23.9852 159.286C24.2558 159.014 24.623 158.861 25.0057 158.861H31.9276C32.3099 158.862 32.6762 159.015 32.9462 159.287C33.2162 159.559 33.3678 159.927 33.3678 160.311C33.3678 160.695 33.2162 161.063 32.9462 161.335C32.6762 161.606 32.3099 161.76 31.9276 161.76Z" fill="white"/>
<path d="M31.9276 166.844H25.0057C24.623 166.844 24.2558 166.691 23.9852 166.419C23.7145 166.147 23.5625 165.779 23.5625 165.394C23.5625 165.01 23.7145 164.641 23.9852 164.369C24.2558 164.098 24.623 163.945 25.0057 163.945H31.9276C32.3099 163.946 32.6762 164.099 32.9462 164.37C33.2162 164.642 33.3678 165.01 33.3678 165.394C33.3678 165.778 33.2162 166.146 32.9462 166.418C32.6762 166.69 32.3099 166.843 31.9276 166.844Z" fill="white"/>
<path d="M403.861 267.146H383.739C383.309 267.147 382.885 267.05 382.497 266.863C382.11 266.675 381.77 266.402 381.503 266.064C381.239 265.735 381.053 265.349 380.958 264.937C380.863 264.525 380.863 264.096 380.957 263.684C382.873 255.191 382.753 246.363 380.606 237.926C380.47 237.37 380.503 236.787 380.7 236.25C380.897 235.714 381.25 235.249 381.713 234.915C392.059 227.441 400.208 227.658 405.931 235.561C406.189 235.921 406.361 236.336 406.432 236.774C407.962 246.008 408.046 255.426 406.683 264.686C406.588 265.369 406.25 265.995 405.731 266.448C405.212 266.9 404.548 267.148 403.861 267.146Z" fill="#EAEDF2"/>
<path d="M397.62 246.908H390.698C390.316 246.907 389.949 246.754 389.679 246.483C389.409 246.211 389.258 245.843 389.258 245.459C389.258 245.075 389.409 244.707 389.679 244.435C389.949 244.163 390.316 244.01 390.698 244.009H397.62C398.003 244.009 398.37 244.162 398.64 244.434C398.911 244.706 399.063 245.074 399.063 245.459C399.063 245.843 398.911 246.212 398.64 246.484C398.37 246.756 398.003 246.908 397.62 246.908Z" fill="white"/>
<path d="M397.62 251.992H390.698C390.316 251.991 389.949 251.838 389.679 251.566C389.409 251.294 389.258 250.926 389.258 250.542C389.258 250.158 389.409 249.79 389.679 249.518C389.949 249.247 390.316 249.094 390.698 249.093H397.62C398.003 249.093 398.37 249.246 398.64 249.517C398.911 249.789 399.063 250.158 399.063 250.542C399.063 250.927 398.911 251.295 398.64 251.567C398.37 251.839 398.003 251.992 397.62 251.992Z" fill="white"/>
<path d="M397.62 257.075H390.698C390.316 257.074 389.949 256.921 389.679 256.65C389.409 256.378 389.258 256.01 389.258 255.626C389.258 255.242 389.409 254.874 389.679 254.602C389.949 254.33 390.316 254.177 390.698 254.176H397.62C398.003 254.176 398.37 254.329 398.64 254.601C398.911 254.873 399.063 255.241 399.063 255.626C399.063 256.01 398.911 256.379 398.64 256.651C398.37 256.923 398.003 257.075 397.62 257.075Z" fill="white"/>
<path d="M480 390.744C480 390.843 479.981 390.942 479.943 391.034C479.906 391.125 479.85 391.209 479.78 391.279C479.71 391.349 479.627 391.405 479.536 391.443C479.444 391.481 479.346 391.5 479.247 391.5H0.752898C0.553217 391.5 0.361722 391.42 0.220527 391.279C0.0793314 391.137 0 390.944 0 390.744C0 390.543 0.0793314 390.351 0.220527 390.209C0.361722 390.067 0.553217 389.988 0.752898 389.988H479.247C479.346 389.987 479.444 390.007 479.536 390.045C479.627 390.083 479.71 390.138 479.78 390.208C479.85 390.279 479.906 390.362 479.943 390.454C479.981 390.546 480 390.644 480 390.744Z" fill="#CBD2E0"/>
<path d="M126.225 344.446L124.97 326.915C116.749 322.788 107.649 320.739 98.4609 320.945C111.388 330.98 110.352 351.038 119.305 364.764C122.13 369.024 125.873 372.591 130.257 375.2C134.641 377.809 139.553 379.394 144.63 379.838L155.388 386.054C156.619 377.885 156.071 369.545 153.784 361.608C151.496 353.672 147.523 346.328 142.137 340.083C139.081 336.609 135.602 333.536 131.781 330.935C129.43 337.716 126.225 344.446 126.225 344.446Z" fill="#EAEDF2"/>
<path d="M353.776 346.988L355.031 329.457C363.252 325.329 372.352 323.28 381.54 323.486C368.613 333.522 369.649 353.579 360.696 367.306C357.871 371.565 354.128 375.132 349.744 377.741C345.361 380.351 340.448 381.936 335.371 382.379L324.613 388.595C323.382 380.426 323.93 372.086 326.217 364.15C328.505 356.214 332.479 348.87 337.864 342.624C340.92 339.151 344.399 336.077 348.22 333.477C350.572 340.258 353.776 346.988 353.776 346.988Z" fill="#EAEDF2"/>
<path d="M180.518 171.317L162.39 142.726L183.381 131.435L188.891 153.249L227.71 174.317C229.242 173.763 230.902 173.669 232.487 174.046C234.072 174.423 235.513 175.255 236.636 176.441C237.758 177.627 238.512 179.115 238.807 180.724C239.101 182.333 238.924 183.993 238.295 185.502C237.666 187.011 236.614 188.304 235.267 189.223C233.919 190.142 232.335 190.647 230.706 190.677C229.077 190.707 227.475 190.261 226.095 189.392C224.715 188.524 223.616 187.27 222.933 185.785L180.518 171.317Z" fill="#A0616A"/>
<path d="M149.147 108.432C143.451 116.831 163.693 147.361 163.693 147.361C164.679 145.226 174.105 169.198 175.683 167.782C180.171 163.758 187.195 152.547 191.099 152.047C193.332 151.761 185.92 135.857 185.92 135.857C185.92 135.857 182.533 126.466 177.937 114.469C176.7 111.053 174.623 108.007 171.899 105.615C169.175 103.222 165.892 101.561 162.357 100.785C162.357 100.785 154.843 100.034 149.147 108.432Z" fill="#222222"/>
<path d="M149.424 382.073L158.033 382.072L162.128 348.722L149.422 348.722L149.424 382.073Z" fill="#A0616A"/>
<path d="M147.227 379.25L149.65 379.25L159.11 375.386L164.181 379.249H164.182C167.047 379.249 169.795 380.393 171.821 382.428C173.848 384.463 174.986 387.223 174.986 390.101V390.453L147.227 390.454L147.227 379.25Z" fill="#2F2E41"/>
<path d="M189.419 382.073L198.028 382.072L202.124 348.722L189.418 348.722L189.419 382.073Z" fill="#A0616A"/>
<path d="M187.223 379.25L189.646 379.25L199.106 375.386L204.177 379.249H204.178C207.043 379.249 209.791 380.393 211.818 382.428C213.844 384.463 214.982 387.223 214.982 390.101V390.453L187.223 390.454L187.223 379.25Z" fill="#2F2E41"/>
<path d="M193.145 199.742L137.148 201.148C126.513 206.949 126.351 219.506 129.836 234.414C129.836 234.414 128.66 243.275 131.012 245.638C133.365 248.001 134.541 248.001 133.365 252.136C132.189 256.271 138.404 263.025 137.649 263.784C136.894 264.542 135.13 268.677 135.13 268.677L141.011 302.349C141.011 302.349 145.129 360.832 146.305 362.013C147.481 363.195 148.658 362.013 147.481 364.967C146.305 367.921 145.129 366.739 146.305 367.921C147.347 369.049 148.329 370.232 149.246 371.465H163.466C163.466 371.465 164.539 365.558 164.539 364.967C164.539 364.376 165.715 360.832 165.715 360.241C165.715 359.65 164.675 358.606 164.675 358.606C164.316 357.405 164.073 356.172 163.95 354.924C163.95 353.743 160.421 308.256 160.421 308.256L167.479 249.183L184.537 307.075C184.537 307.075 184.537 357.878 185.713 359.06C186.889 360.241 186.889 359.65 186.301 362.013C185.713 364.376 183.36 363.785 185.125 365.558C186.889 367.33 187.478 364.376 186.889 367.33L186.301 370.284L203.947 370.537C203.947 370.537 206.299 365.558 205.123 363.785C203.947 362.013 204.017 362.497 205.452 359.597C206.888 356.697 207.476 356.106 206.888 355.515C206.299 354.924 206.299 351.782 206.299 351.782L203.358 295.26C203.358 295.26 202.77 235.596 202.77 233.824C202.726 232.912 202.893 232.002 203.259 231.166V228.76L201.006 220.237L193.145 199.742Z" fill="#2F2E41"/>
<path d="M159.508 82.7982C169.117 82.7982 176.907 74.9747 176.907 65.3239C176.907 55.6731 169.117 47.8496 159.508 47.8496C149.899 47.8496 142.109 55.6731 142.109 65.3239C142.109 74.9747 149.899 82.7982 159.508 82.7982Z" fill="#A0616A"/>
<path d="M168.21 94.3475C171.958 96.5856 174.2 100.698 175.487 104.882C177.87 112.629 179.305 120.639 179.759 128.734L181.118 152.971L197.956 204.577C183.363 216.978 128.512 207.395 128.512 207.395C128.512 207.395 126.829 206.832 128.512 205.141C130.196 203.45 131.835 204.948 130.152 203.257C128.468 201.566 129.629 203.45 130.19 201.759C130.751 200.067 130.19 201.195 129.629 200.631C129.067 200.067 133.974 194.994 133.974 194.994L129.484 165.372L123.871 105.621C130.606 97.1659 144.151 92.1816 144.151 92.1816L147.651 85.8545L165.15 87.2605L168.21 94.3475Z" fill="#222222"/>
<path d="M173.85 56.0404C175.202 57.0533 176.204 58.4668 176.714 60.0816C176.91 57.4426 176.922 54.793 176.751 52.1522C176.546 50.2965 175.245 49.8791 173.739 49.3954C172.379 48.9585 170.84 48.4648 170.427 46.6634C164.957 41.3198 155.437 41.5892 148.921 43.4532C145.336 44.4788 143.273 45.7966 143.088 46.5686L143.05 46.7276L142.904 46.8007C140.141 48.1885 139.603 52.571 139.638 56.0029C139.706 62.469 141.929 69.8129 143.181 70.4095C143.247 70.441 143.264 70.4287 143.293 70.4047C145.178 68.8912 147.479 70.5197 148.49 71.4049C149.086 67.3861 151.006 63.684 153.943 60.8897C156.88 58.0954 160.665 56.3702 164.693 55.9896C166.008 55.8619 167.313 55.6421 168.598 55.3319C169.249 55.1626 169.919 55.0743 170.593 55.069C171.752 55.0513 172.888 55.3903 173.85 56.0404Z" fill="#2F2E41"/>
<path d="M281.86 213.666L315.329 179.531L324.147 152.231L309.957 146.466C302.927 153.588 295.691 175.388 295.691 175.388L272.848 206.18C272.665 206.248 272.483 206.32 272.304 206.406C271.253 206.904 270.347 207.667 269.674 208.62C269.002 209.573 268.586 210.684 268.466 211.846C268.346 213.008 268.526 214.181 268.99 215.253C269.453 216.324 270.184 217.257 271.112 217.962C272.039 218.667 273.132 219.119 274.285 219.276C275.437 219.432 276.611 219.288 277.691 218.856C278.772 218.424 279.723 217.719 280.454 216.81C281.184 215.901 281.668 214.818 281.86 213.666Z" fill="#FFB8B8"/>
<path d="M306.086 149.589L324.031 154.803L324.098 154.79C330.694 153.504 335.912 142.494 339.127 133.485C340.185 130.513 340.08 127.249 338.833 124.352C337.586 121.456 335.291 119.142 332.411 117.88C330.28 116.964 327.937 116.664 325.645 117.015C323.354 117.366 321.206 118.353 319.444 119.866L310.497 127.604L306.086 149.589Z" fill="#7250F8"/>
<path d="M290.734 381.059L281.083 381.058L276.492 343.672L290.735 343.673L290.734 381.059Z" fill="#FFB8B8"/>
<path d="M293.193 377.894L290.476 377.894L279.871 373.562L274.187 377.893H274.186C270.974 377.894 267.893 379.175 265.622 381.457C263.351 383.738 262.074 386.832 262.074 390.058V390.453L293.192 390.454L293.193 377.894Z" fill="#2F2E41"/>
<path d="M333.554 381.059L323.903 381.058L319.312 343.672L333.556 343.673L333.554 381.059Z" fill="#FFB8B8"/>
<path d="M336.017 377.894L333.301 377.894L322.695 373.562L317.011 377.893H317.01C313.798 377.894 310.718 379.175 308.446 381.457C306.175 383.738 304.899 386.832 304.898 390.058V390.453L336.016 390.454L336.017 377.894Z" fill="#2F2E41"/>
<path d="M348.272 220.023C348.272 220.023 349.399 233.605 346.581 246.62C343.764 259.636 343.764 296.293 343.764 296.293L337.566 367.723L318.972 366.025L313.901 246.621L295.871 286.799L297.561 292.458L295.31 293.873C295.31 293.873 296.998 304.908 295.871 304.908C294.744 304.908 291.927 306.606 291.927 306.606L294.18 364.893L275.023 364.327L268.262 282.272L275.587 235.303L276.15 226.248L278.686 226.353L279.977 222.57L282.348 216.062L348.272 220.023Z" fill="#2F2E41"/>
<path d="M349.244 222.876L349.344 222.735C354.708 215.193 346.641 197.072 345.425 194.445L350.549 192.775L349.395 182.924L348.848 178.532L352.765 174.599L352.776 174.501L355.03 154.694L358.307 141.539C359.541 136.566 359.436 131.352 358.002 126.434C356.567 121.515 353.855 117.068 350.145 113.55L342.57 106.377L333.364 92.6965H318.519L313.429 102.353C308.494 103.498 304.116 106.346 301.057 110.4C297.998 114.455 296.452 119.458 296.688 124.54L297.842 149.865L293.325 181.397L293.323 187.104L288.24 192.777L289.35 198.35L285.482 200.015L283.774 208.019C283.068 208.956 278.402 215.203 278.402 216.911C278.402 217.168 278.591 217.415 278.995 217.69C282.175 219.853 299.747 224.261 307.525 221.135C315.809 217.808 348.741 222.799 349.073 222.85L349.244 222.876Z" fill="#7250F8"/>
<path d="M324.024 88.2802C334.882 88.2802 343.684 79.4397 343.684 68.5344C343.684 57.6291 334.882 48.7886 324.024 48.7886C313.166 48.7886 304.363 57.6291 304.363 68.5344C304.363 79.4397 313.166 88.2802 324.024 88.2802Z" fill="#FFB8B8"/>
<path d="M322.141 88.6C325.186 88.5688 328.222 88.2764 331.217 87.726C334.183 87.0399 340.725 81.959 342.508 78.9574C343.833 76.7272 344.628 73.2776 345.062 70.7767C345.648 67.4669 345.535 64.0704 344.73 60.8071C343.926 57.5439 342.448 54.4867 340.393 51.8335C339.601 50.722 338.524 49.8462 337.277 49.2988C337.166 49.2588 337.053 49.2237 336.938 49.1941C335.131 48.7662 333.491 47.8053 332.231 46.4348C331.986 46.1573 331.722 45.8979 331.44 45.6586C330.027 44.5218 328.365 43.7371 326.592 43.3688C323.727 42.6777 319.628 43.5437 314.41 45.9449C311.789 47.1513 308.88 46.8147 306.637 46.3867C306.511 46.3657 306.382 46.3781 306.263 46.4227C306.143 46.4673 306.038 46.5425 305.956 46.6409C305.03 47.5601 303.793 48.0933 302.491 48.1333C301.695 48.1891 300.887 49.3193 299.914 50.7909C299.693 51.125 299.435 51.5149 299.248 51.7528L299.21 51.306L298.772 51.8169C298.084 52.6198 297.609 53.5848 297.392 54.6218C297.174 55.6588 297.222 56.7341 297.53 57.7477C297.838 58.7613 298.396 59.6801 299.153 60.4187C299.909 61.1572 300.84 61.6914 301.857 61.9715C302.665 62.165 303.49 62.2752 304.319 62.3004C304.822 62.3327 305.342 62.3661 305.842 62.4399C307.447 62.7268 308.95 63.4268 310.205 64.4715C311.46 65.5161 312.424 66.8698 313.003 68.4004C313.14 68.7541 313.355 69.0715 313.633 69.3282C313.912 69.5848 314.245 69.7739 314.607 69.8807C314.97 69.9875 315.352 70.0092 315.724 69.9442C316.096 69.8792 316.448 69.7291 316.754 69.5056C317.261 69.087 317.862 68.7978 318.505 68.6629C319.148 68.528 319.814 68.5513 320.447 68.7308C320.996 69.0194 321.431 69.4891 321.676 70.061C321.974 70.6976 322.453 71.2308 323.053 71.5927C325.1 72.5863 325.359 77.2165 324.732 81.0982C324.129 84.8399 322.816 87.5693 321.539 87.7357C320.556 87.8636 320.446 87.9368 320.379 88.1137L320.319 88.272L320.433 88.4157C320.983 88.5997 321.565 88.6626 322.141 88.6Z" fill="#2F2E41"/>
<path d="M305.83 151.701L296.38 139.607C286.754 142.27 269.674 157.56 269.674 157.56L234.596 172.848C233.426 172.651 232.224 172.766 231.112 173.184C230 173.601 229.017 174.305 228.262 175.225C227.507 176.145 227.006 177.249 226.811 178.425C226.616 179.601 226.732 180.808 227.149 181.925C227.566 183.041 228.268 184.027 229.185 184.785C230.102 185.542 231.201 186.043 232.373 186.238C233.544 186.433 234.746 186.314 235.857 185.894C236.968 185.474 237.949 184.768 238.702 183.846L284.652 170.971L305.83 151.701Z" fill="#FFB8B8"/>
<path d="M303.565 154.466L318.476 137.772L319.304 125.942C319.458 123.619 318.962 121.299 317.872 119.245C316.782 117.19 315.142 115.482 313.137 114.315C310.408 112.751 307.189 112.285 304.132 113.013C301.074 113.741 298.406 115.608 296.667 118.236C291.398 126.211 285.73 136.994 288.646 143.073L288.676 143.135L303.565 154.466Z" fill="#7250F8"/>
<path d="M166.129 217.215L127.374 197.281C124.617 195.863 123.704 192.102 125.339 188.897L150.608 139.343C152.242 136.138 155.814 134.684 158.571 136.102L197.326 156.037C200.082 157.455 200.995 161.216 199.361 164.421L174.092 213.974C172.458 217.179 168.886 218.633 166.129 217.215Z" fill="#EAEDF2"/>
<path d="M159.509 208.051L133.178 194.507C130.596 193.179 129.741 189.657 131.271 186.656L152.264 145.487C153.795 142.486 157.141 141.124 159.723 142.452L191.524 158.81C194.106 160.138 194.961 163.66 193.431 166.662L182.026 189.027C175.209 202.397 171.009 213.966 159.509 208.051Z" fill="white"/>
<path d="M172.528 185.569L149.206 173.573C148.921 173.369 148.718 173.069 148.635 172.727C148.552 172.385 148.594 172.025 148.754 171.712C148.914 171.399 149.18 171.154 149.505 171.022C149.829 170.89 150.19 170.88 150.522 170.993L173.843 182.989C174.129 183.193 174.331 183.493 174.414 183.835C174.497 184.177 174.455 184.537 174.295 184.85C174.136 185.163 173.869 185.408 173.545 185.54C173.22 185.672 172.859 185.682 172.528 185.569Z" fill="#7250F8"/>
<path d="M151.927 181.408L146.604 178.671C146.319 178.467 146.117 178.166 146.034 177.825C145.951 177.483 145.993 177.123 146.153 176.81C146.312 176.497 146.579 176.252 146.903 176.12C147.228 175.988 147.589 175.977 147.92 176.091L153.242 178.828C153.528 179.032 153.73 179.333 153.813 179.674C153.896 180.016 153.854 180.376 153.694 180.689C153.535 181.002 153.268 181.247 152.944 181.379C152.619 181.511 152.258 181.522 151.927 181.408Z" fill="#7250F8"/>
<path d="M158.755 191.355L144.007 183.768C143.722 183.564 143.519 183.264 143.436 182.922C143.353 182.581 143.395 182.221 143.555 181.908C143.715 181.595 143.981 181.35 144.305 181.218C144.63 181.086 144.991 181.075 145.322 181.188L160.071 188.775C160.356 188.979 160.559 189.279 160.642 189.621C160.725 189.962 160.683 190.322 160.523 190.635C160.363 190.948 160.097 191.193 159.772 191.325C159.448 191.457 159.087 191.468 158.755 191.355Z" fill="#7250F8"/>
<path d="M181.754 167.47L158.433 155.474C158.147 155.27 157.945 154.97 157.862 154.628C157.779 154.287 157.821 153.927 157.981 153.614C158.14 153.301 158.407 153.056 158.731 152.924C159.056 152.792 159.417 152.781 159.748 152.894L183.07 164.89C183.355 165.094 183.558 165.395 183.641 165.736C183.724 166.078 183.681 166.438 183.522 166.751C183.362 167.064 183.096 167.309 182.771 167.441C182.447 167.573 182.086 167.584 181.754 167.47Z" fill="#7250F8"/>
<path d="M161.157 163.31L155.835 160.572C155.55 160.368 155.347 160.068 155.264 159.726C155.181 159.385 155.223 159.024 155.383 158.711C155.543 158.398 155.809 158.153 156.134 158.021C156.458 157.889 156.819 157.879 157.151 157.992L162.473 160.73C162.758 160.934 162.961 161.234 163.044 161.576C163.126 161.917 163.084 162.278 162.925 162.591C162.765 162.904 162.499 163.149 162.174 163.281C161.85 163.413 161.489 163.423 161.157 163.31Z" fill="#7250F8"/>
<path d="M167.986 173.256L153.237 165.67C152.952 165.466 152.749 165.165 152.667 164.824C152.584 164.482 152.626 164.122 152.785 163.809C152.945 163.496 153.211 163.251 153.536 163.119C153.86 162.987 154.221 162.976 154.553 163.09L169.302 170.676C169.587 170.88 169.789 171.18 169.872 171.522C169.955 171.864 169.913 172.224 169.753 172.537C169.594 172.85 169.327 173.095 169.003 173.227C168.678 173.359 168.317 173.369 167.986 173.256Z" fill="#7250F8"/>
<path d="M134.017 174.074L125.262 141.338L148.658 136.89L147.4 159.359L178.141 191.15C179.768 191.083 181.38 191.493 182.779 192.33C184.178 193.168 185.305 194.396 186.021 195.865C186.738 197.334 187.013 198.981 186.814 200.604C186.615 202.228 185.949 203.758 184.899 205.008C183.849 206.259 182.459 207.175 180.899 207.646C179.339 208.117 177.676 208.121 176.114 207.66C174.551 207.198 173.156 206.289 172.099 205.045C171.042 203.8 170.368 202.274 170.159 200.652L134.017 174.074Z" fill="#A0616A"/>
<path d="M122.867 104.634C114.926 110.931 125.119 146.152 125.119 146.152C126.697 144.412 128.531 170.12 130.46 169.245C135.942 166.757 145.99 158.178 149.864 158.877C152.08 159.277 149.759 141.873 149.759 141.873C149.759 141.873 149.332 131.894 148.529 119.065C148.37 115.434 147.298 111.902 145.413 108.799C143.529 105.696 140.894 103.122 137.752 101.317C137.752 101.317 130.809 98.3374 122.867 104.634Z" fill="#222222"/>
<path d="M242.135 59.605L240.63 59.7706C233.918 33.2829 220.91 14.9325 203.009 6.70293C180.253 -3.75837 152.114 3.26658 123.775 26.484C95.2927 49.82 70.0781 86.6807 52.7769 130.278L51.3164 129.606C68.6936 85.819 94.0375 48.7802 122.68 25.3145C151.465 1.73018 180.179 -5.34629 203.53 5.38892C221.945 13.8544 235.294 32.6021 242.135 59.605Z" fill="#EAEDF2"/>
<path d="M76.0697 94.1021C72.1334 102.43 68.3892 111.059 64.9413 119.747C45.0999 169.744 35.0452 220.805 35.8668 267.412L34.3161 267.245C33.4936 220.466 43.5773 169.229 63.4808 119.076C66.9386 110.363 70.6934 101.71 74.6411 93.3584L76.0697 94.1021Z" fill="#EAEDF2"/>
<path d="M75.3236 128.456C71.3873 136.784 67.6432 145.413 64.1952 154.101C44.3538 204.098 34.2991 255.159 35.1207 301.766L33.57 301.599C32.7475 254.82 42.8312 203.583 62.7347 153.43C66.1926 144.717 69.9473 136.064 73.895 127.712L75.3236 128.456Z" fill="#EAEDF2"/>
<path d="M33.6449 140.95C35.3591 138.362 34.3445 134.658 31.3786 132.676C28.4128 130.694 24.6189 131.186 22.9047 133.773C21.1904 136.361 22.2051 140.066 25.1709 142.047C28.1367 144.029 31.9307 143.538 33.6449 140.95Z" fill="#CBD2E0"/>
<path d="M398.668 234.403C400.383 231.815 399.368 228.11 396.402 226.129C393.436 224.147 389.642 224.638 387.928 227.226C386.214 229.814 387.229 233.518 390.194 235.5C393.16 237.482 396.954 236.99 398.668 234.403Z" fill="#CBD2E0"/>
</g>
<defs>
<clipPath id="clip0_2122_4053">
<rect width="480" height="391" fill="white" transform="translate(0 0.5)"/>
</clipPath>
</defs>
</svg>
