<svg width="207" height="306" viewBox="0 0 207 306" fill="none" xmlns="http://www.w3.org/2000/svg">
<path d="M122.21 220.47L156.769 242.559C176.492 233.706 193.622 220.412 206.671 203.832C169.039 212.836 133.113 183.181 94.4013 180.018C82.3197 179.119 70.1894 180.81 58.9091 184.965C47.6288 189.12 37.4877 195.632 29.2375 204.02L1.90483 214.476C15.3544 227.989 31.7224 238.586 49.8812 245.536C68.04 252.487 87.5579 255.627 107.09 254.739C118.042 254.137 128.866 252.23 139.306 249.062C130.086 235.487 122.21 220.47 122.21 220.47Z" fill="#EAEDF2"/>
<path d="M99.0788 85.9066L103.897 22.1565C135.46 7.14755 170.397 -0.305347 205.674 0.444966C156.043 36.9385 160.019 109.877 125.647 159.793C114.801 175.284 100.43 188.254 83.5985 197.743C66.767 207.232 47.9065 212.996 28.4149 214.608L-12.89 237.213C-17.615 207.506 -15.5135 177.177 -6.7305 148.317C2.05255 119.457 17.3083 92.751 37.9859 70.0395C49.7187 57.4079 63.077 46.232 77.7455 36.7757C86.7739 61.4339 99.0788 85.9066 99.0788 85.9066Z" fill="#EAEDF2"/>
</svg>
