<svg width="357" height="520" viewBox="0 0 357 520" fill="none" xmlns="http://www.w3.org/2000/svg">
<path fill-rule="evenodd" clip-rule="evenodd" d="M322.965 511.906C265.973 520.563 207.946 520.998 150.48 517.855C127.737 516.152 104.924 515.845 82.1993 518.022C68.7711 519.021 9.89578 523.521 5.08542 511.494C8.11298 447.452 14.2448 382.864 33.0553 321.271C40.7913 299.401 47.4354 281.249 62.534 263.151C67.2924 258.21 77.5546 247.846 83.4346 244.466C88.529 241.539 90.6582 242.583 93.5834 237.638C96.4902 232.175 98.6342 223.051 102.762 219.197C106.964 215.272 113.192 216.676 120.911 217.94C119.493 198.776 128.339 193.895 140.526 190.251C161.948 182.075 183.104 186.182 188.495 212.259C198.492 212.259 204.108 216.561 210.178 220.695C212.66 222.385 210.934 226.69 213.898 228.018C219.382 229.971 229.074 229.492 234.354 231.896C258.366 242.823 279.753 258.67 293.799 281.813C325.287 331.225 346.917 435.31 343.174 493.874C344.814 496.446 342.546 500.133 341.969 502.899C341.242 505.304 338.886 506.904 336.427 506.631C332.995 510.321 327.688 511.142 322.965 511.906Z" fill="white"/>
<path fill-rule="evenodd" clip-rule="evenodd" d="M87.0632 243.018C87.4131 242.823 87.105 242.323 86.7534 242.488C69.8513 250.417 56.8848 264.328 47.7613 280.402C38.314 297.045 32.9295 315.941 28.2874 334.41L28.1199 335.078C23.1699 354.835 18.961 374.797 15.1718 394.807C11.3342 415.071 8.25388 435.461 5.77603 455.934C4.5502 466.057 3.4574 476.198 2.60498 486.36C2.17923 491.437 1.79227 496.519 1.44458 501.603C1.30569 503.636 1.17487 505.67 1.06268 507.705L0.982178 509.231C0.912811 510.616 0.748352 512.004 1.09036 513.37C1.38568 514.547 2.00906 515.613 2.55743 516.694C3.64194 518.831 6.61493 518.479 7.7836 516.694L8.12299 516.175C8.89798 514.977 9.54193 513.864 9.7851 512.373C10.0202 510.93 10.029 509.417 10.1345 507.959C10.3286 505.277 10.494 502.592 10.6824 499.908C11.0781 494.26 11.5226 488.615 12.0147 482.974C12.988 471.839 14.0319 460.713 15.314 449.608C17.5921 429.873 20.4508 410.189 23.8207 390.611C27.1134 371.485 31.2759 352.553 35.6184 333.645L36.0682 331.689C43.6715 298.677 55.3898 260.66 87.0632 243.018ZM267.095 372.286C266.97 371.956 266.436 371.88 266.345 372.286C265.207 377.412 265.094 382.692 264.92 387.94C264.749 393.118 264.756 398.319 264.831 403.499C265.109 422.538 265.632 441.561 266.084 460.597C266.31 470.118 266.522 479.642 266.685 489.165C266.746 492.737 266.798 496.308 266.841 499.88L266.893 504.591C266.92 506.674 266.974 508.731 267.228 510.812C267.396 512.18 267.753 513.486 268.508 514.659C269.044 515.491 269.809 515.914 270.554 516.48L270.693 516.588C271.643 517.339 272.644 517.344 273.585 516.588L273.858 516.372C274.757 515.669 275.534 515.119 276.108 514.008C276.906 512.462 277.034 510.783 277.169 509.08C277.375 506.497 277.239 503.877 277.212 501.287C277.159 496.091 277.087 490.897 276.996 485.701C276.661 466.65 276 447.596 274.794 428.579C274.227 419.621 273.457 410.634 272.424 401.713L272.227 400.041C271.914 397.416 271.628 394.745 271.306 392.064C276.112 388.684 280.337 384.582 283.939 379.929C284.205 379.587 283.768 379.107 283.448 379.438C279.767 383.25 275.546 386.288 270.873 388.677C270.108 383.067 269.055 377.486 267.095 372.286ZM186.803 202.463C186.737 202.412 186.634 202.39 186.572 202.463C185.539 203.667 185.748 205.509 185.715 207.035L185.711 207.177C185.637 209.408 185.623 211.633 185.63 213.866L185.653 220.972C185.656 221.95 185.736 222.967 185.686 223.95L185.659 224.33C185.117 224.886 184.865 225.689 185.049 226.496C185.082 227.53 185.623 228.394 186.412 228.936L184.721 231.336L183.028 233.734C179.538 238.683 176.01 243.588 172.334 248.401C168.585 253.309 164.585 258.031 160.4 262.571C158.355 264.79 156.276 266.978 154.148 269.117C153.283 269.986 152.396 270.834 151.52 271.691L150.648 272.553C150.133 273.068 149.485 273.577 149.143 274.23C148.941 274.616 148.896 275.565 148.824 275.722C148.178 277.141 149.28 279.404 151.11 278.696L151.027 278.641C150.694 278.409 150.907 278.405 151.668 278.631C152.148 278.629 152.598 278.519 153.018 278.3L153.143 278.231C153.735 277.93 154.264 277.348 154.745 276.883L154.864 276.769C155.964 275.739 157.012 274.646 158.066 273.569C160.266 271.322 162.416 269.027 164.498 266.67C168.651 261.968 172.588 257.076 176.316 252.031C180.114 246.894 183.644 241.492 186.68 235.869C187.832 233.735 188.889 231.56 189.901 229.36C191.872 228.727 192.33 226.631 192.192 224.269C192.919 222.576 193.575 220.848 193.962 219.082C194.015 218.84 193.704 218.611 193.518 218.823C192.887 219.539 192.303 220.302 191.742 221.084C191.404 219.428 190.976 217.905 190.774 216.933L189.9 212.646C194.824 212.389 200.219 214.412 203.614 217.954C203.796 218.876 204.506 219.536 205.198 220.398C205.988 221.383 206.678 222.489 207.192 223.646C208.333 226.209 207.689 229.986 209.903 231.867C210.134 232.063 210.392 232.199 210.658 232.283C209.607 237.434 210.084 243.11 210.107 248.336L210.108 248.796C210.103 254.645 210.298 260.498 210.524 266.342L210.754 272.126C211.052 279.839 211.245 287.556 210.496 295.228C207.073 292.197 203.535 289.304 199.874 286.548C197.467 284.736 195.012 282.988 192.512 281.305L190.481 279.948C188.047 278.316 185.554 276.637 182.889 275.468C179.404 273.94 176.089 274.465 172.724 276.033C169.373 277.594 166.122 279.407 162.834 281.1C159.491 282.82 156.141 284.526 152.793 286.237C150.575 287.37 147.325 288.393 145.698 290.479C145.594 290.018 145.473 289.557 145.332 289.099C145.493 288.4 145.431 287.644 145.039 286.924C139.573 276.88 134.515 266.597 129.493 256.326C126.951 251.128 124.535 245.869 121.988 240.674L119.512 235.614C119.098 234.772 118.683 233.929 118.266 233.089C117.641 231.83 116.991 230.583 116.359 229.327C116.092 228.796 115.758 228.269 115.498 227.733L115.375 227.465C115.369 227.451 114.769 225.565 115.232 225.744L115.272 225.764C115.509 225.897 115.698 225.6 115.545 225.41C114.89 224.6 113.977 225.318 113.603 226.068C112.573 228.131 114.461 231.371 115.187 233.347L115.226 233.458C117.48 239.835 120.031 246.093 122.645 252.329C127.657 264.285 133.041 276.057 138.413 287.85L138.477 288.053C137.331 287.175 136.108 286.378 135.061 285.602C132.418 283.645 129.699 281.784 126.984 279.929C122.004 276.527 116.89 273.35 111.691 270.298L110.65 269.689C108.053 268.176 105.481 266.949 102.398 267.403C99.5346 267.825 96.8722 269.364 94.285 270.613L94.0177 270.741L86.0236 274.542C86.8781 271.134 87.8034 267.743 88.7688 264.364C90.6516 257.774 92.7234 251.239 94.97 244.762C97.0683 238.711 99.3367 232.726 101.736 226.789L102.458 225.007C103.437 222.562 104.409 219.896 107.205 219.144C109.999 218.391 113.204 219.507 115.758 217.914C115.99 217.769 115.962 217.387 115.68 217.316L114.104 216.919C111.146 216.183 107.677 215.443 104.879 216.158C101.835 216.938 99.3158 219.493 97.8387 222.15C96.1963 225.105 95.0386 228.411 93.7922 231.562L93.5945 232.059C92.1641 235.624 90.7882 239.212 89.4716 242.822C86.8393 250.037 84.4431 257.339 82.274 264.707C81.2288 268.258 80.2372 271.826 79.2841 275.403C79.0101 276.432 78.5581 277.679 78.1873 278.98C77.7624 279.394 77.3602 279.857 76.9828 280.384C76.3568 281.259 76.8062 282.285 77.5844 282.809C77.6146 283.704 77.8135 284.546 78.289 285.268C80.1452 288.086 85.0525 287.36 84.8531 283.572C84.823 282.992 84.597 282.438 84.255 281.971L84.2646 281.895L84.3034 281.756C85.1554 281.348 86.0109 280.893 86.9126 280.447L95.3024 276.302C97.7323 275.101 100.426 273.245 103.128 272.788C105.647 272.361 108.305 274.238 110.469 275.37L110.61 275.443C115.842 278.125 121.036 280.896 126.21 283.69C128.735 285.054 131.228 286.475 133.744 287.855C135.847 289.009 138.117 290.666 140.482 291.318C141.492 292.103 142.691 291.998 143.655 291.404C143.215 294.133 143.242 296.933 143.107 299.723C142.925 303.452 142.897 307.192 142.837 310.927L142.813 312.327C142.654 320.583 142.569 328.842 142.537 337.1C142.426 366.506 142.751 395.921 142.827 425.327C142.865 440.102 143.158 454.889 143.542 469.658C143.704 475.916 144.045 482.167 144.412 488.416L144.614 491.824C145.042 499.016 145.295 506.286 146.626 513.381C146.8 514.306 148.366 514.33 148.52 513.381C149.745 505.779 149.813 498.01 150.049 490.319L150.098 488.782C150.381 480.524 150.516 472.271 150.487 464.008C150.382 434.59 149.618 405.191 148.992 375.781C148.678 361.005 148.466 346.222 147.977 331.45C147.733 324.059 147.456 316.672 147.128 309.284C146.982 305.986 146.841 302.69 146.622 299.396L146.523 297.985C146.455 297.064 146.4 296.154 146.333 295.253C149.31 296.34 152.032 294.327 154.709 292.95C157.795 291.363 160.88 289.772 163.967 288.188L167.057 286.606L173.241 283.451C176.025 282.03 178.17 280.617 181.139 282.283C191.837 288.285 201.668 296.271 210.577 304.651C212.285 306.258 215.895 305.826 216.328 303.132C218.176 291.626 217.052 279.954 216.108 268.413L215.76 264.128C215.339 259.01 214.88 253.893 214.268 248.796C213.994 246.516 213.722 244.237 213.42 241.962L213.188 240.256C212.811 237.558 212.565 234.877 211.762 232.29C212.015 232.208 212.259 232.074 212.477 231.867C214.893 229.575 213.728 225.598 212.626 222.871C211.537 220.18 209.877 217.831 207.799 215.81C207.346 215.368 206.706 215.084 206.064 215.07C201.024 211.731 195.495 210.064 189.741 211.887C189.579 211.114 189.415 210.342 189.241 209.573L189.064 208.804C188.617 206.894 188.451 203.74 186.803 202.463ZM135.15 504.002C133.586 503.572 131.874 504.025 130.728 505.171C129.582 506.317 129.128 508.029 129.559 509.593C129.775 510.362 130.164 511.031 130.728 511.598C131.254 512.121 131.868 512.495 132.57 512.718L132.733 512.767L132.989 512.874C133.773 513.084 134.557 513.084 135.341 512.874C136.09 512.663 136.741 512.284 137.293 511.736C137.841 511.184 138.22 510.534 138.431 509.784C138.641 509 138.641 508.216 138.431 507.432L138.324 507.176C138.108 506.406 137.719 505.737 137.156 505.171C136.589 504.608 135.92 504.218 135.15 504.002ZM42.2873 348.159C42.0303 347.864 41.6137 348.242 41.7733 348.556C44.2093 353.331 46.9245 358.073 49.593 362.727C49.3792 364.017 49.1672 365.296 48.9234 366.544C47.8838 371.86 46.6104 377.08 45.7802 382.446C42.7964 401.737 41.2473 421.236 39.918 440.7C38.5849 460.233 38.4143 479.775 38.2141 499.346C38.1966 501.042 39.5014 503.014 41.2499 503.333C42.0504 503.48 42.6493 503.451 43.4481 503.333C45.2677 503.066 46.4058 500.981 46.4839 499.346C47.0056 488.408 47.7076 477.484 48.5207 466.562C49.9621 447.2 50.8428 427.787 52.0071 408.405L52.4172 401.631C52.8573 394.291 53.2598 386.945 53.3909 379.594C53.4781 374.724 53.2177 369.855 53.3778 364.991C53.5257 360.5 53.9811 355.616 52.9909 351.204C52.9542 351.038 52.6929 350.996 52.6175 351.155C51.5879 353.322 50.9357 355.678 50.4332 358.082C47.78 354.727 45.0779 351.364 42.2873 348.159ZM216.085 229.525C215.712 229.497 215.727 230.057 216.085 230.099C221.292 230.702 226.322 232.821 231.238 234.622L231.659 234.776C236.626 236.578 241.469 238.674 246.129 241.172C255.241 246.056 263.608 252.353 271.006 259.563C300.542 288.342 314.002 329.844 323.865 368.845C329.345 390.513 333.242 412.548 335.768 434.752C337.017 445.733 337.9 456.756 338.415 467.796C338.678 473.454 338.844 479.118 338.914 484.781C338.95 487.682 338.96 490.584 338.957 493.485C338.955 494.815 338.717 496.489 339.073 497.78C339.403 498.975 340.333 500.028 341.021 501.025C341.836 502.207 343.301 502.145 344.128 501.025L344.433 500.617C345.315 499.448 346.177 498.33 346.303 496.801C346.438 495.163 346.343 493.474 346.349 491.828C346.363 488.512 346.322 485.195 346.256 481.88C346.128 475.526 345.877 469.174 345.505 462.83C344.75 449.954 343.506 437.105 341.725 424.33C338.56 401.624 333.815 379.134 327.601 357.067C321.738 336.25 314.792 315.495 304.897 296.212C295.71 278.308 283.657 261.653 267.754 249.141C260.358 243.322 252.307 238.473 243.627 234.821C239.249 232.979 234.652 231.476 229.977 230.619C225.354 229.771 220.751 229.889 216.085 229.525ZM134.253 467.206C133.428 467.2 132.507 467.382 131.798 467.838L130.852 468.57C130.595 468.899 130.34 469.23 130.086 469.562C129.494 470.333 129.415 471.581 129.539 472.5C129.566 473.114 129.749 473.684 130.086 474.214L130.806 475.147C131.499 475.712 132.077 476.115 132.916 476.387C133.354 476.528 133.776 476.558 134.197 476.536L134.338 476.527L134.253 476.539L134.401 476.522C134.538 476.51 134.675 476.496 134.813 476.477C134.907 476.465 135.001 476.458 135.095 476.445C135.185 476.438 135.273 476.434 135.364 476.442C136.43 476.543 137.502 475.938 138.259 475.244C138.94 474.618 139.553 473.29 139.457 472.349L139.417 471.956C139.345 471.292 139.286 471.031 139.005 470.365C138.732 469.717 138.35 469.145 137.831 468.662C136.836 467.736 135.618 467.216 134.253 467.206ZM137.554 418.66C136.139 417.118 133.708 417.004 131.953 417.937C131.526 418.165 131.133 418.53 130.756 418.834C129.807 419.602 129.434 420.987 129.381 422.154C129.329 423.308 129.938 424.678 130.756 425.475L130.955 425.667C131.444 426.143 132.144 426.556 132.828 426.682C133.932 426.885 134.858 426.879 135.886 426.445C136.768 426.073 137.529 425.474 138.046 424.662L138.13 424.524C138.166 424.467 138.2 424.409 138.231 424.35L138.277 424.26C139.26 422.37 138.996 420.229 137.554 418.66ZM136.821 369.858C136.183 369.657 135.545 369.629 134.907 369.772C134.473 369.773 134.069 369.883 133.695 370.099C133.289 370.213 132.935 370.419 132.636 370.717C132.276 370.93 131.988 371.217 131.775 371.578C131.35 372.041 131.064 372.585 130.915 373.21L130.744 374.486L130.915 375.763L131.4 376.91C131.533 377.083 131.667 377.257 131.802 377.43C132.016 377.791 132.304 378.079 132.665 378.293C132.9 378.527 133.17 378.702 133.471 378.823C134.54 379.589 135.964 379.839 137.23 379.49C137.983 379.28 138.636 378.899 139.189 378.349C139.739 377.795 140.12 377.142 140.33 376.39L140.417 375.79C140.529 374.985 140.547 374.539 140.319 373.515C140.219 373.065 139.929 372.43 139.777 372.163C139.128 371.022 138.067 370.239 136.821 369.858ZM81.4038 334.748C79.5713 334.735 77.7387 334.739 75.9064 334.759L74.5322 334.777C72.231 334.813 70.26 334.576 68.451 336.173C67.1379 337.331 67.7163 339.275 68.9627 340.148C70.8512 341.47 73.2199 340.805 75.3907 340.66C77.6801 340.506 79.9712 340.379 82.2632 340.276C86.7011 340.077 91.1408 339.951 95.583 339.931C100.016 339.912 104.455 339.954 108.887 340.026C113.397 340.099 118.093 340.519 122.577 340.052C123.193 339.988 123.332 339.178 122.724 338.967C118.498 337.505 113.744 337.032 109.315 336.473C104.748 335.896 100.18 335.487 95.583 335.223C90.8616 334.952 86.1331 334.781 81.4038 334.748ZM136.829 320.39L136.678 320.392C135.871 320.395 135.117 320.584 134.413 320.962L134.263 321.046L133.294 321.793C132.701 322.391 132.291 323.095 132.064 323.905L131.893 325.177C131.868 325.836 132.005 326.45 132.305 327.021C132.498 327.614 132.828 328.127 133.294 328.561C133.728 329.027 134.241 329.357 134.834 329.55C135.361 329.826 135.925 329.965 136.527 329.965L136.678 329.962C137.541 329.959 138.347 329.742 139.093 329.309L140.061 328.561C140.654 327.963 141.065 327.26 141.292 326.449L141.463 325.177C141.488 324.518 141.351 323.903 141.05 323.334C140.858 322.74 140.528 322.227 140.061 321.793C139.628 321.327 139.115 320.997 138.521 320.804C137.995 320.528 137.431 320.389 136.829 320.39ZM122.643 207.983C121.612 206.49 119.744 207.818 120.011 209.018C119.941 212.39 119.768 215.662 119.001 218.965C118.65 220.477 118.19 221.991 117.48 223.376L117.182 223.959C116.263 225.774 115.55 227.486 116.787 229.477C117.37 230.416 118.424 231.121 119.567 231.071C124.634 230.853 125.33 223.8 125.638 219.863C125.956 215.808 124.968 211.352 122.643 207.983Z" fill="black"/>
<path fill-rule="evenodd" clip-rule="evenodd" d="M83.2933 97.8144C87.2415 81.1702 95.8736 65.6809 109.693 53.1629C151.279 12.0488 227.649 34.3648 227.303 96.3207C228.795 103.557 229.4 110.998 228.906 118.378C228.702 121.526 227.339 125.921 229.17 128.754C233.3 134.056 235.7 137.964 234.295 145.016C233.12 151.174 228.93 155.536 223.274 157.855C219.883 158.829 216.664 160.949 215.408 164.18C207.858 178.002 202.265 189.499 190.363 198.919C187.292 201.344 155.793 215.889 145.414 215.889C115.03 215.889 76.7337 204.883 76.0981 170.943C75.9882 163.488 77.2965 155.947 78.1171 148.552C80.1145 131.674 79.4098 114.186 83.2933 97.8144Z" fill="white"/>
<path fill-rule="evenodd" clip-rule="evenodd" d="M83.9769 89.4893C83.9673 89.2833 83.6724 89.2371 83.6152 89.4404C82.4858 93.4473 81.8458 97.5292 80.9624 101.598C80.1118 105.518 79.3086 109.449 78.6403 113.403C77.3791 120.866 76.3164 128.348 75.328 135.849L75.0823 137.725C73.3644 150.924 70.5271 164.675 73.008 177.952C75.1251 189.28 82.2232 198.411 91.3707 205.105C100.032 211.443 110.534 215.511 120.961 217.823C132.152 220.306 145.418 221.047 154.523 212.84C158.169 209.554 153.199 203.034 149.245 205.999C139.959 212.961 128.146 210.909 117.668 208.139L117.351 208.055C108.155 205.605 98.8972 201.892 91.5963 195.629C83.5245 188.703 79.5333 179.092 79.0722 168.551C78.8135 162.628 79.3656 156.713 79.9612 150.825L80.0276 150.171C80.7112 143.438 81.4283 136.708 82.0901 129.973C82.6939 123.831 83.2149 117.653 83.4902 111.483L83.6187 108.372C83.8863 102.098 84.2465 95.7327 83.9769 89.4893ZM192.881 37.3619C177.771 29.4951 160.405 26.6796 143.589 29.3197C127.422 31.8578 112.586 40.1996 101.496 52.1609C96.0819 58.0009 91.2763 64.7561 88.2051 72.136C86.6796 75.8022 85.4852 79.6267 84.8491 83.5547C84.5219 85.574 84.2004 87.6662 84.1389 89.7135C84.0822 91.609 84.6389 93.3867 84.573 95.3136C84.563 95.615 85.0249 95.673 85.0952 95.3842C85.6204 93.2357 86.8859 91.6112 87.6799 89.5704C88.2733 88.0466 88.9465 86.559 89.6318 85.0759L90.2206 83.8051C91.9298 80.1114 93.9727 76.5696 95.9938 73.0404C100.064 65.9322 105.285 59.4724 111.4 54.0215C122.135 44.4512 135.908 38.2736 150.282 37.1612C165.202 36.006 180.336 39.5623 193.077 47.4399C205.818 55.3172 215.452 67.5625 220.454 81.6614C222.978 88.776 224.372 96.1891 224.696 103.726C224.86 107.542 224.707 111.389 224.439 115.197L224.306 117.013C224.151 119.191 224.044 121.36 224.369 123.485C222.071 122.768 219.662 122.471 217.245 122.826C213.652 123.353 211.506 124.825 209.894 128.035C209.81 128.203 209.979 128.37 210.146 128.287C212.235 127.244 215.615 127.793 217.828 128.34C220.13 128.909 222.204 129.898 224.161 131.235C227.78 133.709 230.618 137.541 231.314 141.938C231.987 146.185 230.243 150.486 227.314 153.53C225.807 155.097 224.005 156.453 221.987 157.297C219.538 158.323 217.115 158.291 214.948 159.984C213.609 161.031 213.933 162.822 214.841 163.984C210.27 168.995 206.217 174.478 201.647 179.509C199.529 181.841 197.427 184.176 195.398 186.583L194.64 187.489C192.613 189.935 189.388 192.519 188.462 195.596C187.886 197.509 189.935 200.013 192.007 199.14C195.185 197.802 197.454 194.321 199.601 191.651L199.741 191.478C201.993 188.711 203.992 185.79 205.82 182.729L206.421 181.72C209.726 176.161 213.003 170.396 215.111 164.29C215.25 164.433 215.397 164.563 215.552 164.673C218.589 166.832 223.003 165.172 226.035 163.77C228.898 162.447 231.522 160.456 233.568 158.057C238.016 152.838 240.067 146.08 238.581 139.307C237.323 133.57 233.346 127.99 228.133 125.088C230.54 122.318 231.536 118.584 232.199 114.933C233.045 110.272 233.214 105.496 232.984 100.771C232.526 91.3577 230.103 82.0793 226.359 73.46C219.659 58.0376 207.814 45.137 192.881 37.3619ZM224.684 140.276C221.513 139.682 218.557 139.538 215.498 140.88C212.18 142.337 209.845 144.742 207.674 147.559C205.204 150.763 211.534 154.264 213.13 150.01L213.177 149.879C213.605 148.619 214.37 147.402 215.34 146.281C215.631 146.727 216.02 147.119 216.477 147.344C217.031 147.616 217.876 147.428 218.01 146.721C218.157 145.936 217.994 144.985 217.541 144.321L217.479 144.23C219.679 142.459 222.326 141.166 224.684 140.749C224.92 140.708 224.917 140.32 224.684 140.276Z" fill="black"/>
<path fill-rule="evenodd" clip-rule="evenodd" d="M150.381 175.059C145.039 168.851 136.041 168.419 128.588 169.971C123.805 170.967 119.148 172.627 114.29 173.242C112.021 173.529 109.728 173.615 107.443 173.573C105.198 173.532 102.949 173.079 100.712 173.163C100.369 173.176 100.239 173.628 100.536 173.811C103.605 175.696 107.74 176.301 111.365 176.669C111.354 176.938 111.337 177.199 111.3 177.422C111.201 178.014 111.111 178.602 111.038 179.197C110.874 180.542 110.69 181.881 110.506 183.223C110.144 185.863 110.03 188.586 109.393 191.18L109.282 191.612C109.135 192.157 109.101 192.649 109.151 193.092L109.003 193.025L108.537 192.799L108.232 192.655C107.118 192.139 106.055 191.763 104.745 191.888C103.748 191.983 102.911 192.663 102.904 193.728C102.88 198.507 109.32 200.044 113.004 200.959L114.085 201.225C118.774 202.369 123.562 203.372 128.385 203.611C136.125 203.996 144.822 201.861 149.885 195.583C154.609 189.725 155.475 180.978 150.381 175.059ZM115.233 195.138C116.045 187.943 124.887 187.547 127.43 192.11C128.559 185.75 145.257 191.561 143.951 192.825C139.002 197.617 131.492 198.049 125.036 197.162C121.748 196.711 118.458 195.976 115.233 195.138ZM125.045 176.28L127.268 175.96L128.144 175.839C133.655 175.101 139.852 174.72 144.383 178.253C146.037 179.543 146.968 181.225 147.316 183.032C143.029 182.396 138.726 181.911 134.41 181.508L133.233 181.4C130.533 181.156 127.833 180.9 125.136 180.631L123.218 180.436L121.302 180.237C120.628 180.167 116.082 179.934 115.228 180.09C115.137 179.323 115.018 177.661 114.825 176.914C118.054 177.023 121.269 176.783 124.479 176.357L125.045 176.28ZM114.813 144.119C111.519 146.122 106.499 150.791 110.043 155.755C114.214 160.132 120.22 155.114 123.18 152.844C125.924 151.085 129.008 155.609 126.461 157.663C105.075 173.496 96.3962 144.643 113.147 141.765C114.991 141.448 115.676 143.5 114.813 144.119ZM108.917 152.555L108.759 152.469L108.706 152.436C108.613 152.377 108.672 152.383 108.883 152.456L109.041 152.513V152.624C109 152.599 108.957 152.581 108.917 152.555ZM151.107 134.765L151.107 134.667C151.101 131.885 149.481 125.533 145.476 125.533C142.974 125.533 141.456 129.856 141.193 134.312L141.183 134.494C141.067 137.264 141.828 143.32 145.476 143.32C149.164 143.32 151.069 137.584 151.107 134.765ZM92.1464 133.892L92.1458 133.794C92.1519 131.012 93.7721 124.661 97.7769 124.661C100.216 124.661 101.721 128.77 102.039 133.106L102.061 133.44C102.219 136.116 101.508 142.447 97.7769 142.447C94.0895 142.447 92.1843 136.712 92.1464 133.892ZM148.822 106.567C145.554 106.07 141.226 107.014 139.702 110.337C139.023 111.818 139.827 113.455 141.538 113.537C145.674 113.735 149.384 112.815 153.014 115.504C154.577 116.662 155.89 118.264 156.992 119.863L157.409 120.472L157.755 120.973C158.503 122.073 159.212 123.269 159.101 124.597C159.069 124.99 159.471 125.363 159.852 125.347C162.232 125.249 162.488 122.266 162.175 120.475C161.593 117.149 159.984 114.028 157.753 111.514C155.41 108.874 152.318 107.098 148.822 106.567ZM103.806 110.602C101.553 109.153 98.6701 108.597 96.0299 108.81C90.8243 109.229 82.0911 113.655 83.2406 120.013C83.5953 121.974 86.3227 123.008 87.9298 121.92C89.6578 120.751 90.0783 118.933 91.3643 117.404C92.3904 116.183 93.6908 115.3 95.0833 114.548C96.4558 113.805 98.0437 113.355 99.6013 113.192L99.8606 113.167C100.798 113.087 105.532 113.108 104.837 114.876C104.701 115.222 105.216 115.495 105.452 115.234C106.904 113.628 105.26 111.537 103.806 110.602Z" fill="black"/>
<path fill-rule="evenodd" clip-rule="evenodd" d="M210.081 140.363C206.998 140.363 205.735 147.541 205.735 147.541C197.894 161.062 190.345 174.546 176.877 183.849C161.926 189.84 147.221 200.044 130.186 201.163C122.506 200.356 120.253 193.327 110.769 195.8C104.718 197.271 97.9232 200.17 92.3289 195.982C87.5998 192.891 84.2729 188.208 80.194 184.422C79.9862 183.739 78.6316 190.948 79.0409 193.384L79.3571 194.768C81.8826 205.924 84.4366 219.051 95.7379 225.184C99.1809 226.998 104.011 228.748 107.832 227.725C128.02 230.945 149.918 228.589 167.605 218.519C173.832 216.901 178.464 211.935 183.367 208.185C195.36 197.68 209.103 184.374 210.384 168.416C211.665 152.457 211.095 140.363 210.081 140.363ZM149.084 171.872C142.212 160.838 128.56 162.63 117.938 167.657C112.069 163.673 104.327 164.407 97.9604 167.214L97.9614 167.217C92.0967 170.426 87.655 175.694 83.5719 180.733C82.5785 182.071 82.1834 183.87 83.5806 184.53C90.1621 189.954 103.836 186.771 110.041 182.738C114.518 182.377 113.537 176.021 118.704 180.469C122.152 183.711 126.484 185.721 131.19 186.912C141.71 190.524 151.397 189.924 160.559 184.293C161.738 184.179 166.566 181.448 164.851 180.476C162.984 180.98 152.646 175.047 149.084 171.872Z" fill="white"/>
<path fill-rule="evenodd" clip-rule="evenodd" d="M211.687 152.225C211.617 151.645 210.716 151.616 210.696 152.225C210.278 164.992 206.121 178.989 199.09 189.92C182.192 217.512 147.702 231.334 114.507 226.584C90.2474 226.256 87.6559 212.51 81.626 193.315C78.4964 190.746 76.9587 191.667 77.9308 194.679C85.4056 217.84 87.965 231.124 117.54 230.872C165.027 237.65 216.526 198.823 211.687 152.225ZM144.598 162.52C136.85 159.062 127.631 159.55 121.159 164.333L120.703 164.436C119.57 164.69 118.482 164.883 117.208 164.753C100.084 155.738 88.6517 171.46 79.8719 183.232C79.2096 183.254 78.67 183.774 78.8491 184.383L78.568 184.683C79.6741 187.649 81.6725 190.513 84.405 192.312C93.3643 204.241 100.055 200.512 111.727 195.6C123.73 193.804 124.215 207.952 140.96 201.471L141.592 201.265C147.1 199.445 153.424 196.686 157.429 192.698C157.56 192.567 157.432 192.315 157.231 192.381C147.94 195.182 135.992 204.329 126.534 198.166C124.144 196.562 121.996 194.614 119.323 193.406C104.065 188.301 98.7026 208.463 85.3508 187.53C96.2228 189.425 108.477 187.541 116.604 180.139C128.752 194.77 152.397 192.426 167.431 183.338C169.487 183.634 172.529 181.6 170.636 179.664C168.565 178.018 165.288 178.663 162.742 177.771C154.614 174.879 152.695 165.663 144.598 162.52ZM117.437 168.639C126.024 162.531 138.866 161.502 147.084 168.708C152.216 173.862 155.545 181.259 163.819 182.622C149.61 190.801 129.195 190.938 118.255 177.925C117.911 176.801 116.131 177.286 115.916 178.263C108.082 183.729 98.0624 186.634 88.3049 184.958C86.7321 184.7 85.1791 184.332 83.6645 183.861L85.1046 181.881C92.7617 171.404 102.613 159.204 117.217 167.821C117.548 167.988 117.687 167.561 117.728 167.341L117.908 167.472C117.778 167.743 116.702 168.635 117.437 168.639ZM82.2746 186.831C82.203 186.896 82.144 186.966 82.0937 187.039C81.8533 186.914 81.6042 186.787 81.3479 186.665L81.4173 186.614C81.6927 186.692 81.9795 186.764 82.2746 186.831ZM210.582 136.383L210.585 135.964C210.584 131.75 209.452 137.063 208.944 138.108C206.757 142.044 204.929 145.939 202.613 149.776C193.327 166.484 191.889 173.725 173.176 183.243C171.786 184.433 173.246 186.57 174.973 186.131C177.556 185.474 179.992 183.828 182.242 182.501C194.985 175.929 199.738 162.523 205.455 150.854C207.134 146.227 211.007 141.291 210.582 136.383Z" fill="black"/>
<path fill-rule="evenodd" clip-rule="evenodd" d="M78.0292 148.024C80.9665 151.97 86.4116 153.227 91.4341 152.793C102.266 151.75 105.676 139.448 106.031 129.886C98.7669 131.929 106.645 117.457 81.8145 115.866C73.0613 115.137 75.4746 120.423 71.6073 124.285C71.6867 132.392 73.036 141.2 78.0292 148.024ZM129.624 138.71C136.019 168.659 171.04 161.535 174.719 134.538C171.322 132.14 172.217 126.22 167.996 124.075C161.308 119.802 152.947 119.985 145.351 120.085C135.643 120.752 132.876 124.774 127.889 129.161C128.129 132.092 128.821 135.565 129.624 138.71ZM64.1563 110.906C64.5153 110.846 64.8748 110.79 65.2343 110.737C65.5148 110.578 65.8441 110.455 66.2271 110.382C67.1018 110.159 67.9704 110.01 68.8376 109.929C81.2845 107.128 110.079 111.105 111.268 121.727C115.232 123.05 118.661 121.865 123.255 121.983C126.752 107.367 187.208 109.43 190.116 118.242C190.126 118.239 190.137 118.236 190.149 118.233C192.942 117.368 197.061 117.576 200.259 117.44C207.086 117.296 213.922 117.905 220.602 119.345C233.111 121.333 250.183 123.66 241.483 139.281C241.482 139.284 241.48 139.287 241.478 139.29L241.477 139.288C239.978 140.825 237.433 139.588 237.338 137.507C240.263 130.107 233.657 129.218 228.574 127.091C215.926 122.547 203.049 121.918 189.968 123.323C188.983 124.482 187.49 125.492 185.912 126.021C177.166 127.473 181.775 133.96 176.247 134.904C177.262 157.52 149.805 169.864 133.895 154.998C127.543 148.787 126.029 139.588 124.556 131.295C123.778 131.12 123.282 130.694 122.993 130.131C121.12 128.261 119.944 126.534 116.241 126.021C112.537 125.508 109.686 126.538 109.301 126.853C109.204 127.049 109.099 127.245 108.978 127.442C108.809 127.734 108.578 127.968 108.317 128.151C111.974 150.672 94.4904 164.914 76.8405 153.234C69.1713 146.02 67.5507 134.975 67.2305 125.117C66.1909 124.49 65.5327 123.274 65.8925 121.745C66.3886 119.638 65.2255 117.814 63.3733 116.898C60.9665 115.708 61.3923 111.364 64.1563 110.906Z" fill="black"/>
</svg>
