<svg width="441" height="318" viewBox="0 0 441 318" fill="none" xmlns="http://www.w3.org/2000/svg">
<g clip-path="url(#clip0_1872_30654)">
<path d="M160.791 158.896L190.765 128.903C194.977 124.688 200.691 122.32 206.649 122.32H259.045C265.004 122.32 270.718 119.952 274.929 115.738L298.326 92.3264C302.537 88.1119 308.251 85.744 314.21 85.744H365.707C371.665 85.744 377.379 83.3761 381.591 79.1617L410.966 49.7675" stroke="#EAEDF2" stroke-width="2.10526"/>
<path d="M409.663 52.6752C410.075 52.2646 410.076 51.5982 409.665 51.1865C409.255 50.7749 408.588 50.774 408.177 51.1845L409.663 52.6752ZM381.586 79.1886L382.33 79.9339L381.586 79.1886ZM298.326 92.3264L297.581 91.5823L298.326 92.3264ZM161.536 159.64L191.51 129.647L190.021 128.158L160.046 158.152L161.536 159.64ZM206.649 123.373H259.045V121.268H206.649V123.373ZM275.674 116.482L299.07 93.0705L297.581 91.5823L274.185 114.994L275.674 116.482ZM314.21 86.7967H365.729V84.6914H314.21V86.7967ZM382.33 79.9339L409.663 52.6752L408.177 51.1845L380.843 78.4432L382.33 79.9339ZM365.729 86.7967C371.953 86.7967 377.923 84.3287 382.33 79.9339L380.843 78.4432C376.831 82.4445 371.396 84.6914 365.729 84.6914V86.7967ZM299.07 93.0705C303.085 89.0536 308.531 86.7967 314.21 86.7967V84.6914C307.972 84.6914 301.99 87.1703 297.581 91.5823L299.07 93.0705ZM259.045 123.373C265.283 123.373 271.265 120.894 275.674 116.482L274.185 114.994C270.171 119.011 264.724 121.268 259.045 121.268V123.373ZM191.51 129.647C195.524 125.63 200.97 123.373 206.649 123.373V121.268C200.412 121.268 194.43 123.746 190.021 128.158L191.51 129.647Z" fill="#7250F8"/>
<path d="M23.527 303.864C39.36 315.278 59.8783 315.851 79.7115 314.449C82.4809 314.253 85.2308 314.024 87.9551 313.776C87.9716 313.772 87.9932 313.773 88.0099 313.769C88.1409 313.757 88.272 313.744 88.3973 313.737C88.9596 313.684 89.5222 313.632 90.0792 313.579L89.9476 313.83L89.5346 314.609C89.6831 314.348 89.8314 314.093 89.9798 313.832C90.0235 313.754 90.0724 313.676 90.1158 313.597C95.2537 304.651 100.35 295.375 101.649 285.159C102.993 274.556 99.217 262.549 89.8905 257.337C88.6673 256.655 87.372 256.112 86.0285 255.718C85.4708 255.549 84.9054 255.411 84.3337 255.289C80.8358 254.512 77.1942 254.681 73.7833 255.779C70.3725 256.877 67.3154 258.864 64.9264 261.537C62.5375 264.209 60.9029 267.469 60.1908 270.983C59.4786 274.497 59.7147 278.137 60.8746 281.529C52.9674 273.416 54.4424 260.254 57.17 249.254C59.9029 238.254 63.2113 226.014 57.6528 216.134C54.563 210.635 49.1293 207.223 43.0314 205.848C42.8444 205.808 42.6576 205.768 42.4701 205.733C35.2046 204.26 27.6514 205.584 21.3192 209.441C9.65944 216.793 3.67087 230.733 1.72723 244.389C-1.40434 266.363 5.52587 290.887 23.527 303.864Z" fill="#EAEDF2"/>
<path d="M301.715 307.195C290.484 315.288 275.93 315.695 261.862 314.7C259.898 314.562 257.947 314.399 256.015 314.223C256.003 314.22 255.988 314.222 255.976 314.219C255.883 314.21 255.79 314.201 255.701 314.196C255.302 314.158 254.903 314.121 254.508 314.083L254.602 314.262L254.894 314.814C254.789 314.629 254.684 314.448 254.579 314.263C254.548 314.208 254.513 314.152 254.482 314.097C250.838 307.753 247.223 301.175 246.301 293.931C245.348 286.412 248.027 277.898 254.642 274.202C255.51 273.719 256.428 273.334 257.381 273.054C257.777 272.934 258.178 272.836 258.584 272.75C261.065 272.199 263.648 272.319 266.067 273.097C268.486 273.876 270.655 275.285 272.349 277.18C274.044 279.075 275.203 281.387 275.709 283.879C276.214 286.37 276.046 288.952 275.223 291.357C280.832 285.604 279.786 276.271 277.851 268.47C275.913 260.67 273.566 251.991 277.509 244.985C279.7 241.085 283.555 238.665 287.88 237.691C288.013 237.662 288.145 237.634 288.278 237.609C293.432 236.565 298.789 237.504 303.281 240.238C311.551 245.452 315.799 255.337 317.178 265.02C319.399 280.602 314.483 297.992 301.715 307.195Z" fill="#EAEDF2"/>
<path d="M28.6385 268.639C29.0981 273.486 30.2617 278.24 32.0925 282.751C33.7797 286.743 36.0539 290.46 38.8396 293.779C44.5301 300.629 52.0546 305.778 60.2264 309.21C66.4748 311.771 73.0215 313.531 79.711 314.449C82.4805 314.253 85.2303 314.024 87.9547 313.776C87.9712 313.772 87.9928 313.773 88.0095 313.769C88.1404 313.757 88.2716 313.744 88.3969 313.737C88.9592 313.684 89.5218 313.632 90.0788 313.579L89.9472 313.83L89.5342 314.609C89.6826 314.349 89.8309 314.093 89.9794 313.832C90.023 313.754 90.0719 313.676 90.1153 313.597C85.1003 308.597 81.3559 302.468 79.1959 295.721C77.0359 288.975 76.5234 281.809 77.7011 274.824C78.9336 267.888 81.7868 261.341 86.0281 255.718C85.4703 255.549 84.905 255.411 84.3332 255.289C82.7214 257.495 81.3075 259.838 80.1081 262.292C75.8044 271.045 74.4314 280.951 76.1923 290.545C77.8293 299.227 81.9078 307.262 87.9488 313.705C87.4199 313.668 86.8858 313.625 86.3631 313.577C76.463 312.738 66.583 310.608 57.6034 306.246C49.928 302.607 43.2643 297.136 38.1994 290.314C32.7611 282.809 30.3647 273.782 29.9531 264.606C29.5166 254.784 30.7903 244.788 33.0306 235.236C35.3181 225.443 38.7947 215.966 43.3827 207.018C43.4853 206.815 43.506 206.581 43.4405 206.363C43.3751 206.145 43.2284 205.961 43.031 205.848C42.8664 205.737 42.6647 205.696 42.4697 205.733C42.3742 205.758 42.2857 205.804 42.2108 205.869C42.1358 205.933 42.0763 206.013 42.0367 206.104C41.4707 207.209 40.9152 208.315 40.3809 209.434C35.9307 218.75 32.6543 228.584 30.6271 238.708C28.6591 248.476 27.6086 258.693 28.6385 268.639Z" fill="white"/>
<path d="M297.76 282.499C297.437 285.935 296.619 289.305 295.332 292.503C294.145 295.333 292.546 297.968 290.588 300.321C286.586 305.177 281.296 308.827 275.55 311.26C271.157 313.075 266.553 314.323 261.85 314.974C259.902 314.835 257.969 314.673 256.053 314.497C256.042 314.494 256.027 314.495 256.015 314.492C255.923 314.483 255.831 314.474 255.742 314.469C255.347 314.432 254.952 314.395 254.56 314.357L254.652 314.535L254.943 315.088C254.838 314.903 254.734 314.722 254.63 314.537C254.599 314.481 254.565 314.426 254.534 314.37C258.06 310.826 260.693 306.48 262.212 301.698C263.731 296.915 264.091 291.835 263.263 286.883C262.396 281.966 260.39 277.326 257.408 273.339C257.8 273.219 258.198 273.122 258.6 273.035C259.733 274.599 260.727 276.26 261.571 278C264.597 284.204 265.562 291.227 264.324 298.029C263.173 304.183 260.305 309.879 256.058 314.447C256.429 314.42 256.805 314.39 257.173 314.356C264.134 313.761 271.08 312.251 277.394 309.159C282.791 306.579 287.476 302.701 291.038 297.865C294.861 292.544 296.546 286.145 296.836 279.64C297.143 272.677 296.247 265.591 294.672 258.819C293.064 251.877 290.619 245.159 287.393 238.816C287.321 238.672 287.306 238.505 287.352 238.351C287.399 238.197 287.502 238.066 287.64 237.986C287.756 237.907 287.898 237.878 288.035 237.904C288.102 237.922 288.164 237.955 288.217 238.001C288.27 238.046 288.312 238.103 288.34 238.167C288.738 238.951 289.128 239.735 289.504 240.528C292.633 247.132 294.937 254.103 296.362 261.281C297.746 268.205 298.484 275.448 297.76 282.499Z" fill="white"/>
<path d="M64.3181 160.092L67.1756 108.512L66.2291 70.8643L79.5107 75.8366L81.728 116.799L72.0667 161.364C72.7193 162.261 73.0907 163.332 73.1336 164.44C73.1765 165.549 72.889 166.645 72.3076 167.59C71.7263 168.534 70.8773 169.284 69.8687 169.745C68.8602 170.206 67.7375 170.356 66.6435 170.176C65.5495 169.996 64.5336 169.495 63.7249 168.736C62.9163 167.978 62.3514 166.995 62.1021 165.914C61.8528 164.833 61.9304 163.703 62.325 162.666C62.7196 161.629 63.4134 160.733 64.3181 160.092Z" fill="#FFB7B7"/>
<path d="M92.134 310.055L98.9202 310.055L102.149 283.861L92.1328 283.862L92.134 310.055Z" fill="#FFB7B7"/>
<path d="M90.4062 307.838L103.771 307.838C106.03 307.838 108.197 308.736 109.794 310.334C111.392 311.932 112.289 314.1 112.289 316.36V316.637L90.4067 316.638L90.4062 307.838Z" fill="#2F2E41"/>
<path d="M117.842 307.05L124.548 308.088L131.741 282.697L121.843 281.165L117.842 307.05Z" fill="#FFB7B7"/>
<path d="M116.469 304.594L129.677 306.639C131.91 306.984 133.914 308.203 135.248 310.027C136.582 311.851 137.138 314.13 136.793 316.364L136.75 316.638L115.125 313.291L116.469 304.594Z" fill="#2F2E41"/>
<path d="M90.143 302.234L90.1078 302.045L65.5395 169.126C63.5892 158.455 65.1448 147.44 69.9735 137.728L84.8437 107.968L129.215 113.983L134.452 151.872L153.113 224.15L153.094 224.209L129.185 300.204L113.516 301.235L127.396 233.399L101.98 175.634L103.773 301.201L90.143 302.234Z" fill="#2F2E41"/>
<path d="M125.72 41.3165H85.1297C84.2947 41.3156 83.4943 40.9833 82.9039 40.3925C82.3135 39.8017 81.9814 39.0007 81.9805 38.1652V23.4594C81.9805 17.2376 84.4505 11.2706 88.8471 6.87109C93.2438 2.4716 99.2069 0 105.425 0C111.642 0 117.606 2.4716 122.002 6.87109C126.399 11.2706 128.869 17.2376 128.869 23.4594V38.1652C128.868 39.0007 128.536 39.8017 127.946 40.3925C127.355 40.9833 126.555 41.3156 125.72 41.3165Z" fill="#2F2E41"/>
<path d="M121.448 32.2221C126.001 23.8871 122.94 13.4366 114.61 8.88032C106.281 4.324 95.8371 7.38723 91.2837 15.7222C86.7303 24.0572 89.7916 34.5077 98.1212 39.064C106.451 43.6203 116.895 40.5571 121.448 32.2221Z" fill="#FFB7B7"/>
<path d="M122.704 24.5098C122.704 24.5098 115.789 24.5098 111.358 24.5098C106.927 24.5098 100.011 24.5098 100.011 24.5098C99.585 24.5092 99.1735 24.3531 98.8539 24.0708C98.5343 23.7884 98.3286 23.3991 98.2752 22.9759L97.9814 20.624C97.9532 20.3979 97.8522 20.1871 97.6938 20.0234C97.5353 19.8597 97.328 19.752 97.103 19.7165C96.878 19.6811 96.6476 19.7198 96.4466 19.8269C96.2456 19.934 96.0848 20.1036 95.9885 20.3101L94.5009 23.4997C94.3594 23.801 94.1352 24.056 93.8546 24.2348C93.5739 24.4136 93.2482 24.509 92.9155 24.5098H89.4685C89.2246 24.5098 88.9834 24.4589 88.7604 24.3602C88.5374 24.2615 88.3375 24.1172 88.1735 23.9367C88.0095 23.7561 87.885 23.5432 87.8081 23.3117C87.7312 23.0802 87.7035 22.8351 87.7267 22.5922L89.0859 8.38625C89.115 8.08232 89.2224 7.79116 89.3977 7.54122C89.573 7.29129 89.81 7.09115 90.0858 6.96038C100.478 2.10561 111.017 2.11176 121.41 6.97885C121.674 7.10284 121.902 7.29065 122.075 7.52528C122.248 7.75991 122.36 8.03396 122.4 8.32264L124.436 22.5102C124.472 22.7586 124.454 23.0117 124.383 23.2526C124.312 23.4934 124.191 23.7161 124.027 23.9058C123.862 24.0955 123.659 24.2475 123.431 24.3517C123.203 24.456 122.955 24.5098 122.704 24.5098Z" fill="#2F2E41"/>
<path d="M410.951 55.7636C414.261 55.7636 416.943 53.0791 416.943 49.7675C416.943 46.456 414.261 43.7714 410.951 43.7714C407.642 43.7714 404.959 46.456 404.959 49.7675C404.959 53.0791 407.642 55.7636 410.951 55.7636Z" fill="#EAEDF2"/>
<path d="M305.764 102.456C315.066 102.456 322.606 94.9157 322.606 85.614C322.606 76.3124 315.066 68.7719 305.764 68.7719C296.462 68.7719 288.922 76.3124 288.922 85.614C288.922 94.9157 296.462 102.456 305.764 102.456Z" fill="#7250F8"/>
<path d="M302.781 92.1053C302.664 92.1053 302.557 92.0858 302.459 92.0468C302.362 92.0078 302.264 91.9396 302.167 91.8421L296.874 86.5497C296.699 86.3743 296.611 86.1598 296.611 85.9064C296.611 85.653 296.699 85.4386 296.874 85.2632C297.05 85.0877 297.255 85 297.489 85C297.722 85 297.927 85.0877 298.103 85.2632L302.781 89.9415L313.395 79.3275C313.57 79.1521 313.78 79.0643 314.024 79.0643C314.267 79.0643 314.477 79.1521 314.652 79.3275C314.828 79.5029 314.915 79.7125 314.915 79.9561C314.915 80.1998 314.828 80.4094 314.652 80.5848L303.395 91.8421C303.297 91.9396 303.2 92.0078 303.103 92.0468C303.005 92.0858 302.898 92.1053 302.781 92.1053Z" fill="white"/>
<path d="M411.026 66.6667C420.327 66.6667 427.868 59.1262 427.868 49.8246C427.868 40.523 420.327 32.9825 411.026 32.9825C401.724 32.9825 394.184 40.523 394.184 49.8246C394.184 59.1262 401.724 66.6667 411.026 66.6667Z" fill="#7250F8"/>
<path d="M408.045 56.3158C407.928 56.3158 407.82 56.2963 407.723 56.2573C407.625 56.2183 407.528 56.1501 407.431 56.0526L402.138 50.7602C401.963 50.5848 401.875 50.3704 401.875 50.1169C401.875 49.8635 401.963 49.6491 402.138 49.4737C402.314 49.2982 402.518 49.2105 402.752 49.2105C402.986 49.2105 403.191 49.2982 403.366 49.4737L408.045 54.152L418.659 43.538C418.834 43.3626 419.044 43.2748 419.287 43.2748C419.531 43.2748 419.74 43.3626 419.916 43.538C420.091 43.7134 420.179 43.923 420.179 44.1667C420.179 44.4103 420.091 44.6199 419.916 44.7953L408.659 56.0526C408.561 56.1501 408.464 56.2183 408.366 56.2573C408.269 56.2963 408.162 56.3158 408.045 56.3158Z" fill="white"/>
<path d="M196.289 140.351C205.591 140.351 213.131 132.81 213.131 123.509C213.131 114.207 205.591 106.667 196.289 106.667C186.988 106.667 179.447 114.207 179.447 123.509C179.447 132.81 186.988 140.351 196.289 140.351Z" fill="#7250F8"/>
<path d="M193.306 130C193.189 130 193.082 129.98 192.985 129.942C192.887 129.903 192.79 129.834 192.692 129.737L187.4 124.444C187.224 124.269 187.137 124.055 187.137 123.801C187.137 123.548 187.224 123.333 187.4 123.158C187.575 122.982 187.78 122.895 188.014 122.895C188.248 122.895 188.453 122.982 188.628 123.158L193.306 127.836L203.92 117.222C204.096 117.047 204.305 116.959 204.549 116.959C204.793 116.959 205.002 117.047 205.178 117.222C205.353 117.398 205.441 117.607 205.441 117.851C205.441 118.095 205.353 118.304 205.178 118.48L193.92 129.737C193.823 129.834 193.725 129.903 193.628 129.942C193.53 129.98 193.423 130 193.306 130Z" fill="white"/>
<path d="M160.871 156.179L150.548 105.562L146.013 68.1771L135.967 74.6804L137.355 115.879L153.39 158.565C152.874 159.547 152.663 160.66 152.781 161.763C152.9 162.866 153.344 163.909 154.056 164.759C154.768 165.609 155.717 166.227 156.782 166.536C157.847 166.845 158.98 166.83 160.036 166.493C161.092 166.156 162.024 165.513 162.714 164.644C163.404 163.776 163.82 162.722 163.91 161.616C163.999 160.51 163.758 159.403 163.217 158.435C162.676 157.467 161.859 156.681 160.871 156.179Z" fill="#FFB7B7"/>
<path d="M130.247 118.832L129.954 118.373C129.902 118.29 124.512 110.165 109.845 115.59C94.8729 121.129 83.2716 110.431 83.1561 110.322L83.0986 110.268L79.7079 80.0263L75.7051 55.4761L88.4469 53.2392L94.7113 49.4784L119.622 49.0346L126.177 54.1936L136.939 55.3673L137.924 77.7368L137.92 77.7612L130.247 118.832Z" fill="#7250F8"/>
<path d="M133.816 79.9006V60.7461L136.843 55.2194L136.966 55.2156C139.348 55.3045 141.6 56.3282 143.234 58.0654C146.278 61.1603 147.657 66.3166 147.333 73.391L147.327 73.5205L133.816 79.9006Z" fill="#7250F8"/>
<path d="M81.066 77.8186L65.6409 75.9662L65.6288 75.7884C65.1026 68.0914 66.4452 62.3778 69.6193 58.8068C72.5001 55.5658 75.801 55.3696 75.9401 55.3628L76.0292 55.3586L80.2048 59.157L81.066 77.8186Z" fill="#7250F8"/>
<path d="M18.0441 202.105C22.6949 202.105 26.4652 198.335 26.4652 193.684C26.4652 189.033 22.6949 185.263 18.0441 185.263C13.3933 185.263 9.62305 189.033 9.62305 193.684C9.62305 198.335 13.3933 202.105 18.0441 202.105Z" fill="#EAEDF2"/>
<path d="M301.904 226.667C304.811 226.667 307.167 224.31 307.167 221.404C307.167 218.497 304.811 216.14 301.904 216.14C298.997 216.14 296.641 218.497 296.641 221.404C296.641 224.31 298.997 226.667 301.904 226.667Z" fill="#EAEDF2"/>
<path d="M254.184 260.351C256.704 260.351 258.746 258.309 258.746 255.789C258.746 253.27 256.704 251.228 254.184 251.228C251.665 251.228 249.623 253.27 249.623 255.789C249.623 258.309 251.665 260.351 254.184 260.351Z" fill="#EAEDF2"/>
<path d="M485.623 317.193H1.34101C1.11796 317.193 0.904043 317.119 0.746324 316.988C0.588605 316.856 0.5 316.677 0.5 316.491C0.5 316.305 0.588605 316.127 0.746324 315.995C0.904043 315.863 1.11796 315.79 1.34101 315.79H485.623C485.846 315.79 486.06 315.863 486.218 315.995C486.376 316.127 486.464 316.305 486.464 316.491C486.464 316.677 486.376 316.856 486.218 316.988C486.06 317.119 485.846 317.193 485.623 317.193Z" fill="#EAEDF2"/>
</g>
<defs>
<clipPath id="clip0_1872_30654">
<rect width="440" height="317.193" fill="white" transform="translate(0.5)"/>
</clipPath>
</defs>
</svg>
