<svg width="413" height="473" viewBox="0 0 413 473" fill="none" xmlns="http://www.w3.org/2000/svg">
<path d="M348.267 250.682C352.802 234.229 361.262 220.217 374.921 209.437C375.462 208.603 376.311 208.017 377.283 207.808C378.256 207.599 379.271 207.783 380.108 208.321L411.284 228.433C412.119 228.973 412.706 229.822 412.915 230.794C413.125 231.765 412.94 232.78 412.401 233.615L385.747 274.86C385.206 275.694 384.357 276.28 383.384 276.489C382.412 276.698 381.396 276.514 380.56 275.976L349.383 255.863C348.548 255.324 347.962 254.475 347.753 253.503C347.543 252.532 347.728 251.517 348.267 250.682Z" fill="#EAEDF2"/>
<path d="M358.709 239.767C359.878 231.074 367.075 222.187 375.845 213.251C376.351 212.469 377.147 211.921 378.057 211.725C378.968 211.529 379.919 211.702 380.702 212.206L407.496 229.49C408.278 229.996 408.827 230.791 409.023 231.701C409.219 232.611 409.046 233.561 408.542 234.343L384.823 271.046C384.317 271.827 383.521 272.376 382.611 272.571C381.7 272.767 380.749 272.594 379.966 272.09L363.367 261.383C359.884 259.13 357.438 255.59 356.564 251.537C355.691 247.485 356.462 243.252 358.709 239.767Z" fill="white"/>
<path d="M361.1 275.21C357.144 258.609 357.804 242.258 364.578 226.238C364.649 225.247 365.112 224.325 365.863 223.674C366.614 223.023 367.593 222.696 368.585 222.765L405.603 225.389C406.595 225.461 407.518 225.922 408.17 226.673C408.822 227.424 409.149 228.402 409.08 229.393L405.602 278.365C405.53 279.356 405.068 280.278 404.317 280.93C403.566 281.581 402.586 281.908 401.594 281.838L364.576 279.214C363.584 279.143 362.661 278.681 362.01 277.93C361.358 277.18 361.031 276.201 361.1 275.21Z" fill="#EAEDF2"/>
<path d="M364.99 260.62C361.824 252.439 363.848 241.188 367.226 229.136C367.293 228.208 367.726 227.344 368.429 226.735C369.133 226.125 370.05 225.819 370.979 225.884L402.793 228.139C403.722 228.206 404.587 228.638 405.197 229.341C405.807 230.044 406.114 230.96 406.049 231.889L402.954 275.467C402.887 276.395 402.454 277.259 401.75 277.869C401.047 278.479 400.13 278.785 399.201 278.72L379.493 277.323C375.354 277.025 371.503 275.099 368.785 271.967C366.066 268.836 364.701 264.755 364.99 260.62Z" fill="white"/>
<path d="M364.292 172.727L348.433 114.081C347.754 111.599 346.125 109.482 343.898 108.189C341.671 106.896 339.024 106.529 336.529 107.169C335.238 107.499 334.028 108.089 332.973 108.903C331.917 109.716 331.039 110.735 330.391 111.898C329.743 113.062 329.339 114.345 329.203 115.67C329.068 116.994 329.204 118.332 329.603 119.603L347.945 180.016L357.542 217.195C356.144 218.262 355.109 219.732 354.577 221.407C354.045 223.081 354.041 224.879 354.567 226.555C355.093 228.232 356.123 229.706 357.517 230.778C358.911 231.849 360.601 232.466 362.358 232.544C364.115 232.622 365.853 232.159 367.337 231.215C368.82 230.272 369.978 228.896 370.651 227.273C371.324 225.649 371.481 223.859 371.101 222.143C370.72 220.428 369.82 218.871 368.523 217.685L364.292 172.727Z" fill="#FFB6B6"/>
<path d="M249.92 182.872L266.184 124.337C266.865 121.855 266.543 119.205 265.286 116.958C264.029 114.712 261.939 113.049 259.466 112.329C258.186 111.956 256.844 111.848 255.522 112.01C254.199 112.173 252.923 112.603 251.772 113.274C250.621 113.945 249.619 114.843 248.827 115.914C248.035 116.985 247.47 118.205 247.165 119.502L232.137 180.822L221.433 217.698C219.687 217.904 218.046 218.642 216.734 219.812C215.422 220.982 214.503 222.528 214.1 224.238C213.698 225.948 213.832 227.741 214.485 229.373C215.138 231.004 216.278 232.395 217.749 233.357C219.221 234.319 220.953 234.804 222.711 234.748C224.469 234.692 226.167 234.097 227.574 233.043C228.981 231.989 230.029 230.528 230.576 228.858C231.124 227.188 231.143 225.391 230.632 223.71L249.92 182.872Z" fill="#FFB6B6"/>
<path d="M342.988 407.721L332.624 407.72L327.694 367.783L342.989 367.784L342.988 407.721Z" fill="#FFB6B6"/>
<path d="M343.353 418.522L311.484 418.521V418.118C311.485 414.832 312.791 411.68 315.118 409.356C317.444 407.032 320.599 405.726 323.888 405.726L329.71 401.313L340.571 405.726L343.353 405.727L343.353 418.522Z" fill="#2F2E41"/>
<path d="M270.059 407.825L259.856 406.006L262.02 365.824L277.077 368.508L270.059 407.825Z" fill="#FFB6B6"/>
<path d="M268.52 418.522L237.147 412.932L237.218 412.536C237.795 409.3 239.636 406.426 242.334 404.546C245.032 402.666 248.368 401.934 251.606 402.511L258.113 399.188L268.03 405.437L270.769 405.925L268.52 418.522Z" fill="#2F2E41"/>
<path d="M271.069 224.096C271.069 224.096 261.411 237.764 261.804 242.35C262.198 246.937 265.609 243.278 262.198 246.937C258.787 250.596 256.8 248.141 258.476 252.662C260.152 257.182 260.834 254.255 260.152 257.182C259.469 260.109 260.834 372.074 260.834 372.074H278.594C278.594 372.074 288.61 307.152 287.342 304.121C286.074 301.09 286.103 302.409 287.453 299.188C288.803 295.967 290.073 292.135 290.073 292.135L304.112 252.662L314.941 308.24L327.687 374.283H344.707C344.707 374.283 347.622 277.165 348.91 275.955C350.199 274.745 348.657 272.026 347.04 270.458C345.424 268.891 345.746 267.299 346.267 264.07C346.788 260.841 348.986 259.04 348.91 257.014C348.835 254.987 353.61 222.788 346.106 217.665C338.602 212.543 271.069 224.096 271.069 224.096Z" fill="#2F2E41"/>
<path d="M330.454 87.9532L310.587 82.8098L301.314 70.0308L279.29 72.7358L274.602 90.1664L258.923 99.2593C287.029 99.4272 271.893 180.78 276.024 186.029C279.386 190.3 259.245 200.462 265.557 206.944C271.87 213.426 269.536 210.832 268.071 217.889C266.606 224.946 255.929 232.414 268.071 232.34C280.213 232.266 353.481 231.22 351.388 222.854C349.294 214.488 349.327 216.613 346.171 211.368C343.014 206.123 340.89 209.054 341.952 201.314C343.014 193.574 339.564 187.587 341.968 184.162C345.656 178.905 341.939 140.955 338.46 141.968L330.454 87.9532Z" fill="#7250F8"/>
<path d="M324.781 88.2245C324.781 88.2245 339.314 82.0562 344.547 93.5594C346.219 97.2335 347.626 106.462 348.982 104.415C350.338 102.369 349.03 106.855 349.869 106.861C350.619 106.866 351.771 105.655 350.9 109.827C350.627 111.195 350.706 112.61 351.128 113.94C351.551 115.27 352.303 116.471 353.316 117.432L328.058 132.546L324.781 88.2245Z" fill="#7250F8"/>
<path d="M270.18 98.682C270.18 98.682 255.648 92.5137 250.415 104.017C248.943 107.252 249.309 114.441 246.443 113.634C243.577 112.827 245.611 115.867 245.233 116.924C244.812 118.101 246.652 121.433 244.068 120.267C241.483 119.101 241.646 127.89 241.646 127.89L266.903 143.003L270.18 98.682Z" fill="#7250F8"/>
<path d="M277.071 81.4541L272.884 88.7743C272.884 88.7743 261.371 95.0488 261.371 96.0945C261.371 97.1403 263.464 105.679 261.371 112.39C259.277 119.101 265.366 131.722 266.604 142.107C271.837 186.029 256.274 201.987 252.997 229.95L286.211 239.642C286.211 239.642 291.724 166.16 291.724 149.428C291.724 132.696 277.071 81.4541 277.071 81.4541Z" fill="#2F2E41"/>
<path d="M307.424 78.3169L315.981 83.1791C315.981 83.1791 327.178 85.6457 327.311 86.6829C327.445 87.72 327.485 98.7433 330.419 105.132C333.353 111.521 332.545 114.918 340.447 133.805C344.485 143.454 353.754 220.661 353.754 220.661L322.051 234.512C322.051 234.512 307.188 162.335 305.049 145.74C302.91 129.145 307.424 78.3169 307.424 78.3169Z" fill="#2F2E41"/>
<path d="M286.03 68.3466C297.983 68.3466 307.672 58.6656 307.672 46.7236C307.672 34.7815 297.983 25.1006 286.03 25.1006C274.077 25.1006 264.388 34.7815 264.388 46.7236C264.388 58.6656 274.077 68.3466 286.03 68.3466Z" fill="#FFB6B6"/>
<path d="M300.273 63.5239C295.157 59.5286 302.151 41.9531 293.702 45.7046C293.702 45.7046 283.377 39.1396 281.302 43.4537C278.9 48.4491 270.357 46.1829 265.11 44.4197C265.522 43.4619 265.815 42.4571 265.983 41.428C265.014 42.1905 263.988 42.8771 262.913 43.4819C262.192 43.0971 261.554 42.5745 261.036 41.9438C260.524 41.358 260.203 40.6299 260.118 39.857C260.032 39.0841 260.185 38.3036 260.557 37.6202C261.43 36.2791 263.232 35.8665 264.293 34.6754C264.415 34.5079 264.495 34.3132 264.526 34.108C264.557 33.9027 264.537 33.6932 264.469 33.4972C264.343 33.018 264.324 32.5168 264.413 32.0294C264.503 31.5419 264.699 31.0802 264.987 30.6772C265.276 30.2741 265.65 29.9396 266.083 29.6975C266.516 29.4554 266.997 29.3116 267.492 29.2765C267.691 29.2825 267.888 29.2396 268.066 29.1514C268.957 28.6068 269.779 27.9582 270.516 27.2194C269.287 27.2756 270.79 19.7551 282.982 21.1795C286.052 21.067 287.655 24.4493 290.677 24.9839C298.004 20.8009 304.544 26.8349 307.727 32.6027C310.909 38.3705 314.354 56.9589 300.273 63.5239Z" fill="#2F2E41"/>
<path d="M207.927 32.5039H13.9247C10.2339 32.507 6.69507 33.9727 4.08455 36.5794C1.47404 39.1861 0.00510746 42.721 0 46.4085V221.064C0.00479948 224.752 1.4734 228.288 4.08376 230.896C6.69412 233.504 10.2331 234.971 13.9247 234.976H207.927C211.618 234.971 215.156 233.503 217.765 230.895C220.374 228.287 221.841 224.751 221.844 221.064V46.4085C221.841 42.7218 220.373 39.1871 217.764 36.5802C215.155 33.9733 211.617 32.5073 207.927 32.5039Z" fill="white"/>
<path d="M119.285 72.5903H98.5588C97.5409 72.5903 96.5646 72.1863 95.8449 71.4671C95.1251 70.748 94.7207 69.7726 94.7207 68.7556C94.7207 67.7386 95.1251 66.7632 95.8449 66.0441C96.5646 65.3249 97.5409 64.9209 98.5588 64.9209H119.285C120.303 64.9209 121.279 65.3249 121.999 66.0441C122.719 66.7632 123.123 67.7386 123.123 68.7556C123.123 69.7726 122.719 70.748 121.999 71.4671C121.279 72.1863 120.303 72.5903 119.285 72.5903Z" fill="#7250F8"/>
<path d="M394.095 248.781H373.369C372.351 248.781 371.375 248.377 370.655 247.658C369.936 246.938 369.531 245.963 369.531 244.946C369.531 243.929 369.936 242.954 370.655 242.234C371.375 241.515 372.351 241.111 373.369 241.111H394.095C395.113 241.111 396.09 241.515 396.809 242.234C397.529 242.954 397.933 243.929 397.933 244.946C397.933 245.963 397.529 246.938 396.809 247.658C396.09 248.377 395.113 248.781 394.095 248.781Z" fill="#7250F8"/>
<path d="M173.019 152.914H44.825C43.807 152.914 42.8308 152.51 42.111 151.79C41.3912 151.071 40.9868 150.096 40.9868 149.079C40.9868 148.062 41.3912 147.086 42.111 146.367C42.8308 145.648 43.807 145.244 44.825 145.244H173.019C174.037 145.244 175.013 145.648 175.733 146.367C176.452 147.086 176.857 148.062 176.857 149.079C176.857 150.096 176.452 151.071 175.733 151.79C175.013 152.51 174.037 152.914 173.019 152.914Z" fill="#EAEDF2"/>
<path d="M173.019 178.223H44.825C43.807 178.223 42.8308 177.819 42.111 177.099C41.3912 176.38 40.9868 175.405 40.9868 174.388C40.9868 173.371 41.3912 172.396 42.111 171.676C42.8308 170.957 43.807 170.553 44.825 170.553H173.019C174.037 170.553 175.013 170.957 175.733 171.676C176.452 172.396 176.857 173.371 176.857 174.388C176.857 175.405 176.452 176.38 175.733 177.099C175.013 177.819 174.037 178.223 173.019 178.223Z" fill="#EAEDF2"/>
<path d="M173.019 203.532H44.825C43.807 203.532 42.8308 203.128 42.111 202.409C41.3912 201.689 40.9868 200.714 40.9868 199.697C40.9868 198.68 41.3912 197.705 42.111 196.985C42.8308 196.266 43.807 195.862 44.825 195.862H173.019C174.037 195.862 175.013 196.266 175.733 196.985C176.452 197.705 176.857 198.68 176.857 199.697C176.857 200.714 176.452 201.689 175.733 202.409C175.013 203.128 174.037 203.532 173.019 203.532Z" fill="#EAEDF2"/>
<path d="M146.817 84.0962H71.0287C67.3379 84.0993 63.7991 85.565 61.1886 88.1717C58.5781 90.7784 57.1091 94.3133 57.104 98.0008V120.802C57.1088 124.49 58.5774 128.026 61.1878 130.634C63.7981 133.242 67.3371 134.709 71.0287 134.714H146.817C150.507 134.709 154.045 133.241 156.654 130.633C159.264 128.025 160.731 124.489 160.734 120.802V98.0008C160.73 94.3141 159.263 90.7794 156.654 88.1725C154.044 85.5656 150.507 84.0996 146.817 84.0962ZM159.198 120.802C159.198 124.085 157.893 127.233 155.57 129.555C153.246 131.876 150.095 133.18 146.809 133.18H92.405C83.4498 133.18 74.8613 129.626 68.529 123.299C62.1967 116.973 58.6393 108.392 58.6393 99.4448V98.0008C58.6445 94.7202 59.9517 91.5755 62.2743 89.2564C64.5969 86.9374 67.7452 85.6333 71.0287 85.6301H146.817C150.099 85.6336 153.247 86.938 155.568 89.2572C157.889 91.5764 159.195 94.721 159.198 98.0008V120.802Z" fill="#EAEDF2"/>
<path d="M109.771 117.635C116.978 117.635 122.821 111.797 122.821 104.597C122.821 97.3959 116.978 91.5586 109.771 91.5586C102.564 91.5586 96.7212 97.3959 96.7212 104.597C96.7212 111.797 102.564 117.635 109.771 117.635Z" fill="#EAEDF2"/>
<path d="M139.793 134.714L81.3687 134.507L99.7917 129.905L102.087 122.336L119.75 122.236L125.039 129.721L138.396 133.18L139.609 133.495L139.793 134.714Z" fill="#EAEDF2"/>
<path d="M102.354 112.921C105.155 110.734 101.327 101.113 105.951 103.167C105.951 103.167 111.603 99.5732 112.739 101.935C114.054 104.669 118.73 103.429 121.602 102.463C121.376 101.939 121.216 101.389 121.124 100.826C121.655 101.243 122.216 101.619 122.804 101.95C123.199 101.739 123.548 101.453 123.832 101.108C124.112 100.788 124.288 100.389 124.334 99.9659C124.381 99.5428 124.297 99.1156 124.094 98.7415C123.616 98.0074 122.63 97.7816 122.049 97.1296C121.982 97.0379 121.938 96.9313 121.921 96.819C121.905 96.7067 121.915 96.592 121.953 96.4847C122.022 96.2224 122.032 95.948 121.983 95.6812C121.934 95.4144 121.827 95.1617 121.669 94.9411C121.511 94.7205 121.306 94.5374 121.069 94.4048C120.832 94.2723 120.569 94.1936 120.298 94.1744C120.189 94.1777 120.081 94.1542 119.984 94.1059C119.496 93.8078 119.046 93.4528 118.643 93.0484C119.316 93.0792 118.493 88.9626 111.819 89.7423C110.139 89.6807 109.261 91.5321 107.607 91.8247C103.596 89.535 100.016 92.8379 98.2746 95.995C96.5328 99.1522 94.647 109.327 102.354 112.921Z" fill="#EAEDF2"/>
<path d="M207.927 32.5039H13.9247C10.2339 32.507 6.69507 33.9727 4.08455 36.5794C1.47404 39.1861 0.00510746 42.721 0 46.4085V221.064C0.00479948 224.752 1.4734 228.288 4.08376 230.896C6.69412 233.504 10.2331 234.971 13.9247 234.976H207.927C211.618 234.971 215.156 233.503 217.765 230.895C220.374 228.287 221.841 224.751 221.844 221.064V46.4085C221.841 42.7218 220.373 39.1871 217.764 36.5802C215.155 33.9733 211.617 32.5073 207.927 32.5039ZM220.309 221.064C220.309 224.347 219.004 227.495 216.68 229.816C214.357 232.138 211.205 233.442 207.919 233.442H101.481C88.3558 233.442 75.3593 230.859 63.2333 225.841C51.1074 220.823 40.0895 213.467 30.8086 204.195C21.5278 194.922 14.1659 183.914 9.14314 171.799C4.12041 159.684 1.53525 146.699 1.53525 133.586V46.4085C1.54048 43.1279 2.84771 39.9832 5.17028 37.6641C7.49285 35.3451 10.6411 34.041 13.9247 34.0378H207.927C211.21 34.0413 214.357 35.3457 216.678 37.6649C219 39.9842 220.305 43.1287 220.309 46.4085V221.064Z" fill="#EAEDF2"/>
<path d="M410.609 419.764L168.532 420C168.29 419.999 168.059 419.902 167.889 419.731C167.718 419.56 167.623 419.328 167.623 419.087C167.623 418.845 167.718 418.614 167.889 418.443C168.059 418.272 168.29 418.175 168.532 418.174L410.609 417.938C410.85 417.939 411.082 418.036 411.252 418.207C411.423 418.378 411.518 418.61 411.518 418.851C411.518 419.093 411.423 419.324 411.252 419.495C411.082 419.666 410.85 419.763 410.609 419.764Z" fill="#EAEDF2"/>
</svg>
