<svg width="443" height="441" viewBox="0 0 443 441" fill="none" xmlns="http://www.w3.org/2000/svg">
<g clip-path="url(#clip0_1872_31236)">
<path d="M130.383 412.724L130.866 401.867C135.899 399.177 141.513 397.756 147.22 397.727C139.365 404.149 140.347 416.528 135.022 425.164C133.34 427.845 131.077 430.113 128.4 431.8C125.722 433.487 122.7 434.55 119.556 434.91L112.983 438.935C112.081 433.906 112.28 428.743 113.566 423.799C114.852 418.855 117.194 414.248 120.432 410.297C122.27 408.098 124.378 406.14 126.706 404.468C128.28 408.619 130.383 412.724 130.383 412.724Z" fill="#EAEDF2"/>
<path d="M402.083 254.539C419.805 241.041 428.269 218.359 422.97 196.722C422.838 196.185 422.699 195.648 422.553 195.113C419.04 182.27 410.349 170.063 397.682 165.959C387.046 162.513 375.436 165.163 364.34 163.793C342.558 161.103 325.671 143.479 313.789 125.026C301.906 106.573 292.774 85.918 276.986 70.6734C250.96 45.5452 208.506 40.135 176.238 56.4916C143.97 72.8483 123.416 109.137 124.293 145.303C125.169 181.469 146.639 216.046 177.819 234.392C189.274 241.131 202.522 245.905 215.706 244.235C227.146 242.785 237.541 236.638 248.927 234.813C266.828 231.944 284.616 240.038 300.1 249.47C315.583 258.902 330.539 270.081 348.134 274.454C365.219 278.7 386.385 266.496 402.083 254.539Z" fill="#EAEDF2"/>
<path d="M261.862 93.0244H85.3155C81.6335 93.0287 78.1036 94.4932 75.5001 97.0968C72.8966 99.7003 71.432 103.23 71.4277 106.912V194.779C71.432 198.461 72.8966 201.991 75.5001 204.594C78.1036 207.198 81.6335 208.662 85.3155 208.667H261.862C265.544 208.664 269.075 207.199 271.678 204.596C274.282 201.992 275.746 198.461 275.75 194.779V106.912C275.746 103.23 274.282 99.6993 271.678 97.0955C269.075 94.4917 265.544 93.0275 261.862 93.0244Z" fill="white"/>
<path d="M261.863 209.351H85.3188C81.4557 209.347 77.7521 207.81 75.0205 205.079C72.2889 202.347 70.7524 198.644 70.748 194.781V106.911C70.7524 103.048 72.2889 99.3444 75.0205 96.6128C77.7521 93.8812 81.4557 92.3447 85.3188 92.3403H261.863C265.726 92.3447 269.429 93.8812 272.161 96.6128C274.892 99.3444 276.429 103.048 276.433 106.911V194.781C276.429 198.644 274.892 202.347 272.161 205.079C269.429 207.81 265.726 209.347 261.863 209.351ZM85.3188 93.7059C81.8178 93.7099 78.4613 95.1024 75.9857 97.578C73.5102 100.054 72.1176 103.41 72.1136 106.911V194.781C72.1176 198.282 73.5102 201.638 75.9857 204.114C78.4613 206.589 81.8178 207.982 85.3188 207.986H261.863C265.364 207.982 268.72 206.589 271.196 204.114C273.671 201.638 275.064 198.282 275.068 194.781V106.911C275.064 103.41 273.671 100.054 271.196 97.578C268.72 95.1024 265.364 93.7099 261.863 93.7059H85.3188Z" fill="#CBD2E0"/>
<path d="M269.984 233.642H100.799C99.3367 233.642 97.9342 233.061 96.9002 232.027C95.8661 230.993 95.2852 229.591 95.2852 228.128C95.2852 226.666 95.8661 225.264 96.9002 224.229C97.9342 223.195 99.3367 222.615 100.799 222.615H269.984C271.446 222.615 272.849 223.195 273.883 224.229C274.917 225.264 275.498 226.666 275.498 228.128C275.498 229.591 274.917 230.993 273.883 232.027C272.849 233.061 271.446 233.642 269.984 233.642Z" fill="#EAEDF2"/>
<path d="M155.035 181.063C154.033 181.06 153.048 180.804 152.172 180.317C151.234 179.812 150.452 179.06 149.91 178.143C149.368 177.227 149.086 176.18 149.094 175.115V126.076C149.094 125.012 149.379 123.969 149.921 123.053C150.462 122.138 151.239 121.385 152.171 120.873C153.103 120.361 154.156 120.109 155.218 120.143C156.281 120.176 157.315 120.495 158.213 121.065L204.731 145.584C205.575 146.12 206.269 146.861 206.751 147.737C207.232 148.612 207.484 149.596 207.484 150.595C207.484 151.595 207.232 152.578 206.751 153.454C206.269 154.33 205.575 155.07 204.731 155.606L158.213 180.125C157.265 180.734 156.162 181.06 155.035 181.063Z" fill="#EAEDF2"/>
<path d="M428.218 156.614H354.442C352.904 156.612 351.428 156 350.34 154.912C349.252 153.824 348.64 152.349 348.639 150.81V114.091C348.64 112.552 349.252 111.077 350.34 109.989C351.428 108.901 352.904 108.289 354.442 108.287H428.218C429.757 108.289 431.232 108.901 432.32 109.989C433.408 111.077 434.02 112.552 434.022 114.091V150.81C434.02 152.349 433.408 153.824 432.32 154.912C431.232 156 429.757 156.612 428.218 156.614Z" fill="white"/>
<path d="M428.219 157.297H354.443C352.724 157.295 351.075 156.611 349.859 155.395C348.643 154.179 347.959 152.53 347.957 150.81V114.091C347.959 112.371 348.643 110.722 349.859 109.506C351.075 108.29 352.724 107.606 354.443 107.604H428.219C429.939 107.606 431.588 108.29 432.804 109.506C434.02 110.722 434.704 112.371 434.706 114.091V150.81C434.704 152.53 434.02 154.179 432.804 155.395C431.588 156.611 429.939 157.295 428.219 157.297ZM354.443 108.97C353.086 108.971 351.784 109.511 350.824 110.471C349.864 111.431 349.324 112.733 349.323 114.091V150.81C349.324 152.168 349.864 153.47 350.824 154.43C351.784 155.39 353.086 155.93 354.443 155.931H428.219C429.577 155.93 430.879 155.39 431.839 154.43C432.799 153.47 433.339 152.168 433.34 150.81V114.091C433.339 112.733 432.799 111.431 431.839 110.471C430.879 109.511 429.577 108.971 428.219 108.97H354.443Z" fill="#CBD2E0"/>
<path d="M416.099 174.582H366.4C364.939 174.58 363.538 173.999 362.505 172.965C361.473 171.931 360.893 170.529 360.893 169.068C360.893 167.607 361.473 166.205 362.505 165.171C363.538 164.137 364.939 163.556 366.4 163.554H416.099C417.561 163.554 418.964 164.135 419.998 165.169C421.032 166.203 421.613 167.606 421.613 169.068C421.613 170.53 421.032 171.933 419.998 172.967C418.964 174.001 417.561 174.582 416.099 174.582Z" fill="#EAEDF2"/>
<path d="M383.399 145.518C382.98 145.517 382.568 145.41 382.202 145.206C381.81 144.995 381.484 144.681 381.257 144.298C381.031 143.915 380.913 143.477 380.916 143.032V122.539C380.916 122.095 381.035 121.659 381.262 121.276C381.488 120.894 381.813 120.579 382.202 120.365C382.592 120.151 383.031 120.046 383.475 120.06C383.92 120.074 384.352 120.207 384.727 120.445L404.166 130.692C404.519 130.916 404.809 131.225 405.01 131.591C405.211 131.957 405.317 132.368 405.317 132.786C405.317 133.203 405.211 133.614 405.01 133.98C404.809 134.346 404.519 134.656 404.166 134.88L384.727 145.126C384.331 145.381 383.87 145.517 383.399 145.518Z" fill="#7250F8"/>
<path d="M381.107 314.579H307.331C305.792 314.577 304.317 313.965 303.229 312.877C302.141 311.789 301.529 310.314 301.527 308.775V272.056C301.529 270.517 302.141 269.042 303.229 267.954C304.317 266.866 305.792 266.254 307.331 266.252H381.107C382.646 266.254 384.121 266.866 385.209 267.954C386.297 269.042 386.909 270.517 386.91 272.056V308.775C386.909 310.314 386.297 311.789 385.209 312.877C384.121 313.965 382.645 314.577 381.107 314.579Z" fill="white"/>
<path d="M381.106 315.262H307.33C305.61 315.26 303.962 314.576 302.746 313.36C301.53 312.144 300.846 310.495 300.844 308.775V272.056C300.846 270.336 301.53 268.687 302.746 267.471C303.962 266.255 305.61 265.571 307.33 265.569H381.106C382.826 265.571 384.474 266.255 385.69 267.471C386.906 268.687 387.59 270.336 387.592 272.056V308.775C387.59 310.495 386.906 312.144 385.69 313.36C384.474 314.576 382.826 315.26 381.106 315.262ZM307.33 266.935C305.972 266.936 304.671 267.476 303.711 268.436C302.751 269.396 302.211 270.698 302.209 272.056V308.775C302.211 310.133 302.751 311.435 303.711 312.395C304.671 313.355 305.972 313.895 307.33 313.896H381.106C382.464 313.895 383.765 313.355 384.725 312.395C385.685 311.435 386.225 310.133 386.227 308.775V272.056C386.225 270.698 385.685 269.396 384.725 268.436C383.765 267.476 382.464 266.936 381.106 266.935H307.33Z" fill="#CBD2E0"/>
<path d="M368.986 332.645H319.287C317.826 332.644 316.425 332.062 315.392 331.028C314.359 329.994 313.779 328.593 313.779 327.131C313.779 325.67 314.359 324.269 315.392 323.235C316.425 322.201 317.826 321.619 319.287 321.618H368.986C370.448 321.618 371.85 322.198 372.885 323.233C373.919 324.267 374.5 325.669 374.5 327.131C374.5 328.594 373.919 329.996 372.885 331.03C371.85 332.064 370.448 332.645 368.986 332.645Z" fill="#EAEDF2"/>
<path d="M336.106 304.606C335.687 304.604 335.275 304.497 334.909 304.294C334.518 304.083 334.191 303.769 333.964 303.386C333.738 303.003 333.62 302.565 333.623 302.12V281.627C333.623 281.183 333.742 280.746 333.969 280.364C334.195 279.982 334.52 279.667 334.909 279.453C335.299 279.239 335.738 279.134 336.182 279.148C336.627 279.162 337.059 279.295 337.434 279.533L356.873 289.78C357.226 290.003 357.516 290.313 357.717 290.679C357.918 291.045 358.024 291.456 358.024 291.873C358.024 292.291 357.918 292.702 357.717 293.068C357.516 293.434 357.226 293.743 356.873 293.967L337.434 304.214C337.038 304.468 336.577 304.604 336.106 304.606Z" fill="#7250F8"/>
<path d="M130.588 187.538L92.8275 187.792C92.8275 187.792 71.3219 180.859 61.5689 182.307L57.8398 196.956L84.6284 205.832L131.251 199.068C132.297 199.596 133.465 199.84 134.635 199.774C135.805 199.708 136.938 199.335 137.918 198.692C138.899 198.049 139.692 197.16 140.22 196.113C140.747 195.066 140.989 193.898 140.922 192.728C140.855 191.557 140.48 190.425 139.836 189.446C139.193 188.466 138.302 187.673 137.254 187.147C136.207 186.621 135.039 186.38 133.869 186.449C132.699 186.517 131.567 186.893 130.588 187.538Z" fill="#A0616A"/>
<path d="M84.3096 207.251L39.5099 194.366L35.4313 179.169C34.3688 177.141 33.8946 174.857 34.0623 172.574C34.2299 170.291 35.0327 168.1 36.38 166.25C40.2046 161.07 43.1941 166.215 48.6218 169.679C58.1369 170.352 81.8866 178.478 91.5274 187.887L90.7678 193.671L84.3096 207.251Z" fill="#3F3D56"/>
<path d="M123.287 194.846C122.285 194.843 121.3 194.586 120.424 194.1C119.486 193.594 118.704 192.843 118.162 191.926C117.62 191.01 117.338 189.962 117.346 188.897V139.859C117.346 138.795 117.631 137.751 118.173 136.836C118.714 135.921 119.491 135.168 120.423 134.656C121.355 134.144 122.408 133.892 123.47 133.925C124.533 133.959 125.567 134.278 126.465 134.848L172.983 159.367C173.827 159.903 174.521 160.643 175.003 161.519C175.484 162.395 175.736 163.379 175.736 164.378C175.736 165.377 175.484 166.361 175.003 167.237C174.521 168.112 173.827 168.853 172.983 169.389L126.465 193.908C125.517 194.517 124.414 194.843 123.287 194.846Z" fill="#7250F8"/>
<path d="M92.0365 431.045L101.567 431.045L106.101 394.284L92.0352 394.284L92.0365 431.045Z" fill="#A0616A"/>
<path d="M89.6055 427.933L92.2881 427.933L102.761 423.674L108.375 427.932H108.375C111.548 427.933 114.59 429.193 116.833 431.436C119.076 433.679 120.336 436.721 120.337 439.893V440.282L89.6061 440.283L89.6055 427.933Z" fill="#2F2E41"/>
<path d="M24.168 422.073L33.1957 425.129L49.2806 391.765L35.9575 387.254L24.168 422.073Z" fill="#A0616A"/>
<path d="M22.863 418.346L25.4039 419.206L36.6899 418.531L40.6407 424.365L40.6415 424.365C43.646 425.383 46.1233 427.552 47.5285 430.396C48.9336 433.24 49.1516 436.526 48.1343 439.531L48.0096 439.899L18.9023 430.043L22.863 418.346Z" fill="#2F2E41"/>
<path d="M35.2164 272.703C35.2164 272.703 34.1035 286.057 36.8857 298.855C39.6678 311.653 45.6553 354.136 45.6553 354.136C33.5279 374.069 26.4995 393.684 25.1719 413.538L42.2414 414.904L66.6824 356.912L69.1588 298.855L86.9646 338.362L86.049 341.414C85.8325 342.136 85.859 342.909 86.1246 343.614C86.3902 344.319 86.8801 344.918 87.5189 345.318C87.5189 345.318 85.8518 356.168 86.9646 356.168C88.0775 356.168 90.8597 357.837 90.8597 357.837C83.9228 379.432 82.9916 400.113 89.3532 419.683L104.374 419L114.23 333.911L106.996 287.727L106.44 278.824L103.936 278.927L102.661 275.207L100.319 268.808L35.2164 272.703Z" fill="#2F2E41"/>
<path d="M34.2543 275.508L34.1551 275.369C28.8587 267.954 36.8245 250.135 38.026 247.553L32.9656 245.91L28.5408 208.467L25.3047 195.531C24.0853 190.641 24.1892 185.515 25.6058 180.679C27.0223 175.842 29.7003 171.47 33.3651 168.01L40.8454 160.957L49.9363 147.506H64.5965L69.6231 157C74.4965 158.127 78.8203 160.927 81.8414 164.914C84.8624 168.9 86.3892 173.82 86.1558 178.816L85.0166 203.718L89.4765 234.723L89.4792 240.334L97.222 253.029L98.9087 260.899C99.6066 261.82 104.214 267.963 104.214 269.643C104.214 269.895 104.028 270.139 103.628 270.409C100.489 272.535 83.1348 276.869 75.4543 273.796C67.273 270.525 34.751 275.432 34.4233 275.482L34.2543 275.508Z" fill="#3F3D56"/>
<path d="M184.001 440.037C184.001 440.143 183.98 440.249 183.94 440.347C183.9 440.445 183.84 440.535 183.765 440.61C183.69 440.686 183.601 440.746 183.503 440.787C183.405 440.828 183.299 440.849 183.193 440.849L1.5 440.849C1.28451 440.849 1.07784 440.764 0.925468 440.611C0.773093 440.459 0.687491 440.252 0.687491 440.037C0.687491 439.821 0.773093 439.615 0.925468 439.462C1.07784 439.31 1.28451 439.224 1.5 439.224L183.188 439.224C183.403 439.224 183.609 439.308 183.762 439.46C183.914 439.611 184 439.817 184.001 440.032V440.037Z" fill="#EAEDF2"/>
<path d="M59.1597 143.164C69.8826 143.164 78.5752 134.471 78.5752 123.748C78.5752 113.025 69.8826 104.332 59.1597 104.332C48.4368 104.332 39.7441 113.025 39.7441 123.748C39.7441 134.471 48.4368 143.164 59.1597 143.164Z" fill="#A0616A"/>
<path d="M131.234 138.654L101.279 161.645C101.279 161.645 79.9473 169.096 73.0449 176.137L78.9124 190.068L105.629 180.978L138.721 147.447C139.874 147.237 140.952 146.727 141.845 145.968C142.739 145.209 143.417 144.228 143.811 143.124C144.204 142.02 144.3 140.831 144.089 139.678C143.878 138.525 143.366 137.448 142.606 136.555C141.846 135.663 140.864 134.986 139.76 134.594C138.655 134.201 137.467 134.106 136.314 134.319C135.161 134.532 134.085 135.045 133.193 135.806C132.301 136.567 131.626 137.549 131.234 138.654Z" fill="#A0616A"/>
<path d="M106.23 182.302L64.6164 194.487L50.3088 189.41C48.2379 188.434 46.4812 186.899 45.237 184.978C43.9929 183.056 43.311 180.825 43.2684 178.536C43.1918 172.098 48.6806 174.396 55.0989 173.882C63.0917 168.676 86.933 160.823 100.299 162.507L103.184 167.577L106.23 182.302Z" fill="#3F3D56"/>
<path d="M72.4735 101.331C71.082 101.29 71.5597 98.667 70.4386 97.8303C70.4331 97.8557 70.4274 97.881 70.4216 97.9063C70.2746 98.4729 69.9496 98.9773 69.4944 99.3452C69.0392 99.7132 68.4778 99.9253 67.893 99.9502C67.3082 99.9752 66.7309 99.8117 66.246 99.4838C65.7611 99.156 65.3943 98.6811 65.1996 98.1291C65.0137 97.4905 64.6771 96.906 64.2183 96.4246C63.7594 95.9432 63.1916 95.5791 62.5627 95.3628C62.4929 97.7939 60.654 99.9039 58.4602 100.954C56.2663 102.004 53.7649 102.179 51.3331 102.215C48.9012 102.251 46.4343 102.169 44.0761 102.764C41.7179 103.359 39.4241 104.758 38.4166 106.972C37.409 109.186 38.1279 112.233 40.331 113.264C38.6243 113.273 37.1761 114.681 36.5859 116.283C36.1022 117.925 35.976 119.653 36.2158 121.348C36.6955 127.626 37.865 134.386 42.4366 138.715C45.9208 142.015 50.9079 143.345 55.7068 143.326C60.5056 143.306 59.6618 142.865 64.3017 141.64C64.3017 141.64 68.713 128.994 67.6022 127.75C66.4914 126.506 65.5688 124.914 65.7698 123.259C65.9709 121.603 67.7501 120.12 69.2942 120.75C69.0346 120.086 68.839 119.96 68.7165 119.994C68.7945 119.805 68.8626 119.612 68.9205 119.417C69.2112 118.419 69.7344 117.505 70.4473 116.749C71.1601 115.993 72.0421 115.417 73.0209 115.069C74.0095 114.748 75.0727 114.737 76.0675 115.038C77.0623 115.339 77.9412 115.938 78.586 116.753C83.6668 111.988 80.5147 101.57 72.4735 101.331Z" fill="#2F2E41"/>
<path d="M401.124 23.6956H90.9419C90.6193 23.6888 90.3122 23.5558 90.0865 23.3252C89.8608 23.0946 89.7344 22.7848 89.7344 22.4621C89.7344 22.1395 89.8608 21.8296 90.0865 21.5991C90.3122 21.3685 90.6193 21.2355 90.9419 21.2286H401.124C401.446 21.2355 401.754 21.3685 401.979 21.5991C402.205 21.8296 402.331 22.1395 402.331 22.4621C402.331 22.7848 402.205 23.0946 401.979 23.3252C401.754 23.5558 401.446 23.6888 401.124 23.6956Z" fill="#EAEDF2"/>
<path d="M112.055 14.9307C116.048 14.9307 119.284 11.6221 119.284 7.54066C119.284 3.45926 116.048 0.150635 112.055 0.150635C108.063 0.150635 104.826 3.45926 104.826 7.54066C104.826 11.6221 108.063 14.9307 112.055 14.9307Z" fill="#CBD2E0"/>
<path d="M137.03 14.9307C141.022 14.9307 144.259 11.6221 144.259 7.54066C144.259 3.45926 141.022 0.150635 137.03 0.150635C133.037 0.150635 129.801 3.45926 129.801 7.54066C129.801 11.6221 133.037 14.9307 137.03 14.9307Z" fill="#CBD2E0"/>
<path d="M162.002 14.9307C165.995 14.9307 169.231 11.6221 169.231 7.54066C169.231 3.45926 165.995 0.150635 162.002 0.150635C158.01 0.150635 154.773 3.45926 154.773 7.54066C154.773 11.6221 158.01 14.9307 162.002 14.9307Z" fill="#CBD2E0"/>
<path d="M386.087 1.9823H368.348C367.997 1.98926 367.662 2.13383 367.415 2.38497C367.169 2.63611 367.031 2.97378 367.031 3.32548C367.031 3.67718 367.169 4.01486 367.415 4.266C367.662 4.51714 367.997 4.6617 368.348 4.66866H386.087C386.439 4.6617 386.774 4.51714 387.02 4.266C387.266 4.01486 387.404 3.67718 387.404 3.32548C387.404 2.97378 387.266 2.63611 387.02 2.38497C386.774 2.13383 386.439 1.98926 386.087 1.9823Z" fill="#CBD2E0"/>
<path d="M386.087 7.02423H368.348C367.997 7.03119 367.662 7.17575 367.415 7.42689C367.169 7.67803 367.031 8.01571 367.031 8.36741C367.031 8.71911 367.169 9.05678 367.415 9.30792C367.662 9.55906 367.997 9.70363 368.348 9.71059H386.087C386.439 9.70363 386.774 9.55906 387.02 9.30792C387.266 9.05678 387.404 8.71911 387.404 8.36741C387.404 8.01571 387.266 7.67803 387.02 7.42689C386.774 7.17575 386.439 7.03119 386.087 7.02423Z" fill="#CBD2E0"/>
<path d="M386.087 12.0595H368.348C367.997 12.0665 367.662 12.211 367.415 12.4622C367.169 12.7133 367.031 13.051 367.031 13.4027C367.031 13.7544 367.169 14.0921 367.415 14.3432C367.662 14.5943 367.997 14.7389 368.348 14.7459H386.087C386.439 14.7389 386.774 14.5943 387.02 14.3432C387.266 14.0921 387.404 13.7544 387.404 13.4027C387.404 13.051 387.266 12.7133 387.02 12.4622C386.774 12.211 386.439 12.0665 386.087 12.0595Z" fill="#CBD2E0"/>
<path d="M236.17 93.0244V111.569C236.17 112.49 234.558 113.262 232.387 113.474C232.369 113.473 232.35 113.475 232.333 113.48C231.971 113.508 231.588 113.528 231.199 113.528C230.002 113.55 228.811 113.356 227.683 112.955C227.58 112.914 227.478 112.866 227.376 112.825C227.28 112.77 227.178 112.723 227.082 112.668C226.543 112.347 226.229 111.972 226.229 111.569V93.0244H236.17Z" fill="#CBD2E0"/>
<path d="M434.807 164.018C438.955 164.018 442.318 160.655 442.318 156.507C442.318 152.359 438.955 148.997 434.807 148.997C430.659 148.997 427.297 152.359 427.297 156.507C427.297 160.655 430.659 164.018 434.807 164.018Z" fill="#7250F8"/>
<path d="M433.502 159.349C433.451 159.349 433.404 159.341 433.361 159.324C433.319 159.306 433.276 159.277 433.233 159.234L430.916 156.917C430.839 156.84 430.801 156.746 430.801 156.635C430.801 156.524 430.839 156.43 430.916 156.353C430.993 156.277 431.082 156.238 431.185 156.238C431.287 156.238 431.377 156.277 431.454 156.353L433.502 158.402L438.149 153.755C438.226 153.678 438.318 153.639 438.424 153.639C438.531 153.639 438.623 153.678 438.7 153.755C438.776 153.831 438.815 153.923 438.815 154.03C438.815 154.137 438.776 154.228 438.7 154.305L433.771 159.234C433.728 159.277 433.686 159.306 433.643 159.324C433.6 159.341 433.553 159.349 433.502 159.349Z" fill="white"/>
<path d="M386.511 322.021C390.659 322.021 394.021 318.659 394.021 314.511C394.021 310.363 390.659 307 386.511 307C382.363 307 379 310.363 379 314.511C379 318.659 382.363 322.021 386.511 322.021Z" fill="#7250F8"/>
<path d="M385.205 317.353C385.154 317.353 385.107 317.344 385.064 317.327C385.022 317.31 384.979 317.28 384.936 317.237L382.619 314.92C382.542 314.843 382.504 314.75 382.504 314.639C382.504 314.528 382.542 314.434 382.619 314.357C382.696 314.28 382.786 314.242 382.888 314.242C382.99 314.242 383.08 314.28 383.157 314.357L385.205 316.405L389.852 311.758C389.929 311.681 390.021 311.643 390.128 311.643C390.234 311.643 390.326 311.681 390.403 311.758C390.48 311.835 390.518 311.927 390.518 312.033C390.518 312.14 390.48 312.232 390.403 312.309L385.474 317.237C385.431 317.28 385.389 317.31 385.346 317.327C385.303 317.344 385.256 317.353 385.205 317.353Z" fill="white"/>
</g>
<defs>
<clipPath id="clip0_1872_31236">
<rect width="443" height="441" fill="white"/>
</clipPath>
</defs>
</svg>
