<svg width="447" height="527" viewBox="0 0 447 527" fill="none" xmlns="http://www.w3.org/2000/svg">
<path fill-rule="evenodd" clip-rule="evenodd" d="M10.808 297.615C17.0428 298.227 23.2776 298.837 29.5125 299.449C59.3728 301.728 89.2213 306.489 118.853 309.345C119.591 308.146 121.035 308.343 121.912 309.177C124.868 308.918 128.182 306.66 130.861 309.009C130.948 308.997 131.035 308.983 131.122 308.974C135.891 299.829 139.188 290.075 142.387 280.308C144.429 274.303 147.177 268.491 152.254 264.459C160.918 258.45 180.771 246.264 190.945 246.776C191.114 244.956 191.963 243.08 193.357 241.868C190.284 236.634 202.572 233.219 203.438 233.825C202.883 216.337 211.116 201.15 229.271 197.668C245.536 194.281 268.67 193.713 277.417 210.695C278.379 210.587 288.208 210.536 289.159 210.642C290.638 208.771 306.876 226.501 300.22 232.673C359.721 258.971 393.554 255.833 410.022 329.762C412.249 336.707 412.411 344.307 414.762 351.097C423.126 370.611 429.91 391.389 431.599 412.622C435.677 413.666 436.146 420.85 431.422 421.889C429.618 422.286 428.109 422.829 426.794 423.858C427.822 441.258 423.61 481.006 420.956 480.883C415.545 498.09 391.407 502.946 374.319 496.899C377.264 502.436 374.319 505.918 374.319 508.876C312.829 511.201 245.597 509.862 184.124 513.05C176.261 512.938 167.99 514.979 160.235 513.805C155.505 512.672 155.497 505.241 160.294 504.322L139.331 499.773C139.799 499.596 130.689 493.542 123.804 482.229C117.395 469.574 121.757 454.298 118.853 440.532C96.1725 438.679 73.1169 437.886 50.6847 434.049C47.626 443.192 34.3858 432.257 30.1772 427.858C30.1825 427.851 30.1877 427.845 30.193 427.838C28.1562 427.281 26.5229 425.374 26.4683 423.116C25.0399 421.077 24.7401 418.203 26.1098 416.233C19.8318 380.038 10.2607 343.084 6.80133 306.549C5.5784 306.279 4.42673 305.743 3.45029 304.918L3.52942 304.839C1.87509 302.996 1.55341 299.815 4.31131 298.25C6.53601 296.985 8.39359 297.378 10.808 297.615Z" fill="white"/>
<path fill-rule="evenodd" clip-rule="evenodd" d="M276.284 206.751C274.431 202.099 268.169 203.908 268.867 208.794C269.285 211.721 270.889 214.813 272.331 217.379C273.504 219.467 274.843 221.505 276.658 223.07C273.427 226.082 270.073 228.984 266.634 231.739C262.882 234.745 258.936 237.516 254.858 240.063C251.281 242.297 247.543 244.276 244.172 246.824C241.037 249.193 238.182 252.043 236.729 255.763C235.181 259.724 235.854 263.815 236.993 267.773L237.124 268.221C238.289 272.143 240.305 276.87 237.509 280.565C236.086 282.446 234.018 283.779 232.231 285.282C230.644 286.619 229.154 288.073 227.787 289.634C224.807 293.037 222.383 296.867 220.854 301.134L220.717 301.522C219.406 305.3 218.448 309.927 220.219 313.636C220.728 314.699 222.367 314.354 222.651 313.319C223.295 310.973 223.261 308.517 223.801 306.139C224.363 303.666 225.297 301.318 226.517 299.096C228.879 294.799 232.076 291.128 235.854 288.025L236.985 287.106C239.933 284.689 242.641 282.126 243.239 278.126C243.879 273.847 242.163 269.771 241.06 265.721C240.291 262.898 240.04 260.193 240.871 257.642C241.886 259.298 243.271 260.869 244.366 262.271C246.548 265.063 248.751 267.838 250.947 270.619C253.199 273.47 255.396 276.366 257.488 279.338C258.424 280.667 259.349 282.004 260.272 283.342C260.966 284.348 261.933 285.353 262.69 286.379C262.506 286.928 262.52 287.561 262.853 288.01C266.863 293.424 272.569 282.128 274.057 279.274C277.087 273.462 279.342 267.287 282.382 261.477C285.533 255.453 289.12 249.59 293.118 244.091C295.537 240.764 298.247 237.64 300.46 234.208C305.672 238.93 312.53 242.095 318.83 244.966C325.752 248.119 332.943 250.695 340.039 253.431L342.136 254.244C354.363 259.012 366.89 264.25 377.054 272.719C388.997 282.671 396.062 296.542 401.322 310.905C407.378 327.441 412.387 344.423 417.057 361.394C419.447 370.078 421.714 378.8 423.846 387.551C425.724 395.26 427.281 403.046 429.455 410.676C425.045 410.52 420.016 412.226 416.251 412.719C399.092 414.963 382.163 418.54 365.963 424.733C363.962 425.498 363.383 427.495 363.819 429.113C362.665 428.788 361.512 428.458 360.358 428.134C361.622 426.199 361.019 422.739 360.919 420.593L360.913 420.446C360.811 417.587 360.5 414.725 360.299 411.872C359.916 406.432 359.417 401.033 358.753 395.624L358.584 394.272C357.832 388.388 357.276 382.47 356.456 376.596L356.359 375.923C356.752 374.42 357.21 372.936 357.691 371.458C358.972 367.521 360.78 363.815 362.365 360.002C362.552 359.553 361.912 359.295 361.613 359.564C358.929 361.976 356.797 365.036 355.085 368.236C355.055 368.085 355.029 367.934 354.998 367.783L354.803 366.822C354.321 364.479 353.735 362.013 352.296 360.112C352.143 359.91 351.839 359.868 351.695 360.112C350.317 362.44 350.163 365.389 349.951 368.038C349.712 371.035 349.682 374.07 349.724 377.075C349.807 382.949 350.221 388.838 350.551 394.702C350.875 400.464 351.511 406.153 352.33 411.858L352.486 412.928C352.887 415.644 353.215 418.393 353.743 421.09L353.893 421.824C354.175 423.162 354.349 425.048 354.911 426.614C340.442 422.582 325.951 418.642 311.432 414.771C300.938 411.973 290.434 409.217 279.934 406.443C279.38 405.446 278.69 404.514 277.829 403.681C274.992 400.936 271.233 399.712 267.785 401.824C267.504 401.997 267.481 402.435 267.785 402.602C268.445 402.962 269.107 403.332 269.757 403.718L263.452 402.012C258.74 400.736 253.971 399.141 249.147 398.252C240.263 393.872 230.708 390.701 221.349 387.567L220.246 387.195C215.455 385.563 210.498 383.735 205.547 382.83C201.923 382.168 197.668 382.967 196.211 386.677C194.366 387.892 192.629 389.32 190.954 390.724C189.743 391.739 188.582 392.818 187.401 393.868L187.184 394.059C186.218 394.896 185.454 395.456 185.217 396.788C185.095 397.476 185.532 398.406 186.381 398.315C188.98 398.037 191.093 395.028 192.855 393.231C194.216 391.842 195.589 390.406 196.831 388.879C197.556 389.273 198.548 389.202 199.01 388.33C201.401 383.807 207.95 386.941 211.574 388.014L216.766 389.549C219.362 390.318 221.956 391.09 224.546 391.876C231.665 394.036 236.148 395.372 243.217 397.728C244.733 398.233 248.137 399.915 249.147 400.42C254.77 402.624 258.371 403.79 264.233 405.733C267.921 406.688 271.607 407.65 275.292 408.617C275.923 409.64 276.378 410.796 276.569 412.143C277.272 417.095 275.916 422.808 274.595 427.597L274.396 428.311C273.31 432.162 271.713 436.882 268.388 439.313C267.576 439.906 266.542 440.319 265.501 440.412C258.992 437.065 252.483 433.718 245.971 430.377C244.765 429.758 243.65 430.596 243.379 431.593C241.083 431.216 238.792 430.623 236.705 429.915C233.199 428.726 230.461 426.457 227.174 424.887C220.814 421.852 214.32 425.581 208.625 428.415L207.313 429.06C204.759 430.298 199.447 432.676 198.221 429.29C197.036 426.015 200.783 422.514 203.203 421.04C206.087 419.283 209.446 418.342 212.706 417.559C214.567 417.111 216.451 416.746 218.347 416.479C220.497 416.177 222.717 416.222 224.787 415.526C225.816 415.18 225.974 413.548 224.787 413.278C221.601 412.554 217.797 413.344 214.472 414.152L212.734 414.58C209.384 415.401 206.001 416.432 202.95 418.07C200.731 419.262 198.389 421.073 196.859 423.289C195.53 422.056 193.876 422.097 192.154 422.555L191.219 422.814C189.675 423.242 188.424 423.536 186.921 423.24C186.721 422.148 186.517 421.056 186.299 419.963C184.158 409.226 181.811 398.529 179.22 387.889C174.752 369.538 169.581 351.387 163.752 333.423L163.167 331.627C161.823 327.518 160.741 323.042 158.573 319.267C156.523 315.698 153.239 313.642 149.337 312.553C144.908 311.317 140.255 310.671 135.738 309.836C134.73 309.65 133.72 309.474 132.711 309.291C133.563 307.753 134.2 306.008 134.773 304.668L134.873 304.436C136.104 301.632 137.21 298.777 138.278 295.907L139.077 293.749C141.006 288.553 142.996 283.442 145.707 278.583C148.561 273.468 152.347 269.287 157.067 265.826C166.689 258.769 178.287 255.17 187.62 247.629C188.003 247.32 187.513 246.791 187.124 246.987C180.823 250.15 174.019 252.302 167.465 254.877L166.172 255.387C160.991 257.439 155.729 259.673 151.245 262.995C146.246 266.699 142.308 271.3 139.349 276.771C136.432 282.164 134.566 288.2 132.509 293.96L131.958 295.495C131.128 297.796 130.271 300.091 129.288 302.331C128.509 304.109 127.053 306.139 126.392 308.17C124.582 307.856 122.773 307.542 120.961 307.239C81.7222 300.694 42.0451 296.848 2.27985 295.723C0.724121 295.679 -0.0805664 297.162 0.148651 298.518C3.96481 321.063 7.35611 343.686 11.0771 366.248C12.7014 376.096 14.358 385.935 16.0534 395.771C16.9123 400.753 17.9051 405.717 18.7186 410.707C19.3753 414.737 19.8521 418.798 20.9794 422.735C21.9907 426.265 23.5424 429.668 26.0911 432.361C28.8383 435.264 32.6729 436.669 36.5327 437.333C46.3311 439.018 56.3815 439.706 66.2594 440.828L118.85 446.806C118.082 453.785 118.024 460.656 118.377 467.716L118.578 471.571C118.742 474.671 118.939 477.776 119.384 480.844C119.943 484.693 121.705 487.952 124.301 490.827C126.685 493.467 129.58 495.72 132.397 497.879C135.321 500.12 138.342 502.283 141.779 503.669L142.226 503.846C145.241 505.023 150.899 506.844 155.021 506.179C154.482 508.876 153.439 511.776 154.364 514.445C154.792 515.684 156.414 516.302 157.408 515.248C159.377 513.158 159.531 510.397 159.997 507.671C160.482 504.834 160.9 501.986 161.272 499.132C161.991 493.613 162.55 488.044 162.721 482.478C162.896 476.762 162.829 471.039 162.52 465.329C162.362 462.397 162.165 459.467 161.793 456.554C161.634 455.311 161.472 454.068 161.286 452.829C161.218 452.377 161.143 451.927 161.062 451.478L165.783 452.01C173.021 452.818 180.262 453.547 187.551 453.66C188.414 453.673 189.078 453.28 189.512 452.708C189.975 453.461 190.78 453.999 191.933 453.995C202.112 453.957 211.592 450.631 220.85 446.712C225.517 444.736 230.111 442.597 234.784 440.638C239.147 438.809 243.81 437.504 248.068 435.444L259.254 441.306C259.336 441.595 259.441 441.867 259.553 442.095C260.282 443.581 261.718 444.387 263.184 444.993C264.592 445.577 266.05 445.759 267.47 445.611C275.954 450.053 284.44 454.491 292.931 458.918L301.425 463.341C318.347 472.144 335.202 481.092 352.231 489.688L353.484 490.318C359.366 493.265 365.682 496.252 372.209 498.481C372.325 500.131 372.252 501.737 372.114 503.484L372.08 503.864C371.886 505.929 371.468 508.516 373.126 509.986C373.988 510.75 375.529 510.753 376.115 509.601C377.179 507.511 376.224 504.216 375.887 501.945C375.767 501.138 375.621 500.308 375.406 499.502C382.889 501.728 390.598 502.807 398.213 501.557C405.627 500.342 411.369 495.675 415.998 489.967C420.884 483.944 424.356 476.925 426.218 469.4C428.338 460.837 428.476 451.995 428.427 443.224C428.374 433.885 428.028 424.499 426.891 415.222C428.137 414.929 429.518 414.676 430.777 414.764C431.401 415.76 432.61 416.18 433.703 416.051C436.08 418.669 430.051 421.346 428.125 422.016C427.456 422.249 427.528 423.334 428.299 423.301L428.785 423.278C431.762 423.12 434.837 422.612 436.587 419.848C437.99 417.633 437.568 415.009 435.897 413.202C434.792 402.771 432.152 392.613 429.696 382.437C427.284 372.45 424.603 362.526 421.761 352.652L420.487 348.233C416.012 332.752 411.335 317.145 405.163 302.279C402.08 294.856 398.53 287.569 393.717 281.097C389.23 275.063 383.934 269.9 377.845 265.49C366.495 257.269 353.177 252.302 340.091 247.569L339.505 247.357C332.724 244.906 325.959 242.426 319.255 239.771C313.326 237.423 307.646 234.445 301.745 232.062C301.937 231.714 302.122 231.362 302.3 231.007L302.409 231.099C302.428 231.113 302.447 231.128 302.467 231.141C303.06 231.552 303.934 231.35 304.423 230.889C305.804 229.587 305.336 228.142 304.414 226.792L304.294 226.62C303.167 225.043 302.161 223.374 301.121 221.739L300.469 220.717C298.723 217.985 296.887 215.235 294.559 212.978C293.48 211.932 292.3 211.149 291.049 210.566C291.156 210.34 290.218 209.878 289.952 210.11C285.989 208.661 281.429 208.965 277.108 209.364M121.395 447.095L126.905 447.721C132.967 448.41 139.032 449.076 145.097 449.736L158.271 451.167C158.305 451.917 158.396 452.651 158.413 453.217C158.499 456.139 158.563 459.062 158.624 461.984C158.746 467.842 158.612 473.706 158.226 479.552C157.852 485.217 157.359 490.883 156.594 496.51L156.437 497.635L156.346 498.226C155.721 498.286 155.107 498.583 154.597 499.193C153.482 500.522 149.448 499.23 147.872 498.669C145.28 497.748 142.84 496.192 140.588 494.631C138.389 493.107 136.409 491.329 134.507 489.457L132.95 487.919C131.401 486.382 129.851 484.744 128.902 482.809C127.615 480.187 127.449 476.967 127.072 474.111C126.607 470.597 126.054 467.084 125.469 463.588M281.357 410.214L281.928 410.364C302.691 415.876 323.422 421.551 344.248 426.819C354.554 429.427 364.909 431.845 375.228 434.403L376.899 434.82C385.039 436.876 393.277 439.35 399.511 445.249C399.741 445.466 400.075 445.133 399.859 444.902C393.14 437.756 383.585 434.731 374.411 432.109C372.715 431.624 371.017 431.151 369.32 430.669C381.798 426.225 394.472 422.359 407.438 419.601C410.777 418.891 414.155 418.37 417.491 417.657C419.818 417.159 422.09 416.44 424.393 415.844L426.203 415.389L426.227 421.107C426.258 429.206 426.243 437.298 425.83 445.396L425.751 446.896C425.269 455.907 424.516 465.106 421.315 473.603C418.714 480.508 414.568 487.013 409.146 492.042C406.403 494.587 403.454 496.568 399.808 497.546C396.423 498.454 392.876 498.56 389.396 498.318C372.704 497.154 357.845 488.095 343.346 480.594C319.629 468.326 295.91 456.063 272.17 443.842C272.811 443.404 273.416 442.899 273.965 442.331C277.149 439.046 278.828 434.549 279.931 430.194C281.105 425.559 281.807 420.591 281.889 415.805M4.90921 300.223C25.7439 300.851 46.5542 302.209 67.2898 304.336C86.574 306.315 105.788 308.948 124.893 312.232C128.883 312.917 132.869 313.631 136.849 314.373L139.237 314.822C143.218 315.575 148.082 315.886 151.626 318.011C155.363 320.251 156.373 324.933 157.617 328.794C159.079 333.334 160.504 337.888 161.89 342.452C167.395 360.575 172.424 378.855 176.909 397.255C179.136 406.389 181.112 415.574 183.194 424.74C185.043 432.885 187.084 440.938 189.216 449.001C188.953 448.797 188.631 448.641 188.242 448.558C177.655 446.308 166.847 445.33 156.102 444.086L155.062 443.965C143.946 442.659 132.83 441.363 121.707 440.113L48.0654 431.839C43.7222 431.351 39.0695 431.285 34.8429 430.121C27.6569 428.14 25.9726 420.113 24.7669 413.721L24.7305 413.528C21.0956 394.214 18.202 374.732 14.812 355.37M187.503 426.549C190.362 426.361 194.275 423.745 196.444 423.932C195.305 425.841 194.791 428.018 195.447 430.344C197.274 436.814 205.534 433.466 209.512 431.49C212.774 429.868 215.924 427.884 219.536 427.125C223.627 426.265 226.398 427.891 229.855 429.764C232.694 431.303 235.786 432.408 238.965 432.98C240.656 433.284 242.262 433.317 243.865 433.198C243.961 433.276 244.07 433.349 244.194 433.414L245.042 433.859C241.208 434.034 237.302 435.216 233.734 436.299C230.037 437.42 226.407 438.771 222.797 440.153L219.245 441.517C210.484 444.869 201.415 448.052 191.933 448.024C191.251 448.023 190.693 448.211 190.253 448.519M203.499 406.275C200.674 405.93 198.067 406.3 195.81 408.137C193.088 410.352 191.26 414.026 187.347 414.268C186.206 414.338 185.941 415.941 187.075 416.276C189.987 417.137 192.346 415.563 194.33 413.519L195.664 412.126C197.625 410.097 199.434 408.528 202.762 408.65C206.326 408.78 209.895 409.602 213.436 410.021C217.447 410.495 221.457 410.899 225.481 411.247C225.667 411.263 225.699 410.969 225.524 410.926L221.018 409.805M206.225 394.738L205.759 394.692C201.658 394.294 197.907 394.278 194.244 396.483L193.541 396.907C190.239 398.913 186.644 401.276 184.578 404.523C184.241 405.055 184.799 405.68 185.364 405.544C189.334 404.593 192.236 401.683 195.574 399.505C199.32 397.061 203.19 397.464 207.461 397.844C211.597 398.212 215.731 398.717 219.826 399.406C223.674 400.052 227.534 401.073 231.421 401.398L231.42 401.391C231.864 401.39 232.118 400.724 231.665 400.498C227.72 398.53 223.152 397.598 218.861 396.699M346.673 283.308C346.678 282.984 346.222 282.862 346.063 283.143C343.394 287.834 341.999 293.584 340.577 298.752C339.088 304.166 337.886 309.634 336.806 315.143C334.619 326.298 333.454 337.389 333.375 348.759C333.364 350.382 336.011 350.814 336.27 349.151C337.989 338.091 339.636 327.021 341.368 315.965C342.239 310.404 343.254 304.865 344.224 299.32M320.253 291.478C320.45 290.831 319.508 290.615 319.267 291.207C313.911 304.341 312.097 319.227 315.535 333.084C316.062 335.204 319.169 334.285 318.772 332.192M251.171 279.807C251.198 279.323 250.569 279.247 250.332 279.58C247.794 283.152 246.741 287.937 242.289 289.783C240.066 290.704 237.564 290.544 235.6 292.101C234.288 293.142 233.281 294.786 234.266 296.363C234.584 296.873 235.474 297.128 235.905 296.574C236.535 295.768 236.868 294.802 237.723 294.197C238.93 293.344 240.557 293.291 241.94 292.89C243.729 292.372 245.306 291.465 246.598 290.118M208.775 220.224C208.513 220.091 208.262 220.176 208.095 220.402C207.856 220.724 207.885 221.037 208.178 221.257C207.787 222.055 207.325 224.054 207.26 224.345C206.992 225.525 206.708 226.697 206.411 227.869C205.811 230.232 205.285 232.614 204.685 234.978C204.048 237.483 203.29 239.963 202.446 242.406C202.391 242.564 202.331 242.726 202.269 242.89L202.172 243.137L202.149 243.1C201.977 242.829 201.62 243.018 201.662 243.304C201.702 243.565 201.755 243.825 201.799 244.086L201.711 244.319C201.159 245.804 200.78 247.367 201.793 248.677C202.172 249.167 202.589 249.457 203.109 249.544C203.942 252.288 204.987 254.981 206.106 257.567L206.434 258.322C208.081 262.096 209.836 265.82 212.457 269.032C215.319 272.539 219.255 274.934 221.748 278.778C222.908 280.565 223.714 282.445 224.369 284.464L224.616 285.23C225.081 286.658 225.617 288.043 226.958 288.88C227.386 289.147 228.027 289.062 228.372 288.698C231.121 285.792 228.243 280.366 226.585 277.553C224.28 273.64 220.945 271.138 217.605 268.186C214.005 265.005 211.709 260.749 209.488 256.556C208.127 253.987 206.814 251.363 205.431 248.783C206.876 247.508 207.338 244.974 207.828 243.212L207.872 243.054C208.681 240.234 209.324 237.34 209.73 234.433C210.121 231.638 210.284 228.883 210.18 226.073L210.151 225.357M203.403 233.525C203.722 233.088 203.194 232.593 202.756 232.684C200.093 233.234 197.49 234.845 195.1 236.147L194.845 236.285C192.937 237.313 191.018 238.572 190.016 240.568C188.927 242.739 189.017 245.238 189.165 247.596L189.179 247.817C189.361 250.645 189.391 253.584 189.99 256.361C190.296 257.782 191.585 258.183 192.686 257.847C193.997 261.982 197.679 265.029 200.369 268.292C203.798 272.452 203.153 278.068 202.794 283.078C202.649 285.107 205.175 285.684 206.476 284.601L209.473 282.114C209.972 281.699 210.471 281.283 210.968 280.865C211.394 280.507 211.816 280.146 212.234 279.781L212.86 279.23C213.137 278.982 214.36 277.617 214.717 277.56C215.584 277.422 217.641 279.703 218.346 280.418L218.435 280.508C219.761 281.806 220.958 283.204 222.074 284.686C222.279 284.958 222.68 284.732 222.534 284.417C221.534 282.278 220.372 280.233 218.992 278.318L218.713 277.937C217.794 276.701 216.562 274.518 214.941 274.153C212.962 273.707 210.986 275.69 209.546 276.79L209.455 276.859C208.77 277.373 208.092 277.896 207.417 278.422C207.487 274.691 207.016 270.922 205.088 267.708C203.729 265.44 201.692 263.761 199.95 261.813C198.01 259.644 196.997 256.977 195.241 254.718C195.015 254.427 194.703 254.271 194.365 254.221C194.298 252.405 194.03 250.57 193.823 248.774L193.763 248.236C193.554 246.284 193.06 243.899 194.016 242.071C194.92 240.344 196.993 239.125 198.529 237.953L199.783 236.982M289.819 212.883C290.62 213.346 291.37 213.923 292.049 214.643C294.189 216.911 295.719 219.734 297.208 222.449C298.01 223.911 298.783 225.389 299.591 226.848C299.942 227.483 300.304 228.111 300.669 228.738C300.838 229.026 301.34 229.6 301.589 229.954C301.313 230.341 301.027 230.723 300.735 231.1C300.624 231.243 292.948 239.598 290.272 242.868C286.175 247.876 282.512 253.167 279.381 258.829C276.315 264.374 273.981 270.245 271.141 275.897C269.719 278.727 268.131 281.537 266.107 283.986C266.029 284.082 265.947 284.172 265.867 284.266C265.094 282.182 263.115 279.949 262.143 278.668L262.052 278.547C259.848 275.578 257.52 272.698 255.141 269.867C252.968 267.282 250.74 264.753 248.459 262.266L247.6 261.335C246.011 259.62 243.991 257.052 241.664 255.826C241.913 255.382 242.202 254.943 242.534 254.509C244.714 251.663 247.797 249.597 250.838 247.732L252.811 246.534C260.245 242.007 267.565 237.27 274.019 231.389C277.434 228.276 280.802 225.016 283.672 221.386L284.687 220.103M277.413 210.642C280.895 210.934 284.655 210.865 287.872 211.998C285.012 214.7 282.293 217.617 279.5 220.364C279.251 218.506 278.743 216.671 278.313 214.859" fill="black"/>
<path fill-rule="evenodd" clip-rule="evenodd" d="M170.42 138.619C171.36 130.367 170.143 113.12 170.062 112.072C169.546 105.448 172.653 79.2894 178.526 81.6996C188.377 73.9079 201.498 72.1873 213.768 71.3655C239.253 69.658 266.364 73.5776 286.043 90.7132C295.775 99.6121 305.25 112.555 304.488 126.031C313.33 138.805 325.796 156.328 314.779 171.262C311.034 176.033 305.082 177.81 300.378 181.423C290.915 189.049 284.979 199.992 275.426 207.572C250.119 230.293 207.147 235.039 182.283 209.196C163.056 190.48 166.165 162.479 169.547 138.619C171.82 122.577 168.586 154.717 170.42 138.619Z" fill="white"/>
<path fill-rule="evenodd" clip-rule="evenodd" d="M247.812 36.3734C240.996 34.9992 233.997 34.1442 227.037 34.4016L226.501 34.4224C221.264 34.6315 214.631 35.0941 210.063 38.1367C209.8 37.8732 209.377 37.738 208.994 37.9207C203.565 40.5098 197.593 42.3818 191.877 44.2419C186.187 46.0929 180.284 47.3148 174.32 47.8073C172.076 47.9927 170.156 50.4134 171.576 52.5846C171.914 53.102 172.243 53.6246 172.571 54.1485C172.023 54.0913 171.475 54.0325 170.926 53.9771C169.122 53.7956 167.319 55.7198 167.426 57.4753C167.493 58.5794 167.612 59.6704 167.788 60.7484C167.101 60.734 166.418 60.837 165.757 61.1157C162.415 62.5261 162.647 66.5042 162.897 69.5308C163.244 73.7309 164.816 78.1797 167.736 81.3233C165.556 83.5852 164.013 86.2864 163.093 89.4945C162.425 91.8372 162.053 94.3325 162.237 96.771L162.295 97.5011C162.522 100.147 162.973 103.077 164.878 104.981C165.856 105.963 167.062 106.32 168.21 106.207C167.516 112.306 167.07 118.439 166.651 124.551L166.455 127.472C165.52 141.597 164.817 155.815 165.001 169.964C165.171 183.186 167.786 196.02 175.903 206.756C183.296 216.532 193.91 223.739 205.917 226.479C212.388 227.958 218.994 228.062 225.544 227.12C228.719 226.662 231.914 225.96 234.928 224.852C238.263 223.621 240.66 221.811 242.904 219.098C243.966 217.811 243.455 215.071 241.341 215.328C238.144 215.716 235.226 216.182 232.162 217.127L231.723 217.265C228.67 218.243 225.509 218.971 222.318 219.281C215.781 219.913 209.144 219.276 202.883 217.296C192.687 214.068 183.907 206.874 178.279 197.835C171.598 187.121 170.843 174.959 170.939 162.639C171.043 149.121 171.483 135.594 172.201 122.09L172.323 119.84C172.703 112.89 173.07 105.936 173.393 98.9828C173.493 96.8016 173.646 94.6029 173.921 92.4261C176.44 90.9516 178.698 88.9187 180.169 86.4103C183.125 87.6318 186.234 88.513 189.094 89.2153C195.72 90.8434 202.598 91.2386 209.342 90.2191C211.161 90.9699 213.017 91.6299 214.9 92.1979C215.409 92.4235 215.918 92.6451 216.427 92.8623C220.968 94.8036 225.575 96.4482 230.369 97.6523L231.546 97.9457C234.069 98.567 236.809 99.1789 239.494 99.371C239.935 99.5412 240.411 99.6851 240.931 99.8116C243.376 100.405 245.913 100.593 248.419 100.383C250.86 100.178 252.624 97.7133 251.279 95.4056C250.297 93.7217 249.305 92.0422 248.305 90.367C251.785 91.8153 255.379 93.0194 259.003 94.0402C262.662 95.0697 266.373 95.9378 270.089 96.7361C272.076 97.1593 274.071 97.5345 276.053 97.9576C277.472 98.2586 279.651 98.4157 280.809 99.3492C282.088 100.374 282.45 102.765 282.935 104.24C283.573 106.155 284.171 108.078 284.717 110.024C285.803 113.907 286.694 117.846 287.384 121.824C288.074 125.807 288.537 129.829 288.795 133.865C289.052 137.896 288.939 141.953 289.353 145.966C289.576 148.095 291.864 149.19 293.553 147.702C293.752 147.528 293.952 147.351 294.149 147.173L294.444 146.904C295.89 145.595 297.291 144.208 298.448 142.646C298.658 142.358 298.859 142.057 299.046 141.752C299.077 141.752 299.103 141.743 299.134 141.721L299.454 141.48C302.986 138.854 308.885 135.43 312.329 139.793C313.426 141.183 313.988 142.953 314.454 144.66L315.272 147.716C315.801 149.71 316.299 151.716 316.591 153.757C317.25 158.329 316.918 163.599 313.77 167.263C312.512 168.729 310.779 169.776 308.845 170.051C307.766 170.199 306.7 170.016 305.631 169.881C304.543 169.746 303.496 169.964 302.408 169.859C300.679 169.689 299.924 171.757 300.57 173.057C300.919 173.755 301.33 174.357 301.797 174.867C301.422 175.19 301.064 175.539 300.719 175.905C299.697 176.232 298.78 176.935 298.094 177.864C297.54 178.614 297.252 179.43 297.204 180.29C297.143 180.503 297.091 180.721 297.042 180.944L296.105 182.463C295.899 182.796 295.694 183.125 295.488 183.448C293.104 187.2 290.458 190.375 287.17 193.368C284.004 196.247 280.569 198.825 277.595 201.914L277.244 202.281C274.472 205.2 271.549 208.733 272.635 212.977C272.914 214.068 274.438 214.853 275.433 214.116C278.634 211.743 280.245 207.982 282.961 205.103C285.756 202.136 288.851 199.471 291.654 196.513C294.305 193.721 296.396 190.559 297.972 187.077C298.601 187.771 299.518 188.264 300.788 188.456C302.972 188.783 305.007 187.505 305.958 185.616C306.57 185.886 307.194 186.131 307.823 186.323C311.133 187.335 313.215 183.657 311.966 180.939C311.299 179.482 310.465 178.217 309.429 177.153C312.665 176.708 315.957 175.037 318.084 172.952C323.419 167.713 324.153 159.839 322.952 152.837C322.314 149.124 321.214 145.368 319.786 141.883C319.538 141.276 319.271 140.666 318.979 140.064C319.14 140.059 319.306 139.99 319.411 139.854C320.376 138.537 321.55 137.459 322.267 135.985C322.926 134.632 323.659 133.263 324.179 131.854C325.249 128.97 325.772 125.716 326.122 122.666C326.842 116.424 326.563 110.22 325.607 104.017C323.978 93.4512 320.045 83.34 314.251 74.4678C314.566 74.3021 314.869 74.1022 315.15 73.8657L315.289 73.7445L315.516 73.5403C317.169 72.0453 317.026 69.2433 315.516 67.7291L315.038 67.2513C314.434 66.6516 313.913 66.1765 312.937 65.5235C312.793 65.4271 312.646 65.3363 312.497 65.2517C313.008 64.3086 313.185 63.2057 312.829 61.9891C311.589 57.7505 305.485 57.9006 301.616 59.749C297.336 55.9323 292.59 52.619 287.445 49.9361C275.193 43.5496 261.339 39.0955 247.812 36.3734ZM311.145 148.008C308.857 147.262 305.818 148.828 303.762 149.77C301.155 150.965 298.937 152.732 296.789 154.599C295.719 155.533 295.527 157.06 295.793 158.364C295.82 158.495 295.846 158.63 295.877 158.765C296.16 160.157 297.715 161.252 299.09 161.213C301.968 161.134 303.338 158.652 304.967 156.549C305.159 156.89 305.399 157.204 305.697 157.439L305.897 157.596C306.573 158.11 307.318 158.521 308.211 158.482C308.845 158.451 309.451 158.29 310.01 157.998C311.408 157.26 312.023 155.454 311.643 153.984C311.408 153.059 310.866 152.335 310.159 151.833L310.423 151.653C310.987 151.261 311.501 150.847 311.902 150.237L311.993 150.093H311.958C312.394 149.343 312.11 148.322 311.145 148.008Z" fill="black"/>
<path fill-rule="evenodd" clip-rule="evenodd" d="M203.38 191.908C206.596 192.839 210.049 192.922 213.328 191.961C216.301 191.089 219.355 189.17 221.543 186.631C223.488 184.376 224.747 181.634 224.697 178.709C224.692 178.374 224.572 178.095 224.388 177.879C224.19 177.646 223.914 177.486 223.617 177.416C223.313 177.345 222.99 177.37 222.716 177.495C222.468 177.607 222.255 177.799 222.122 178.079C221.786 178.52 221.45 178.955 221.114 179.378C218.41 182.714 215.791 185.208 211.724 186.102C209.517 186.588 207.314 186.372 205.292 185.632C203.127 184.839 201.171 183.446 199.637 181.662C198.944 180.856 198.126 180.527 197.327 180.522C196.42 180.515 195.524 180.936 194.849 181.609C194.186 182.27 193.741 183.168 193.701 184.108C193.666 184.933 193.935 185.795 194.652 186.563C197.012 189.096 200.07 190.951 203.38 191.908ZM203.479 150.12C200.182 152.122 195.158 156.791 198.705 161.756C202.88 166.133 208.892 161.114 211.854 158.844C214.601 157.085 217.687 161.609 215.138 163.663C193.733 179.497 185.046 150.644 201.812 147.766C203.657 147.449 204.343 149.501 203.479 150.12ZM234.322 141.309C235.382 140.632 236.629 140.4 238.01 141.028C239.09 141.518 240.984 143.153 242.301 145.303C243.203 146.774 243.842 148.499 243.709 150.296C243.678 150.713 243.833 151.021 244.076 151.249C244.268 151.428 244.546 151.561 244.872 151.602C245.149 151.637 245.459 151.605 245.711 151.527C246.191 151.377 246.445 151.066 246.54 150.813C247.463 148.364 247.065 145.632 246.031 143.168C244.636 139.841 242.101 137.055 240.441 136.156C237.599 134.619 234.247 134.548 231.402 136.115C228.98 137.448 227.465 139.601 225.959 141.795C225.639 142.261 225.321 142.724 224.992 143.179C224.334 144.091 224.268 144.995 224.523 145.77C224.806 146.629 225.526 147.353 226.426 147.733C227.259 148.083 228.225 148.133 229.079 147.772C229.801 147.468 230.464 146.875 230.883 145.869C231.59 144.174 232.766 142.304 234.322 141.309ZM180.501 145.08C181.227 145.458 181.794 145.572 182.6 145.331C183.045 145.197 183.485 144.941 183.829 144.597C184.171 144.256 184.417 143.832 184.513 143.361C184.748 142.2 185.384 141.113 186.291 140.404C187.065 139.798 188.043 139.477 189.128 139.658C190.298 139.853 191.413 140.603 192.181 141.487C192.438 141.783 192.639 142.119 192.841 142.453C193.22 143.077 193.587 143.657 194.109 144.116C194.307 144.29 194.605 144.411 194.894 144.411C195.011 144.411 195.13 144.392 195.244 144.356C196.409 143.188 196.633 142.302 196.595 141.423C196.556 140.502 196.192 139.568 195.604 138.698C194.226 136.655 191.608 134.981 189.841 134.601C187.422 134.082 185.02 134.705 183.094 136.055C181.112 137.444 179.643 139.601 179.185 142.031C179.075 142.617 179.122 143.248 179.345 143.796C179.563 144.331 179.943 144.79 180.501 145.08ZM228.987 119.533C230.439 120.946 232.157 121.165 233.896 121.36C234.861 121.469 235.633 121.557 236.391 121.728C238.477 122.199 240.538 122.907 242.419 123.927C244.385 124.994 246.527 126.28 248.069 127.928C248.435 128.32 248.781 128.731 249.127 129.143C249.442 129.519 249.746 129.881 250.067 130.23C250.434 130.631 250.784 131.051 251.131 131.471C251.346 131.824 251.388 131.911 251.432 132.002C251.497 132.138 251.572 132.29 251.659 132.453C251.777 132.677 251.916 132.922 252.062 133.144C252.303 133.55 252.433 133.661 252.545 133.711C252.731 133.794 252.908 133.835 253.079 133.813C253.239 133.792 253.39 133.715 253.54 133.589C254.285 132.96 254.505 131.927 254.482 130.831C254.448 129.168 253.834 127.326 253.268 126.194C251.952 123.564 250.127 120.829 247.932 118.866C245.427 116.625 242.687 114.929 239.54 113.76C237.584 113.033 235.32 112.366 233.189 112.45C231.655 112.511 230.191 112.966 228.982 114.104C228.239 114.802 227.883 115.795 227.883 116.788C227.883 117.8 228.253 118.819 228.987 119.533ZM177.548 132.474C177.641 132.625 177.768 132.73 177.911 132.792C178.06 132.858 178.226 132.877 178.386 132.85C178.545 132.823 178.696 132.751 178.816 132.641C178.931 132.535 179.018 132.396 179.057 132.224C180.021 127.995 181.893 124.848 185.887 122.818C187.852 121.82 190.112 121.186 192.251 120.68C192.873 120.533 193.529 120.438 194.191 120.342C196.264 120.039 198.352 119.693 199.703 118.019C200.518 117.01 200.86 115.72 200.666 114.541C200.484 113.43 199.835 112.412 198.654 111.802C195.714 110.283 192.061 111.773 189.093 113.043C188.873 113.137 188.657 113.229 188.445 113.318C185.542 114.543 182.894 116.159 180.718 118.47C178.991 120.303 177.391 123.014 176.747 125.802C176.211 128.122 176.337 130.49 177.548 132.474Z" fill="black"/>
<path fill-rule="evenodd" clip-rule="evenodd" d="M242.379 194.976C238.843 186.702 231.128 180.621 222.245 178.398C215.721 176.769 208.875 176.821 202.226 177.467C198.742 177.804 195.005 178.079 191.721 179.372C188.917 180.476 186.632 182.564 184.914 185.014C182.869 187.918 181.478 191.241 180.501 194.648C180.363 195.132 180.232 195.62 180.111 196.11C180.535 198.68 181.437 200.868 183.82 202.483C186.145 204.061 188.919 204.707 191.684 204.936C191.956 204.806 192.218 204.672 192.458 204.535C196.768 202.07 199.801 196.245 205.24 197.034C210.094 197.738 213.29 203.84 216.176 207.418C225.442 208.497 234.701 205.715 242.241 200.421C242.624 198.609 242.646 196.782 242.379 194.976ZM173.813 188.7C174.554 186.621 175.488 184.608 176.594 182.712C180.253 176.442 185.869 171.445 192.537 168.589C208.308 161.842 228.716 166.598 241.453 177.664C245.804 181.447 250.203 187.006 251.533 192.985C251.931 193.064 252.306 193.27 252.614 193.561C261.817 187.772 271.294 182.203 278.709 174.179C284.094 168.349 287.84 161.449 290.134 153.868C290.321 153.244 291.328 153.335 291.298 154.025C291.289 154.187 291.28 154.348 291.272 154.51C291.368 154.213 291.821 154.366 291.856 154.654C293.09 163.864 294.634 173.629 293.212 182.887C292.362 188.411 289.85 192.456 286.493 196.823C282.895 201.504 278.822 205.858 274.658 210.033C272.016 212.684 269.255 215.741 266.02 217.684C262.257 219.942 257.988 221.658 253.972 223.4C249.886 225.178 245.739 226.82 241.514 228.243C233.067 231.1 224.338 233.073 215.455 233.938C208.343 234.628 200.215 235.38 193.4 232.707C188.176 230.658 183.959 226.956 180.615 222.501C176.974 217.649 174.095 212.122 172.504 206.295C170.851 200.241 173.464 189.676 173.813 188.7Z" fill="black"/>
<path fill-rule="evenodd" clip-rule="evenodd" d="M166.663 154.025C169.603 157.97 175.053 159.227 180.08 158.793C190.921 157.751 194.334 145.448 194.689 135.886C187.419 137.93 195.304 123.458 170.451 121.866C161.69 121.137 164.106 126.423 160.235 130.286C160.315 138.392 161.665 147.2 166.663 154.025ZM218.303 144.71C224.704 174.659 259.756 167.535 263.438 140.538C260.038 138.141 260.934 132.22 256.71 130.075C250.016 125.802 241.647 125.985 234.045 126.085C224.328 126.752 221.559 130.774 216.567 135.162C216.807 138.092 217.5 141.566 218.303 144.71ZM152.777 116.906C153.137 116.846 153.497 116.79 153.856 116.737C154.137 116.578 154.467 116.456 154.85 116.382C155.726 116.16 156.595 116.01 157.463 115.929C169.921 113.128 198.742 117.106 199.931 127.727C203.898 129.05 207.331 127.865 211.929 127.983C215.429 113.367 275.939 115.43 278.849 124.242C278.86 124.239 278.871 124.236 278.882 124.233C281.678 123.368 285.8 123.577 289.001 123.44C295.835 123.297 302.676 123.905 309.362 125.345C321.883 127.333 338.97 129.661 330.263 145.281C330.261 145.284 330.26 145.287 330.257 145.29L330.256 145.288C328.755 146.825 326.208 145.588 326.114 143.507C329.041 136.107 322.429 135.218 317.341 133.092C304.682 128.548 291.794 127.918 278.701 129.323C277.716 130.482 276.221 131.492 274.641 132.021C265.887 133.473 270.501 139.961 264.968 140.904C265.984 163.52 238.502 175.865 222.579 160.998C216.221 154.788 214.705 145.588 213.231 137.295C212.452 137.12 211.956 136.695 211.667 136.131C209.792 134.261 208.615 132.535 204.908 132.021C201.202 131.508 198.348 132.538 197.962 132.853C197.865 133.049 197.76 133.246 197.639 133.442C197.47 133.735 197.239 133.968 196.977 134.152C200.637 156.672 183.139 170.915 165.473 159.234C157.797 152.02 156.175 140.975 155.854 131.117C154.814 130.49 154.155 129.274 154.515 127.745C155.012 125.638 153.848 123.814 151.994 122.898C149.585 121.708 150.011 117.364 152.777 116.906Z" fill="black"/>
<g clip-path="url(#clip0_395_3870)">
<path d="M68.5346 354.889L91.9318 357.363C93.8817 357.57 95.7714 359.567 96.1526 361.824L100.726 388.909C101.108 391.166 99.836 392.829 97.8861 392.622L74.4889 390.148C72.539 389.942 70.6493 387.945 70.2681 385.688L65.6942 358.603C65.313 356.345 66.5847 354.683 68.5346 354.889Z" fill="black"/>
<path fill-rule="evenodd" clip-rule="evenodd" d="M90.7197 377.427L89.9321 372.763L85.9034 372.337L86.691 377.001C87.0172 378.933 85.9288 380.356 84.2601 380.179C82.5913 380.003 80.974 378.294 80.6478 376.362L79.8602 371.698L75.8315 371.272L76.619 375.936C77.3802 380.443 81.1538 384.431 85.0476 384.843C88.9414 385.255 91.4809 381.934 90.7197 377.427Z" fill="white"/>
<path d="M84.3282 363.009L88.3569 363.436L89.1445 368.099L85.1157 367.673L84.3282 363.009Z" fill="white"/>
<path d="M74.2481 361.905L78.2769 362.331L79.0645 366.995L75.0357 366.569L74.2481 361.905Z" fill="white"/>
</g>
<defs>
<clipPath id="clip0_395_3870">
<rect width="30.6322" height="35.7628" fill="white" transform="matrix(-0.994454 -0.10517 0.166515 0.986039 95.4624 357.737)"/>
</clipPath>
</defs>
</svg>
