<svg width="448" height="388" viewBox="0 0 448 388" fill="none" xmlns="http://www.w3.org/2000/svg">
<g clip-path="url(#clip0_1872_31755)">
<path d="M448.423 0.253662H0.191406V286.678H448.423V0.253662Z" fill="#EAEDF2"/>
<path d="M435.605 36.1782H13.0078V269.733H435.605V36.1782Z" fill="white"/>
<path d="M448.231 0H0V18.9998H448.231V0Z" fill="#EAEDF2"/>
<path d="M14.1524 13.2353C16.1017 13.2353 17.6818 11.6587 17.6818 9.71386C17.6818 7.769 16.1017 6.19238 14.1524 6.19238C12.2032 6.19238 10.623 7.769 10.623 9.71386C10.623 11.6587 12.2032 13.2353 14.1524 13.2353Z" fill="white"/>
<path d="M27.5489 13.2353C29.4981 13.2353 31.0783 11.6587 31.0783 9.71386C31.0783 7.769 29.4981 6.19238 27.5489 6.19238C25.5997 6.19238 24.0195 7.769 24.0195 9.71386C24.0195 11.6587 25.5997 13.2353 27.5489 13.2353Z" fill="white"/>
<path d="M40.9434 13.2351C42.8927 13.2351 44.4728 11.6585 44.4728 9.71361C44.4728 7.76876 42.8927 6.19214 40.9434 6.19214C38.9942 6.19214 37.4141 7.76876 37.4141 9.71361C37.4141 11.6585 38.9942 13.2351 40.9434 13.2351Z" fill="white"/>
<path d="M147.994 60.4114H63.4062C56.7788 60.4114 51.4062 65.7839 51.4062 72.4114V233.5C51.4062 240.127 56.7788 245.5 63.4062 245.5H147.994C154.621 245.5 159.994 240.127 159.994 233.5V72.4114C159.994 65.784 154.621 60.4114 147.994 60.4114Z" fill="#EAEDF2"/>
<path d="M257.228 60.4114H190.738C184.111 60.4114 178.738 65.784 178.738 72.4114V99.359C178.738 105.986 184.111 111.359 190.738 111.359H257.228C263.855 111.359 269.228 105.986 269.228 99.359V72.4114C269.228 65.784 263.855 60.4114 257.228 60.4114Z" fill="#7250F8"/>
<path d="M257.228 125.547H190.738C184.111 125.547 178.738 130.92 178.738 137.547V168.364C178.738 174.992 184.111 180.364 190.738 180.364H257.228C263.855 180.364 269.228 174.992 269.228 168.364V137.547C269.228 130.92 263.855 125.547 257.228 125.547Z" fill="#EAEDF2"/>
<path d="M257.228 194.552H190.738C184.111 194.552 178.738 199.925 178.738 206.552V233.5C178.738 240.127 184.111 245.5 190.738 245.5H257.228C263.855 245.5 269.228 240.127 269.228 233.5V206.552C269.228 199.925 263.855 194.552 257.228 194.552Z" fill="#EAEDF2"/>
<path d="M385.207 60.4114H300.619C293.992 60.4114 288.619 65.784 288.619 72.4114V129.072C288.619 135.699 293.992 141.072 300.619 141.072H385.207C391.834 141.072 397.207 135.699 397.207 129.072V72.4114C397.207 65.784 391.834 60.4114 385.207 60.4114Z" fill="#EAEDF2"/>
<path d="M385.207 164.839H300.619C293.992 164.839 288.619 170.212 288.619 176.839V233.5C288.619 240.127 293.992 245.5 300.619 245.5H385.207C391.834 245.5 397.207 240.127 397.207 233.5V176.839C397.207 170.212 391.834 164.839 385.207 164.839Z" fill="#EAEDF2"/>
<path d="M355.375 146.866V129.501C355.375 123.33 357.832 117.411 362.206 113.048C366.579 108.684 372.511 106.232 378.696 106.232C384.882 106.232 390.814 108.684 395.187 113.048C399.561 117.411 402.018 123.33 402.018 129.501V146.866C402.017 147.695 401.686 148.49 401.099 149.076C400.512 149.662 399.716 149.991 398.885 149.992H358.508C357.677 149.991 356.881 149.662 356.294 149.076C355.706 148.49 355.376 147.695 355.375 146.866Z" fill="#2F2E41"/>
<path d="M413.183 372.852L404.957 375.123L392.262 344.548L404.402 341.196L413.183 372.852Z" fill="#FFB8B8"/>
<path d="M398.43 374.401L414.293 370.021L417.057 379.987L391.206 387.125C390.843 385.817 390.742 384.449 390.908 383.102C391.075 381.754 391.506 380.452 392.176 379.271C392.847 378.089 393.745 377.051 394.818 376.215C395.891 375.38 397.118 374.764 398.43 374.401Z" fill="#2F2E41"/>
<path d="M327.424 379.166H318.889L314.828 346.319H327.425L327.424 379.166Z" fill="#FFB8B8"/>
<path d="M312.791 376.732H329.251V387.073H302.428C302.428 385.715 302.696 384.37 303.217 383.116C303.737 381.861 304.501 380.721 305.463 379.761C306.426 378.801 307.568 378.039 308.825 377.519C310.083 377 311.43 376.732 312.791 376.732Z" fill="#2F2E41"/>
<path d="M317.133 195.598C317.742 196.419 318.524 197.096 319.424 197.582C320.324 198.069 321.32 198.352 322.341 198.413C323.363 198.474 324.385 198.31 325.337 197.934C326.288 197.558 327.145 196.978 327.848 196.235L350.536 206.417L348.472 193.684L327.244 185.967C325.915 184.872 324.231 184.302 322.509 184.363C320.787 184.425 319.147 185.115 317.901 186.302C316.655 187.489 315.888 189.091 315.746 190.804C315.605 192.518 316.098 194.223 317.133 195.598Z" fill="#FFB8B8"/>
<path d="M364.273 272.17C357.144 272.17 349.765 271.11 343.563 267.959C340.27 266.32 337.352 264.02 334.991 261.203C332.63 258.387 330.877 255.114 329.842 251.591C326.61 241.381 330.685 231.35 334.626 221.65C337.068 215.639 339.374 209.962 339.972 204.366L340.182 202.379C341.114 193.455 341.919 185.748 346.375 182.857C348.685 181.359 351.791 181.273 355.871 182.595L394.191 195.016L392.782 267.595L392.55 267.672C392.349 267.74 378.84 272.17 364.273 272.17Z" fill="#2F2E41"/>
<path d="M355.201 160C355.201 160 373.998 154.443 388.617 156.527C388.617 156.527 380.263 202.371 383.048 217.652C385.832 232.933 334.665 223.556 345.107 208.97L348.588 191.604C348.588 191.604 341.626 184.658 347.892 176.323L355.201 160Z" fill="#7250F8"/>
<path d="M345.955 270.794L322.789 266.46L330.877 204.358C331.421 202.624 343.949 163.277 349.64 161.148C353.771 159.697 357.996 158.525 362.286 157.643L363.11 157.478L358.465 164.43L339.972 208.645L345.955 270.794Z" fill="#2F2E41"/>
<path d="M333.884 371.555L303.953 366.578L320.75 298.143L345.745 204.554L345.991 206.216C346.011 206.34 348.346 218.566 382.993 213.141L383.297 213.094L383.382 213.39L425.257 361.019L391.152 366.69L360.045 258.981L333.884 371.555Z" fill="#2F2E41"/>
<path d="M375.371 282.416L375.39 281.89C375.411 281.307 377.47 223.285 376.782 199.95C376.092 176.536 383.689 156.259 383.766 156.057L383.828 155.894L383.996 155.846C393.825 153.044 402.353 161.406 402.438 161.491L402.558 161.611L399.758 184.655L411.743 268.453L375.371 282.416Z" fill="#2F2E41"/>
<path d="M373.905 149.588C383.348 149.588 391.003 141.95 391.003 132.528C391.003 123.106 383.348 115.468 373.905 115.468C364.462 115.468 356.807 123.106 356.807 132.528C356.807 141.95 364.462 149.588 373.905 149.588Z" fill="#FFB8B8"/>
<path d="M349.857 130.891C349.863 126.01 351.808 121.332 355.267 117.881C358.725 114.43 363.415 112.489 368.306 112.484H371.787C376.678 112.489 381.367 114.43 384.825 117.881C388.284 121.332 390.229 126.01 390.235 130.891V131.238H382.879L380.37 124.228L379.868 131.238H376.066L374.8 127.701L374.547 131.238C374.547 131.238 367.023 131.238 362.202 131.238C357.381 131.238 349.857 131.238 349.857 131.238V130.891Z" fill="#2F2E41"/>
<path d="M372.221 151.945C371.875 151.478 371.669 150.924 371.626 150.345C371.582 149.767 371.704 149.188 371.976 148.675C375.664 141.675 380.829 128.74 373.974 120.763L373.481 120.19H393.382V150.002L375.303 153.185C375.12 153.217 374.935 153.233 374.749 153.234C374.255 153.234 373.769 153.117 373.329 152.893C372.89 152.669 372.51 152.344 372.221 151.945Z" fill="#2F2E41"/>
<path d="M292.094 28.8582C278.168 17.1336 261.126 9.70033 243.043 7.46295C224.961 5.22557 206.616 8.28055 190.241 16.2561C173.867 24.2317 160.169 36.784 150.814 52.3857C141.459 67.9873 136.851 85.9655 137.55 104.133C138.249 122.3 144.225 139.873 154.751 154.713C165.277 169.553 179.899 181.02 196.839 187.72C213.778 194.419 232.303 196.062 250.161 192.448C268.019 188.834 284.439 180.119 297.423 167.364L412.72 264.433C414.474 265.913 416.745 266.636 419.035 266.445C421.324 266.254 423.443 265.163 424.926 263.413C426.409 261.662 427.135 259.396 426.943 257.112C426.751 254.828 425.658 252.713 423.904 251.233L423.891 251.223L308.594 154.154C321.988 134.974 327.721 111.494 324.668 88.3168C321.616 65.1394 309.999 43.9347 292.094 28.8582ZM284.661 144.806C275.679 155.428 263.742 163.153 250.359 167.005C236.977 170.857 222.75 170.663 209.478 166.448C196.206 162.232 184.485 154.185 175.797 143.323C167.109 132.461 161.844 119.273 160.668 105.425C159.493 91.5778 162.459 77.6936 169.192 65.5282C175.924 53.3628 186.122 43.4626 198.494 37.0796C210.866 30.6966 224.857 28.1175 238.698 29.6683C252.539 31.2192 265.609 36.8305 276.254 45.7925C283.322 51.743 289.146 59.0243 293.393 67.2207C297.641 75.417 300.229 84.3679 301.01 93.5622C301.79 102.756 300.748 112.014 297.943 120.807C295.138 129.599 290.625 137.754 284.661 144.806Z" fill="#3F3D56"/>
<path opacity="0.3" d="M185.426 153.195C171.916 141.82 163.188 125.792 160.974 108.293C158.76 90.7939 163.223 73.1044 173.476 58.7366C172.13 60.0895 170.828 61.5065 169.571 62.9875C163.607 70.0396 159.094 78.1947 156.289 86.9872C153.483 95.7797 152.441 105.037 153.222 114.232C154.003 123.426 156.591 132.377 160.838 140.573C165.086 148.77 170.91 156.051 177.978 162.001C185.046 167.952 193.22 172.455 202.032 175.254C210.844 178.053 220.123 179.093 229.338 178.314C238.552 177.535 247.523 174.953 255.738 170.714C263.953 166.476 271.251 160.665 277.214 153.613C278.468 152.13 279.649 150.612 280.757 149.057C268.287 161.559 251.561 168.924 233.901 169.69C216.24 170.457 198.937 164.568 185.426 153.195Z" fill="#222222"/>
<path d="M379.394 225.423C380.388 225.666 381.423 225.688 382.427 225.488C383.43 225.288 384.378 224.871 385.202 224.266C386.027 223.661 386.709 222.883 387.199 221.987C387.69 221.091 387.978 220.099 388.043 219.08L412.014 212.441L402.269 203.964L381 211.568C379.277 211.573 377.616 212.209 376.331 213.354C375.046 214.5 374.227 216.076 374.029 217.784C373.831 219.491 374.268 221.212 375.256 222.62C376.245 224.028 377.717 225.026 379.394 225.423Z" fill="#FFB8B8"/>
<path d="M389.357 221.909L387.898 208.082L407.922 197.06L394.867 181.292L396.997 163.58L402.302 161.312L402.467 161.523C404.968 164.733 426.906 192.975 426.906 196.467C426.906 200.053 422.709 210.583 416.967 213.448C411.428 216.211 390.631 221.581 389.748 221.809L389.357 221.909Z" fill="#2F2E41"/>
<path d="M447.301 388.001L228.015 388.001C227.83 388.001 227.653 387.927 227.522 387.797C227.392 387.667 227.318 387.49 227.318 387.306C227.318 387.122 227.392 386.945 227.522 386.815C227.653 386.684 227.83 386.611 228.015 386.611L447.301 386.611C447.485 386.611 447.662 386.685 447.793 386.815C447.924 386.945 447.997 387.122 447.997 387.306C447.997 387.49 447.924 387.667 447.793 387.797C447.662 387.927 447.485 388.001 447.301 388.001Z" fill="#EAEDF2"/>
</g>
<defs>
<clipPath id="clip0_1872_31755">
<rect width="448" height="388" fill="white"/>
</clipPath>
</defs>
</svg>
