<svg width="443" height="542" viewBox="0 0 443 542" fill="none" xmlns="http://www.w3.org/2000/svg">
<g clip-path="url(#clip0_1872_28171)">
<path d="M385.977 388.218C386.125 388.416 386.274 388.606 386.423 388.804C389.533 392.915 392.173 397.359 394.296 402.053C394.409 402.287 394.516 402.52 394.608 402.76C397.516 409.315 399.384 416.282 400.145 423.411C400.153 423.46 400.157 423.509 400.159 423.559C400.336 425.226 400.442 426.907 400.484 428.587C400.642 431.738 400.3 434.894 399.472 437.938C398.717 440.424 397.393 442.702 395.606 444.591C395.429 444.782 395.252 444.972 395.061 445.156C394.919 445.304 394.763 445.453 394.615 445.594C393.185 446.957 391.62 448.221 390.274 449.683C389.658 450.339 389.101 451.048 388.611 451.802C387.828 453.066 387.322 454.481 387.127 455.954C386.932 457.427 387.051 458.924 387.478 460.348C388.441 463.921 390.643 466.937 392.894 469.811C394.02 471.252 395.181 472.707 396.187 474.247C396.555 474.798 396.895 475.355 397.206 475.928H398.098C397.801 475.355 397.475 474.798 397.121 474.247C394.537 470.186 390.862 466.697 388.957 462.226C387.669 459.211 387.279 455.792 388.908 452.833C389.385 451.973 389.963 451.171 390.628 450.446C391.924 448.984 393.475 447.734 394.884 446.413C395.238 446.081 395.585 445.742 395.917 445.389C397.682 443.601 399.043 441.458 399.911 439.104C400.893 436.113 401.358 432.977 401.284 429.83C401.284 427.825 401.178 425.805 400.98 423.799C400.959 423.545 400.93 423.283 400.902 423.022C399.454 410.4 394.645 398.395 386.975 388.253C386.833 388.056 386.685 387.865 386.536 387.674C386.232 387.279 385.672 387.83 385.977 388.218Z" fill="white"/>
<path d="M400.617 423.866C403.069 423.455 405.295 422.188 406.897 420.291C408.5 418.394 409.374 415.991 409.364 413.51C409.362 413.409 409.322 413.312 409.25 413.241C409.179 413.169 409.082 413.127 408.981 413.125C408.88 413.123 408.781 413.16 408.707 413.229C408.632 413.297 408.588 413.392 408.582 413.493C408.595 415.803 407.781 418.042 406.285 419.805C404.79 421.568 402.711 422.74 400.425 423.11C399.929 423.19 400.123 423.946 400.617 423.866Z" fill="white"/>
<path d="M395.803 444.733C391.636 441.828 388.72 437.463 387.637 432.509C387.53 432.018 386.772 432.21 386.878 432.7C388.016 437.853 391.059 442.389 395.402 445.403C395.816 445.69 396.215 445.019 395.803 444.733Z" fill="white"/>
<path d="M394.531 401.971C393.615 402.327 392.625 402.451 391.649 402.331C390.674 402.211 389.743 401.852 388.942 401.285C388.531 400.993 388.133 401.664 388.541 401.954C389.43 402.577 390.458 402.973 391.535 403.107C392.613 403.242 393.707 403.112 394.722 402.727C394.821 402.699 394.905 402.634 394.958 402.546C395.01 402.458 395.027 402.354 395.005 402.254C394.98 402.154 394.915 402.068 394.826 402.015C394.737 401.962 394.631 401.946 394.531 401.971Z" fill="white"/>
<path d="M332.859 415.529C333.107 415.719 333.362 415.91 333.61 416.108C336.971 418.674 340.118 421.508 343.02 424.583C343.246 424.816 343.473 425.056 343.692 425.296L343.699 425.303C350.579 432.752 356.018 441.406 359.744 450.827L359.765 450.891C359.772 450.912 359.779 450.926 359.786 450.947C361.263 454.719 362.453 458.595 363.348 462.544C364.211 466.4 364.919 470.532 366.272 474.247C366.477 474.819 366.704 475.384 366.944 475.928H398.424C398.318 475.37 398.204 474.805 398.091 474.247C396.49 466.063 393.987 458.081 390.628 450.446C390.515 450.192 390.402 449.937 390.274 449.683C388.54 445.911 386.502 442.285 384.178 438.842L384.178 438.839L384.176 438.837L384.174 438.836L384.171 438.835C382.895 436.957 381.525 435.144 380.064 433.404C376.278 428.91 371.805 425.039 366.81 421.935C366.782 421.913 366.746 421.899 366.718 421.878C356.777 415.727 344.995 412.796 333.73 415.331H333.723C333.433 415.395 333.15 415.458 332.859 415.529Z" fill="#EAEDF2"/>
<path d="M332.895 415.903C333.135 415.967 333.376 416.037 333.61 416.108C338.572 417.522 343.362 419.481 347.891 421.949C348.118 422.069 348.344 422.196 348.571 422.323C354.83 425.808 360.512 430.236 365.415 435.452C365.419 435.456 365.421 435.461 365.422 435.466C365.479 435.523 365.543 435.586 365.592 435.643C366.725 436.858 367.815 438.122 368.849 439.421C370.871 441.844 372.5 444.568 373.678 447.494C374.578 449.932 374.895 452.546 374.605 455.128C374.584 455.39 374.549 455.644 374.513 455.905C374.485 456.11 374.457 456.315 374.421 456.527C373.954 459.359 373.147 462.198 373.373 465.087C373.511 466.567 373.962 468.001 374.695 469.295C375.429 470.589 376.428 471.713 377.629 472.594C378.445 473.223 379.317 473.776 380.234 474.247C381.546 474.921 382.913 475.483 384.32 475.927H387.102C386.727 475.822 386.359 475.716 385.984 475.61C384.652 475.235 383.344 474.78 382.068 474.247C381.339 473.942 380.63 473.593 379.944 473.201C377.098 471.57 374.726 469.07 374.23 465.729C373.798 462.805 374.634 459.881 375.129 457.021C375.214 456.527 375.292 456.039 375.335 455.552C375.673 453.075 375.467 450.555 374.733 448.165C373.714 445.183 372.191 442.398 370.23 439.93C369.016 438.323 367.721 436.779 366.35 435.304C366.18 435.113 366.003 434.922 365.819 434.732C360.812 429.479 355.032 425.018 348.677 421.504H348.67C343.945 418.88 338.932 416.808 333.73 415.331H333.723C333.489 415.26 333.249 415.19 333.015 415.126C332.527 414.999 332.413 415.769 332.895 415.903Z" fill="white"/>
<path d="M366.099 435.572C367.809 433.771 368.821 431.422 368.956 428.945C369.09 426.469 368.338 424.025 366.832 422.05C366.526 421.652 365.891 422.107 366.198 422.506C367.603 424.342 368.303 426.619 368.174 428.925C368.044 431.231 367.092 433.415 365.489 435.083C365.142 435.446 365.753 435.933 366.099 435.572Z" fill="white"/>
<path d="M374.851 455.124C369.771 455.307 364.808 453.573 360.952 450.268C360.571 449.94 360.081 450.548 360.462 450.876C364.481 454.307 369.649 456.101 374.935 455.9C375.439 455.88 375.352 455.105 374.851 455.124Z" fill="white"/>
<path d="M348.024 421.745C347.508 422.579 346.793 423.273 345.941 423.763C345.09 424.253 344.13 424.525 343.148 424.553C342.644 424.567 342.731 425.342 343.232 425.329C344.317 425.292 345.377 424.991 346.319 424.451C347.26 423.912 348.055 423.15 348.634 422.234C348.696 422.152 348.724 422.05 348.713 421.948C348.702 421.846 348.652 421.752 348.574 421.685C348.493 421.621 348.39 421.591 348.287 421.602C348.184 421.613 348.09 421.665 348.024 421.745Z" fill="white"/>
<path d="M76.9396 456.696C75.1533 463.381 70.4596 468.948 64.7925 473.003C63.8686 473.666 62.92 474.281 61.9591 474.858C61.6634 475.03 61.3677 475.215 61.0598 475.374C60.7271 475.571 60.3945 475.755 60.0619 475.927H33.4148C32.9343 474.957 32.4661 473.974 31.998 473.003C20.5778 449.065 12.5578 423.235 13.9252 396.925C14.4677 386.72 16.6171 376.664 20.2944 367.126C27.6122 348.116 40.9666 331.661 59.335 323.379C59.7908 323.17 60.2713 322.961 60.7394 322.765C60.5916 323.293 60.4438 323.809 60.2959 324.338C58.3253 331.419 56.9328 338.648 56.1319 345.953C56.058 346.518 55.9964 347.083 55.9471 347.661C54.197 365.28 55.7511 383.069 60.53 400.12C60.5424 400.157 60.5546 400.206 60.567 400.243C61.6142 404.016 62.8297 407.731 64.2136 411.389C65.2977 414.277 66.4681 417.127 67.7493 419.929C73.096 431.689 80.2659 444.223 76.9396 456.696Z" fill="#EAEDF2"/>
<path d="M61.0723 323.318C60.8136 323.662 60.5548 323.994 60.2962 324.338C54.8852 331.49 50.2904 339.223 46.5969 347.391C46.3997 347.796 46.215 348.202 46.0548 348.62C40.9939 360.026 37.7437 372.148 36.4209 384.551C36.4066 384.636 36.3984 384.722 36.3963 384.809C36.0883 387.709 35.9035 390.634 35.8296 393.558C35.6818 399.027 36.0267 404.569 37.5913 409.828C38.9053 414.154 41.2078 418.117 44.3177 421.404C44.6257 421.736 44.9337 422.067 45.2663 422.387C45.5127 422.645 45.7837 422.903 46.0425 423.149C48.531 425.521 51.2536 427.72 53.5943 430.264C54.6672 431.405 55.636 432.638 56.4894 433.95C59.3599 438.436 59.8403 443.732 58.4606 448.819C56.7851 455.037 52.9537 460.284 49.0361 465.286C47.0774 467.793 45.0569 470.324 43.3075 473.003C42.6669 473.962 42.0755 474.932 41.5336 475.928H39.9813C40.4987 474.932 41.0654 473.962 41.6814 473.003C46.178 465.937 52.5718 459.867 55.8858 452.088C58.1279 446.841 58.8055 440.893 55.972 435.744C55.1416 434.247 54.1367 432.853 52.9784 431.591C50.7239 429.047 48.0259 426.872 45.5743 424.574C44.9583 423.997 44.3547 423.407 43.7756 422.793C40.7059 419.682 38.3371 415.953 36.8275 411.856C34.9918 406.707 34.4375 401.153 34.4375 395.721C34.4375 392.231 34.6223 388.717 34.9672 385.227C35.0042 384.785 35.0535 384.33 35.1027 383.875C37.6221 361.914 45.9892 341.026 59.3352 323.379C59.5816 323.035 59.8404 322.703 60.099 322.372C60.6288 321.683 61.602 322.642 61.0723 323.318Z" fill="white"/>
<path d="M35.6008 385.343C31.3337 384.628 27.4603 382.424 24.6723 379.123C21.8844 375.822 20.3634 371.641 20.381 367.325C20.3834 367.149 20.4541 366.981 20.5784 366.856C20.7026 366.731 20.8706 366.659 21.047 366.655C21.2234 366.651 21.3945 366.716 21.5241 366.835C21.6537 366.954 21.7317 367.119 21.7418 367.295C21.7179 371.314 23.1351 375.209 25.7375 378.277C28.34 381.346 31.9563 383.385 35.9337 384.027C36.7979 384.168 36.46 385.483 35.6008 385.343Z" fill="white"/>
<path d="M43.9764 421.651C51.2259 416.596 56.2992 409.002 58.1846 400.382C58.3707 399.528 59.6899 399.861 59.504 400.714C57.5253 409.681 52.2296 417.573 44.6739 422.816C43.9534 423.316 43.2598 422.148 43.9764 421.651Z" fill="white"/>
<path d="M46.19 347.247C47.7833 347.867 49.5059 348.082 51.2032 347.874C52.9005 347.665 54.5194 347.04 55.9144 346.053C56.6282 345.545 57.3211 346.714 56.6119 347.218C55.0656 348.301 53.2769 348.99 51.4021 349.225C49.5274 349.459 47.6236 349.232 45.8571 348.563C45.6853 348.514 45.5387 348.401 45.4471 348.248C45.3555 348.095 45.3257 347.913 45.3639 347.739C45.4088 347.565 45.5208 347.416 45.6755 347.324C45.8302 347.231 46.0151 347.204 46.19 347.247Z" fill="white"/>
<path d="M153.494 370.837C153.063 371.169 152.619 371.501 152.188 371.845C146.339 376.31 140.863 381.241 135.815 386.591C135.421 386.996 135.027 387.414 134.645 387.832L134.633 387.844C122.663 400.805 113.199 415.862 106.717 432.255L106.68 432.365C106.667 432.402 106.655 432.427 106.643 432.463C104.073 439.025 102.002 445.77 100.446 452.641C98.943 459.351 97.711 466.539 95.358 473.003C95.0007 473.998 94.6065 474.981 94.1877 475.928H39.415C39.5998 474.957 39.7969 473.974 39.9941 473.003C42.9261 458.761 47.0408 444.715 52.9789 431.591C53.1759 431.149 53.3731 430.706 53.5949 430.264C56.6117 423.7 60.1591 417.391 64.2019 411.401C64.2019 411.399 64.2022 411.398 64.2028 411.396C64.2034 411.395 64.2043 411.393 64.2055 411.392C64.2066 411.391 64.208 411.39 64.2095 411.39C64.211 411.389 64.2126 411.389 64.2143 411.389C66.4342 408.12 68.8191 404.966 71.3596 401.939C77.9483 394.12 85.7312 387.385 94.4218 381.983C94.471 381.946 94.5326 381.921 94.5819 381.884C111.879 371.181 132.378 366.081 151.979 370.493H151.991C152.496 370.604 152.989 370.714 153.494 370.837Z" fill="#EAEDF2"/>
<path d="M153.432 371.488C153.013 371.599 152.594 371.722 152.187 371.845C143.553 374.305 135.22 377.714 127.339 382.007C126.945 382.216 126.55 382.437 126.156 382.658C115.265 388.722 105.379 396.427 96.848 405.503C96.8413 405.509 96.837 405.518 96.8357 405.527C96.7372 405.625 96.6263 405.736 96.54 405.834C94.5689 407.948 92.6717 410.148 90.8731 412.409C87.4729 416.685 84.393 421.318 82.4712 426.454C80.9057 430.697 80.3532 435.245 80.8573 439.738C80.8942 440.193 80.9559 440.635 81.0175 441.09C81.0667 441.446 81.116 441.803 81.1776 442.171C81.9907 447.099 83.3951 452.039 83.0009 457.065C82.582 462.373 79.7732 466.896 75.5969 470.127C74.1771 471.222 72.6595 472.185 71.0633 473.003C68.781 474.176 66.403 475.155 63.9549 475.927H59.1133C59.7663 475.743 60.4068 475.559 61.0598 475.375C63.3768 474.722 65.6519 473.93 67.8725 473.003C69.141 472.474 70.3754 471.866 71.5683 471.184C76.5208 468.346 80.6479 463.995 81.5102 458.183C82.2617 453.096 80.808 448.008 79.9457 443.031C79.7978 442.171 79.6623 441.323 79.5883 440.475C79.0001 436.166 79.3574 431.78 80.6355 427.622C82.2739 422.399 85.1814 417.644 88.4707 413.293C90.5817 410.497 92.835 407.811 95.2218 405.245C95.5174 404.913 95.8254 404.581 96.1458 404.249C104.856 395.109 114.914 387.347 125.971 381.233H125.984C134.205 376.668 142.928 373.064 151.978 370.493H151.99C152.397 370.37 152.816 370.247 153.222 370.136C154.072 369.915 154.269 371.255 153.432 371.488Z" fill="white"/>
<path d="M95.6592 405.711C92.6836 402.577 90.9216 398.491 90.6878 394.181C90.454 389.872 91.7636 385.62 94.3827 382.184C94.915 381.491 96.0201 382.283 95.4871 382.978C93.0422 386.172 91.8227 390.133 92.0487 394.146C92.2747 398.159 93.9312 401.959 96.7193 404.86C97.3245 405.491 96.2609 406.338 95.6592 405.711Z" fill="white"/>
<path d="M80.4309 439.731C89.2702 440.049 97.9049 437.032 104.613 431.282C105.277 430.711 106.13 431.77 105.466 432.339C98.4742 438.31 89.4821 441.431 80.2845 441.08C79.4078 441.046 79.559 439.697 80.4309 439.731Z" fill="white"/>
<path d="M127.108 381.653C128.006 383.104 129.251 384.311 130.732 385.164C132.213 386.017 133.884 386.489 135.593 386.539C136.47 386.562 136.317 387.911 135.447 387.889C133.558 387.825 131.714 387.3 130.076 386.362C128.438 385.423 127.055 384.098 126.048 382.504C125.94 382.361 125.891 382.183 125.91 382.006C125.93 381.829 126.016 381.666 126.151 381.549C126.292 381.437 126.472 381.386 126.651 381.405C126.83 381.424 126.994 381.513 127.108 381.653Z" fill="white"/>
<path d="M443 475.16C443 475.27 442.979 475.379 442.937 475.482C442.894 475.584 442.832 475.676 442.754 475.755C442.676 475.833 442.583 475.895 442.48 475.937C442.378 475.979 442.268 476 442.157 476H0.842571C0.619107 476 0.404794 475.911 0.246782 475.754C0.0887692 475.596 0 475.382 0 475.16C0 474.937 0.0887692 474.723 0.246782 474.565C0.404794 474.408 0.619107 474.319 0.842571 474.319H442.157C442.268 474.319 442.378 474.34 442.48 474.382C442.583 474.425 442.676 474.486 442.754 474.565C442.832 474.643 442.894 474.735 442.937 474.838C442.979 474.94 443 475.049 443 475.16Z" fill="#EAEDF2"/>
<path d="M272.661 161.814H217.434C214.978 157.255 211.268 153.366 217.434 144.206C217.434 138.126 219.799 132.283 224.031 127.908C228.264 123.533 234.033 120.967 240.125 120.75C252.071 117.188 260.675 124.42 263.013 136.006L272.661 161.814Z" fill="#2F2E41"/>
<path d="M163.162 171.382C164.166 171.492 165.134 171.821 165.997 172.344C166.86 172.868 167.598 173.574 168.158 174.413C168.718 175.252 169.087 176.203 169.238 177.199C169.39 178.195 169.321 179.213 169.036 180.18L211.896 215.738L199.987 220.313L159.959 184.771C158.363 184.185 157.037 183.036 156.234 181.541C155.43 180.045 155.204 178.308 155.599 176.658C155.994 175.007 156.982 173.559 158.375 172.586C159.769 171.614 161.472 171.186 163.162 171.382Z" fill="#FFB6B6"/>
<path d="M212.81 231.093C203.312 231.095 166.258 192.364 164.641 190.668L164.229 190.237L177.946 186.577L210.852 210.376L222.847 190.127C224.173 187.894 226.159 186.125 228.533 185.062C230.907 183.998 233.552 183.693 236.106 184.187C238.367 184.628 240.463 185.678 242.167 187.224C243.872 188.771 245.118 190.753 245.771 192.957C246.424 195.16 246.459 197.5 245.872 199.722C245.284 201.944 244.098 203.962 242.44 205.558L219.753 227.405C218.009 229.081 215.885 230.312 213.562 230.994C213.317 231.062 213.064 231.096 212.81 231.093Z" fill="#7250F8"/>
<path d="M213.54 225.73L218.142 243.033L256.377 251.481L253.898 242.68L261.026 235.109L253.19 222.199L213.54 225.73Z" fill="#FFB8B8"/>
<path d="M210.158 461.756H202.688L199.133 433.015H210.158V461.756Z" fill="#FFB8B8"/>
<path d="M214.101 474.666H208.744L207.788 469.621L205.339 474.666H191.131C190.449 474.666 189.786 474.449 189.238 474.046C188.689 473.643 188.284 473.076 188.081 472.428C187.879 471.779 187.889 471.083 188.111 470.441C188.333 469.799 188.755 469.244 189.316 468.858L200.662 461.042V455.942L212.596 456.652L214.101 474.666Z" fill="#2F2E41"/>
<path d="M303.783 455.426L296.842 458.181L282.883 432.791L293.126 428.724L303.783 455.426Z" fill="#FFB8B8"/>
<path d="M312.231 465.966L307.254 467.942L304.495 463.608L304.091 469.198L290.89 474.44C290.257 474.691 289.56 474.734 288.902 474.562C288.243 474.391 287.656 474.013 287.227 473.486C286.798 472.958 286.55 472.307 286.518 471.628C286.486 470.95 286.673 470.279 287.05 469.714L294.694 458.266L292.803 453.527L304.154 449.785L312.231 465.966Z" fill="#2F2E41"/>
<path d="M260.871 237.118L260.162 236.505C259.953 236.326 238.994 218.69 212.856 235.156L212.009 235.689L206.656 212.194C206.033 209.493 206.175 206.672 207.066 204.046C207.956 201.421 209.561 199.093 211.701 197.324L230.571 181.664L237.189 178.363L236.349 172.915C236.188 171.844 236.399 170.749 236.947 169.814C237.496 168.88 238.349 168.16 239.365 167.776L249.649 163.93C250.799 163.494 252.073 163.524 253.201 164.013C254.329 164.502 255.221 165.412 255.685 166.548L256.775 169.178L259.109 168.359C260.524 167.845 262.027 167.614 263.532 167.681C265.037 167.748 266.513 168.112 267.877 168.75C269.244 169.412 270.457 170.352 271.438 171.511C272.418 172.669 273.144 174.02 273.568 175.475C277.58 189.009 276.505 203.539 270.543 216.338L260.871 237.118Z" fill="#7250F8"/>
<path d="M213.04 448.553H197.588L201.858 376.141L198.736 327.06L198.743 327.02L210.386 256.664C211.302 251.115 213.777 245.941 217.524 241.74L217.666 241.58L256.631 251.18L260.549 260.09C273.926 268.027 278.151 312.78 278.325 314.686L283.988 370.476L297.842 438.852L288.086 444.092L287.923 443.768L257.123 382.677L237.672 318.253L225.215 376.236L213.04 448.553Z" fill="#2F2E41"/>
<path d="M275.365 295.445C274.653 294.73 274.106 293.869 273.763 292.921C273.421 291.973 273.29 290.961 273.382 289.958C273.474 288.954 273.785 287.983 274.293 287.112C274.802 286.241 275.496 285.493 276.326 284.918L265.323 230.405L277.474 234.297L286.281 287.025C287.156 288.48 287.465 290.204 287.15 291.872C286.835 293.539 285.918 295.033 284.573 296.071C283.227 297.109 281.547 297.618 279.85 297.503C278.153 297.388 276.557 296.655 275.365 295.445Z" fill="#FFB6B6"/>
<path d="M259.118 180.109L266.657 174.433C266.657 174.433 273.308 173.963 274.486 185.926C275.664 197.889 278.082 221.203 278.082 221.203L289.618 274.499L273.649 277.996L261.293 220.48L253.881 203.4L259.118 180.109Z" fill="#7250F8"/>
<path d="M236.568 161.186C246.726 161.186 254.96 152.972 254.96 142.84C254.96 132.708 246.726 124.494 236.568 124.494C226.41 124.494 218.176 132.708 218.176 142.84C218.176 152.972 226.41 161.186 236.568 161.186Z" fill="#FFB8B8"/>
<path d="M247.07 125.033C243.894 121.897 239.604 120.14 235.135 120.145H231.595C227.088 120.145 222.766 121.931 219.579 125.11C216.392 128.289 214.602 132.6 214.602 137.095C241.507 136 236 119.5 241.507 138.508C240.873 147.699 233.046 156.73 235.135 161.814H270.537V158.283C273.568 142.767 262.251 129.824 247.07 125.033Z" fill="#2F2E41"/>
<path d="M87.5083 364.156C93.765 364.156 98.837 359.097 98.837 352.856C98.837 346.615 93.765 341.556 87.5083 341.556C81.2517 341.556 76.1797 346.615 76.1797 352.856C76.1797 359.097 81.2517 364.156 87.5083 364.156Z" fill="#EAEDF2"/>
<path d="M366.831 408.297C371.915 408.297 376.036 404.186 376.036 399.115C376.036 394.045 371.915 389.934 366.831 389.934C361.748 389.934 357.627 394.045 357.627 399.115C357.627 404.186 361.748 408.297 366.831 408.297Z" fill="#EAEDF2"/>
<path d="M323.64 216.902C328.724 216.902 332.845 212.792 332.845 207.721C332.845 202.65 328.724 198.54 323.64 198.54C318.557 198.54 314.436 202.65 314.436 207.721C314.436 212.792 318.557 216.902 323.64 216.902Z" fill="#EAEDF2"/>
<path d="M135.192 126.325C140.621 113.781 145.009 99.5648 141.608 85.8742C138.946 75.1601 131.319 64.8887 120.158 62.1498C114.415 60.8254 108.395 61.4124 103.018 63.821C97.6413 66.2297 93.2025 70.3276 90.3797 75.489C87.6125 80.71 86.5098 86.6495 87.2193 92.5128C87.9474 98.3366 90.4887 104.749 95.84 107.801C100.725 110.587 107.537 109.813 110.334 104.526C112.685 100.081 111.77 94.3699 108.683 90.5235C104.916 85.8306 98.8206 83.7148 93.0834 82.6686C87.0527 81.5629 80.8809 81.4533 74.8145 82.344C62.8823 84.108 51.6039 90.1664 44.781 100.265C38.4755 109.598 36.1006 121.964 40.2961 132.627C44.4786 143.257 54.0656 150.766 64.6646 154.467C77.6696 159.008 91.9573 157.39 104.959 153.713C108.382 152.746 111.759 151.624 115.103 150.412C116.377 149.949 115.827 147.901 114.538 148.369C101.869 152.962 88.2767 156.391 74.7126 154.662C64.2387 153.328 53.9214 148.39 47.1554 140.171C43.8361 136.161 41.6177 131.36 40.7172 126.238C39.8906 121.014 40.3422 115.668 42.0337 110.656C43.7803 105.474 46.6268 100.729 50.3792 96.7442C54.1316 92.7595 58.7014 89.629 63.7771 87.5662C69.0718 85.3848 74.7095 84.148 80.4332 83.9124C86.127 83.5914 91.8337 84.2504 97.3033 85.8608C102.179 87.3678 107.369 90.3083 108.983 95.4682C110.268 99.5792 109.303 105.054 104.845 106.785C103.543 107.236 102.159 107.397 100.788 107.257C99.4174 107.116 98.0943 106.678 96.9122 105.972C94.464 104.451 92.5359 102.226 91.383 99.5894C89.1343 94.5272 88.5512 88.8846 89.7173 83.4713C90.8835 78.058 93.7389 73.1523 97.8739 69.4584C102.067 65.9301 107.3 63.8646 112.778 63.5761C118.078 63.3017 123.315 64.8329 127.627 67.9184C131.842 71.04 135.175 75.1962 137.303 79.9829C142.609 91.3978 140.86 104.402 136.965 115.959C135.903 119.11 134.679 122.204 133.358 125.256C132.822 126.495 134.652 127.575 135.192 126.325Z" fill="#EAEDF2"/>
<path d="M136.718 167.464C148.84 167.464 158.667 157.662 158.667 145.571C158.667 133.479 148.84 123.677 136.718 123.677C124.596 123.677 114.769 133.479 114.769 145.571C114.769 157.662 124.596 167.464 136.718 167.464Z" fill="white"/>
<path d="M156.543 145.571C156.542 149.649 155.278 153.628 152.922 156.962C150.567 160.296 147.236 162.822 143.386 164.195C139.536 165.567 135.354 165.72 131.414 164.63C127.474 163.541 123.967 161.263 121.375 158.109C120.781 157.385 120.241 156.619 119.758 155.817C119.253 154.975 118.802 154.103 118.407 153.205C118.006 152.221 117.68 151.209 117.432 150.176C117.19 149.231 117.032 148.266 116.959 147.293C116.605 143.199 117.536 139.095 119.622 135.551C121.708 132.007 124.847 129.197 128.604 127.51C131.396 126.265 134.438 125.68 137.493 125.8C140.549 125.921 143.535 126.744 146.219 128.205C148.903 129.666 151.213 131.726 152.968 134.224C154.722 136.722 155.875 139.591 156.335 142.606C156.379 142.881 156.38 142.893 156.393 143C156.426 143.282 156.454 143.565 156.476 143.848C156.521 144.421 156.54 144.996 156.543 145.571C156.558 148.296 160.806 148.302 160.791 145.571C160.806 139.356 158.412 133.377 154.11 128.882C149.807 124.388 143.93 121.726 137.706 121.454C131.482 121.182 125.393 123.32 120.713 127.421C116.033 131.523 113.123 137.271 112.593 143.462C112.062 149.654 113.952 155.811 117.866 160.645C121.781 165.479 127.417 168.617 133.598 169.402C139.778 170.187 146.023 168.559 151.027 164.858C156.032 161.157 159.408 155.669 160.451 149.542C160.663 148.229 160.777 146.901 160.791 145.571C160.806 142.843 156.558 142.84 156.543 145.571Z" fill="#EAEDF2"/>
<path d="M149.31 140.512C149.31 138.442 147.767 136.774 145.837 136.774C143.252 136.651 140.622 136.607 137.932 136.607H137.094C134.409 136.607 131.769 136.651 129.189 136.774C127.288 136.774 125.745 138.447 125.745 140.522C125.626 142.165 125.576 143.804 125.581 145.428C125.586 147.052 125.626 148.71 125.74 150.333C125.74 152.409 127.283 154.091 129.184 154.091C131.893 154.214 134.677 154.268 137.505 154.268C140.334 154.268 143.113 154.219 145.832 154.091C147.737 154.091 149.305 152.409 149.305 150.333C149.415 148.69 149.469 147.052 149.464 145.403C149.459 143.755 149.42 142.126 149.31 140.497L149.31 140.512ZM135.253 149.966V140.91L142.011 145.433L135.253 149.966Z" fill="#7250F8"/>
<path d="M137.426 91.8953C149.548 91.8953 159.375 82.0931 159.375 70.0015C159.375 57.9098 149.548 48.1076 137.426 48.1076C125.304 48.1076 115.477 57.9098 115.477 70.0015C115.477 82.0931 125.304 91.8953 137.426 91.8953Z" fill="white"/>
<path d="M157.251 70.0015C157.25 74.08 155.986 78.0586 153.63 81.3925C151.275 84.7264 147.944 87.2527 144.094 88.6255C140.244 89.9983 136.062 90.1504 132.122 89.0611C128.182 87.9718 124.675 85.6943 122.083 82.5404C121.489 81.8159 120.949 81.0497 120.466 80.2477C119.961 79.4061 119.51 78.5338 119.115 77.6361C118.714 76.6523 118.388 75.6397 118.14 74.607C117.898 73.6618 117.74 72.6971 117.667 71.7241C117.313 67.6294 118.244 63.5262 120.33 59.9821C122.416 56.438 125.555 53.6281 129.312 51.9411C132.104 50.6959 135.146 50.1107 138.201 50.2312C141.257 50.3517 144.243 51.1747 146.927 52.6359C149.611 54.0971 151.921 56.1571 153.676 58.6552C155.43 61.1532 156.583 64.0219 157.043 67.0373C157.087 67.3118 157.088 67.3243 157.101 67.4311C157.134 67.7131 157.162 67.9957 157.184 68.2789C157.229 68.8523 157.248 69.4266 157.251 70.0015C157.266 72.7274 161.514 72.7332 161.499 70.0015C161.514 63.7872 159.12 57.8078 154.818 53.3133C150.515 48.8187 144.638 46.1571 138.414 45.8848C132.19 45.6126 126.101 47.7508 121.421 51.8524C116.741 55.954 113.831 61.7014 113.301 67.8931C112.77 74.0848 114.66 80.2414 118.574 85.0757C122.489 89.91 128.125 93.0477 134.306 93.8329C140.486 94.6181 146.731 92.9899 151.735 89.2887C156.74 85.5876 160.116 80.1001 161.159 73.9734C161.371 72.6598 161.485 71.3321 161.499 70.0015C161.514 67.2743 157.266 67.2711 157.251 70.0015Z" fill="#EAEDF2"/>
<path d="M143.014 61.247C142.141 60.2151 141.66 58.8897 141.66 57.5178H137.713V73.9158C137.682 74.8032 137.32 75.6437 136.703 76.2604C136.086 76.8771 135.262 77.2218 134.404 77.2219C132.59 77.2219 131.082 75.6879 131.082 73.7836C131.082 71.509 133.203 69.8031 135.388 70.504V66.3251C130.98 65.7168 127.122 69.2609 127.122 73.7836C127.122 78.1873 130.648 81.3214 134.391 81.3214C138.402 81.3214 141.66 77.9492 141.66 73.7836V65.4656C143.261 66.6556 145.183 67.294 147.153 67.2905V63.2042C147.153 63.2042 144.752 63.3232 143.014 61.247Z" fill="#7250F8"/>
<path d="M52.461 169.583C64.5832 169.583 74.4103 159.781 74.4103 147.689C74.4103 135.598 64.5832 125.795 52.461 125.795C40.3387 125.795 30.5117 135.598 30.5117 147.689C30.5117 159.781 40.3387 169.583 52.461 169.583Z" fill="white"/>
<path d="M72.2859 147.689C72.2852 151.768 71.0207 155.746 68.6655 159.08C66.3103 162.414 62.9795 164.941 59.1293 166.313C55.2791 167.686 51.0975 167.838 47.1573 166.749C43.217 165.66 39.7106 163.382 37.1181 160.228C36.5245 159.504 35.984 158.738 35.5007 157.936C34.9964 157.094 34.5454 156.222 34.1502 155.324C33.7493 154.34 33.4234 153.328 33.1753 152.295C32.9329 151.35 32.7748 150.385 32.7026 149.412C32.3486 145.317 33.279 141.214 35.3651 137.67C37.4513 134.126 40.59 131.316 44.3472 129.629C47.1387 128.384 50.1808 127.798 53.2364 127.919C56.2919 128.04 59.2782 128.862 61.9624 130.324C64.6465 131.785 66.956 133.845 68.7107 136.343C70.4654 138.841 71.6178 141.71 72.078 144.725C72.1226 145 72.1232 145.012 72.1359 145.119C72.1695 145.401 72.1972 145.683 72.219 145.967C72.2637 146.54 72.2827 147.114 72.2859 147.689C72.3011 150.415 76.5494 150.421 76.5342 147.689C76.5491 141.475 74.1551 135.496 69.8528 131.001C65.5505 126.507 59.673 123.845 53.4489 123.573C47.2249 123.3 41.1363 125.439 36.4561 129.54C31.7758 133.642 28.8663 139.389 28.3358 145.581C27.8053 151.773 29.6949 157.929 33.6095 162.764C37.5241 167.598 43.1606 170.736 49.3407 171.521C55.5208 172.306 61.7659 170.678 66.7704 166.977C71.775 163.275 75.1514 157.788 76.1938 151.661C76.4066 150.348 76.5204 149.02 76.5342 147.689C76.5493 144.962 72.3011 144.959 72.2859 147.689Z" fill="#EAEDF2"/>
<path d="M52.9845 158.361C52.1544 158.361 51.3364 158.337 50.5589 158.313C49.6216 158.286 48.7366 158.26 47.9839 158.281C47.1715 158.325 46.3587 158.2 45.5969 157.915C44.835 157.63 44.1405 157.191 43.5569 156.625C41.2264 154.229 41.3581 149.785 41.4643 146.214C41.4919 145.28 41.5182 144.396 41.4968 143.646C41.4533 142.836 41.5783 142.025 41.8639 141.265C42.1496 140.505 42.5897 139.813 43.1566 139.23C45.5594 136.906 50.0151 137.038 53.5943 137.143C54.5319 137.17 55.4173 137.197 56.1693 137.175L56.19 137.175C56.9991 137.133 57.8081 137.259 58.5662 137.544C59.3243 137.829 60.0153 138.267 60.5959 138.831C62.9268 141.227 62.7947 145.671 62.6886 149.242C62.6609 150.177 62.6346 151.06 62.6561 151.81C62.6996 152.621 62.5746 153.431 62.2889 154.191C62.0033 154.951 61.5632 155.644 60.9963 156.226C59.1155 158.046 55.9763 158.361 52.9845 158.361Z" fill="#7250F8"/>
<path d="M57.4231 143.625C57.1023 143.616 56.798 143.482 56.5747 143.252C56.3514 143.022 56.2268 142.714 56.2275 142.394C56.2282 142.074 56.3542 141.767 56.5785 141.538C56.8027 141.309 57.1077 141.177 57.4285 141.169C57.7493 141.178 58.0537 141.312 58.277 141.542C58.5003 141.772 58.6248 142.08 58.6241 142.4C58.6234 142.72 58.4975 143.027 58.2732 143.256C58.0489 143.485 57.7439 143.617 57.4231 143.625Z" fill="#EAEDF2"/>
<path d="M52.0764 153.056C51.0201 153.056 49.9875 152.743 49.1091 152.158C48.2308 151.573 47.5462 150.741 47.142 149.767C46.7377 148.794 46.6319 147.723 46.8379 146.689C47.044 145.656 47.5526 144.707 48.2996 143.961C49.0465 143.216 49.9981 142.709 51.0341 142.503C52.0702 142.298 53.144 142.403 54.12 142.806C55.0959 143.21 55.9301 143.892 56.517 144.769C57.1039 145.645 57.4171 146.675 57.4172 147.728C57.4156 149.141 56.8524 150.495 55.8512 151.494C54.8499 152.492 53.4924 153.054 52.0764 153.056ZM52.0764 143.814C51.3001 143.813 50.5413 144.043 49.8958 144.473C49.2504 144.903 48.7473 145.515 48.4502 146.23C48.1531 146.946 48.0754 147.733 48.2268 148.492C48.3783 149.252 48.7521 149.949 49.301 150.497C49.8499 151.044 50.5492 151.417 51.3106 151.568C52.0719 151.719 52.8611 151.642 53.5783 151.345C54.2954 151.049 54.9084 150.547 55.3397 149.903C55.7709 149.26 56.0011 148.503 56.0011 147.728C55.9999 146.69 55.586 145.695 54.8503 144.961C54.1145 144.228 53.1169 143.815 52.0764 143.814Z" fill="#EAEDF2"/>
</g>
<defs>
<clipPath id="clip0_1872_28171">
<rect width="443" height="542" fill="white"/>
</clipPath>
</defs>
</svg>
