<svg width="357" height="519" viewBox="0 0 357 519" fill="none" xmlns="http://www.w3.org/2000/svg">
<path fill-rule="evenodd" clip-rule="evenodd" d="M121.5 210C121.013 212.085 120.783 211.729 120.702 213.869C120.624 215.913 120.383 217.945 120.028 219.959C116.292 217.994 111.878 217.742 107.621 218.374C102.114 219.193 95.7425 221.004 91.4268 224.684C90.3613 225.593 89.4786 226.669 88.7395 227.856C87.8524 229.28 87.2861 230.888 85.8798 231.908C83.7043 233.487 81.0074 234.097 78.916 235.846C76.7836 237.629 75.46 240.295 75.1801 243.046C75.0308 244.51 75.2724 245.879 75.5501 247.307C75.799 248.592 75.6767 249.119 75.3385 250.356C75.073 251.327 75.5797 252.429 76.4058 252.965C74.6347 254.181 72.8875 255.434 71.1709 256.739C61.1689 264.332 52.7112 273.798 46.8482 284.936L46.7065 285.212L46.5424 285.545C45.1136 288.481 41.3752 297.065 40.9107 298.996C40.5786 300.003 40.257 301.015 39.9579 302.033C39.1683 304.731 38.4987 307.463 37.9436 310.217L37.7951 310.968C37.3446 313.281 36.5694 316.021 36.6943 318.486C35.3959 325.216 34.2455 331.975 33.2635 338.762C33.1351 339.651 33.489 340.374 34.0383 340.853C32.7252 341.064 31.4202 341.324 30.1296 341.585L29.3799 341.743L29.0047 341.826C26.3168 342.432 23.664 343.315 21.9035 345.574C20.0053 348.017 19.9666 351.156 21.873 353.616C23.4918 355.706 25.8558 356.699 28.3237 357.326C28.8108 357.447 29.3031 357.561 29.7949 357.66C30.1253 357.73 30.3429 357.278 30.03 357.104L29.5062 356.814L28.7917 356.422C26.9313 355.396 25.0005 354.239 23.9711 352.388C22.5734 349.876 23.6794 347.55 26.0777 346.275C28.0854 345.206 30.569 344.932 32.7986 344.567L33.7192 344.415C36.0501 344.043 38.4279 343.801 40.7806 344.067C42.8394 344.302 44.9243 345.004 46.5875 346.262L46.7415 346.383L46.9006 346.516C48.359 347.781 50.4562 350.62 47.7057 351.439C45.6034 352.061 43.0417 351.906 40.8321 352.027L40.546 352.044C38.6961 352.17 36.7631 352.17 34.8919 352.392C34.2216 352.47 33.5595 352.579 32.911 352.732C31.0524 353.172 31.6923 355.645 33.3293 355.819C33.7297 355.863 34.1385 355.884 34.548 355.893C35.6188 356.699 37.0987 357.064 38.3649 357.565C39.5749 358.044 40.7893 358.519 42.0124 358.984C40.9591 359.032 39.9057 359.119 38.8567 359.25C38.5176 359.289 38.5133 359.746 38.8567 359.781C41.3817 360.038 43.9062 360.317 46.4221 360.669C50.3173 361.209 54.1872 361.932 57.9692 363.033C60.7338 363.842 63.4646 364.804 66.1132 365.928L66.9144 366.273L67.245 366.417C69.6488 367.459 72.7585 368.679 74.1398 370.975C74.8623 372.172 75.1797 374.023 74.1611 375.168C73.0719 376.402 70.7902 376.261 69.2645 376.321L69.1425 376.327C65.9128 376.483 62.6793 376.505 59.4453 376.392C52.6682 376.152 45.8863 375.412 39.231 374.11C38.0036 373.871 37.4726 375.713 38.7087 376C46.5591 377.824 54.4954 378.825 62.55 378.872L63.4323 378.874C66.5699 379.474 69.647 380.368 72.6981 381.378L73.308 381.582C75.11 382.191 78.1873 382.797 79.2498 384.586C79.9545 385.774 79.7068 386.589 79.01 387.142C77.783 388.113 75.1714 388.295 73.9004 388.344C68.8078 388.535 63.7108 388.57 58.6139 388.461C56.0671 388.404 53.5208 388.313 50.9745 388.183C48.4848 388.052 45.8257 387.682 43.3447 387.921C42.2779 388.025 41.921 389.593 43.0788 389.885C46.1385 390.66 49.5701 390.592 52.7312 390.691L53.0947 390.704C56.4898 390.825 59.8888 390.878 63.2838 390.869C66.198 390.857 69.1115 390.799 72.0225 390.691L74.5962 390.589L75.052 390.568C76.4235 390.494 77.8245 390.336 79.0405 389.771C80.1635 391.652 79.3238 394.173 77.8744 395.662C76.4946 397.082 74.505 397.779 72.599 398.214C72.4201 398.253 72.2416 398.292 72.0631 398.327C67.8759 399.18 63.6103 399.107 59.6929 401.031C56.3984 402.651 53.3815 405.35 49.6909 405.99C46.3916 406.565 43.9933 405.111 42.2348 402.42C42.1386 402.272 42.0429 402.124 41.9515 401.976C40.5678 399.746 39.571 397.291 38.1124 395.105C37.3681 393.991 36.528 392.92 35.5008 392.049C35.0399 391.652 31.8102 389.937 31.3048 389.423C29.1329 387.194 31.0568 382.505 30.4909 379.71C29.8297 376.457 26.9696 375.312 25.2547 372.791C21.995 367.993 30.9353 363.499 28.2624 358.253C28.2275 358.188 28.1844 358.14 28.1278 358.109C27.8928 357.983 27.518 358.14 27.5398 358.449C27.8362 362.359 24.1099 365.05 22.7649 368.437C21.2332 372.29 23.6794 374.624 26.1774 377.197C29.3814 380.502 27.1267 384.203 27.8401 388.183C27.9333 388.704 28.083 389.164 28.2776 389.575C27.73 389.915 27.3078 390.478 27.2151 391.263C26.1165 400.581 24.9356 409.87 23.0074 419.058L22.5948 421.011L22.0424 423.615C20.6681 430.129 19.3852 436.669 19.1414 443.328C18.3757 448.948 18.0719 454.615 18.5255 460.272C19.9009 477.492 29.5251 495.509 47.0097 500.795C51.0572 502.019 55.3494 502.336 59.5018 501.479C60.9247 501.187 62.9182 500.542 64.7076 499.567C64.601 500.715 64.5165 501.862 64.4813 503.007C63.8916 503.664 63.625 504.656 63.9608 505.505C65.3866 505.035 66.6827 504.292 67.8497 503.276L68.043 503.104C68.735 500.532 68.9373 497.718 69.0379 495.009L69.0642 494.238C69.0907 493.489 69.1077 492.753 69.1342 492.035C69.2818 487.563 69.1773 483.083 68.9471 478.616L68.7773 475.327C68.3885 467.657 68.0721 460.005 68.285 452.313C68.5288 443.461 69.2862 434.648 70.235 425.845C70.7273 421.303 71.284 416.771 71.8547 412.239C72.3112 408.59 73.0773 404.663 73.0904 400.901C76.0202 400.274 78.8968 399.072 80.6992 396.612C82.6101 394.004 82.8926 390.669 81.1955 387.995C82.836 385.749 81.491 383.633 79.4627 382.204C82.5792 380.458 84.3159 375.695 84.7773 372.382C85.0911 370.109 85.1908 366.708 84.2206 364.152C85.613 364.201 87.0058 364.344 88.3987 364.584C90.0096 364.867 91.5892 365.28 93.1479 365.794L93.9369 366.055C94.335 366.189 94.7832 366.346 95.2284 366.53C92.4118 371.188 96.0293 375.412 100.669 376.618C101.552 376.849 102.453 377.01 103.363 377.14C105.413 377.424 107.507 377.51 109.54 377.698C113.431 378.055 117.344 378.565 121.248 378.73C122.106 378.769 122.658 378.369 122.92 377.811C122.928 377.803 122.933 377.798 122.933 377.79C123.024 377.641 123.085 377.484 123.107 377.319C123.094 377.332 123.076 377.341 123.064 377.35C123.251 376.304 122.624 375.033 121.248 374.881C115.612 374.245 109.897 374.215 104.243 373.749L103.88 373.719C102.106 373.566 100.015 373.284 98.61 372.16C97.3042 371.115 97.1871 369.756 97.7095 368.528C97.7182 368.559 97.7264 368.593 97.7312 368.624C97.7704 368.868 98.1051 368.859 98.2139 368.689C98.5404 368.193 98.6235 367.705 98.5404 367.235C98.9326 366.783 99.4066 366.382 99.9202 366.072C102.197 364.688 105.191 364.309 107.781 363.9C110.615 363.452 113.47 363.247 116.33 363.112C121.958 362.846 127.604 363.304 133.14 364.313C133.371 364.353 133.466 364.031 133.24 363.957C131.081 363.242 128.874 362.642 126.642 362.167C126.694 362.158 126.746 362.15 126.798 362.136C126.994 362.088 127.133 361.849 127.068 361.658C127.059 361.627 127.046 361.597 127.033 361.571C127.982 361.135 128.378 359.672 127.229 359.08C123.647 357.23 119.442 356.393 115.511 355.631C111.738 354.904 107.925 354.395 104.107 353.943C97.6524 353.185 90.6142 353.202 84.4034 351.164L84.148 351.079C81.6186 350.206 78.5992 348.438 78.4224 345.452C78.1617 340.937 84.8691 342.113 87.6635 342.221C95.3107 342.513 102.95 343.044 110.562 343.863C112.117 344.028 113.671 344.198 115.224 344.372C117.605 344.638 119.99 344.917 122.367 345.212C123.694 345.378 125.052 345.596 126.419 345.805C126.846 345.909 127.264 345.983 127.681 346.023C127.712 346.026 127.738 346.018 127.76 346.005C129.749 346.284 131.747 346.497 133.688 346.436C133.911 346.432 134.049 346.083 133.814 345.979C131.307 344.917 128.517 344.29 125.719 343.797C123.986 342.504 121.893 341.468 120.173 340.467C117.814 339.091 115.111 337.066 112.434 336.243C111.229 335.294 109.862 334.532 108.604 334.014C108.965 333.452 109.096 332.673 109.031 332.016C108.791 329.66 106.906 328.345 104.73 327.883C104.055 327.744 103.276 327.64 102.445 327.601C102.428 327.161 102.232 326.73 101.797 326.408L101.668 326.31L101.577 326.237C100.116 325.051 97.2158 321.71 100.708 321.466C102.562 321.335 104.13 322.694 105.605 323.612C108.669 325.524 111.633 325.619 115.133 325.145L116.706 324.919L116.967 324.883C119.498 324.551 122.064 324.506 123.477 327.086C124.992 329.847 125.523 332.364 128.579 333.883C131.499 335.333 134.741 335.621 137.423 337.615C140.296 339.748 142.455 342.743 144.805 345.399C149.989 351.251 155.921 356.42 162.033 361.279L163.12 362.141C168.748 366.59 174.557 370.97 180.858 374.398C180.901 374.419 180.945 374.428 180.984 374.428C181.154 374.411 181.281 374.193 181.128 374.045C173.767 366.891 165.158 361.092 157.598 354.13C154.246 351.043 151.056 347.794 147.987 344.425C145.306 341.468 142.929 338.146 139.804 335.629C138.285 334.406 136.644 333.47 134.807 332.817C133.092 332.202 131.168 331.898 129.588 330.957C126.493 329.12 126.793 324.766 123.699 322.789C121.045 321.093 117.813 321.713 114.871 322.115L114.519 322.162C112.613 322.415 110.641 322.628 108.821 321.875C107.02 321.131 105.57 319.737 103.755 318.997C101.226 317.956 97.6398 318.205 96.3423 320.987C95.1022 323.643 96.795 326.046 98.7711 327.81C96.0772 328.297 93.7133 329.599 93.5131 332.255C91.537 332.189 89.5652 332.12 87.5895 332.05C80.7076 331.811 73.7916 331.349 66.9052 331.471C67.0624 330.77 67.132 330.047 67.1407 329.312C67.1447 328.902 67.1272 328.493 67.0972 328.075C67.045 327.361 66.5749 326.93 65.878 326.856L64.3227 326.69L63.8022 326.638C60.8884 326.362 57.6301 326.305 55.4099 328.232C54.2173 329.273 53.2553 331.667 53.8386 333.265C52.481 333.731 51.1878 334.327 50.0082 335.081C47.6709 334.297 45.2159 334.384 42.8659 335.202L42.5868 335.302C40.9161 335.916 38.548 337.078 37.6401 338.736C39.8439 323.793 42.8138 308.979 46.547 294.343C48.9301 288.498 51.9413 282.912 55.5927 277.756C64.7899 264.763 78.0398 255.829 89.9395 245.558C90.9895 246.714 92.1206 247.813 93.1783 248.872L93.6267 249.323C95.7812 251.506 98.0285 253.594 100.325 255.625C105.126 259.871 110.179 263.789 115.196 267.77C125.309 275.796 134.453 284.318 142.06 294.796C142.197 294.985 142.576 294.874 142.47 294.623C137.252 282.216 126.435 272.783 116.609 264.03C111.441 259.427 106.153 254.935 101.184 250.115C98.8679 247.868 96.6239 245.544 94.5071 243.107L93.9805 242.495C92.5964 240.875 89.3554 235.927 87.2134 239.497C86.7647 240.244 86.7843 241.199 87.2134 241.946C87.8219 243.009 88.5945 244.022 89.4394 244.995C86.4361 246.629 83.4945 248.355 80.6174 250.181C80.7828 249.301 80.7415 248.329 80.5878 247.355L80.5375 247.046L80.3279 245.839C80.0273 244.06 79.8728 242.406 81.0013 240.671C82.4125 238.5 85.0732 237.823 87.193 236.568C89.6348 235.123 90.9102 233.189 92.2177 230.734C94.7218 226.035 100.379 224.15 105.241 222.638L105.853 222.449C110.346 221.056 115.206 220.31 119.698 221.649C119.276 223.611 118.725 225.545 118.036 227.429C117.303 229.434 115.627 231.664 115.799 233.83C115.917 235.329 117.715 236.931 119.206 235.786C121.319 234.164 121.741 231.524 122.308 229.008C122.855 226.575 123.205 224.083 123.354 221.594C123.497 219.195 123.385 216.797 123.089 214.415L122.862 212.665L122.807 212.258C122.56 210.49 123.302 212.386 122.308 211C122.212 210.866 122.175 212.706 121.5 210ZM182.123 197.349C182.091 197.491 182.069 197.631 182.049 197.77C181.904 198.367 181.849 198.94 181.867 199.516C181.859 199.724 181.874 199.932 181.913 200.138C181.99 200.816 182.154 201.512 182.374 202.273C182.844 203.891 183.382 205.49 183.983 207.065C185.171 210.179 186.574 213.151 188.308 215.999C191.441 221.144 195.423 225.415 200.118 229.107C199.227 229.842 198.356 230.607 197.483 231.358C193.265 234.99 189.161 238.785 185.186 242.681C178.126 249.601 171.208 256.65 164.453 263.867C161.121 267.426 157.851 271.032 154.599 274.663L154.492 274.785L154.377 274.922C153.222 276.319 150.913 279.651 149.191 279.116C148.321 278.845 147.406 277.547 146.813 276.928L145.721 275.789C145.358 275.408 144.997 275.025 144.642 274.637C138.289 267.674 132.278 260.444 126.633 252.886C123.879 249.199 121.216 245.442 118.651 241.62C117.332 239.655 116.037 237.673 114.769 235.674C113.542 233.741 112.55 231.663 110.743 230.22C109.416 229.161 107.578 230.132 107.912 231.868C108.439 234.602 110.33 236.914 111.82 239.225C113.316 241.547 114.847 243.846 116.413 246.121C119.426 250.501 122.57 254.789 125.826 258.991C128.63 262.609 131.556 266.135 134.561 269.589L135.382 270.529C138.614 274.215 141.786 278.127 145.358 281.491C148.555 284.504 152.048 283.626 154.961 280.698C158.646 276.997 162.067 272.994 165.612 269.157C172.696 261.491 179.855 253.883 187.087 246.355L189.464 243.878C192.237 240.983 194.997 238.071 197.686 235.105L198.033 234.718C201.099 231.268 204.217 226.945 208.576 225.191C208.892 225.065 208.776 224.617 208.435 224.68C205.645 225.196 203.315 226.602 201.148 228.282C199.2 225.057 197.461 221.658 195.945 218.18L196.918 217.758C203.875 214.751 211.717 211.719 219.186 212.206C222.196 212.402 225.408 213.543 227.487 215.804C229.369 217.851 230.308 220.613 232.036 222.794C234.014 225.291 236.594 226.416 239.761 226.517L241.3 226.564C243.071 226.621 244.77 226.714 246.566 227.104C251.433 228.159 256.565 229.872 260.646 232.796C262.127 233.857 263.656 235.316 264.372 236.923C265.082 238.515 265.286 240.378 265.355 242.097C265.389 242.934 265.138 244.041 265.347 244.842C265.323 244.75 265.312 244.799 265.309 244.895C264.657 245.41 264.213 246.265 264.164 247.118C260.095 244.996 255.883 243.137 251.589 241.461C246.808 239.596 241.879 238.101 236.949 236.685C232.123 235.3 227.073 234.727 222.154 233.739C221.527 233.613 221.31 234.459 221.893 234.684C227.064 236.67 232.066 239.025 237.279 240.894C242.49 242.762 247.662 244.784 252.721 247.032C262.501 251.377 271.947 256.907 279.652 264.409C287.177 271.737 292.981 280.639 298.379 289.589C303.816 298.602 308.668 307.944 312.992 317.54C321.547 336.523 327.962 356.482 332.185 376.87C336.295 396.709 338.592 417.257 337.827 437.535C337.464 447.166 336.288 456.805 333.553 466.067C332.246 470.493 330.61 474.817 328.544 478.945C326.364 483.297 323.428 487.174 321.438 491.6C321.274 491.964 321.211 492.314 321.221 492.639C312.733 499.995 299.448 495.038 290.262 490.646C269.125 480.536 248.381 469.472 228.663 456.776C209.202 444.245 190.76 430.259 172.753 415.744C174.146 414.307 175.374 412.696 176.453 411.237C178.682 408.224 180.357 404.811 181.511 401.249C182.86 397.077 183.278 392.615 182.895 388.257L182.786 387.024C182.419 382.909 181.995 378.732 181.093 374.711C181.085 374.659 181.045 374.637 181.002 374.637C180.958 374.637 180.914 374.663 180.897 374.711C178.464 382.501 178.268 390.873 175.535 398.563C174.434 401.654 172.728 404.641 170.681 407.205C169.798 408.315 168.762 409.278 167.705 410.218C167.634 409.739 167.539 409.265 167.396 408.799L167.282 408.43C167.14 407.982 166.965 407.484 166.721 407.044C167.065 406.944 167.399 406.835 167.73 406.713C167.992 406.618 168.048 406.195 167.73 406.126C166.864 405.925 165.972 405.825 165.062 405.782C164.918 405.76 164.78 405.755 164.64 405.764C162.938 405.711 161.206 405.834 159.565 405.86C156.722 405.903 153.889 405.955 151.051 406.082C145.619 406.317 139.486 407.358 134.141 406.095C129.283 404.946 124.495 401.706 120.6 398.658C117.196 395.994 114.571 392.828 111.747 389.672C111.95 389.704 112.151 389.734 112.351 389.762L114.173 390.011C116.472 390.318 119.201 390.559 121.026 389.454C121.723 389.032 121.522 388.074 120.813 387.812C118.95 387.129 116.639 387.695 114.654 387.599C113.096 387.525 111.52 387.36 109.984 387.037C109.479 386.933 108.979 386.811 108.482 386.667C104.843 385.618 100.569 381.926 103.459 377.894C103.568 377.742 103.446 377.602 103.298 377.576C103.233 377.563 103.163 377.576 103.106 377.624C99.8162 380.349 101.527 385.234 104.639 387.329C105.709 388.052 106.919 388.557 108.173 388.927C107.933 389.366 107.89 389.907 108.178 390.42C110.615 394.766 114.741 398.584 118.607 401.654C122.576 404.806 127.155 407.78 132.078 409.173C137.763 410.775 144.008 409.57 149.776 409.06C152.901 408.785 156.017 408.459 159.138 408.097C159.974 408.002 160.84 407.928 161.72 407.845C160.892 408.934 160.235 410.188 159.804 410.941C158.402 413.388 159.695 416.61 162.411 417.358C162.695 417.437 162.986 417.481 163.273 417.489C164.005 418.956 165.746 420.037 167.356 419.483C168.057 419.244 168.732 418.918 169.38 418.526C179.509 427.425 190.173 435.776 201.141 443.605C221.481 458.121 242.801 471.379 264.908 483.035C269.887 485.661 274.905 488.216 279.965 490.671L284.32 492.771C289.14 495.092 294.074 497.4 299.194 498.84C300.192 499.121 301.237 499.347 302.307 499.521C302.321 499.617 302.325 499.709 302.319 499.797C303.281 499.925 304.121 499.945 304.838 499.855L305.002 499.833C311.277 500.272 317.989 498.739 322.026 494.154C322.699 494.627 323.68 494.679 324.546 493.999C328.9 490.582 331.496 485.379 333.773 480.411C336.083 475.372 337.893 470.121 339.223 464.741C341.88 453.996 342.934 442.913 342.989 431.86C343.19 389.269 332.527 346.305 314.006 308.068C309.308 298.37 304.13 288.854 298.382 279.738C292.65 270.646 285.993 262.197 277.469 255.567C275.017 253.661 272.467 251.918 269.837 250.312C271.602 249.437 272.303 247.211 272.427 245.233C272.701 240.841 272.178 235.782 269.607 232.076C266.001 226.877 259.546 223.672 253.56 222.113C250.435 221.3 247.203 220.825 243.98 220.665C242.318 220.582 240.591 220.856 238.949 220.676C237.501 220.519 236.605 219.654 235.772 218.517C233.638 215.603 232.248 212.546 229.187 210.41C226.046 208.219 221.976 207.38 218.192 207.608C213.784 207.873 209.763 209.61 205.881 211.606C202.377 213.408 198.976 215.404 195.661 217.533C195.054 216.109 194.481 214.674 193.949 213.234C192.916 210.442 192.019 207.561 191.29 204.676C190.551 201.749 190.659 197.885 188.428 195.684C186.488 193.771 182.752 194.522 182.123 197.349ZM31.7478 392.612L31.7637 392.615C36.2765 395.291 38.4346 401.976 40.5587 404.897C40.385 405.877 40.2631 406.874 40.0237 407.801C39.4749 409.931 38.7571 412.043 37.9253 414.072C36.4628 417.655 34.6303 421.069 32.9372 424.543C31.5748 427.337 30.2398 430.182 29.2013 433.123C29.314 433.236 29.418 433.37 29.5064 433.535C30.6329 435.646 31.5147 435.231 33.5931 434.77L33.5944 434.766C34.7831 431.126 36.4977 427.708 38.0385 424.216L38.4132 423.363L38.7838 422.51C40.0713 419.521 41.2461 416.505 41.9302 413.301C42.3654 411.259 42.5439 409.16 42.5696 407.074C43.6969 408.002 45.0511 408.668 46.7569 408.925C50.4077 409.476 53.7142 407.189 56.6888 405.354L57.3592 404.944C59.2214 403.811 61.0677 402.763 63.2147 402.228C65.6522 401.619 68.1724 401.619 70.6486 401.31C70.945 401.27 71.2449 401.231 71.5457 401.184C70.5794 404.384 70.1311 407.858 69.5561 411.063C68.7552 415.556 68.1023 420.089 67.4755 424.608C66.2568 433.369 65.408 442.198 64.9775 451.033C64.5604 459.587 64.7705 468.109 65.0799 476.66L65.2342 480.83C65.3578 484.225 65.4597 487.624 65.3997 491.02C65.2343 491.033 65.0689 491.06 64.9031 491.099C63.1881 491.499 62.0177 493.249 60.4503 494.029C57.1427 495.675 53.1466 495.653 49.6253 494.821C41.6164 492.923 34.9568 487.332 30.5698 480.501C25.3026 472.307 23.37 462.662 23.4314 453.014C23.5038 442.155 25.2618 431.773 27.7092 421.289L27.8663 420.62C29.9261 411.887 31.2162 392.695 31.7478 392.612ZM256.015 370.702C255.969 373.623 257.156 376.747 257.809 379.585C258.511 382.643 259.212 385.701 259.922 388.757L260.561 391.495C261.093 393.778 261.618 396.061 262.088 398.357C262.474 400.245 262.636 402.732 263.27 404.813C255.736 401.765 248.192 398.748 240.659 395.711C231.379 391.967 222.056 388.326 212.754 384.643C203.488 380.977 194.273 376.805 184.819 373.67C182.568 372.922 181.045 376.514 183.2 377.51C192.802 381.965 202.961 385.452 212.798 389.354L227.027 395.005C240.072 400.182 253.125 405.335 266.244 410.31C275.18 413.697 284.081 417.185 293.074 420.402C297.361 421.935 301.687 423.385 305.954 424.974C309.527 426.306 313.392 428.283 314.715 432.123C314.785 432.324 315.059 432.241 315.029 432.036C314.493 428.318 311.733 425.993 308.622 424.234C304.492 421.893 299.955 420.19 295.596 418.313L295.002 418.056C286.1 414.172 277.125 410.445 268.125 406.781C268.214 406.563 268.266 406.33 268.27 406.086L268.296 406.093C268.46 404.429 267.697 402.944 267.148 401.396L265.573 396.953C264.524 393.995 263.583 390.999 262.614 388.014C261.6 384.894 260.577 381.777 259.555 378.66C258.69 376.019 258.109 372.871 256.628 370.511C256.45 370.227 255.958 370.387 256.015 370.702ZM82.6532 364.135L82.7654 364.702C82.8962 365.366 83.0188 366.034 83.0493 366.704C83.1367 368.459 82.9366 370.213 82.4704 371.907C82.0133 373.583 81.3739 375.203 80.4638 376.688C79.602 378.085 78.3528 379.183 77.5562 380.615C77.474 380.767 77.4217 380.92 77.4 381.068C77.0953 380.942 76.7945 380.829 76.5029 380.737C74.0741 379.967 71.5935 379.322 69.0777 378.839L69.4767 378.812L69.7343 378.791C73.9378 378.435 77.9039 377.06 77.047 372.151C76.5623 369.376 74.3847 367.515 72.0509 366.196L71.7585 366.034C71.6327 365.964 71.5017 365.894 71.3759 365.833C73.4869 365.476 75.0186 365.037 77.6085 364.601C79.289 364.318 80.9735 364.161 82.6532 364.135ZM274.688 303.665C270.555 312.019 267.446 320.901 265.099 329.913C263.967 334.265 263.006 338.659 262.233 343.089L261.979 344.568L261.835 345.371C261.113 349.32 260.196 353.597 261.256 357.45C261.602 358.709 263.691 359.207 264.276 357.845C266.041 353.735 265.793 349.01 266.304 344.612C266.842 339.997 267.575 335.403 268.489 330.848C270.245 322.094 272.709 313.545 275.456 305.061L275.763 304.119C275.996 303.49 274.98 303.076 274.688 303.665ZM115.817 341.037C117.048 341.616 118.28 342.147 119.368 342.678C119.451 342.722 119.538 342.761 119.625 342.805C118.393 342.596 117.157 342.4 115.921 342.217C115.934 341.816 115.894 341.42 115.817 341.037ZM67.6178 336.853C67.8029 336.913 67.9665 337.01 68.1087 337.143L68.178 337.213C68.3478 337.371 68.4679 337.558 68.538 337.773C68.6468 337.982 68.6973 338.205 68.6882 338.445L68.6259 338.908C68.5432 339.203 68.3939 339.458 68.178 339.676L67.8259 339.948C67.5882 340.086 67.3343 340.164 67.0639 340.182L66.9471 340.186L66.5946 340.187C66.3931 340.18 66.2036 340.13 66.0256 340.036C65.8406 339.976 65.677 339.879 65.5348 339.746L65.4655 339.676C65.2953 339.518 65.1756 339.331 65.1055 339.116C65.0118 338.938 64.962 338.748 64.9552 338.546L64.9553 338.445L65.0175 337.982C65.0899 337.723 65.2133 337.495 65.3876 337.296L65.4655 337.213L65.8176 336.94C66.0552 336.803 66.3092 336.725 66.5795 336.707L66.6964 336.703H66.9471C67.1869 336.694 67.4106 336.744 67.6178 336.853ZM78.943 336.264C79.868 336.434 80.3925 337.555 80.1587 338.406C79.9001 339.347 79.0055 339.766 78.1071 339.637L78.0172 339.623C76.9647 339.429 75.9336 339.504 74.9312 339.873C74.0493 340.199 73.0234 339.509 72.7896 338.657C72.5224 337.684 73.12 336.841 74.0058 336.515C75.5945 335.928 77.2986 335.961 78.943 336.264ZM262.325 274.413C260.219 277.5 258.904 281.604 257.607 285.132L257.477 285.483C256.098 289.191 254.768 292.928 253.528 296.685C251.051 304.185 247.824 312.033 247.228 319.956C247.118 321.418 249.355 322.004 250.003 320.708C251.867 316.983 252.869 313.099 253.971 309.104C255.023 305.295 256.118 301.499 257.214 297.702C258.31 293.907 259.37 290.102 260.449 286.302C261.498 282.606 262.959 278.496 263.2 274.65C263.231 274.15 262.567 274.057 262.325 274.413ZM214.79 249.558C211.979 251.51 209.676 254.365 207.297 256.806C204.884 259.284 202.502 261.784 200.143 264.314C196.201 268.542 192.33 272.839 188.332 277.015C180.365 285.338 171.352 292.997 160.356 296.908C157.696 297.855 158.861 302.126 161.528 301.159C172.775 297.081 182.092 289.539 190.31 281.007C194.566 276.589 198.472 271.867 202.28 267.062C204.062 264.813 205.831 262.557 207.575 260.279L208.618 258.91C210.81 256.016 213.493 253.132 215.097 249.865C215.187 249.681 214.99 249.42 214.79 249.558Z" fill="black"/>
<path fill-rule="evenodd" clip-rule="evenodd" d="M127.418 216.591C139.962 217.879 154.865 214.913 163.228 204.719C163.478 204.414 163.587 204.069 163.594 203.735C163.601 203.364 163.476 203.006 163.261 202.727C163.035 202.434 162.714 202.23 162.345 202.163C162.034 202.108 161.68 202.143 161.315 202.348L160.546 202.777C154.835 205.932 148.903 208.623 142.431 209.775C135.766 210.96 128.98 210.828 122.376 209.322C110.344 206.58 100.608 199.585 93.4409 190.362C85.4432 180.069 80.6407 167.003 79.4165 153.937C77.9332 138.102 81.3742 122.363 84.9344 107.031C88.6752 90.9208 92.7642 74.8927 97.5141 59.0505C97.6573 58.5736 97.6958 58.1273 97.6544 57.7161C99.0554 57.1671 100.547 57.3195 102.031 57.8207C104.742 58.7365 107.443 60.8016 109.696 62.5063C110.512 63.1237 111.271 63.6976 111.953 64.1645C114.747 66.0766 117.801 67.4524 121.215 67.6688C124.766 67.8933 128.248 66.7892 131.474 65.4075C133.112 64.7055 134.724 63.9774 136.33 63.2521C140.903 61.1869 145.421 59.1421 150.359 57.8131C156.975 56.032 163.806 55.1547 170.658 55.2175C182.888 55.3294 195.154 58.4782 202.649 68.8242C205.685 73.0152 207.665 77.8321 206.121 83.0045C205.281 85.8182 203.696 88.3725 201.966 90.7218L201.373 91.5219C200.424 92.8115 199.6 94.0959 199.351 95.4634C199.143 96.6089 199.306 97.8208 200.123 99.149C200.638 99.9852 201.293 100.735 201.952 101.482C202.427 102.021 202.903 102.56 203.313 103.139C204.139 104.307 204.871 105.565 205.444 106.877C206.568 109.445 207.044 112.208 207.144 114.995C207.265 118.356 206.792 121.645 206.323 124.938C205.991 127.274 205.66 129.611 205.526 131.977C205.502 132.39 205.628 132.697 205.805 132.925C206.021 133.203 206.337 133.379 206.696 133.428C206.805 133.442 206.918 133.445 207.032 133.435C206.976 133.662 206.927 133.891 206.884 134.12C207.111 133.828 207.353 133.545 207.607 133.271C207.624 133.263 207.64 133.255 207.656 133.246C207.919 133.101 208.141 132.881 208.282 132.598C208.643 132.262 209.025 131.944 209.426 131.645C211.513 130.087 213.949 129.164 216.394 129.134C218.75 129.104 221.112 129.907 222.928 131.602C226.538 134.971 227.595 140.47 227.633 145.192C227.671 150.012 226.556 155.796 222.355 158.789C220.67 159.989 218.612 160.711 216.538 160.731C214.819 160.749 213.175 160.14 211.555 159.561C211.056 159.382 210.559 159.204 210.063 159.043C209.5 158.86 208.986 158.871 208.539 159.005C208.035 159.156 207.607 159.468 207.287 159.885C206.968 160.299 206.76 160.818 206.695 161.362C206.632 161.888 206.704 162.434 206.927 162.927C206.983 163.051 207.042 163.172 207.103 163.289L206.179 164.809C202.641 170.613 199.041 176.312 194.32 181.301C191.611 184.165 188.738 186.867 185.588 189.233L185.134 189.57C184.862 189.77 184.56 190.016 184.238 190.279C183.32 191.031 182.218 192.04 181.19 192.079C180.885 192.091 180.618 192.053 180.376 192.021C179.791 191.944 179.299 191.922 178.817 192.119C178.429 192.277 178.026 192.573 177.612 193.184C177.332 193.598 177.188 194.116 177.188 194.642C177.188 195.171 177.334 195.7 177.592 196.118C178.128 196.983 178.775 197.519 179.478 197.823C180.261 198.163 181.127 198.215 182.026 198.047C184.243 197.633 186.697 195.797 188.258 194.598L188.56 194.367C192.02 191.727 195.299 188.806 198.181 185.539C203.091 179.976 207.499 173.421 209.764 166.258C211.36 167.307 213.332 167.805 215.394 167.883C218.397 167.997 221.577 167.224 223.919 166.113C229.082 163.664 232.218 159.032 233.688 153.704C235.395 147.518 234.84 140.406 232.679 134.849C232.617 134.687 232.551 134.526 232.484 134.363C239.136 117.505 241.181 98.7862 240.611 80.7961C240.345 72.3752 239.772 63.5403 237.786 55.3276C236.896 51.6467 235.349 48.1412 232.879 45.2432C231.472 43.5907 229.744 42.3042 228.009 41.0212C226.506 39.91 224.997 38.8013 223.727 37.4138L223.127 36.755C222.997 36.6117 222.867 36.4686 222.737 36.3258C220.545 33.9086 218.41 31.563 215.75 29.5806C212.664 27.2821 209.259 25.4831 205.721 23.9889C198.099 20.7712 189.896 18.8419 181.781 17.3493C164.224 14.1207 146.201 13.9614 128.86 18.4997C120.797 20.6094 112.972 23.4972 105.16 26.3816C104.435 26.6494 103.71 26.9172 102.985 27.1843C96.9142 29.4201 90.8405 31.6465 84.7667 33.8728C81.9439 34.9075 79.1212 35.9422 76.2986 36.9779C75.6862 37.2027 75.0867 37.6869 74.7452 38.2885C74.412 38.8754 74.3128 39.56 74.5818 40.2416C76.3137 44.6309 78.4989 48.749 81.1587 52.5946C80.2344 53.2235 79.4478 54.0599 78.8528 55.0388C78.1003 56.277 77.6545 57.7428 77.6242 59.2978C77.5228 64.5057 82.2606 68.036 86.1913 70.5894C86.5577 70.8276 86.9204 70.9683 87.2709 71.0328C83.4622 85.6001 79.8163 100.217 76.7183 114.949L76.5052 115.971C73.3138 131.389 71.2548 147.124 74.273 162.747C76.8717 176.2 82.9092 189.184 92.3433 199.207C101.589 209.029 113.995 215.213 127.418 216.591ZM210.018 127.895C211.661 122.68 212.531 117.007 211.903 111.722C211.507 108.399 210.508 105.201 208.883 102.272C207.951 100.595 206.816 99.0425 205.578 97.5801L205.15 97.089C204.934 96.8381 204.719 96.6075 204.652 96.3185C204.613 96.1505 204.653 95.9669 204.755 95.7474C204.981 95.2613 205.401 94.7928 205.795 94.3356C206.045 94.045 206.289 93.7597 206.494 93.4822C210.094 88.6076 212.779 82.8041 211.906 76.6226C211.055 70.5915 207.103 64.9698 202.897 60.7331C193.634 51.4041 179.273 49.2603 166.693 49.7749C159.37 50.0742 152.058 51.3653 145.084 53.6205C141.645 54.7329 138.283 56.0875 135.015 57.6402L134.292 57.9876C133.901 58.1769 133.511 58.3682 133.121 58.5597C130.567 59.8126 128.003 61.0777 125.23 61.7589C119.816 63.0889 116.143 60.2877 112.282 57.4627C110.959 56.4945 109.616 55.5129 108.188 54.6515L107.894 54.4777C105.318 52.984 102.237 51.9789 99.2775 52.024C96.7067 52.0631 94.2263 52.8842 92.207 54.8246C91.7926 55.2233 91.554 55.6583 91.442 56.0912C91.2186 56.4045 91.0382 56.7781 90.9207 57.2195C90.1974 59.9346 89.4772 62.6516 88.7595 65.3695L88.1727 64.9912C86.4342 63.8617 84.5441 62.5709 83.6906 60.6812C83.3621 59.9539 83.4086 58.7422 83.8226 57.8514C83.9673 57.5401 84.1586 57.2633 84.4231 57.0906C84.6154 56.9649 84.8474 56.9059 85.1168 56.9276C85.772 57.012 86.3735 56.9162 86.8837 56.7005C87.4719 56.4518 87.941 56.0426 88.2454 55.5495C88.5571 55.0445 88.6992 54.4508 88.623 53.8351C88.5575 53.3058 88.3298 52.7529 87.8792 52.2335C84.9134 48.814 82.4158 45.0419 80.5176 40.9476L93.0735 36.3007C97.5504 34.6447 102.028 32.9908 106.508 31.3433L108.96 30.4418C117.106 27.4531 125.299 24.5324 133.77 22.6082C150.605 18.7846 168.16 19.6833 184.949 23.2825L185.963 23.5017C193.008 25.0383 200.147 26.8976 206.614 30.1293C209.788 31.7155 212.805 33.6443 215.396 36.0812C216.54 37.1574 217.574 38.3356 218.609 39.5123C220.059 41.1613 221.511 42.8059 223.236 44.195L224.836 45.477C227.217 47.3962 229.365 49.2661 230.708 52.2425C232.113 55.3542 232.784 58.792 233.331 62.1413C234.711 70.5787 235.255 79.1512 235.203 87.6976C235.115 102.048 232.936 116.105 230.183 130.114C227.974 126.951 224.87 124.5 220.887 123.977C218.291 123.636 215.716 124.12 213.484 125.269C212.194 125.933 211.018 126.818 210.018 127.895ZM214.191 144.934C217.099 143.807 220.153 143.438 223.23 143.977C223.553 144.033 223.86 143.966 224.119 143.816C224.381 143.664 224.587 143.423 224.699 143.157C224.829 142.85 224.835 142.517 224.721 142.221C224.622 141.965 224.433 141.716 224.085 141.55C220.753 139.959 217.05 139.257 213.374 139.757L213.01 139.808C211.131 140.087 208.489 140.674 206.507 141.829C204.95 142.736 203.81 143.987 203.527 145.621C203.379 146.472 203.59 147.361 204.081 148.006C204.555 148.629 205.281 149.044 206.219 149.017C207.875 148.97 208.855 148.27 210.035 147.364C210.178 147.254 210.325 147.141 210.477 147.027C211.617 146.174 212.862 145.449 214.191 144.934Z" fill="black"/>
<path fill-rule="evenodd" clip-rule="evenodd" d="M125.102 178.244C128.028 177.05 130.639 175.058 132.547 172.514C133.211 171.629 133.383 170.695 133.244 169.841C133.087 168.881 132.519 168.01 131.744 167.426C130.967 166.84 129.995 166.551 129.055 166.699C128.238 166.827 127.425 167.274 126.782 168.201L126.648 168.387C125.513 169.923 124.034 171.183 122.349 171.995C120.725 172.778 118.909 173.143 117.03 172.93C113.45 172.526 110.983 170.589 108.361 167.96C108.036 167.628 107.71 167.285 107.383 166.937C107.177 166.622 106.891 166.419 106.573 166.313C106.22 166.195 105.82 166.202 105.454 166.329C105.101 166.452 104.786 166.686 104.574 166.997C104.373 167.292 104.259 167.657 104.296 168.076C104.536 170.801 105.961 173.234 107.984 175.143C110.231 177.264 113.21 178.732 116.014 179.246C119.103 179.813 122.251 179.407 125.102 178.244ZM114.556 136.202C111.27 138.2 106.261 142.86 109.797 147.815C113.959 152.184 119.952 147.175 122.905 144.909C125.643 143.154 128.719 147.669 126.179 149.719C104.841 165.522 96.1811 136.724 112.894 133.852C114.734 133.535 115.418 135.583 114.556 136.202ZM152.795 117.819C152.432 113.309 145.566 112.286 144.884 116.748C144.272 120.745 144.992 124.416 146.792 128.015C148.511 131.453 152.834 129.849 153.161 126.718C153.599 122.522 153.021 120.624 152.795 117.819ZM100.535 115.822C99.5782 114.568 98.1962 113.712 96.5405 114.196C91.3673 115.708 92.8921 123.055 94.7089 126.631C95.696 128.573 98.887 129.065 100.329 127.355C102.679 124.567 103.805 118.999 100.817 116.252C100.736 116.11 100.646 115.967 100.535 115.822ZM146.865 98.088L146.047 97.9449C143.52 97.5075 140.376 97.0873 138.588 99.1203C137.64 100.198 137.313 102.202 138.588 103.234C140.831 105.05 143.31 104.346 145.997 104.5C148.212 104.627 150.34 104.993 152.473 105.603C157.153 106.941 160.967 109.384 164.964 112.066C165.488 112.418 166.024 111.747 165.773 111.256C163.466 106.735 158.995 103.022 154.516 100.758C152.125 99.55 149.509 98.5477 146.865 98.088ZM105.251 96.0629L104.626 96.1909C97.8192 97.6141 88.9762 100.457 85.7531 107.144C85.6302 108.09 85.76 108.293 85.8655 108.425L85.9007 108.469C85.9876 108.582 86.057 108.738 86.4668 108.867C86.5805 108.84 86.6953 108.811 86.8113 108.781C88.2888 108.393 89.4577 107.86 90.5894 107.306L91.8164 106.702C93.2399 106.003 94.676 105.33 96.198 104.834C99.446 103.774 102.787 103.028 106.18 102.629C106.915 102.543 107.623 102.294 108.182 101.869C108.712 101.465 109.117 100.906 109.302 100.163C109.541 99.2008 109.472 98.4726 108.956 97.6049C108.568 96.9533 108.013 96.5016 107.376 96.2423C106.726 95.9778 105.986 95.9155 105.251 96.0629Z" fill="black"/>
</svg>
