<svg width="160" height="160" viewBox="0 0 160 160" fill="none" xmlns="http://www.w3.org/2000/svg">
<g clip-path="url(#clip0_399_4719)">
<path d="M141.435 0H18.5438C8.30236 0 0 8.30236 0 18.5438V141.435C0 151.677 8.30236 159.979 18.5438 159.979H141.435C151.677 159.979 159.979 151.677 159.979 141.435V18.5438C159.979 8.30236 151.677 0 141.435 0Z" fill="black"/>
<path fill-rule="evenodd" clip-rule="evenodd" d="M43.1445 93.2798V72.1191H64.305V93.2798C64.305 102.045 71.4106 109.15 80.1756 109.15C88.9404 109.15 96.046 102.045 96.046 93.2798V72.1191H117.207V93.2798C117.207 113.732 100.627 130.311 80.1756 130.311C59.7239 130.311 43.1445 113.732 43.1445 93.2798Z" fill="white"/>
<path d="M64.3052 29.7983H43.1445V50.959H64.3052V29.7983Z" fill="white"/>
<path d="M117.217 29.6201H96.0566V50.7815H117.217V29.6201Z" fill="white"/>
</g>
<defs>
<clipPath id="clip0_399_4719">
<rect width="160" height="160" fill="white"/>
</clipPath>
</defs>
</svg>
