<svg width="745" height="801" viewBox="0 0 745 801" fill="none" xmlns="http://www.w3.org/2000/svg">
<path d="M564.329 132.624C600.735 132.624 630.249 103.052 630.249 66.5742C630.249 30.0959 600.735 0.524414 564.329 0.524414C527.922 0.524414 498.408 30.0959 498.408 66.5742C498.408 103.052 527.922 132.624 564.329 132.624Z" fill="#4A1FF6"/>
<path d="M135.835 796.624H655.615V263.648C655.615 150.253 563.305 58 449.839 58H341.61C228.145 58 135.835 150.253 135.835 263.648V796.624Z" fill="#CBD2E0"/>
<path d="M244.063 796.625H655.615V263.648C655.729 220.198 641.961 177.846 616.317 142.758C615.372 141.47 614.429 140.199 613.457 138.942C601.053 122.684 586.292 108.366 569.661 96.4599C568.722 95.7768 567.778 95.1055 566.821 94.4343C552.905 84.81 537.851 76.9423 522.003 71.0103C521.062 70.6538 520.104 70.2967 519.146 69.9541C504.812 64.8421 489.954 61.3405 474.845 59.5138C473.909 59.3859 472.947 59.2859 471.986 59.1858C457.262 57.6125 442.413 57.6125 427.69 59.1858C426.731 59.2859 425.769 59.3859 424.821 59.5152C409.717 61.342 394.862 64.8432 380.533 69.9541C379.574 70.2967 378.616 70.6539 377.672 71.0111C362.019 76.8682 347.143 84.6185 333.375 94.0889C332.418 94.7456 331.461 95.4169 330.518 96.0882C321.196 102.738 312.439 110.147 304.338 118.238C297.842 124.729 291.788 131.647 286.218 138.947C285.249 140.199 284.306 141.47 283.362 142.756C257.717 177.844 243.949 220.197 244.063 263.648V796.625Z" fill="#EAEDF2"/>
<path d="M267.414 495.982C256.368 495.982 247.414 486.625 247.414 475.082C247.414 463.539 256.368 454.182 267.414 454.182C278.459 454.182 287.414 463.539 287.414 475.082C287.414 486.625 278.459 495.982 267.414 495.982Z" fill="#4A1FF6"/>
<path d="M559.936 262.494C559.936 208.791 516.401 165.256 462.698 165.256C408.995 165.256 365.46 208.791 365.46 262.494V577.78H559.936V262.494Z" fill="white"/>
<path d="M348.426 304.338H551.63V309.265H348.426V304.338Z" fill="#EAEDF2"/>
<path d="M348.426 464.457H551.63V469.384H348.426V464.457Z" fill="#EAEDF2"/>
<path d="M482.735 175.467L487.959 177.355V601.21H482.735V175.467Z" fill="#EAEDF2"/>
<path d="M411.235 177.748L416.161 175.859V601.182H411.235V177.748Z" fill="#EAEDF2"/>
<path d="M157.834 780.939H178.693L188.617 700.534L157.831 700.536L157.834 780.939Z" fill="#FFB8B8"/>
<path d="M54.0493 780.939H74.9083L84.8325 700.534L54.0458 700.536L54.0493 780.939Z" fill="#FFB8B8"/>
<path d="M275.527 492.315C276.93 490.042 277.818 487.49 278.128 484.838C278.438 482.185 278.163 479.497 277.321 476.963C276.479 474.429 275.091 472.11 273.255 470.17C271.419 468.229 269.18 466.715 266.695 465.733L187.411 273.671L153.375 294.191L242.329 477.162C240.955 481.443 241.201 486.079 243.018 490.192C244.836 494.304 248.101 497.607 252.193 499.475C256.285 501.343 260.92 501.645 265.221 500.326C269.521 499.006 273.188 496.156 275.527 492.315Z" fill="#FFB8B8"/>
<path d="M64.7044 530.091C67.0225 528.763 69.021 526.943 70.5591 524.76C72.0972 522.576 73.1375 520.082 73.6068 517.453C74.0761 514.824 73.9629 512.124 73.2752 509.544C72.5875 506.964 71.342 504.565 69.6266 502.518L91.5928 295.912L51.8863 297.725L42.7571 500.949C39.5066 504.057 37.5098 508.249 37.1451 512.73C36.7805 517.211 38.0733 521.67 40.7786 525.262C43.4838 528.855 47.4137 531.33 51.8233 532.22C56.233 533.11 60.8162 532.353 64.7044 530.091Z" fill="#FFB8B8"/>
<path d="M128.048 234.966C104.969 234.966 86.2603 216.269 86.2603 193.204C86.2603 170.14 104.969 151.442 128.048 151.442C151.127 151.442 169.836 170.14 169.836 193.204C169.836 216.269 151.127 234.966 128.048 234.966Z" fill="#FFB8B8"/>
<path d="M64.9711 483.102H190.954L190.802 482.123C190.576 480.658 168.349 335.148 184.742 287.544C186.387 282.866 186.242 277.745 184.336 273.167C182.429 268.589 178.896 264.878 174.416 262.747C150.985 251.72 106.007 238.141 68.0445 271.094C62.4582 276.023 58.096 282.184 55.3027 289.088C52.5094 295.992 51.3617 303.451 51.9503 310.875L64.9711 483.102Z" fill="#7250F8"/>
<path d="M166.757 356.652L223.476 345.153L196.889 282.19C195.298 276.091 191.352 270.873 185.916 267.678C180.48 264.484 173.998 263.575 167.892 265.15C161.786 266.725 156.555 270.657 153.345 276.082C150.136 281.506 149.21 287.982 150.772 294.088L166.757 356.652Z" fill="#7250F8"/>
<path d="M94.1148 378.005L97.5246 299.889C100.11 285.205 91.6989 271.323 78.7628 269.054C65.823 266.794 53.188 276.978 50.5906 291.771L37.7741 364.762L94.1148 378.005Z" fill="#7250F8"/>
<path d="M69.1625 473.75C48.8912 550.905 46.6798 649.002 52.1486 756.004L79.3708 752.604L128.711 548.564L155.933 756.004L186.558 754.304C195.707 642.032 204.616 545.648 189.961 482.252L69.1625 473.75Z" fill="#2F2E41"/>
<path d="M100.514 225.478C108.31 233.777 122.787 229.322 123.803 217.985C123.883 217.104 123.877 216.219 123.786 215.34C123.262 210.317 120.358 205.758 121.054 200.456C121.211 199.136 121.703 197.878 122.483 196.802C128.695 188.488 143.278 200.52 149.141 192.994C152.736 188.379 148.51 181.114 151.269 175.956C154.91 169.149 165.695 172.507 172.458 168.779C179.982 164.631 179.532 153.093 174.579 146.075C168.538 137.516 157.947 132.949 147.487 132.291C137.028 131.633 126.64 134.458 116.875 138.261C105.78 142.583 94.7782 148.554 87.9506 158.304C79.6474 170.161 78.8485 186.101 83.001 199.965C85.5271 208.399 94.1481 218.701 100.514 225.478Z" fill="#2F2E41"/>
<g style="mix-blend-mode:plus-darker">
<path d="M488.33 715.112L465.03 694.214C469.129 678.501 477.232 663.866 488.636 651.579C487.21 680.167 516.857 700.712 525.463 727.929C528.077 736.439 528.599 745.44 526.992 754.266C525.384 763.093 521.687 771.517 516.176 778.916L511.965 800.371C498.912 793.104 487.767 783.23 479.298 771.428C470.83 759.625 465.238 746.175 462.91 732.005C461.688 724.041 461.545 715.939 462.484 707.89C474.927 712.11 488.33 715.112 488.33 715.112Z" fill="#3F1AD1"/>
</g>
<path d="M647.162 693.633L713.773 689.181C729.455 660.015 737.243 627.732 736.459 595.133C698.327 640.995 622.116 637.321 569.959 669.083C553.773 679.105 540.221 692.385 530.306 707.938C520.391 723.491 514.369 740.919 512.684 758.931L489.064 797.099C520.105 801.465 551.794 799.523 581.95 791.407C612.105 783.291 640.01 769.194 663.741 750.087C676.939 739.245 688.617 726.901 698.498 713.347C672.733 705.004 647.162 693.633 647.162 693.633Z" fill="#4A1FF6"/>
<path d="M2.02094 799.827L730.894 799.823C731.43 799.821 731.944 799.607 732.323 799.227C732.701 798.848 732.914 798.334 732.914 797.798C732.914 797.262 732.701 796.748 732.323 796.369C731.944 795.989 731.43 795.775 730.894 795.773L2.02094 795.778C1.48467 795.779 0.970908 795.993 0.592261 796.373C0.213614 796.752 0.000943798 797.266 0.000943798 797.802C0.000943798 798.338 0.213614 798.852 0.592261 799.232C0.970908 799.611 1.48467 799.825 2.02094 799.827Z" fill="#CBD2E0"/>
<path d="M193.593 774.983H153.365V800.296H218.921C218.921 796.972 218.266 793.68 216.993 790.609C215.72 787.538 213.854 784.748 211.502 782.397C209.15 780.047 206.358 778.182 203.285 776.91C200.212 775.638 196.919 774.983 193.593 774.983Z" fill="#2F2E41"/>
<path d="M89.8078 774.983H49.5806V800.296H115.136C115.136 796.972 114.481 793.68 113.208 790.609C111.935 787.538 110.07 784.748 107.718 782.397C105.366 780.047 102.574 778.182 99.5006 776.91C96.4276 775.638 93.134 774.983 89.8078 774.983Z" fill="#2F2E41"/>
</svg>
