<svg width="745" height="846" viewBox="0 0 745 846" fill="none" xmlns="http://www.w3.org/2000/svg">
<path d="M117.656 478.509C78.8316 455.359 49.5282 412.094 53.3325 366.991C88.8279 401.026 135.196 421.386 184.232 424.468C203.148 425.588 224.303 424.861 238.227 437.736C246.891 445.748 250.925 457.809 251.586 469.603C252.247 481.396 249.889 493.127 247.543 504.703L248.351 507.539C203.17 507.709 156.481 501.659 117.656 478.509Z" fill="#CBD2E0"/>
<path d="M54.6608 367.275C70.2169 401.346 96.0932 429.64 128.614 448.139C135.605 452.059 143.038 455.427 150.937 456.989C158.647 458.452 166.608 457.82 173.993 455.159C180.928 452.816 187.751 449.614 195.134 449.001C202.915 448.354 210.12 451.362 215.78 456.63C222.705 463.076 226.906 471.63 230.724 480.139C234.963 489.586 239.216 499.465 247.343 506.259C248.328 507.082 246.995 508.565 246.012 507.743C231.872 495.923 229.564 476.129 218.262 462.208C212.988 455.713 205.728 450.77 197.103 450.9C189.562 451.014 182.523 454.309 175.521 456.743C168.17 459.298 160.805 460.498 153.044 459.374C145.105 458.224 137.525 455.14 130.464 451.416C114.516 442.851 100.011 431.827 87.4815 418.748C73.0985 403.901 61.3566 386.698 52.764 367.884C52.2326 366.719 54.1329 366.118 54.6608 367.275Z" fill="white"/>
<path d="M117.793 442.799C113.954 447.844 108.451 451.358 102.265 452.713C96.0789 454.068 89.6137 453.176 84.0237 450.196C82.8947 449.589 83.7829 447.803 84.9134 448.411C90.1137 451.195 96.1361 452.025 101.894 450.752C107.651 449.478 112.765 446.185 116.312 441.466C117.084 440.441 118.56 441.781 117.793 442.799Z" fill="white"/>
<path d="M170.633 456.81C169.017 443.944 162.621 432.16 152.718 423.809C151.736 422.983 153.069 421.5 154.049 422.325C164.338 431.035 170.969 443.311 172.621 456.704C172.778 457.98 170.788 458.08 170.633 456.81Z" fill="white"/>
<path d="M75.5677 402.964C77.459 401.322 78.9136 399.235 79.8008 396.891C80.6881 394.546 80.9803 392.018 80.6511 389.533C80.4785 388.259 82.4681 388.16 82.6396 389.426C82.9905 392.174 82.6644 394.966 81.6899 397.558C80.7153 400.15 79.1219 402.464 77.0489 404.297C76.8679 404.487 76.6219 404.6 76.3607 404.614C76.0995 404.628 75.8428 404.541 75.6428 404.373C75.4476 404.195 75.3302 403.947 75.3161 403.684C75.3021 403.42 75.3925 403.161 75.5677 402.964Z" fill="white"/>
<path d="M179.005 279.61C179.136 280.403 179.266 281.195 179.412 281.995C181.22 292.64 183.888 303.12 187.39 313.331C187.648 314.125 187.922 314.926 188.202 315.711C196.901 340.223 210.067 362.904 227.03 382.601C233.788 390.433 241.13 397.739 248.994 404.454C259.854 413.729 272.366 422.918 279.33 434.893C280.07 436.134 280.733 437.42 281.315 438.743L251.741 506.331C251.597 506.451 251.467 506.578 251.323 506.699L250.265 509.452C249.836 509.134 249.397 508.795 248.967 508.477C248.717 508.293 248.474 508.095 248.224 507.911C248.059 507.784 247.895 507.657 247.739 507.551C247.684 507.509 247.629 507.466 247.59 507.431C247.434 507.326 247.3 507.211 247.16 507.113C244.702 505.225 242.252 503.316 239.812 501.386C239.796 501.379 239.796 501.379 239.788 501.357C221.231 486.607 203.74 470.175 189.294 451.606C188.86 451.047 188.41 450.483 187.989 449.893C181.524 441.487 175.756 432.565 170.742 423.217C168.012 418.09 165.544 412.827 163.346 407.45C157.694 393.544 154.259 378.834 153.169 363.86C151.001 334.008 158.387 303.793 177.526 281.314C178.016 280.739 178.5 280.178 179.005 279.61Z" fill="#CBD2E0"/>
<path d="M180.177 280.472C172.123 317.058 175.78 355.258 190.629 389.643C193.855 396.991 197.766 404.163 203.134 410.174C208.411 415.994 215.147 420.291 222.643 422.62C229.588 424.932 236.96 426.492 243.223 430.455C249.825 434.633 253.77 441.38 255.123 449C256.779 458.324 254.992 467.688 252.927 476.784C250.634 486.884 248.093 497.338 250.5 507.664C250.791 508.915 248.836 509.295 248.545 508.046C244.358 490.08 254.411 472.883 253.753 454.951C253.445 446.583 250.619 438.258 243.654 433.16C237.564 428.702 229.964 427.087 222.911 424.807C215.506 422.412 208.905 418.929 203.383 413.35C197.735 407.643 193.536 400.609 190.137 393.376C182.55 376.918 177.594 359.367 175.45 341.367C172.888 320.836 173.851 300.018 178.297 279.813C178.573 278.563 180.451 279.229 180.177 280.472Z" fill="white"/>
<path d="M185.197 378.852C179.1 380.565 172.594 380.051 166.841 377.401C161.088 374.752 156.462 370.14 153.789 364.389C153.252 363.224 155.035 362.333 155.572 363.5C158.051 368.86 162.361 373.156 167.723 375.612C173.086 378.068 179.148 378.523 184.816 376.894C186.048 376.541 186.422 378.502 185.197 378.852Z" fill="white"/>
<path d="M218.967 421.911C225.409 410.663 227.383 397.396 224.496 384.755C224.209 383.503 226.163 383.123 226.45 384.374C229.431 397.533 227.348 411.335 220.619 423.025C219.977 424.139 218.329 423.018 218.967 421.911Z" fill="white"/>
<path d="M175.422 321.577C177.919 321.406 180.335 320.618 182.452 319.281C184.569 317.944 186.322 316.102 187.553 313.919C188.181 312.797 189.828 313.919 189.204 315.033C187.833 317.439 185.895 319.471 183.559 320.953C181.223 322.435 178.56 323.322 175.804 323.535C175.545 323.577 175.281 323.519 175.064 323.372C174.847 323.226 174.694 323.002 174.636 322.747C174.587 322.487 174.642 322.219 174.789 322C174.936 321.781 175.164 321.628 175.422 321.577Z" fill="white"/>
<path d="M280.047 94.6345L329.931 679.659L230.164 687.174V102.078C242.052 94.1968 259.117 92.9638 280.047 94.6345Z" fill="#EAEDF2"/>
<path d="M526.282 94.6345L476.398 679.659L576.165 687.174V102.078C564.277 94.1968 547.212 92.9638 526.282 94.6345Z" fill="#EAEDF2"/>
<path d="M561.227 711.354H244.041C238.955 711.348 234.079 709.321 230.482 705.718C226.886 702.115 224.863 697.229 224.857 692.134V110.663C224.863 105.568 226.886 100.683 230.483 97.0799C234.079 93.4769 238.955 91.4501 244.041 91.4443H561.227C566.313 91.4501 571.19 93.4769 574.786 97.0799C578.382 100.683 580.405 105.568 580.411 110.663V692.134C580.405 697.23 578.382 702.115 574.786 705.718C571.19 709.321 566.314 711.348 561.227 711.354ZM244.041 97.8242C240.643 97.8279 237.386 99.1819 234.983 101.589C232.581 103.996 231.229 107.259 231.226 110.663V692.134C231.229 695.538 232.581 698.802 234.983 701.209C237.386 703.616 240.643 704.97 244.041 704.974H561.227C564.625 704.97 567.883 703.616 570.285 701.209C572.688 698.802 574.039 695.538 574.043 692.134V110.663C574.039 107.259 572.688 103.996 570.285 101.589C567.883 99.1819 564.625 97.828 561.227 97.8242L244.041 97.8242Z" fill="#EAEDF2"/>
<path d="M577.227 188.206H228.041V194.586H577.227V188.206Z" fill="#EAEDF2"/>
<path d="M577.227 294.536H228.041V300.916H577.227V294.536Z" fill="#EAEDF2"/>
<path d="M341.355 94.6348H334.987V384.918H341.355V94.6348Z" fill="#EAEDF2"/>
<path d="M470.281 94.6348H463.913V384.918H470.281V94.6348Z" fill="#EAEDF2"/>
<path d="M617.027 728.898H198.854C191.253 728.898 183.964 725.873 178.59 720.489C173.216 715.105 170.197 707.803 170.197 700.189C170.197 692.575 173.216 685.272 178.59 679.888C183.964 674.504 191.253 671.479 198.854 671.479H617.027C624.627 671.479 631.916 674.504 637.29 679.888C642.665 685.272 645.684 692.575 645.684 700.189C645.684 707.803 642.665 715.105 637.29 720.489C631.916 725.873 624.627 728.898 617.027 728.898Z" fill="#CBD2E0"/>
<path d="M577.226 370.032H230.164V391.298H577.226V370.032Z" fill="#EAEDF2"/>
<path d="M342.344 437.712L341.903 437.499C318.244 426.048 287.261 426.059 241.442 437.536L240.953 437.659L240.806 437.175C235.959 421.253 230.469 403.219 240.784 394.346C240.928 368.311 263.724 347.17 291.724 347.17C319.718 347.17 342.511 368.3 342.664 394.329C358.008 406.082 350.696 423.451 342.591 437.289L342.344 437.712Z" fill="#2F2E41"/>
<path d="M487.761 381.962C487.337 384.072 486.456 386.063 485.181 387.795C483.905 389.527 482.266 390.957 480.38 391.986C478.493 393.015 476.404 393.616 474.26 393.749C472.116 393.881 469.969 393.541 467.97 392.752L384.359 476.928L376.899 450.791L459.94 372.622C461.486 369.346 464.177 366.752 467.504 365.331C470.831 363.91 474.563 363.761 477.992 364.913C481.421 366.064 484.309 368.436 486.11 371.578C487.91 374.72 488.498 378.415 487.761 381.962Z" fill="#FFB6B6"/>
<path d="M281.117 462.998C281.117 462.998 273.531 480.22 292.249 490.841C310.967 501.462 376.386 486.788 387 484.74C397.615 482.691 437.261 423.251 437.261 423.251L431.655 394.101L379.076 439.828L281.117 462.998Z" fill="#7250F8"/>
<path d="M267.311 558.237L268.372 578.44C268.372 578.44 265.24 596.336 267.816 600.198C270.373 604.041 340.148 604.526 340.148 604.526C340.148 604.526 344.758 579.627 348.729 557.833L267.311 558.237Z" fill="#FFB6B6"/>
<path d="M467.922 825.363L482.509 822.411L478.334 763.383L456.805 767.739L467.922 825.363Z" fill="#FFB6B6"/>
<path d="M488.817 748.546L502.378 742.438L484.786 685.959L464.771 694.976L488.817 748.546Z" fill="#FFB6B6"/>
<path d="M500.629 716.724L475.095 731.208L412.123 629.83C367.916 659.668 324.687 673.957 281.109 681.582C266.375 684.21 251.353 682.878 248.525 667.854C248.392 667.152 248.287 666.446 248.208 665.736C246.468 649.325 266.844 628.291 269.434 608.213L325.198 604.86L332.074 613.693L396.564 573.971C409.533 565.983 426.59 570.304 434.663 583.622C435.089 584.325 435.485 585.045 435.85 585.783L500.629 716.724Z" fill="#2F2E41"/>
<path d="M485.001 784.921L455.784 787.641L402.808 679.098C350.276 688.149 300.717 691.049 257.85 680.099C243.336 676.443 234.464 661.429 238.034 646.565C238.201 645.87 238.394 645.183 238.613 644.503C243.743 628.821 257.173 617.725 267.753 600.478L345.038 601.654L336.406 631.492L411.482 621.759C426.58 619.802 440.369 630.751 442.28 646.214C442.381 647.03 442.447 647.85 442.478 648.673L485.001 784.921Z" fill="#2F2E41"/>
<path d="M297.488 422.28C314.82 422.28 328.87 408.204 328.87 390.84C328.87 373.476 314.82 359.4 297.488 359.4C280.156 359.4 266.106 373.476 266.106 390.84C266.106 408.204 280.156 422.28 297.488 422.28Z" fill="#FFB6B6"/>
<path d="M279.09 433.629L307.864 437.02C309.078 437.163 310.217 437.682 311.122 438.504C312.027 439.326 312.654 440.411 312.915 441.607L317.491 462.585L346.016 496.239C346.016 496.239 356.259 515.481 352.418 537.288C348.577 559.095 346.889 575.298 346.889 575.298C346.889 575.298 270.37 604.042 267.809 600.193C265.248 596.345 264.417 578.865 264.417 578.865L254.174 464.698C254.174 464.698 265.697 445.457 272.099 445.457C276.231 445.317 275.701 436.001 279.09 433.629Z" fill="#7250F8"/>
<path d="M347.666 582.319C351.701 582.319 354.972 578.386 354.972 573.535C354.972 568.684 351.701 564.752 347.666 564.752C343.631 564.752 340.36 568.684 340.36 573.535C340.36 578.386 343.631 582.319 347.666 582.319Z" fill="#7250F8"/>
<path d="M460.683 810.164L482.922 798.998L487.114 808.794L515.236 814.49C516.625 814.771 517.888 815.489 518.84 816.54C519.793 817.592 520.385 818.92 520.53 820.332C520.676 821.745 520.367 823.166 519.649 824.39C518.93 825.614 517.84 826.576 516.538 827.135L489.366 838.803L480.537 831.125L482.854 841.6L472.609 846L460.683 810.164Z" fill="#2F2E41"/>
<path d="M482.452 743.847L504.492 732.291L508.854 742.012L537.072 747.211C538.466 747.467 539.741 748.164 540.712 749.198C541.683 750.232 542.298 751.55 542.468 752.959C542.639 754.369 542.355 755.796 541.658 757.032C540.961 758.268 539.888 759.249 538.596 759.831L511.633 771.977L502.67 764.455L505.171 774.888L495.005 779.467L482.452 743.847Z" fill="#2F2E41"/>
<path d="M279.558 380.979C271.268 380.992 263.176 378.434 256.394 373.657L256.167 373.498V373.221C256.176 365.187 259.366 357.484 265.037 351.803C270.708 346.122 278.396 342.926 286.416 342.917H299.152C307.172 342.926 314.86 346.122 320.531 351.803C326.202 357.484 329.392 365.187 329.401 373.221C329.392 375.06 328.667 376.823 327.381 378.135C326.094 379.446 324.347 380.203 322.512 380.243C322.512 380.243 312.222 362 299.152 362.5C286.306 362.991 280.274 380.972 280.274 380.972C280.036 380.977 279.796 380.979 279.558 380.979Z" fill="#2F2E41"/>
<path d="M331.523 367.402C335.584 365.053 336.263 358.614 333.039 353.019C329.815 347.425 323.909 344.794 319.848 347.143C315.787 349.492 315.108 355.932 318.332 361.526C321.556 367.12 327.462 369.751 331.523 367.402Z" fill="#2F2E41"/>
<path d="M268.009 361.16C272.568 356.592 273.576 350.196 270.26 346.874C266.944 343.552 260.56 344.562 256.001 349.13C251.441 353.698 250.433 360.093 253.749 363.415C257.065 366.737 263.449 365.727 268.009 361.16Z" fill="#2F2E41"/>
<path d="M545.745 648.619H514.422C513.715 648.618 513.017 648.771 512.375 649.068C511.734 649.365 511.165 649.799 510.708 650.339C509.553 650.126 508.364 650.191 507.238 650.528C506.113 650.865 505.083 651.465 504.234 652.278C503.385 653.091 502.74 654.094 502.353 655.205C501.965 656.316 501.847 657.503 502.006 658.669C502.166 659.835 502.599 660.946 503.27 661.912C503.942 662.878 504.832 663.67 505.868 664.224C506.905 664.778 508.058 665.078 509.232 665.099C510.407 665.121 511.569 664.862 512.625 664.346L515.223 672.804C515.531 673.806 516.151 674.683 516.993 675.306C517.835 675.929 518.854 676.265 519.901 676.265H540.266C541.313 676.265 542.332 675.929 543.174 675.306C544.016 674.683 544.636 673.806 544.944 672.804L550.423 654.965C550.648 654.231 550.699 653.455 550.57 652.699C550.441 651.942 550.137 651.227 549.682 650.61C549.227 649.992 548.634 649.491 547.95 649.145C547.266 648.799 546.511 648.619 545.745 648.619ZM509.387 662.974C507.979 662.974 506.63 662.414 505.634 661.417C504.639 660.42 504.08 659.067 504.08 657.657C504.08 656.247 504.639 654.895 505.634 653.898C506.63 652.901 507.979 652.341 509.387 652.341C509.484 652.341 509.574 652.364 509.67 652.369C509.459 653.225 509.484 654.122 509.744 654.965L511.985 662.264C511.196 662.723 510.3 662.968 509.387 662.974Z" fill="#2F2E41"/>
<path d="M405.874 625.536C403.735 625.735 401.578 625.461 399.556 624.734C397.534 624.007 395.696 622.844 394.171 621.328C392.646 619.813 391.472 617.981 390.73 615.961C389.988 613.941 389.698 611.783 389.879 609.639L285.4 553.547L308.252 538.889L406.823 596.157C410.399 596.7 413.651 598.538 415.965 601.324C418.278 604.109 419.491 607.648 419.374 611.269C419.257 614.89 417.818 618.343 415.33 620.973C412.841 623.602 409.477 625.226 405.874 625.536Z" fill="#FFB6B6"/>
<path d="M269.097 450.466C269.097 450.466 250.452 448.127 245.667 469.138C240.882 490.149 273.683 548.723 278.687 558.322C283.692 567.922 351.903 588.916 351.903 588.916L378.168 575.173L319.358 537.831L269.097 450.466Z" fill="#7250F8"/>
<path d="M400.511 363.651H406.879C409.975 363.651 412.945 364.884 415.134 367.077C417.324 369.271 418.554 372.246 418.554 375.348H388.836C388.836 372.246 390.066 369.271 392.255 367.077C394.445 364.884 397.414 363.651 400.511 363.651Z" fill="#EAEDF2"/>
<path d="M198.58 145.424C233.423 145.424 261.669 117.126 261.669 82.2187C261.669 47.3115 233.423 19.0137 198.58 19.0137C163.737 19.0137 135.491 47.3115 135.491 82.2187C135.491 117.126 163.737 145.424 198.58 145.424Z" fill="#4A1FF6"/>
<path d="M391.742 78.9254C375.046 61.3782 355.655 45.3705 332.699 36.9115C326.305 34.5452 319.675 32.876 312.924 31.9327C312.869 31.9253 312.818 31.9363 312.764 31.9319C312.654 31.9036 312.543 31.8817 312.431 31.8663C302.988 30.6612 293.404 31.2409 284.175 33.5753C279.662 34.71 275.259 36.2466 271.019 38.1668C266.764 40.2465 262.641 42.5873 258.674 45.1759C250.277 50.2115 241.032 53.6669 231.394 55.3715C226.557 56.244 221.657 56.7258 216.743 56.8122C212.479 56.8979 208.457 57.0463 204.417 58.5897C200.101 60.2155 196.225 62.8295 193.096 66.2229C189.968 69.6163 187.675 73.6953 186.4 78.1344C186.301 78.5297 186.331 78.946 186.484 79.3234C186.638 79.7007 186.906 80.0195 187.252 80.2337C188.345 81.0179 189.411 81.9076 190.559 82.6062C191.58 83.0746 192.671 83.3727 193.789 83.4888C195.614 83.8747 197.442 84.2493 199.273 84.6127C206.015 85.9511 212.786 87.1358 219.584 88.1669C233.341 90.2533 247.172 91.7229 261.077 92.5759C288.933 94.2663 316.885 93.4247 344.59 90.0613C360.16 88.172 375.624 85.4923 390.924 82.0325C391.233 81.9418 391.514 81.7725 391.74 81.5409C391.965 81.3093 392.126 81.0233 392.209 80.7107C392.291 80.3981 392.292 80.0694 392.21 79.7566C392.128 79.4438 391.967 79.1575 391.742 78.9254Z" fill="#CBD2E0"/>
<path d="M201.574 121.185C195.179 118.819 188.549 117.149 181.798 116.206C181.744 116.199 181.692 116.21 181.638 116.205C181.529 116.177 181.417 116.155 181.305 116.14C171.862 114.935 162.278 115.514 153.049 117.849C148.536 118.983 144.133 120.52 139.893 122.44C135.638 124.52 131.515 126.861 127.548 129.449C119.151 134.485 109.906 137.94 100.269 139.645C95.4312 140.517 90.5316 140.999 85.6171 141.086C81.3529 141.171 77.3315 141.32 73.2913 142.863C68.9756 144.489 65.099 147.103 61.9707 150.496C58.8425 153.89 56.5492 157.969 55.2739 162.408C55.1756 162.803 55.2053 163.219 55.3585 163.597C55.5118 163.974 55.7808 164.293 56.1267 164.507C57.2196 165.291 58.285 166.181 59.4332 166.88C60.4547 167.348 61.5457 167.646 62.6631 167.762C64.4887 168.148 66.3166 168.523 68.1468 168.886C74.8893 170.224 81.6599 171.409 88.4585 172.44C102.215 174.527 116.046 175.996 129.951 176.849C157.808 178.54 185.759 177.698 213.464 174.335C229.034 172.445 244.499 169.766 259.798 166.306C260.108 166.215 260.389 166.046 260.614 165.814C260.839 165.583 261.001 165.297 261.083 164.984C261.165 164.671 261.166 164.343 261.084 164.03C261.002 163.717 260.841 163.431 260.617 163.199C243.92 145.652 224.529 129.644 201.574 121.185Z" fill="#CBD2E0"/>
<path d="M656.534 592.368L608.017 528.516L569.737 550.201L650.857 646.709L656.534 592.368Z" fill="#2F2E41"/>
<path d="M768.291 488.569C769.368 515.328 773.506 541.875 780.624 567.69C779.095 571.294 810.536 628.897 808.909 632.452C802.75 645.915 824.698 611.556 817.097 624.258C795.781 659.929 819.234 673.623 817.097 717.973C814.567 770.481 825.661 782.683 822.215 785.572C738.282 798.374 635.876 664.983 631.684 634.168C631.153 630.255 630.718 626.299 630.389 622.365V622.344C629.584 612.783 629.325 603.183 629.614 593.592C629.625 592.826 629.646 592.05 629.678 591.274C630.049 581.024 630.973 570.752 632.363 560.576V560.566C632.522 559.396 632.682 558.226 632.862 557.057C633.372 553.548 633.945 550.039 634.571 546.551C638.215 526.437 643.302 506.611 649.791 487.229V487.219C649.971 486.655 650.152 486.102 650.353 485.549C651.054 483.444 651.765 481.36 652.497 479.276C652.543 479.112 652.599 478.953 652.667 478.797C653.612 476.075 654.577 473.374 655.564 470.695C655.83 469.95 656.106 469.206 656.392 468.462C657.507 465.474 658.642 462.507 659.799 459.583C660.16 458.648 660.532 457.712 660.903 456.787C661.19 456.074 661.466 455.362 661.763 454.66V454.649C663.45 450.471 665.159 446.373 666.889 442.358C671.74 431.065 676.728 420.443 681.589 410.65L681.6 410.639C701.776 370.095 720.116 343.768 720.116 343.768L788.987 366.097C780.772 380.696 774.415 402.228 770.934 427.631C768.251 447.821 767.367 468.211 768.291 488.558L768.291 488.569Z" fill="#2F2E41"/>
<path d="M653.824 481.915C653.421 480.968 652.965 480.043 652.498 479.118C650.076 474.422 646.96 470.12 643.253 466.359C642.701 465.795 642.128 465.231 641.534 464.7C635.141 458.8 627.367 454.611 618.93 452.518C610.493 450.426 601.665 450.497 593.263 452.727L593.221 452.748L592.903 452.833L592.977 453.195C593.295 454.879 593.757 456.533 594.357 458.139C594.516 458.575 594.696 458.99 594.877 459.405C594.951 459.596 595.046 459.766 595.131 459.957C595.131 459.957 595.121 459.968 595.142 459.968C595.142 459.979 595.153 459.989 595.153 460C595.354 460.393 595.545 460.797 595.758 461.18C595.322 460.766 594.908 460.34 594.505 459.904C594.112 459.5 593.752 459.075 593.391 458.65C592.154 457.204 591.036 455.661 590.047 454.035L589.878 453.748L589.58 453.865C585.575 455.255 581.755 457.13 578.203 459.447L577.821 459.702C575.109 461.486 572.053 462.679 568.851 463.202C565.65 463.726 562.374 463.57 559.236 462.743C554.29 461.466 549.133 461.232 544.092 462.058C539.051 462.883 534.236 464.75 529.954 467.539C527.117 469.392 524.552 471.632 522.333 474.195C522.142 474.419 521.951 474.652 521.76 474.876C521.357 475.365 520.975 475.865 520.603 476.375C516.613 481.717 514.164 488.055 513.524 494.696L513.503 494.94L513.704 495.079C517.295 497.545 521.357 499.239 525.634 500.055C522.947 500.431 520.227 500.499 517.525 500.257H517.514C516.289 500.155 515.07 499.985 513.863 499.747L513.641 499.704H513.63L513.354 499.651L513.396 500.161C513.713 506.658 515.754 512.953 519.308 518.397L519.414 518.546C519.453 518.6 519.489 518.657 519.52 518.716C521.026 521.023 522.279 523.487 523.256 526.063C525.738 532.466 526.284 539.459 524.827 546.171C523.179 553.349 523.727 560.859 526.4 567.721C529.073 574.583 533.747 580.479 539.814 584.641C545.143 588.314 551.352 590.498 557.804 590.968C558.684 591.042 559.576 591.085 560.468 591.085C565.571 591.101 570.622 590.047 575.295 587.991L575.464 587.927L575.507 587.735C576.405 584.83 577.668 582.05 579.264 579.463C578.742 581.502 578.478 583.599 578.479 585.704V586.406L579.084 586.055C579.604 585.747 580.134 585.417 580.612 585.109C583.479 583.234 586.075 580.972 588.328 578.389C589.209 577.368 590.101 576.379 591.035 575.39L591.045 575.38C592.86 573.445 594.781 571.552 596.776 569.744C601.022 565.925 605.564 562.451 610.362 559.356C615.156 556.272 620.168 553.542 625.359 551.189H625.369C625.953 550.913 626.547 550.647 627.131 550.392C629.716 549.265 632.204 547.928 634.571 546.394C634.656 546.341 634.73 546.298 634.805 546.245C645.065 539.515 652.608 529.355 656.091 517.575C659.574 505.794 658.771 493.157 653.824 481.915Z" fill="#4A1FF6"/>
<path opacity="0.15" d="M526.576 561.426C526.286 562.719 526.067 564.027 525.919 565.343C523.943 559.087 523.656 552.419 525.089 546.016C525.31 545.036 525.475 544.045 525.605 543.049C527.566 548.977 527.902 555.324 526.576 561.426Z" fill="black"/>
<path opacity="0.15" d="M527.379 515.301C524.235 515.738 521.047 515.753 517.899 515.346C517.074 513.789 516.362 512.174 515.769 510.514C519.274 512.883 523.224 514.512 527.379 515.301Z" fill="black"/>
<path opacity="0.15" d="M517.647 500.073C516.486 503.046 515.715 506.158 515.353 509.329C514.384 506.309 513.813 503.174 513.652 500.006L513.626 499.495L514.127 499.592C515.292 499.812 516.466 499.972 517.647 500.073Z" fill="black"/>
<path opacity="0.15" d="M530.228 467.381C534.505 464.588 539.317 462.718 544.356 461.892C549.395 461.065 554.55 461.299 559.494 462.579C562.632 463.41 565.91 463.569 569.114 463.046C572.318 462.523 575.376 461.329 578.088 459.543L578.471 459.29C582.02 456.967 585.839 455.088 589.843 453.694L590.149 453.588L590.316 453.865C591.899 456.487 593.817 458.891 596.022 461.016C594.683 458.517 593.745 455.822 593.243 453.03L593.171 452.662L593.533 452.566C601.413 450.477 609.675 450.283 617.644 452.002C625.613 453.72 633.063 457.302 639.388 462.454C645.712 467.607 650.731 474.184 654.035 481.65C657.339 489.115 658.834 497.258 658.399 505.413C656.727 498.764 653.756 492.514 649.656 487.025C645.555 481.536 640.409 476.916 634.514 473.434C628.618 469.952 622.092 467.676 615.313 466.74C608.534 465.803 601.636 466.223 595.02 467.976L594.658 468.072L594.73 468.44C595.232 471.232 596.17 473.927 597.509 476.426C595.305 474.302 593.386 471.898 591.803 469.275L591.636 468.999L591.33 469.104C587.326 470.498 583.507 472.377 579.959 474.7L579.575 474.953C576.863 476.74 573.805 477.933 570.601 478.457C567.397 478.98 564.119 478.821 560.981 477.989C552.765 475.853 544.063 476.639 536.36 480.212C528.657 483.785 522.43 489.924 518.739 497.582C517.097 496.791 515.504 495.9 513.97 494.913L513.762 494.781L513.787 494.536C514.315 489.063 516.067 483.78 518.914 479.078C521.76 474.377 525.627 470.379 530.228 467.381Z" fill="black"/>
<path d="M924.799 195.692L923.791 195.022L923.059 195.979C917.391 203.128 912.882 211.126 909.696 219.68C910.136 209.826 911.855 200.071 914.812 190.662L915.13 189.674L914.218 189.153C902.342 182.416 889.689 177.159 876.539 173.501L875.107 173.118C865.029 170.348 855.647 165.48 847.573 158.833C839.499 152.186 832.914 143.909 828.248 134.541C817.404 113.042 800.274 95.3664 779.143 83.8741C758.011 72.3819 733.884 67.6192 709.981 70.2215H709.971C709.716 70.2427 709.45 70.2746 709.196 70.3065C708.761 70.3491 708.336 70.4022 707.911 70.4554C707.041 70.5724 706.192 70.6893 705.343 70.8169C704.621 70.9233 703.889 71.0402 703.167 71.1678C702.785 71.221 702.414 71.2848 702.042 71.3592C701.671 71.423 701.289 71.4868 700.917 71.5612H700.907C693.78 72.9117 686.795 74.9229 680.04 77.5689H680.03V77.5795L678.321 78.2494C676.559 78.9725 674.811 79.738 673.078 80.5462C672.685 80.7269 672.303 80.9183 671.91 81.0991C671.804 81.1522 671.687 81.2054 671.581 81.2692C670.467 81.8009 669.363 82.3538 668.27 82.9386C668.111 83.013 667.951 83.0981 667.792 83.1832L666.773 83.7254C664.534 84.9376 662.333 86.2242 660.172 87.5853C659.991 87.6916 659.822 87.7979 659.641 87.9149C659.45 88.0425 659.248 88.1701 659.057 88.2977C658.941 88.3615 658.824 88.4465 658.707 88.521C658.378 88.723 658.06 88.9357 657.741 89.159C657.104 89.5736 656.468 89.999 655.841 90.4349C655.194 90.8709 654.557 91.3281 653.92 91.7853L653.284 92.2426L653.4 93.0294C653.506 93.678 653.602 94.3266 653.719 94.9646C653.825 95.6026 653.931 96.23 654.048 96.8573C654.228 97.91 654.43 98.952 654.632 99.9622C654.77 100.632 654.897 101.291 655.045 101.94C655.183 102.61 655.332 103.28 655.491 103.95C655.799 105.332 656.128 106.672 656.478 107.99C656.648 108.649 656.829 109.309 657.02 109.957C657.126 110.351 657.232 110.744 657.349 111.127C657.434 111.393 657.518 111.659 657.603 111.924C657.625 112.009 657.646 112.105 657.678 112.201C657.701 112.291 657.729 112.38 657.763 112.467C657.879 112.86 657.996 113.243 658.113 113.615C658.176 113.817 658.24 114.019 658.314 114.211C658.463 114.668 658.622 115.136 658.781 115.582C658.951 116.093 659.132 116.603 659.312 117.103C659.355 117.23 659.397 117.347 659.439 117.475C659.471 117.571 659.503 117.666 659.546 117.762C659.588 117.868 659.631 117.985 659.673 118.092C659.853 118.57 660.034 119.059 660.225 119.538C660.289 119.708 660.352 119.889 660.427 120.059C662.147 124.39 664.261 128.555 666.742 132.499C663.993 130.139 661.346 127.637 658.803 124.992C654.875 120.904 651.257 116.529 647.977 111.903C647.711 111.542 647.446 111.169 647.202 110.797C646.703 110.085 646.215 109.372 645.737 108.649C645.228 107.905 644.74 107.129 644.262 106.363C643.944 105.853 643.625 105.332 643.318 104.821C643.01 104.332 642.723 103.854 642.447 103.365L641.619 101.94H641.609V101.951L640.441 103.099C639.974 103.556 639.507 104.013 639.051 104.471C624.786 118.85 614.453 136.664 609.046 156.201L608.887 156.785L608.728 157.391C608.42 158.476 608.112 159.529 607.783 160.603V160.613C607.465 161.677 607.125 162.74 606.764 163.782C606.435 164.771 606.096 165.749 605.735 166.727C605.618 167.057 605.491 167.387 605.353 167.716C605.13 168.354 604.886 168.981 604.642 169.619C604.525 169.907 604.408 170.204 604.292 170.491C604.005 171.193 603.718 171.895 603.432 172.586C603.389 172.692 603.336 172.809 603.283 172.916C603.198 173.128 603.103 173.341 603.018 173.543C602.795 174.053 602.562 174.575 602.339 175.085C602.179 175.415 602.031 175.755 601.882 176.084C601.819 176.233 601.744 176.382 601.681 176.531C601.288 177.382 600.885 178.222 600.46 179.051C599.982 180.029 599.494 181.008 598.974 181.965C598.518 182.858 598.04 183.73 597.541 184.602C596.682 186.143 595.779 187.675 594.845 189.163C594.485 189.737 594.124 190.312 593.752 190.886C593.667 191.024 593.582 191.162 593.498 191.29C593.19 191.79 592.871 192.268 592.542 192.757C592.319 193.087 592.097 193.416 591.874 193.735C591.502 194.31 591.109 194.863 590.706 195.405C590.6 195.575 590.483 195.734 590.367 195.894C589.772 196.723 589.178 197.531 588.573 198.34C588.552 198.35 588.552 198.361 588.541 198.371C588.52 198.371 588.52 198.382 588.509 198.393C588.244 198.744 587.979 199.094 587.703 199.435C587.342 199.934 586.949 200.424 586.556 200.902C585.919 201.71 585.251 202.529 584.572 203.326C584.55 203.348 584.54 203.369 584.519 203.38C581.002 207.519 577.192 211.4 573.12 214.991C573.045 215.055 572.992 215.119 572.918 215.172C572.345 215.671 571.772 216.171 571.177 216.66C570.933 216.862 570.689 217.064 570.445 217.266C570.042 217.607 569.628 217.947 569.224 218.255C569.177 218.304 569.123 218.347 569.065 218.383C568.704 218.681 568.354 218.957 567.993 219.234C567.558 219.584 567.123 219.914 566.677 220.244C564.576 221.839 562.418 223.345 560.203 224.763C559.874 224.986 559.524 225.209 559.184 225.422C558.982 225.55 558.781 225.677 558.59 225.784C557.783 226.283 556.976 226.772 556.17 227.24C555.363 227.719 554.535 228.176 553.718 228.623C551.967 229.58 550.237 230.579 548.549 231.621C547.7 232.153 546.851 232.684 546.013 233.227C542.68 235.396 539.471 237.717 536.386 240.191C533.302 242.667 530.344 245.297 527.524 248.07C527.174 248.411 526.823 248.762 526.473 249.123C525.773 249.814 525.093 250.516 524.446 251.218C523.406 252.292 522.408 253.398 521.421 254.514C516.216 260.431 511.609 266.849 507.666 273.675C505.686 277.083 503.886 280.594 502.274 284.191C501.054 286.881 499.939 289.635 498.931 292.421C498.262 294.282 497.636 296.16 497.052 298.057C496.766 299.003 496.49 299.96 496.224 300.917C495.322 304.16 494.569 307.435 493.953 310.721C493.454 313.358 493.051 315.998 492.743 318.642C492.584 319.971 492.457 321.301 492.34 322.619C492.067 325.86 491.927 329.104 491.921 332.351C491.902 342.092 493.084 351.798 495.439 361.249C495.959 363.333 496.536 365.407 497.169 367.469C497.487 368.501 497.827 369.522 498.167 370.542C499.026 373.094 499.978 375.621 501.022 378.124C501.648 379.623 502.306 381.112 502.996 382.59C507.38 391.986 512.975 400.766 519.638 408.705C520.731 410.012 521.86 411.299 523.024 412.564C523.034 412.564 523.024 412.575 523.024 412.575C525.912 415.731 528.97 418.727 532.183 421.549H532.194C533.478 422.687 534.783 423.789 536.11 424.856C536.121 424.846 536.121 424.856 536.121 424.856C537.458 425.941 538.806 426.983 540.186 427.993C540.876 428.493 541.576 428.992 542.287 429.492C543.678 430.481 545.096 431.435 546.543 432.353H546.554C547.997 433.288 549.462 434.181 550.948 435.032C553.93 436.744 556.987 438.35 560.129 439.806L560.659 440.051L561.201 439.806C566.238 437.535 571.43 435.627 576.739 434.096C577.906 433.756 579.084 433.448 580.252 433.15C583.202 432.416 586.174 431.8 589.167 431.3C586.251 432.765 583.436 434.424 580.74 436.265C578.649 437.68 576.59 439.221 574.521 440.923C573.831 441.486 573.141 442.071 572.451 442.667L570.731 444.155L572.886 444.868C573.671 445.123 574.457 445.378 575.242 445.612C576.314 445.952 577.376 446.261 578.416 446.548C580.687 447.186 582.972 447.749 585.272 448.238C585.835 448.355 586.386 448.472 586.949 448.589C588.042 448.802 589.146 449.015 590.25 449.206C590.295 449.217 590.341 449.225 590.388 449.227C591.534 449.419 592.691 449.599 593.837 449.759C595.971 450.067 598.104 450.312 600.237 450.493C600.471 450.524 600.704 450.535 600.948 450.546C601.468 450.588 601.978 450.631 602.498 450.663C603.644 450.737 604.801 450.79 605.958 450.833C606.043 450.833 606.117 450.843 606.202 450.843C606.786 450.865 607.369 450.886 607.953 450.897C607.953 450.897 607.953 450.907 607.964 450.897C608.548 450.907 609.131 450.918 609.715 450.918H612.942C613.547 450.918 614.152 450.929 614.767 450.929C615.616 450.929 616.476 450.939 617.325 450.95C617.548 450.95 617.781 450.96 618.015 450.96C619.373 450.982 620.732 451.014 622.09 451.046C622.175 451.046 622.26 451.056 622.345 451.056C623.704 451.099 625.062 451.141 626.421 451.205C626.718 451.216 627.015 451.226 627.323 451.247C628.628 451.301 629.934 451.365 631.239 451.439C631.611 451.46 631.993 451.492 632.375 451.513C633.362 451.566 634.36 451.63 635.347 451.705C635.931 451.737 636.504 451.779 637.087 451.832C639.444 452.013 641.789 452.215 644.145 452.449C644.931 452.513 645.716 452.598 646.502 452.683C648.603 452.906 650.712 453.151 652.827 453.417C653.772 453.523 654.717 453.651 655.661 453.778C655.767 453.789 655.873 453.799 655.98 453.821C657.147 453.98 658.304 454.14 659.471 454.31C660.236 454.416 661 454.533 661.764 454.65C662.549 454.767 663.335 454.884 664.12 455.022C664.545 455.086 664.969 455.16 665.404 455.235C666.423 455.394 667.453 455.565 668.482 455.756C668.575 455.765 668.667 455.779 668.758 455.798C670.945 456.181 673.142 456.585 675.328 457.021C676.612 457.266 677.886 457.521 679.159 457.787C680.157 457.989 681.155 458.202 682.153 458.414C682.322 458.446 682.492 458.489 682.662 458.531C682.7 458.542 682.739 458.55 682.779 458.552C684.286 458.882 685.804 459.222 687.311 459.584C692.543 460.796 697.769 462.143 702.987 463.624C704.186 463.954 705.386 464.305 706.585 464.656C707.094 464.805 707.593 464.954 708.092 465.102C709.132 465.411 710.162 465.719 711.202 466.049C712.115 466.325 713.038 466.612 713.951 466.91C714.524 467.091 715.097 467.272 715.67 467.463C716.562 467.739 717.453 468.027 718.334 468.335C719.088 468.569 719.831 468.813 720.574 469.079C721.635 469.43 722.707 469.792 723.768 470.174C724.076 470.281 724.394 470.387 724.702 470.504C725.997 470.951 727.292 471.408 728.587 471.886C729.85 472.344 731.113 472.811 732.365 473.279C733.235 473.609 734.106 473.928 734.966 474.268C735.931 474.64 736.897 475.012 737.852 475.395C739.232 475.938 740.623 476.49 742.002 477.054C743.276 477.564 744.539 478.085 745.813 478.628C746.046 478.723 746.29 478.819 746.524 478.926C747.627 479.383 748.731 479.861 749.824 480.34C750.536 480.637 751.236 480.946 751.937 481.254C754.993 482.594 758.046 483.98 761.096 485.412H761.107C763.017 486.315 764.959 487.177 766.912 487.996C767.369 488.187 767.825 488.378 768.292 488.559C769.067 488.889 769.852 489.197 770.638 489.516C771.147 489.718 771.657 489.92 772.177 490.112C772.93 490.409 773.694 490.696 774.459 490.973C775.265 491.271 776.061 491.568 776.878 491.845C777.165 491.951 777.452 492.047 777.749 492.153C778.693 492.472 779.638 492.791 780.593 493.099C780.689 493.131 780.784 493.163 780.89 493.195C781.888 493.514 782.886 493.833 783.894 494.131C783.974 494.16 784.055 494.185 784.138 494.205C785.221 494.535 786.324 494.854 787.418 495.162C789.031 495.609 790.655 496.034 792.279 496.428C792.576 496.502 792.873 496.576 793.17 496.64C794.041 496.853 794.9 497.055 795.771 497.246C796.694 497.459 797.628 497.65 798.551 497.842C799.485 498.033 800.419 498.225 801.343 498.395C801.841 498.49 802.34 498.586 802.829 498.671L804.134 498.894C805.036 499.054 805.938 499.192 806.851 499.341C806.876 499.34 806.901 499.344 806.925 499.352C807.955 499.511 808.974 499.66 810.003 499.788C810.99 499.926 811.977 500.043 812.965 500.16C813.166 500.181 813.378 500.202 813.591 500.224C814.408 500.319 815.225 500.415 816.042 500.489C816.276 500.511 816.509 500.532 816.743 500.553C817.55 500.628 818.356 500.702 819.163 500.755C819.325 500.776 819.488 500.787 819.651 500.787C820.373 500.851 821.095 500.904 821.816 500.936C822.326 500.979 822.825 501 823.334 501.032C823.599 501.042 823.854 501.053 824.119 501.064C824.82 501.106 825.52 501.127 826.231 501.149C827.091 501.181 827.951 501.202 828.8 501.223C829.829 501.244 830.87 501.255 831.899 501.255H831.92C832.929 501.255 833.948 501.244 834.956 501.223H835.338L836.452 501.191C837.026 501.181 837.599 501.159 838.161 501.138C839.244 501.096 840.316 501.042 841.388 500.979C841.812 500.957 842.247 500.925 842.672 500.904C842.863 500.893 843.065 500.872 843.256 500.862C843.924 500.819 844.582 500.776 845.251 500.723C845.941 500.67 846.641 500.606 847.331 500.532C848.223 500.447 849.114 500.351 850.006 500.255C850.706 500.181 851.407 500.096 852.097 500.011C852.19 500.003 852.282 499.988 852.373 499.968C853.041 499.894 853.71 499.809 854.368 499.713C855.153 499.607 855.928 499.49 856.703 499.373C856.788 499.362 856.862 499.352 856.947 499.341C858.285 499.128 859.632 498.916 860.98 498.671C862.392 498.416 863.804 498.14 865.205 497.852C865.725 497.746 866.234 497.629 866.754 497.523C867.041 497.459 867.338 497.406 867.614 497.342C868.049 497.246 868.474 497.151 868.898 497.044C868.972 497.034 869.057 497.012 869.132 497.002C869.726 496.874 870.31 496.725 870.904 496.576C872.093 496.289 873.26 495.992 874.428 495.673C874.948 495.545 875.468 495.407 875.967 495.269C876.115 495.226 876.264 495.184 876.402 495.141C878.556 494.535 880.693 493.893 882.812 493.216C883.746 492.919 884.67 492.61 885.593 492.281C887.578 491.6 889.545 490.884 891.494 490.133C892.014 489.941 892.535 489.729 893.055 489.527C893.819 489.218 894.583 488.91 895.336 488.602C896.016 488.315 896.695 488.027 897.385 487.73C897.724 487.592 898.064 487.443 898.404 487.294C899.423 486.847 900.442 486.39 901.45 485.933C902.129 485.614 902.798 485.305 903.466 484.986C904.528 484.476 905.578 483.955 906.629 483.434C906.895 483.296 907.149 483.158 907.404 483.03C908.073 482.69 908.741 482.339 909.421 481.999C910.493 481.424 911.565 480.85 912.626 480.255C912.987 480.063 913.337 479.861 913.698 479.659C914.865 479 916.022 478.33 917.169 477.65C919.705 476.129 922.206 474.541 924.672 472.886C925.288 472.482 925.903 472.057 926.509 471.642C927.655 470.855 928.78 470.047 929.905 469.239C930.022 469.154 930.128 469.069 930.244 468.994C930.807 468.58 931.369 468.165 931.932 467.74C933.099 466.857 934.256 465.964 935.413 465.049C935.434 465.039 935.466 465.007 935.498 464.986C936.018 464.571 936.538 464.156 937.048 463.742C938.629 462.455 940.189 461.147 941.718 459.797C942.471 459.148 943.214 458.478 943.946 457.808C944.498 457.309 945.05 456.809 945.592 456.298C946.685 455.267 947.757 454.246 948.818 453.204C949.349 452.694 949.869 452.162 950.399 451.63C950.92 451.099 951.45 450.567 951.97 450.025C952.151 449.844 952.331 449.653 952.512 449.461C953.042 448.898 953.573 448.324 954.104 447.76C954.56 447.271 955.006 446.76 955.462 446.25C956.226 445.399 957.001 444.549 957.755 443.688C957.794 443.639 957.837 443.593 957.882 443.549C957.924 443.496 957.967 443.454 957.999 443.411H957.988C973.415 425.539 984.878 404.587 991.617 381.944C998.357 359.301 1000.22 335.482 997.082 312.063C993.944 288.645 985.878 266.161 973.418 246.099C960.957 226.038 944.385 208.856 924.799 195.692Z" fill="#4A1FF6"/>
<g opacity="0.15">
<path d="M709.973 70.2129C712.088 77.8266 715.271 85.1012 719.427 91.8192C712.47 85.8324 706.255 79.0322 700.914 71.564C703.914 70.9954 706.934 70.5451 709.973 70.2129Z" fill="black"/>
<path d="M606.408 187.96C598.553 192.255 591.208 197.428 584.514 203.378C595.816 189.989 604.077 174.297 608.722 157.391C608.779 157.188 608.835 156.983 608.89 156.78L609.048 156.205C614.631 136.027 625.463 117.697 640.436 103.089L641.614 101.939L642.444 103.36C647.034 111.179 652.527 118.43 658.81 124.962C649.183 152.177 630.45 174.826 606.408 187.96Z" fill="black"/>
<path d="M661.735 115.534L661.577 116.109C661.522 116.313 661.466 116.517 661.409 116.72C661.099 117.839 660.77 118.95 660.43 120.055C657.072 111.343 654.714 102.276 653.402 93.0301L653.278 92.2455L653.922 91.7845C661.998 85.9704 670.77 81.1932 680.033 77.5645C671.716 89.0231 665.519 101.883 661.735 115.534Z" fill="black"/>
<path d="M553.721 228.632C560.673 224.82 567.18 220.244 573.121 214.989C561.253 228.832 552.746 245.24 548.267 262.928C543.787 280.615 543.457 299.101 547.301 316.938C551.146 334.775 559.061 351.478 570.426 365.737C581.792 379.997 596.299 391.427 612.81 399.13L613.347 399.378L613.883 399.136C622.801 395.099 632.205 392.238 641.858 390.625C635.833 393.7 630.216 397.52 625.14 401.996L623.423 403.483L625.577 404.195C627.437 404.812 629.297 405.378 631.104 405.881C641.726 408.845 652.708 410.317 663.734 410.255C713.831 409.933 764.318 421.537 813.79 444.742C822.274 448.716 831.074 451.974 840.099 454.484C879.427 465.454 921.413 461.508 958.018 443.401C937.38 467.313 910.395 484.869 880.196 494.03C849.997 503.191 817.823 503.581 787.412 495.155C778.387 492.646 769.587 489.387 761.103 485.414C711.631 462.208 661.144 450.605 611.047 450.926C600.021 450.989 589.039 449.517 578.417 446.553C576.61 446.05 574.75 445.483 572.89 444.867L570.736 444.155L572.453 442.667C577.529 438.192 583.146 434.372 589.171 431.297C579.518 432.91 570.114 435.771 561.196 439.808L560.66 440.05L560.123 439.802C540.295 430.555 523.421 415.971 511.384 397.676C499.348 379.381 492.622 358.095 491.958 336.194C491.294 314.292 496.718 292.637 507.624 273.644C518.53 254.65 534.489 239.067 553.721 228.632Z" fill="black"/>
</g>
</svg>
