<svg width="20" height="20" viewBox="0 0 20 20" fill="none" xmlns="http://www.w3.org/2000/svg">
<path d="M12.8327 14.9585C12.4577 14.9724 12.1 14.9828 11.7598 14.9897C11.4195 14.9967 11.1174 15.0002 10.8535 15.0002H9.99935C9.01324 15.0002 8.08963 14.9863 7.22852 14.9585C6.4924 14.9307 5.76671 14.8925 5.05143 14.8439C4.33615 14.7953 3.81879 14.7293 3.49935 14.646C3.13824 14.5488 2.82574 14.3682 2.56185 14.1043C2.29796 13.8404 2.1174 13.5279 2.02018 13.1668C1.93685 12.8474 1.87088 12.4585 1.82227 12.0002C1.77365 11.5418 1.73546 11.1043 1.70768 10.6877C1.6799 10.1877 1.66602 9.68072 1.66602 9.16683C1.66602 8.65294 1.6799 8.146 1.70768 7.646C1.73546 7.22933 1.77365 6.79183 1.82227 6.3335C1.87088 5.87516 1.93685 5.48627 2.02018 5.16683C2.1174 4.80572 2.29796 4.49322 2.56185 4.22933C2.82574 3.96544 3.13824 3.78489 3.49935 3.68766C3.81879 3.60433 4.33615 3.53836 5.05143 3.48975C5.76671 3.44113 6.4924 3.40294 7.22852 3.37516C8.08963 3.34739 9.01324 3.3335 9.99935 3.3335C10.9855 3.3335 11.9091 3.34739 12.7702 3.37516C13.5063 3.40294 14.232 3.44113 14.9473 3.48975C15.6625 3.53836 16.1799 3.60433 16.4993 3.68766C16.8605 3.78489 17.173 3.96544 17.4368 4.22933C17.7007 4.49322 17.8813 4.80572 17.9785 5.16683C18.0618 5.48627 18.1278 5.87516 18.1764 6.3335C18.225 6.79183 18.2632 7.22933 18.291 7.646C18.3188 8.146 18.3327 8.65294 18.3327 9.16683V9.521C18.0688 9.40988 17.798 9.32308 17.5202 9.26058C17.2424 9.19808 16.9577 9.16683 16.666 9.16683C15.5132 9.16683 14.5306 9.57308 13.7181 10.3856C12.9056 11.1981 12.4993 12.1807 12.4993 13.3335C12.4993 13.6252 12.5271 13.9064 12.5827 14.1772C12.6382 14.4481 12.7216 14.7085 12.8327 14.9585ZM8.33268 11.6668L12.666 9.16683L8.33268 6.66683V11.6668ZM15.8327 15.8335V14.1668H14.166V12.5002H15.8327V10.8335H17.4993V12.5002H19.166V14.1668H17.4993V15.8335H15.8327Z" fill="#EAEDF2"/>
</svg>
