<svg width="150" height="32" viewBox="0 0 150 32" fill="none" xmlns="http://www.w3.org/2000/svg">
<path d="M33.4008 10.9849C36.9124 8.95744 41.4026 10.1606 43.4301 13.6722L30.7117 21.0151C27.2001 23.0426 22.7098 21.8394 20.6824 18.3278L33.4008 10.9849Z" fill="#4A1FF6"/>
<path d="M20.696 10.9849C17.1844 8.95744 12.6941 10.1606 10.6667 13.6722L23.3833 21.0141C26.8949 23.0415 31.3851 21.8384 33.4125 18.3268L20.696 10.9849Z" fill="#7250F8"/>
<path d="M53.1726 8.45863C52.6728 8.45863 52.254 8.29758 51.9163 7.97548C51.5922 7.63938 51.4301 7.22625 51.4301 6.73609C51.4301 6.24594 51.5922 5.83981 51.9163 5.51771C52.254 5.1816 52.6728 5.01355 53.1726 5.01355C53.6724 5.01355 54.0844 5.1816 54.4086 5.51771C54.7463 5.83981 54.9151 6.24594 54.9151 6.73609C54.9151 7.22625 54.7463 7.63938 54.4086 7.97548C54.0844 8.29758 53.6724 8.45863 53.1726 8.45863ZM51.734 9.84507C53.3006 9.84507 54.5707 11.1151 54.5707 12.6818V21.4827C53.004 21.4827 51.734 20.2127 51.734 18.646V9.84507Z" fill="black"/>
<path d="M63.5938 9.67702C64.9311 9.67702 66.0117 10.1182 66.8357 11.0004C67.6597 11.8687 68.0717 13.0871 68.0717 14.6556V21.4827H65.235V15.0547C65.235 14.1304 65.0122 13.4232 64.5664 12.933C64.1206 12.4289 63.5128 12.1768 62.7428 12.1768C61.9593 12.1768 61.338 12.4289 60.8787 12.933C60.4329 13.4232 60.21 14.1304 60.21 15.0547V21.4827H57.3733V9.84507H60.21V11.2945C60.5883 10.7904 61.0678 10.3982 61.6486 10.1182C62.243 9.82406 62.8914 9.67702 63.5938 9.67702Z" fill="black"/>
<path d="M75.9159 10.2954C75.9159 11.3809 75.0359 12.2608 73.9504 12.2608V21.4827H71.0732V12.2608H69.7967V9.84507H71.0732V9.25689C71.0732 7.82844 71.4649 6.77811 72.2484 6.10589C73.0319 5.43368 74.2138 5.11858 75.7943 5.1606V6.39999V7.63938C75.1054 7.62537 74.6258 7.74441 74.3557 7.99649C74.0855 8.24857 73.9504 8.70371 73.9504 9.36192V9.84507H75.9159V10.2954Z" fill="black"/>
<path d="M77.7542 5.93784C79.3208 5.93784 80.5909 7.20787 80.5909 8.77454V21.4827C79.0242 21.4827 77.7542 20.2127 77.7542 18.646V5.93784Z" fill="black"/>
<path d="M93.9906 9.84507V21.4827H91.1336V20.0123C90.7689 20.5164 90.2894 20.9156 89.695 21.2096C89.1142 21.4897 88.4793 21.6298 87.7904 21.6298C86.9124 21.6298 86.1357 21.4407 85.4603 21.0626C84.7848 20.6705 84.2513 20.1033 83.8595 19.3611C83.4813 18.6048 83.2922 17.7085 83.2922 16.6722V9.84507H86.1289V16.2521C86.1289 17.1764 86.3518 17.8906 86.7975 18.3948C87.2433 18.8849 87.8512 19.13 88.6211 19.13C89.4046 19.13 90.0192 18.8849 90.465 18.3948C90.9108 17.8906 91.1336 17.1764 91.1336 16.2521V9.84507H93.9906Z" fill="black"/>
<path d="M107.224 15.4118C107.224 15.832 107.197 16.2101 107.143 16.5462H98.9372C99.0048 17.3864 99.2884 18.0447 99.7882 18.5208C100.288 18.997 100.903 19.235 101.632 19.235C102.686 19.235 103.435 18.7659 103.881 17.8276H106.941C106.617 18.9479 105.995 19.8722 105.077 20.6005C104.158 21.3147 103.03 21.6718 101.693 21.6718C100.612 21.6718 99.6396 21.4267 98.7751 20.9366C97.9241 20.4324 97.2555 19.7252 96.7692 18.8149C96.2964 17.9046 96.06 16.8543 96.06 15.6639C96.06 14.4595 96.2964 13.4022 96.7692 12.4919C97.242 11.5816 97.9039 10.8814 98.7549 10.3912C99.6059 9.90109 100.585 9.65601 101.693 9.65601C102.76 9.65601 103.712 9.89409 104.55 10.3702C105.401 10.8464 106.056 11.5256 106.515 12.4079C106.988 13.2762 107.224 14.2775 107.224 15.4118ZM104.286 14.5716C104.273 13.8153 104.01 13.2131 103.496 12.765C102.983 12.3028 102.355 12.0718 101.612 12.0718C100.909 12.0718 100.315 12.2958 99.8288 12.744C99.356 13.1781 99.0656 13.7873 98.9575 14.5716H104.286Z" fill="black"/>
<path d="M115.515 9.67702C116.853 9.67702 117.933 10.1182 118.757 11.0004C119.581 11.8687 119.993 13.0871 119.993 14.6556V21.4827H117.157V15.0547C117.157 14.1304 116.934 13.4232 116.488 12.933C116.042 12.4289 115.434 12.1768 114.664 12.1768C113.881 12.1768 113.26 12.4289 112.8 12.933C112.355 13.4232 112.132 14.1304 112.132 15.0547V21.4827H109.295V9.84507H112.132V11.2945C112.51 10.7904 112.989 10.3982 113.57 10.1182C114.165 9.82406 114.813 9.67702 115.515 9.67702Z" fill="black"/>
<path d="M122.691 5.93784C124.258 5.93784 125.528 7.20787 125.528 8.77454V21.4827C123.961 21.4827 122.691 20.2127 122.691 18.646V5.93784Z" fill="black"/>
<path d="M139.069 9.84507L132.119 26.9865H129.1L131.532 21.1886L127.033 9.84507H130.215L133.112 17.9746L136.05 9.84507H139.069Z" fill="black"/>
</svg>
