<svg width="66" height="18" viewBox="0 0 66 18" fill="none" xmlns="http://www.w3.org/2000/svg">
<path d="M1.30691 3.34397C0.932057 3.34397 0.617994 3.22318 0.364718 2.9816C0.121573 2.72952 0 2.41968 0 2.05206C0 1.68445 0.121573 1.37985 0.364718 1.13827C0.617994 0.886194 0.932057 0.760155 1.30691 0.760155C1.68175 0.760155 1.99075 0.886194 2.2339 1.13827C2.48717 1.37985 2.61381 1.68445 2.61381 2.05206C2.61381 2.41968 2.48717 2.72952 2.2339 2.9816C1.99075 3.22318 1.68175 3.34397 1.30691 3.34397ZM0.227949 4.3838C1.40295 4.3838 2.35547 5.33632 2.35547 6.51132V13.112C1.18047 13.112 0.227949 12.1595 0.227949 10.9845V4.3838Z" fill="white"/>
<path d="M9.12281 4.25776C10.1258 4.25776 10.9363 4.58861 11.5543 5.25032C12.1723 5.90152 12.4813 6.81531 12.4813 7.99168V13.112H10.3537V8.29103C10.3537 7.59781 10.1866 7.06739 9.85225 6.69977C9.51792 6.32166 9.06203 6.1326 8.48456 6.1326C7.89696 6.1326 7.43093 6.32166 7.08647 6.69977C6.75215 7.06739 6.58498 7.59781 6.58498 8.29103V13.112H4.45746V4.3838H6.58498V5.47089C6.86865 5.09277 7.22831 4.79868 7.66394 4.58861C8.10971 4.36804 8.596 4.25776 9.12281 4.25776Z" fill="white"/>
<path d="M18.3643 4.72155C18.3643 5.53565 17.7044 6.19562 16.8903 6.19562V13.112H14.7324V6.19562H13.775V4.3838H14.7324V3.94266C14.7324 2.87132 15.0262 2.08357 15.6138 1.57941C16.2014 1.07525 17.0878 0.83893 18.2732 0.87044V1.79998V2.72952C17.7565 2.71902 17.3968 2.8083 17.1942 2.99736C16.9916 3.18642 16.8903 3.52778 16.8903 4.02143V4.3838H18.3643V4.72155Z" fill="white"/>
<path d="M19.7431 1.45337C20.9181 1.45337 21.8706 2.4059 21.8706 3.58089V13.112C20.6956 13.112 19.7431 12.1595 19.7431 10.9845V1.45337Z" fill="white"/>
<path d="M31.9204 4.3838V13.112H29.7777V12.0092C29.5041 12.3873 29.1445 12.6867 28.6987 12.9072C28.2631 13.1173 27.7869 13.2223 27.2703 13.2223C26.6117 13.2223 26.0292 13.0805 25.5226 12.7969C25.0161 12.5029 24.6159 12.0775 24.3221 11.5208C24.0384 10.9536 23.8966 10.2814 23.8966 9.50416V4.3838H26.0241V9.18906C26.0241 9.88228 26.1913 10.4179 26.5256 10.7961C26.8599 11.1637 27.3158 11.3475 27.8933 11.3475C28.4809 11.3475 28.9419 11.1637 29.2762 10.7961C29.6105 10.4179 29.7777 9.88228 29.7777 9.18906V4.3838H31.9204Z" fill="white"/>
<path d="M41.8458 8.55886C41.8458 8.87396 41.8255 9.15755 41.785 9.40963H35.6304C35.681 10.0398 35.8938 10.5335 36.2686 10.8906C36.6435 11.2477 37.1045 11.4263 37.6515 11.4263C38.4417 11.4263 39.004 11.0744 39.3383 10.3707H41.633C41.3899 11.2109 40.9239 11.9042 40.2349 12.4503C39.546 12.986 38.7001 13.2538 37.6971 13.2538C36.8866 13.2538 36.1572 13.07 35.5088 12.7024C34.8706 12.3243 34.3691 11.7939 34.0043 11.1112C33.6498 10.4284 33.4725 9.6407 33.4725 8.74792C33.4725 7.84463 33.6498 7.05163 34.0043 6.36892C34.3589 5.6862 34.8554 5.16104 35.4936 4.79342C36.1319 4.42581 36.8664 4.242 37.6971 4.242C38.4975 4.242 39.2117 4.42056 39.8398 4.77767C40.4781 5.13478 40.9694 5.64419 41.3139 6.3059C41.6685 6.95711 41.8458 7.70809 41.8458 8.55886ZM39.6423 7.92866C39.6321 7.36148 39.4346 6.90984 39.0496 6.57373C38.6646 6.22713 38.1935 6.05382 37.6363 6.05382C37.1095 6.05382 36.6637 6.22187 36.299 6.55798C35.9444 6.88358 35.7266 7.34048 35.6456 7.92866H39.6423Z" fill="white"/>
<path d="M48.064 4.25776C49.067 4.25776 49.8775 4.58861 50.4955 5.25032C51.1135 5.90152 51.4225 6.81531 51.4225 7.99168V13.112H49.295V8.29103C49.295 7.59781 49.1278 7.06739 48.7935 6.69977C48.4591 6.32166 48.0032 6.1326 47.4258 6.1326C46.8382 6.1326 46.3721 6.32166 46.0277 6.69977C45.6934 7.06739 45.5262 7.59781 45.5262 8.29103V13.112H43.3987V4.3838H45.5262V5.47089C45.8099 5.09277 46.1695 4.79868 46.6052 4.58861C47.0509 4.36804 47.5372 4.25776 48.064 4.25776Z" fill="white"/>
<path d="M53.4456 1.45337C54.6206 1.45337 55.5732 2.4059 55.5732 3.58089V13.112C54.3982 13.112 53.4456 12.1595 53.4456 10.9845V1.45337Z" fill="white"/>
<path d="M65.7293 4.3838L60.5169 17.2398H58.2526L60.0762 12.8915L56.7026 4.3838H59.0884L61.2615 10.481L63.465 4.3838H65.7293Z" fill="white"/>
</svg>
