<svg width="158" height="158" viewBox="0 0 158 158" fill="none" xmlns="http://www.w3.org/2000/svg">
<path fill-rule="evenodd" clip-rule="evenodd" d="M142.792 206.4C146.264 206.244 144.868 200.567 144.619 198.483C141.87 190.869 142.516 182.562 141.435 174.582C140.761 167.132 139.896 159.705 139.168 152.261C137.738 137.15 127.472 106.388 115.756 101.441C114.28 95.388 108.184 89.7381 100.472 89.7381C95.2116 83.9184 88.8802 79.8227 80.7595 80.6496C77.4036 80.7924 74.1491 84.119 70.9335 84.7614C69.133 84.9935 53.1549 84.3962 49.9542 86.1729C47.7247 87.2428 45.7121 89.22 46.3676 91.7372C47.4136 94.7868 44.1632 91.487 37.3826 94.7419C23.5561 102.503 31.8182 112.886 32.1844 113.208C23.5561 124.428 16.0146 133.531 12.5252 147.246C10.2638 157.428 10.5183 167.939 8.62354 178.173C7.95452 181.722 6.92818 185.149 5.81758 188.595C4.61391 193.105 4.02864 204.346 3.36519 204.446C2.15668 204.727 4.06364 207.046 5.3442 207.048C40.8475 212.552 76.9103 207.276 112.604 206.414C122.664 206.087 132.734 206.011 142.792 206.4Z" fill="white"/>
<path fill-rule="evenodd" clip-rule="evenodd" d="M88.9817 114.198C88.9982 114.047 89.2174 114.047 89.2343 114.198L89.4849 116.46C89.7899 119.222 90.0835 121.979 90.2964 124.754C90.5617 128.215 90.7392 131.674 90.8247 135.142C91.1229 147.221 91.1822 159.307 91.2074 171.389C92.9556 171.276 94.7039 171.167 96.4532 171.061C97.64 170.99 98.8268 170.921 100.014 170.853L103.04 170.682L104.286 170.61C105.129 170.562 106.085 170.364 106.674 171.061C106.91 171.34 107.028 171.702 106.808 172.034C106.301 172.798 105.523 172.771 104.642 172.804C103.812 172.836 102.981 172.866 102.15 172.896C100.37 172.961 98.5901 173.022 96.8094 173.069C94.9407 173.118 93.0729 173.157 91.2049 173.187C91.186 178.288 90.9602 183.382 90.716 188.477L90.6056 190.77C90.3068 196.97 89.9854 203.176 89.5289 209.368C89.4914 209.875 88.7241 209.874 88.6869 209.368C88.1727 202.395 87.8335 195.406 87.4972 188.424C87.2533 183.361 87.1113 178.297 87.0438 173.232C86.7968 173.234 86.5499 173.237 86.3031 173.238C79.2919 173.266 72.2824 173.295 65.2712 173.233C65.2829 173.246 65.2944 173.259 65.3021 173.276C65.8094 174.396 65.8578 175.825 65.8454 177.026C65.8312 178.404 65.6327 179.765 65.2931 181.105C64.0766 185.905 60.9389 190.205 57.3652 193.759L57.2485 193.875C56.4056 194.707 55.4385 195.544 54.921 196.604C54.3923 197.687 54.2088 198.953 53.9479 200.117L53.9174 200.25L52.8974 204.654C52.5733 206.053 52.4813 208.093 51.2967 209.102C50.1915 210.043 48.7273 209.552 48.2072 208.339C47.8011 207.393 48.2056 206.354 48.4462 205.408L50.3309 198.003C50.6406 196.796 50.979 195.58 51.6474 194.495C52.332 193.384 53.3357 192.579 54.3599 191.755C56.2993 190.194 58.0796 188.408 59.5853 186.473C61.0904 184.54 62.3767 182.408 63.2787 180.167C63.7303 179.045 64.1004 177.879 64.3557 176.704C64.5984 175.589 64.5962 174.434 64.8558 173.331C64.8736 173.255 64.9424 173.203 65.0213 173.179C65.0026 173.13 65.0312 173.064 65.1048 173.059L70.8389 172.715C75.9359 172.408 81.0326 172.092 86.1251 171.732L87.0249 171.672C86.9551 164.914 87.0143 158.155 87.1449 151.395C87.2646 145.196 87.2671 138.995 87.4644 132.797C87.5625 129.72 87.7739 126.651 88.0092 123.581C88.25 120.442 88.6353 117.329 88.9817 114.198ZM35.1417 150.143C35.0806 149.798 35.5439 149.585 35.7575 149.9C38.1992 153.497 39.3764 157.404 39.8726 161.613C40.311 165.328 40.1818 169.097 39.9635 172.822C39.7307 176.795 39.459 180.766 39.1844 184.737L38.7623 190.826L37.7033 206.091C37.6275 207.183 37.3623 208.175 36.3565 208.683C36.2291 208.782 36.0963 208.872 35.9417 208.949C35.3982 209.22 34.6775 209.083 34.3633 208.562L34.4892 208.639C34.599 208.704 34.4757 208.614 34.1195 208.369L33.8171 208.004C33.5974 207.695 33.4571 207.392 33.4007 207.025C33.313 206.455 33.4266 205.829 33.4664 205.256L34.1606 195.247C34.7005 187.465 35.3309 179.686 35.806 171.9C36.0274 168.272 36.1824 164.64 36.0775 161.005C35.9729 157.39 35.7758 153.714 35.1417 150.143ZM56.264 83.1365L56.3994 83.1153C61.2491 82.3624 66.5226 82.5032 70.9548 84.6883C70.9914 84.7062 70.9747 84.7632 70.9335 84.7615L69.507 84.7082C64.9907 84.5429 60.4885 84.4451 56.0479 85.4368L55.5933 85.5392C53.9941 85.9038 52.3241 86.3501 51.0396 87.3372C49.8118 88.2809 49.2005 89.7365 48.6127 91.0766L48.534 91.2535C47.9376 92.577 47.1827 93.8322 45.8755 94.6599C44.1823 95.7316 42.1459 95.6003 40.2045 95.7459C36.7861 96.0026 33.9912 98.3181 32.6007 101.152C31.7587 102.867 31.3996 104.791 31.3284 106.667C31.292 107.622 31.2868 108.615 31.4229 109.564C31.4664 109.867 31.8678 110.973 32.0724 110.946C32.5271 110.887 32.9428 111.109 33.0845 111.448C34.2077 110.434 35.3632 109.449 36.5559 108.5C39.529 106.133 42.7312 103.989 46.1036 102.146C48.6775 100.739 51.3924 99.3453 54.2037 98.2916C53.981 98.2873 53.7613 98.3286 53.5487 98.4318C53.4557 98.4773 53.3632 98.3682 53.4366 98.296C54.3221 97.4252 55.3828 97.3013 56.4521 97.5335C56.6802 97.4657 56.9086 97.4 57.1378 97.3377C57.2519 97.3066 57.3087 97.4536 57.2156 97.5103L56.9529 97.6672C58.1194 98.0324 59.2647 98.7502 60.1714 99.3167C62.776 100.944 65.0685 102.933 67.3924 104.884L67.815 105.238C69.8606 106.945 71.9583 108.604 74.2824 109.974C75.499 110.69 76.7769 111.353 78.1172 111.847C79.2668 112.27 81.1386 112.536 81.677 113.672C82.1556 114.215 81.9557 114.909 81.3952 115.275C80.4498 116.247 78.5588 115.619 77.4324 115.214C76.0744 114.725 74.7589 114.139 73.5042 113.45C71.0683 112.114 68.8223 110.452 66.7301 108.684C64.545 106.838 62.4839 104.876 60.3586 102.972C59.4377 102.147 58.5382 101.303 57.6159 100.479L57.1527 100.069C56.682 99.6561 56.0114 99.013 55.2944 98.6237C53.9436 99.3768 52.572 100.099 51.2334 100.871C49.3649 101.95 47.5513 103.106 45.7657 104.3C42.3283 106.599 39.0709 109.174 36.0468 111.933C30.5006 116.995 25.7754 122.774 21.6476 128.894L21.3341 129.36C18.9885 132.863 16.7702 136.479 15.1974 140.349C13.4668 144.608 12.6252 149.087 12.168 153.608C11.7142 158.096 11.5611 162.608 11.054 167.092C10.5339 171.691 9.50914 176.189 8.34356 180.678L8.06558 181.743C7.01092 185.763 5.92236 189.784 5.38022 193.899C5.0908 196.098 4.91672 198.326 4.95607 200.542C4.99559 202.771 5.37034 204.951 5.67269 207.156C5.78857 208.001 4.89894 208.706 4.1029 208.818C3.1874 208.947 2.40089 208.401 2.11632 207.606C1.22921 205.128 1.06806 202.389 1.09591 199.788C1.12393 197.148 1.48449 194.525 1.99183 191.93C2.98961 186.826 4.52939 181.827 5.81749 176.784C6.9527 172.339 7.7146 167.886 8.12529 163.333C8.5516 158.608 8.80688 153.868 9.58459 149.178C10.3522 144.548 11.7966 140.125 13.9749 135.903C15.9582 132.059 18.4306 128.44 21.0226 124.933C24.1703 120.674 27.6273 116.622 31.4916 112.929C31.1445 112.915 30.7881 112.811 30.4607 112.62C29.4594 112.036 28.993 110.894 28.8496 109.851C28.514 107.412 28.5951 104.866 29.2662 102.481C30.349 98.6335 33.1591 95.2151 37.2318 93.8284C38.28 93.4714 39.3944 93.3411 40.5054 93.3154C41.5596 93.2909 42.7109 93.4193 43.7281 93.107C45.3472 92.6096 46.0412 90.8273 46.6491 89.4763L46.6771 89.4143C47.4566 87.6927 48.3922 86.2171 50.0806 85.1421C51.8819 83.995 54.1388 83.4733 56.264 83.1365ZM102.344 89.9449C103.801 89.4724 105.623 89.9013 107.048 90.314C108.636 90.7741 110.103 91.6214 111.361 92.6277C112.688 93.6889 113.785 94.9992 114.56 96.4631L114.634 96.6041C115.342 97.962 116.148 99.8262 115.791 101.318C115.781 101.36 115.769 101.401 115.756 101.44C118.647 102.771 121.318 104.437 123.643 106.549C126.351 109.008 128.643 111.807 130.584 114.83C138.29 126.837 139.646 141.257 140.556 154.95L140.783 158.422C141.277 165.919 141.855 173.398 143.358 180.792L143.467 181.325C145.073 189.067 147.372 196.867 147.139 204.808C147.069 207.187 143.307 207.171 143.198 204.808C142.787 195.913 140.566 187.325 139.062 178.569C136.416 163.165 137.742 147.284 133.993 132.034C132.522 126.049 130.242 120.244 126.988 114.902C125.38 112.263 123.54 109.713 121.386 107.436C119.532 105.477 117.605 103.592 115.439 101.945C114.746 102.593 113.363 102.263 113.002 101.318C112.753 100.669 112.826 99.9095 112.667 99.2293C112.519 98.5981 112.315 97.9723 112.043 97.3779C111.502 96.1933 110.707 95.0557 109.789 94.0969C108.798 93.0605 107.659 92.1995 106.384 91.4886C105.101 90.7727 103.697 90.559 102.344 90.0359C102.298 90.0183 102.294 89.9612 102.344 89.9449ZM108.006 172.271C108.008 172.209 108.087 172.179 108.135 172.221C108.646 172.66 108.955 173.291 109.331 173.832C109.765 174.455 110.22 175.065 110.698 175.66C111.655 176.852 112.72 177.975 113.793 179.075C114.792 180.098 115.856 181.078 116.96 182.002C118.156 183.003 119.497 183.897 120.583 185.005C122.851 187.318 123.217 190.493 123.696 193.474L123.748 193.796C124.04 195.566 124.301 197.339 124.537 199.116C124.651 199.98 124.766 200.845 124.859 201.711L124.888 201.985C124.971 202.833 124.993 203.694 124.472 204.435C123.915 205.228 122.646 205.505 121.892 204.745C120.597 203.439 120.84 201.12 120.671 199.44C120.532 198.051 120.374 196.663 120.197 195.278L120.107 194.585C119.899 193.009 119.73 191.402 119.344 189.853C119.004 188.49 118.356 187.46 117.293 186.472C116.222 185.477 115.109 184.548 114.12 183.476C113.072 182.34 112.126 181.121 111.273 179.849C110.544 178.76 109.96 177.576 109.425 176.394L109.336 176.197C108.819 175.043 107.966 173.542 108.006 172.271ZM126.71 122.73C126.721 122.569 126.975 122.566 126.979 122.73C127.011 124.113 127.042 125.497 127.073 126.881C127.32 138.03 127.168 149.206 128.365 160.318C128.929 165.557 129.969 170.719 131.171 175.859C131.787 178.49 132.433 181.114 133.046 183.744C133.644 186.308 134.285 188.884 134.759 191.472C135.225 194.015 135.643 196.578 135.83 199.154L135.853 199.49C135.934 200.738 136.319 202.573 135.584 203.679C134.787 204.878 133.262 204.899 132.409 203.755C131.607 202.681 131.806 200.771 131.665 199.49C131.521 198.185 131.369 196.879 131.196 195.577C130.859 193.037 130.415 190.502 129.952 187.98C128.99 182.726 127.594 177.539 126.564 172.293C125.508 166.919 124.757 161.506 124.726 156.033C124.694 150.515 125.319 145.007 125.635 139.5C125.955 133.907 126.32 128.319 126.71 122.73ZM70.3568 88.0504C70.6772 87.0424 71.8075 86.4122 72.9102 86.6953C73.9207 86.9549 74.7551 88.1012 74.36 89.082C73.9288 90.1523 73.1754 91.0649 72.5401 92.0376C71.9534 92.9364 71.0975 93.6442 70.4998 94.527L71.1585 95.1907C71.488 95.5218 71.8185 95.8509 72.1526 96.1742L73.3014 97.2865C74.1961 98.1508 75.0964 99.0106 76.0221 99.845C78.7442 102.299 81.5094 104.672 84.5579 106.774C85.2519 107.252 85.9512 107.728 86.6702 108.173L86.9383 108.339C87.4315 108.641 87.9819 108.938 88.5777 108.886C90.0257 108.762 91.3339 107.325 92.3289 106.431L92.381 106.384C94.8467 104.191 97.1298 101.794 99.1259 99.216C99.5691 98.6432 99.9983 98.0607 100.416 97.4714C99.4511 96.4177 99.6816 94.361 99.6284 93.0832C99.5909 92.1847 99.588 91.286 99.5828 90.3868L99.5802 90.2055C99.5684 89.6235 99.5403 89.0654 99.9444 88.5865C99.968 88.5588 100.017 88.5596 100.047 88.5742C100.6 88.8453 100.771 89.2992 101.007 89.8083L101.031 89.8611C101.319 90.4721 101.594 91.0889 101.873 91.7034C102.164 92.3469 102.432 92.9997 102.702 93.6509C102.829 93.9538 102.949 94.2579 103.067 94.5636C103.138 94.7589 103.212 94.9532 103.289 95.1471L103.307 95.1621C103.407 95.2418 103.493 95.3261 103.566 95.4131C103.875 95.5575 104.12 95.8206 104.235 96.2072C104.486 97.0486 103.967 97.7346 103.505 98.4024C101.626 101.116 99.4834 103.702 97.1024 106.047C95.9195 107.212 94.6754 108.325 93.3802 109.381L93.1537 109.564C91.9902 110.499 90.7269 111.384 89.1729 111.603C87.3544 111.859 85.8744 111.013 84.4823 110.04L84.3434 109.942C83.0237 109.008 81.7305 108.042 80.4776 107.031C77.9232 104.969 75.493 102.756 73.3363 100.328C71.2384 97.966 69.1647 95.3251 67.8715 92.4832C67.7927 92.3101 68 92.1289 68.1624 92.2735C68.7941 92.8355 69.4018 93.4281 70.0024 94.0282C70.0191 93.1448 69.8447 92.2538 69.9417 91.3649C70.0601 90.2844 70.0259 89.0907 70.3568 88.0504Z" fill="black"/>
<path fill-rule="evenodd" clip-rule="evenodd" d="M113.387 46.8063C111.761 40.3999 108.206 34.438 102.515 29.6198C85.3891 13.7948 53.9389 22.3843 54.0813 46.2314C53.4671 49.0167 53.2177 51.8806 53.4211 54.7212C53.5052 55.9332 54.0664 57.6245 53.3124 58.7153C51.6117 60.7559 50.6232 62.2601 51.2021 64.9745C51.6857 67.3446 53.4114 69.0237 55.7404 69.9163C57.1372 70.2909 58.4625 71.107 58.9799 72.3509C62.0889 77.671 64.3922 82.0961 69.2936 85.7218C70.5584 86.6553 83.5302 92.2538 87.8043 92.2538C100.317 92.2538 116.088 88.0174 116.35 74.9538C116.395 72.0846 115.856 69.1819 115.518 66.3353C114.696 59.8391 114.986 53.1077 113.387 46.8063Z" fill="white"/>
<path fill-rule="evenodd" clip-rule="evenodd" d="M113.105 43.602C113.109 43.5227 113.23 43.5049 113.254 43.5832C113.719 45.1254 113.983 46.6966 114.346 48.2629C114.697 49.7715 115.028 51.2846 115.303 52.8065C115.822 55.6789 116.26 58.5587 116.667 61.4461L116.768 62.1681C117.475 67.2486 118.644 72.5413 117.622 77.6516C116.75 82.0121 113.827 85.5264 110.06 88.103C106.493 90.5426 102.168 92.1082 97.8745 92.9983C93.2657 93.9539 87.8029 94.239 84.053 91.0803C82.5519 89.8154 84.5983 87.3058 86.2268 88.4473C90.0508 91.1269 94.9155 90.337 99.2305 89.2707L99.3611 89.2383C103.148 88.2955 106.961 86.8664 109.967 84.4555C113.291 81.7899 114.935 78.0905 115.125 74.0331C115.231 71.7535 115.004 69.4765 114.759 67.2104L114.731 66.9586C114.45 64.3671 114.155 61.7767 113.882 59.1842C113.633 56.8201 113.419 54.4422 113.305 52.0676L113.253 50.8699C113.142 48.4551 112.994 46.0051 113.105 43.602ZM68.2565 23.5378C74.4793 20.5099 81.6308 19.4261 88.556 20.4423C95.2135 21.4193 101.323 24.6301 105.89 29.234C108.12 31.4819 110.099 34.082 111.364 36.9225C111.992 38.3337 112.484 39.8057 112.746 41.3176C112.881 42.0949 113.013 42.9002 113.038 43.6882C113.062 44.4178 112.832 45.102 112.859 45.8437C112.864 45.9597 112.673 45.982 112.644 45.8709C112.428 45.0439 111.907 44.4186 111.58 43.6331C111.336 43.0466 111.058 42.474 110.776 41.9031L110.534 41.414C109.83 39.9923 108.989 38.629 108.156 37.2706C106.48 34.5347 104.33 32.0482 101.812 29.9502C97.3908 26.2665 91.7191 23.8887 85.7994 23.4606C79.6552 23.0159 73.4231 24.3847 68.1758 27.4169C62.929 30.4489 58.9616 35.1621 56.9017 40.5889C55.8624 43.3273 55.2884 46.1807 55.1549 49.0818C55.0874 50.5504 55.1504 52.0312 55.2606 53.4969L55.3153 54.1958C55.3794 55.034 55.4233 55.869 55.2893 56.6869C56.2357 56.411 57.2277 56.2967 58.2234 56.4332C59.7028 56.636 60.5867 57.2029 61.2503 58.4384C61.285 58.5028 61.2155 58.5673 61.1466 58.5353C60.2863 58.1339 58.8944 58.3452 57.9832 58.5556C57.035 58.7745 56.1809 59.1553 55.3752 59.6702C53.8846 60.6221 52.7162 62.0972 52.4294 63.7895C52.1522 65.4243 52.8703 67.0796 54.0765 68.2513C54.6974 68.8548 55.4395 69.3765 56.2704 69.7015C57.2788 70.0963 58.2769 70.084 59.1691 70.7357C59.7206 71.1385 59.5873 71.8278 59.2132 72.2751C61.0954 74.2041 62.7646 76.3144 64.6466 78.2509C65.519 79.1485 66.3844 80.0472 67.2203 80.9737L67.5323 81.3225C68.367 82.264 69.695 83.2585 70.0764 84.4426C70.3137 85.1793 69.4697 86.1428 68.6165 85.8071C67.3078 85.2921 66.3736 83.9521 65.4893 82.9243L65.4317 82.8577C64.5043 81.7927 63.681 80.6683 62.9282 79.4901L62.6807 79.102C61.3196 76.9624 59.9701 74.7433 59.1022 72.3928C59.0449 72.4479 58.9842 72.4981 58.9202 72.5406C57.6699 73.3716 55.8522 72.7327 54.6034 72.193C53.4245 71.6837 52.3438 70.9174 51.5014 69.9937C49.6693 67.9851 48.8248 65.3839 49.4366 62.777C49.9549 60.5688 51.5925 58.4209 53.7393 57.304C52.7483 56.2377 52.338 54.8004 52.0649 53.3951C51.7164 51.6013 51.6469 49.7631 51.7416 47.9441C51.9304 44.321 52.928 40.7497 54.4701 37.4321C57.2292 31.496 62.1071 26.5305 68.2565 23.5378ZM55.1598 63.15C56.4659 62.9213 57.683 62.8661 58.9427 63.3826C60.3092 63.9432 61.2708 64.8688 62.1648 65.9531C63.1819 67.1866 60.5751 68.5341 59.9178 66.8966L59.8985 66.8461C59.7224 66.3613 59.4071 65.8927 59.0078 65.4613C58.8879 65.6329 58.7277 65.784 58.5394 65.8705C58.3114 65.9753 57.9633 65.9027 57.9085 65.6306C57.8478 65.3285 57.915 64.9624 58.1014 64.7067L58.1269 64.6718C57.2208 63.9902 56.1308 63.4924 55.1598 63.3322C55.0628 63.3161 55.0639 63.1668 55.1598 63.15Z" fill="black"/>
<path fill-rule="evenodd" clip-rule="evenodd" d="M96.0539 80.8429C94.8462 80.3825 93.7687 79.6144 92.9809 78.6332C92.707 78.2921 92.636 77.9319 92.6934 77.6024C92.758 77.232 92.9925 76.8962 93.3123 76.671C93.6331 76.4451 94.0343 76.3337 94.4222 76.3905C94.7593 76.4399 95.0949 76.6124 95.3604 76.9701L95.4159 77.0417C95.8843 77.6339 96.4946 78.1198 97.19 78.433C97.8602 78.7349 98.6098 78.8757 99.3855 78.7938C100.863 78.6378 101.881 77.891 102.964 76.8769C103.098 76.7489 103.232 76.6168 103.367 76.4826C103.452 76.361 103.57 76.2828 103.702 76.2418C103.847 76.1963 104.012 76.1989 104.163 76.2481C104.309 76.2956 104.439 76.3856 104.526 76.5055C104.609 76.6193 104.656 76.76 104.641 76.9218C104.542 77.9728 103.954 78.9107 103.119 79.6472C102.192 80.4652 100.962 81.0311 99.8049 81.2296C98.5297 81.4482 97.2304 81.2916 96.0539 80.8429ZM100.406 64.6296C101.763 65.4003 103.83 67.1975 102.371 69.1082C100.653 70.7929 98.1795 68.8612 96.9607 67.9876C95.8306 67.3106 94.5608 69.0519 95.6094 69.8425C104.417 75.9369 107.991 64.8311 101.093 63.7234C100.333 63.6013 100.051 64.3911 100.406 64.6296ZM84.6239 57.5402C84.7738 55.8013 87.6074 55.4064 87.8893 57.1272C88.1417 58.6686 87.8445 60.0846 87.1017 61.4724C86.3919 62.7982 84.6079 62.1797 84.4729 60.9724C84.2921 59.3541 84.5307 58.622 84.6239 57.5402ZM106.193 56.7704C106.588 56.2868 107.159 55.9567 107.842 56.1432C109.977 56.7264 109.348 59.5595 108.598 60.9386C108.191 61.6875 106.874 61.8774 106.279 61.218C105.308 60.1427 104.844 57.9953 106.077 56.9361C106.111 56.8813 106.148 56.8261 106.193 56.7704ZM87.0716 49.9311L87.4088 49.8759C88.4522 49.7073 89.7495 49.5452 90.4876 50.3292C90.8791 50.745 91.0138 51.5177 90.4876 51.9156C89.5621 52.6158 88.5388 52.3445 87.4296 52.4038C86.5155 52.4528 85.637 52.5942 84.7566 52.8294C82.825 53.3454 81.2511 54.2874 79.6013 55.3217C79.3848 55.4574 79.1639 55.1987 79.2672 55.0094C80.2195 53.266 82.0651 51.8339 83.9137 50.9609C84.9003 50.4949 85.98 50.1084 87.0716 49.9311ZM104.247 49.1502L104.505 49.1996C107.314 49.7484 110.964 50.8448 112.295 53.4238C112.345 53.7885 112.292 53.8666 112.248 53.9177L112.234 53.9347C112.198 53.9783 112.169 54.0384 112 54.088C111.953 54.0776 111.906 54.0665 111.858 54.0548C111.248 53.9054 110.766 53.6997 110.298 53.4861L109.792 53.253C109.204 52.9837 108.612 52.7242 107.984 52.5327C106.643 52.124 105.264 51.8361 103.864 51.6824C103.56 51.6491 103.268 51.5533 103.038 51.3893C102.819 51.2335 102.651 51.0179 102.575 50.7313C102.476 50.3603 102.505 50.0795 102.718 49.7449C102.878 49.4936 103.107 49.3194 103.37 49.2194C103.638 49.1174 103.944 49.0934 104.247 49.1502Z" fill="black"/>
<path fill-rule="evenodd" clip-rule="evenodd" d="M104.211 83.4262C102.538 82.033 100.663 79.2323 98.2594 81.4484C97.6649 82.0745 97.4242 83.4783 96.5152 83.7536C95.3079 84.1197 94.1114 82.9258 93.7 82.009C92.0167 76.9151 98.9753 75.5179 102.939 76.3408C104.876 77.0842 106.303 80.0764 106.389 81.638C106.444 82.6874 105.494 84.2305 104.211 83.4262ZM116.834 75.5747C116.817 75.5071 116.794 75.4459 116.767 75.3904C116.027 75.1289 115.442 75.3956 115.08 75.8936C115.092 76.0173 115.131 76.1428 115.156 76.2655C114.877 76.8153 114.625 77.4955 114.247 77.9705C114.172 77.9759 114.095 77.9685 114.02 77.9483C107.748 78.5605 110.81 72.4269 104.449 70.9034C99.5309 70.1451 90.6429 71.0137 88.3231 75.7977C86.4935 83.439 77.1906 78.1146 74.1362 74.1406C70.8772 70.524 68.7699 66.1045 66.738 61.8161C66.3086 60.9085 64.9686 61.5575 65.1143 62.4283C63.2363 65.9495 63.2988 70.1792 62.8337 74.0368C62.0425 81.7331 61.2716 92.5261 68.9224 97.2254C78.8907 107.756 103.783 111.473 115.28 101.796C119.26 93.7988 118.769 84.042 116.834 75.5747Z" fill="black"/>
</svg>
