<svg width="158" height="158" viewBox="0 0 158 158" fill="none" xmlns="http://www.w3.org/2000/svg">
<path fill-rule="evenodd" clip-rule="evenodd" d="M18.664 205.899C40.5659 209.226 62.8652 209.393 84.9492 208.185C93.6892 207.53 102.456 207.413 111.189 208.249C116.349 208.633 138.975 210.362 140.823 205.741C139.66 181.129 137.303 156.309 130.075 132.639C127.102 124.234 124.548 117.259 118.746 110.304C116.918 108.405 112.974 104.422 110.714 103.123C108.756 101.998 107.938 102.4 106.814 100.499C105.697 98.3998 104.873 94.8936 103.287 93.4123C101.672 91.904 99.2787 92.4436 96.3122 92.9294C96.8572 85.5646 93.4576 83.689 88.7743 82.2885C80.5421 79.1466 72.412 80.725 70.34 90.7463C66.4983 90.7463 64.3403 92.3996 62.0073 93.9881C61.0537 94.6375 61.7171 96.2919 60.578 96.8023C58.4704 97.5527 54.746 97.3689 52.7168 98.2924C43.489 102.492 35.2701 108.582 29.8725 117.475C17.7719 136.464 9.45969 176.463 10.8981 198.969C10.2679 199.957 11.1393 201.375 11.3609 202.437C11.6405 203.362 12.5459 203.977 13.4909 203.871C14.8096 205.29 16.8492 205.605 18.664 205.899Z" fill="white"/>
<path fill-rule="evenodd" clip-rule="evenodd" d="M109.32 102.567C109.185 102.492 109.304 102.299 109.439 102.363C115.934 105.41 120.917 110.756 124.423 116.933C128.054 123.329 130.123 130.591 131.907 137.688L131.971 137.945C133.873 145.537 135.491 153.208 136.947 160.898C138.422 168.686 139.606 176.521 140.558 184.389C141.029 188.279 141.449 192.176 141.776 196.081C141.94 198.033 142.089 199.986 142.222 201.939C142.276 202.721 142.326 203.502 142.369 204.284L142.4 204.871C142.427 205.403 142.49 205.936 142.358 206.461C142.245 206.914 142.005 207.323 141.795 207.739C141.378 208.56 140.235 208.425 139.786 207.739L139.656 207.539C139.358 207.079 139.111 206.651 139.017 206.078C138.927 205.523 138.923 204.942 138.883 204.382C138.808 203.351 138.745 202.319 138.672 201.288C138.52 199.117 138.349 196.948 138.16 194.78C137.786 190.501 137.385 186.226 136.892 181.958C136.017 174.374 134.918 166.81 133.623 159.286C132.358 151.936 130.758 144.66 129.09 137.394L128.917 136.643C125.995 123.956 121.491 109.346 109.32 102.567ZM40.1346 152.244C40.1824 152.117 40.3879 152.087 40.4226 152.244C40.8601 154.214 40.9034 156.243 40.9703 158.26C41.0362 160.249 41.0335 162.248 41.0045 164.239C40.8975 171.555 40.6967 178.865 40.523 186.181C40.4362 189.84 40.3547 193.5 40.2922 197.159C40.2685 198.532 40.2487 199.905 40.2321 201.277L40.2119 203.088C40.2019 203.888 40.1809 204.679 40.0833 205.478C40.0189 206.004 39.8818 206.506 39.5914 206.957C39.3853 207.277 39.0917 207.439 38.8054 207.656L38.7518 207.698C38.3867 207.986 38.0021 207.988 37.6405 207.698L37.5355 207.615C37.1901 207.345 36.8916 207.134 36.671 206.706C36.3642 206.112 36.3151 205.467 36.263 204.813C36.1839 203.82 36.2363 202.813 36.2466 201.818C36.267 199.821 36.2947 197.825 36.3297 195.828C36.4583 188.507 36.7124 181.185 37.1756 173.876C37.3939 170.434 37.6897 166.981 38.0866 163.552L38.1622 162.91C38.2826 161.901 38.3924 160.874 38.5161 159.844C36.6692 158.545 35.0457 156.969 33.6613 155.181C33.5594 155.049 33.7272 154.865 33.8502 154.992C35.2648 156.457 36.8868 157.624 38.6824 158.543C38.9767 156.387 39.3812 154.242 40.1346 152.244ZM70.9901 86.9817C71.0154 86.9621 71.055 86.9535 71.0791 86.9817C71.4761 87.4445 71.3956 88.1521 71.4084 88.7386L71.4099 88.7933C71.4384 89.6508 71.4437 90.5056 71.4409 91.3636L71.432 94.0947C71.4308 94.4702 71.4004 94.8611 71.4196 95.2389L71.4297 95.3851C71.6382 95.5986 71.7351 95.9073 71.6644 96.2173C71.6516 96.6149 71.4437 96.9467 71.1405 97.1552L71.7905 98.0774L72.4411 98.999C73.7821 100.901 75.1378 102.786 76.5507 104.636C77.9915 106.521 79.5284 108.336 81.1368 110.081C81.9226 110.934 82.7217 111.774 83.5395 112.596C83.8718 112.93 84.2124 113.256 84.5493 113.586L84.8844 113.917C85.0823 114.115 85.3315 114.311 85.4629 114.561C85.5402 114.71 85.5578 115.074 85.5854 115.135C85.8336 115.68 85.4103 116.55 84.7068 116.278L84.7387 116.256C84.8668 116.167 84.7847 116.166 84.4924 116.253C84.308 116.252 84.1351 116.209 83.9735 116.125L83.9254 116.099C83.6979 115.983 83.4949 115.76 83.3101 115.581L83.2642 115.537C82.8416 115.141 82.4388 114.721 82.0337 114.307C81.1883 113.444 80.362 112.562 79.562 111.656C77.966 109.849 76.453 107.969 75.0201 106.031C73.5606 104.056 72.204 101.98 71.0374 99.8194C70.5946 98.9993 70.1888 98.1634 69.7996 97.3178C69.0422 97.0748 68.8664 96.2692 68.9192 95.3618C68.6397 94.711 68.3879 94.0468 68.239 93.3681C68.2188 93.2751 68.3383 93.1874 68.4099 93.2687C68.6521 93.544 68.8764 93.837 69.092 94.1376C69.2221 93.5014 69.3867 92.9158 69.4642 92.5425L69.8 90.8949C67.9078 90.7963 65.8343 91.5736 64.5299 92.9346C64.4598 93.289 64.1871 93.5426 63.9212 93.8739C63.6174 94.2526 63.3524 94.6776 63.1547 95.122C62.7163 96.1071 62.9637 97.5587 62.113 98.2815C62.0243 98.3567 61.9252 98.409 61.8229 98.4414C62.2266 100.421 62.0434 102.602 62.0346 104.61L62.0343 104.787C62.0363 107.035 61.9612 109.284 61.8744 111.53L61.786 113.753C61.6716 116.717 61.5972 119.683 61.8853 122.631C63.2005 121.466 64.5604 120.354 65.9671 119.295C66.8921 118.599 67.8356 117.927 68.7962 117.28L69.5767 116.759C70.5121 116.132 71.4701 115.486 72.4942 115.037C73.8337 114.45 75.1075 114.652 76.4007 115.254C77.6885 115.854 78.938 116.551 80.2012 117.201C81.486 117.862 82.7735 118.518 84.0602 119.175C84.9125 119.611 86.1615 120.004 86.7866 120.806C86.8265 120.628 86.873 120.452 86.9273 120.275C86.8652 120.007 86.8892 119.716 87.0399 119.439C89.1405 115.58 91.084 111.628 93.014 107.681C93.9908 105.683 94.9196 103.662 95.8983 101.666L96.8497 99.7216C97.0087 99.3977 97.1682 99.074 97.3285 98.7509C97.5686 98.267 97.8185 97.7879 98.0613 97.3053C98.1639 97.1014 98.2924 96.8988 98.3923 96.693L98.4396 96.5898C98.4419 96.5844 98.6724 95.8595 98.4944 95.9286L98.479 95.9359C98.3882 95.9874 98.3154 95.8731 98.3743 95.8002C98.6261 95.4888 98.9768 95.7646 99.1205 96.0528C99.5163 96.8459 98.791 98.0908 98.5119 98.8502L98.4966 98.8927C97.6308 101.344 96.6504 103.748 95.6458 106.145C93.7198 110.74 91.6507 115.264 89.5861 119.796L89.5617 119.873C90.0019 119.536 90.472 119.23 90.8745 118.932C91.8899 118.179 92.935 117.464 93.9784 116.751C95.8919 115.444 97.8573 114.223 99.8552 113.05L100.255 112.816C101.253 112.235 102.242 111.763 103.426 111.938C104.527 112.1 105.55 112.691 106.544 113.171L106.647 113.221L109.719 114.681C109.391 113.372 109.035 112.068 108.664 110.77C107.941 108.237 107.144 105.726 106.281 103.237C105.475 100.912 104.603 98.6117 103.681 96.3299L103.403 95.6451C103.027 94.7056 102.654 93.6812 101.579 93.3919C100.505 93.1027 99.2737 93.5316 98.2923 92.9195C98.2031 92.8638 98.2142 92.7168 98.3223 92.6897L98.9279 92.537C100.065 92.2542 101.398 91.9697 102.473 92.2447C103.643 92.5445 104.611 93.5264 105.179 94.5472C105.81 95.6827 106.255 96.9535 106.734 98.1644L106.81 98.3551C107.359 99.7254 107.888 101.104 108.394 102.491C109.406 105.264 110.327 108.07 111.16 110.902C111.562 112.266 111.943 113.638 112.309 115.012C112.414 115.407 112.588 115.887 112.731 116.387C112.894 116.546 113.048 116.724 113.193 116.926C113.434 117.263 113.261 117.657 112.962 117.858C112.951 118.202 112.874 118.526 112.691 118.803C111.978 119.886 110.092 119.607 110.169 118.151C110.181 117.928 110.267 117.716 110.399 117.536L110.395 117.507L110.38 117.454C110.053 117.297 109.724 117.122 109.377 116.951L106.153 115.357C105.22 114.896 104.185 114.183 103.146 114.007C102.178 113.843 101.157 114.564 100.325 115L100.271 115.028C98.2599 116.058 96.2639 117.123 94.2758 118.197C93.3053 118.721 92.3474 119.267 91.3806 119.797C90.5722 120.241 89.6998 120.878 88.7912 121.128C88.4031 121.43 87.942 121.389 87.5715 121.161C87.7409 122.21 87.7305 123.286 87.7824 124.358C87.8523 125.791 87.863 127.228 87.8861 128.664L87.8954 129.202C87.9565 132.375 87.9891 135.548 88.0012 138.722C88.0441 150.022 87.9192 161.326 87.8901 172.627C87.8753 178.305 87.7628 183.988 87.6153 189.663C87.5527 192.068 87.422 194.47 87.2808 196.872L87.2031 198.181C87.0386 200.945 86.9415 203.739 86.4299 206.466C86.3632 206.821 85.7613 206.83 85.7023 206.466C85.2314 203.544 85.2052 200.559 85.1147 197.603L85.0956 197.012C84.9868 193.839 84.9352 190.667 84.9462 187.492C84.9865 176.187 85.2803 164.889 85.5207 153.587C85.6416 147.908 85.7229 142.227 85.9107 136.551C86.0046 133.71 86.1108 130.872 86.2369 128.032C86.2933 126.765 86.3474 125.498 86.4316 124.233L86.4696 123.69C86.4958 123.336 86.5169 122.987 86.5425 122.64C85.3987 123.058 84.3526 122.285 83.3236 121.755C82.1377 121.145 80.9522 120.534 79.7658 119.925L78.5784 119.317L76.2022 118.105C75.1323 117.559 74.308 117.016 73.1668 117.656C69.0556 119.963 65.2778 123.031 61.8541 126.252C61.1976 126.869 59.8103 126.703 59.644 125.668C58.9337 121.247 59.3657 116.761 59.7284 112.326L59.8621 110.679C60.0241 108.712 60.2005 106.746 60.4357 104.787C60.5408 103.911 60.6455 103.035 60.7614 102.161L60.8506 101.505C60.9954 100.469 61.09 99.4382 61.3988 98.4441C61.3014 98.4126 61.2077 98.3609 61.1238 98.2815C60.1954 97.4007 60.643 95.8722 61.0667 94.8245C61.485 93.7903 62.1228 92.8877 62.9217 92.1108C63.0959 91.9411 63.3415 91.832 63.5882 91.8263C65.525 90.5431 67.6498 89.9027 69.8612 90.6032C69.9233 90.3062 69.9866 90.0097 70.0533 89.7139L70.1212 89.4184C70.2932 88.6846 70.3571 87.4725 70.9901 86.9817ZM90.8402 202.861C91.4413 202.696 92.0993 202.87 92.5397 203.31C92.9799 203.751 93.1543 204.409 92.9886 205.01C92.9058 205.306 92.7561 205.562 92.5397 205.78C92.3373 205.981 92.1012 206.125 91.8316 206.211L91.7688 206.23L91.6706 206.271C91.3693 206.351 91.0679 206.351 90.7668 206.271C90.4788 206.19 90.2289 206.044 90.0166 205.833C89.8059 205.621 89.6602 205.371 89.5794 205.083C89.4984 204.782 89.4984 204.481 89.5794 204.179L89.6205 204.081C89.7033 203.785 89.853 203.528 90.0694 203.31C90.2874 203.094 90.5444 202.944 90.8402 202.861ZM126.527 142.972C126.625 142.859 126.786 143.004 126.724 143.124C125.788 144.959 124.745 146.782 123.719 148.57C123.801 149.066 123.883 149.558 123.977 150.037C124.376 152.08 124.865 154.086 125.184 156.148C126.331 163.561 126.926 171.055 127.437 178.535C127.95 186.041 128.015 193.551 128.092 201.072C128.099 201.724 127.597 202.482 126.925 202.604C126.618 202.661 126.388 202.65 126.081 202.604C125.381 202.502 124.944 201.7 124.914 201.072C124.713 196.869 124.444 192.67 124.131 188.473C123.577 181.033 123.239 173.572 122.791 166.124L122.634 163.521C122.465 160.7 122.31 157.877 122.26 155.052C122.226 153.181 122.326 151.31 122.265 149.44C122.208 147.714 122.033 145.838 122.413 144.142C122.427 144.078 122.528 144.062 122.557 144.123C122.953 144.956 123.203 145.861 123.396 146.785C124.416 145.496 125.454 144.203 126.527 142.972ZM59.7375 97.3815C59.8807 97.3709 59.875 97.586 59.7375 97.6019C57.7365 97.834 55.8034 98.6483 53.9141 99.3404L53.7522 99.3994C51.8434 100.092 49.9824 100.897 48.1914 101.857C44.6898 103.734 41.4744 106.154 38.6315 108.925C27.281 119.985 22.1084 135.933 18.3181 150.921C16.2121 159.248 14.7145 167.716 13.7439 176.249C13.2639 180.469 12.9246 184.705 12.7268 188.948C12.6255 191.122 12.5616 193.298 12.535 195.475C12.5212 196.59 12.5172 197.705 12.5186 198.82C12.5192 199.331 12.6104 199.974 12.4738 200.47C12.3471 200.93 11.9896 201.334 11.7253 201.717C11.4119 202.172 10.8488 202.148 10.5311 201.717L10.414 201.561C10.0752 201.111 9.74364 200.681 9.69524 200.094C9.64344 199.464 9.67999 198.815 9.67764 198.183C9.67227 196.909 9.68803 195.634 9.71351 194.36C9.76263 191.918 9.85886 189.477 10.0019 187.039C10.2922 182.091 10.7702 177.153 11.4545 172.244C12.6709 163.518 14.4943 154.875 16.8825 146.395C19.1357 138.395 21.8049 130.419 25.6074 123.009C29.1381 116.129 33.7698 109.728 39.8814 104.92C42.7235 102.684 45.8174 100.82 49.153 99.4168C50.8354 98.709 52.602 98.1311 54.3987 97.8017C56.1754 97.476 57.9444 97.5214 59.7375 97.3815ZM91.1847 188.721C91.502 188.719 91.8559 188.788 92.1282 188.964L92.492 189.245C92.5905 189.372 92.6886 189.499 92.7863 189.626C93.0138 189.922 93.044 190.402 92.9966 190.755C92.9858 190.991 92.9158 191.21 92.7863 191.414L92.5094 191.772C92.2432 191.99 92.0212 192.144 91.6988 192.249C91.5303 192.303 91.368 192.315 91.2062 192.306L91.1523 192.303L91.1847 192.307L91.128 192.301C91.0754 192.296 91.0225 192.291 90.9696 192.284C90.9335 192.279 90.8973 192.276 90.8613 192.271C90.8266 192.269 90.793 192.267 90.758 192.27C90.3483 192.309 89.9364 192.077 89.6455 191.81C89.3835 191.569 89.1483 191.059 89.1848 190.697L89.2004 190.546C89.228 190.291 89.2507 190.191 89.3587 189.935C89.4636 189.686 89.6103 189.466 89.81 189.28C90.1922 188.925 90.6601 188.725 91.1847 188.721ZM89.9164 170.065C90.4603 169.472 91.3942 169.429 92.0686 169.787C92.2329 169.875 92.3838 170.015 92.5287 170.132C92.8936 170.427 93.037 170.959 93.0571 171.408C93.077 171.851 92.8432 172.378 92.5287 172.684L92.4524 172.758C92.2645 172.94 91.9952 173.099 91.7323 173.148C91.3084 173.226 90.9523 173.223 90.5575 173.057C90.2182 172.914 89.9259 172.683 89.7271 172.371L89.6948 172.318C89.6812 172.297 89.6683 172.274 89.6562 172.252L89.6386 172.217C89.2607 171.49 89.3623 170.668 89.9164 170.065ZM90.1981 151.31C90.4434 151.233 90.6885 151.223 90.9337 151.278C91.1002 151.278 91.2554 151.32 91.3993 151.403C91.5555 151.447 91.6913 151.526 91.8063 151.641C91.9448 151.722 92.0553 151.833 92.1372 151.971C92.3004 152.15 92.4103 152.359 92.4675 152.599L92.5332 153.089L92.4675 153.58L92.2814 154.02C92.2303 154.087 92.1788 154.154 92.1268 154.22C92.0447 154.359 91.9341 154.47 91.7951 154.552C91.7047 154.642 91.6011 154.709 91.4853 154.756C91.0745 155.05 90.5273 155.146 90.0407 155.012C89.7517 154.931 89.5007 154.785 89.2879 154.574C89.0765 154.361 88.9302 154.11 88.8494 153.821L88.8161 153.59C88.7731 153.281 88.7663 153.109 88.8539 152.716C88.8923 152.543 89.0038 152.299 89.0621 152.196C89.3116 151.758 89.7191 151.457 90.1981 151.31ZM111.494 137.818C112.199 137.813 112.903 137.814 113.607 137.822L114.135 137.829C115.02 137.843 115.777 137.752 116.472 138.365C116.977 138.811 116.755 139.558 116.276 139.893C115.55 140.401 114.64 140.146 113.805 140.09C112.926 140.031 112.045 139.982 111.164 139.942C109.459 139.866 107.753 139.817 106.046 139.81C104.342 139.803 102.636 139.819 100.933 139.846C99.1997 139.874 97.3952 140.036 95.6718 139.856C95.4351 139.832 95.3818 139.52 95.6155 139.439C97.2395 138.878 99.0663 138.696 100.768 138.481C102.524 138.259 104.279 138.102 106.046 138C107.86 137.896 109.677 137.831 111.494 137.818ZM90.1948 132.3L90.2529 132.301C90.5629 132.302 90.853 132.375 91.1235 132.52L91.1812 132.552L91.5534 132.84C91.7812 133.069 91.9389 133.34 92.0261 133.651L92.0918 134.14C92.1016 134.393 92.0486 134.629 91.9336 134.849C91.8593 135.077 91.7326 135.274 91.5534 135.44C91.3867 135.62 91.1894 135.746 90.9616 135.821C90.7592 135.927 90.5425 135.98 90.3111 135.98L90.2529 135.979C89.9212 135.978 89.6117 135.894 89.325 135.728L88.9527 135.44C88.7249 135.211 88.5671 134.94 88.4799 134.629L88.414 134.14C88.4046 133.887 88.4573 133.651 88.5726 133.432C88.6467 133.204 88.7735 133.006 88.9527 132.84C89.1193 132.66 89.3165 132.534 89.5446 132.46C89.7469 132.353 89.9636 132.3 90.1948 132.3ZM95.6465 89.1029C96.0426 88.5291 96.7606 89.0394 96.6579 89.5008C96.685 90.7965 96.7513 92.054 97.0461 93.3232C97.1811 93.9043 97.358 94.486 97.6307 95.0183L97.7453 95.2424C98.0984 95.9399 98.3724 96.5978 97.8969 97.363C97.6728 97.7238 97.2678 97.9947 96.8287 97.9757C94.8815 97.8917 94.6139 95.1814 94.4956 93.6684C94.3735 92.1102 94.7531 90.3977 95.6465 89.1029Z" fill="black"/>
<path fill-rule="evenodd" clip-rule="evenodd" d="M110.768 46.7656C109.251 40.3693 105.934 34.4169 100.623 29.6063C84.6418 13.8064 55.2934 22.3823 55.4263 46.1916C54.8531 48.9725 54.6205 51.8318 54.8102 54.6679C54.8887 55.8779 55.4124 57.5666 54.7088 58.6557C53.1217 60.693 52.1993 62.1948 52.7395 64.905C53.1908 67.2713 54.8012 68.9477 56.9745 69.8389C58.278 70.2129 59.5147 71.0277 59.9975 72.2696C62.8988 77.5813 65.0482 81.9994 69.622 85.6194C70.8022 86.5513 82.9072 92.1409 86.8957 92.1409C98.5724 92.1409 113.289 87.9112 113.533 74.8684C113.576 72.0037 113.073 69.1056 112.758 66.2636C111.99 59.7777 112.261 53.0569 110.768 46.7656Z" fill="white"/>
<path fill-rule="evenodd" clip-rule="evenodd" d="M110.506 43.5663C110.509 43.4872 110.623 43.4694 110.645 43.5475C111.079 45.0874 111.325 46.656 111.664 48.2198C111.991 49.7261 112.3 51.2368 112.557 52.7563C113.041 55.6241 113.45 58.4993 113.829 61.3821L113.924 62.103C114.584 67.1754 115.674 72.4598 114.721 77.5619C113.907 81.9155 111.18 85.4243 107.664 87.9968C104.336 90.4325 100.3 91.9957 96.2929 92.8843C91.9922 93.8384 86.8944 94.1231 83.3952 90.9693C81.9943 89.7065 83.904 87.2008 85.4237 88.3405C88.9922 91.0159 93.5317 90.2272 97.5583 89.1626L97.6802 89.1303C101.214 88.1889 104.772 86.7621 107.578 84.355C110.68 81.6937 112.213 78.0001 112.391 73.9492C112.49 71.6732 112.278 69.3998 112.049 67.1373L112.023 66.8859C111.761 64.2985 111.485 61.7122 111.231 59.1238C110.999 56.7635 110.799 54.3894 110.693 52.0185L110.643 50.8227C110.541 48.4118 110.402 45.9656 110.506 43.5663ZM68.6544 23.534C74.4613 20.5109 81.1349 19.4289 87.5973 20.4435C93.8099 21.4188 99.5115 24.6245 103.773 29.2212C105.854 31.4655 107.701 34.0615 108.881 36.8975C109.467 38.3064 109.926 39.7761 110.171 41.2856C110.296 42.0616 110.42 42.8657 110.443 43.6524C110.465 44.3808 110.251 45.064 110.277 45.8045C110.281 45.9203 110.103 45.9426 110.076 45.8316C109.874 45.006 109.388 44.3817 109.083 43.5974C108.855 43.0119 108.596 42.4402 108.333 41.8702L108.106 41.3818C107.449 39.9624 106.664 38.6013 105.888 37.245C104.324 34.5134 102.317 32.0309 99.9673 29.9362C95.8417 26.2584 90.549 23.8844 85.0249 23.4569C79.2913 23.013 73.4757 24.3796 68.5791 27.4069C63.6829 30.4341 59.9806 35.1399 58.0584 40.558C57.0885 43.2922 56.5529 46.141 56.4284 49.0375C56.3653 50.5037 56.4242 51.9822 56.5269 53.4456L56.578 54.1434C56.6378 54.9803 56.6788 55.8139 56.5538 56.6305C57.4369 56.3551 58.3627 56.2409 59.2917 56.3772C60.6723 56.5797 61.4971 57.1457 62.1164 58.3792C62.1487 58.4436 62.0839 58.508 62.0197 58.4759C61.2168 58.0753 59.9179 58.2862 59.0676 58.4962C58.1828 58.7148 57.3858 59.0951 56.6339 59.6091C55.2429 60.5594 54.1526 62.0322 53.885 63.7219C53.6263 65.3541 54.2964 67.0067 55.422 68.1766C56.0014 68.7791 56.6939 69.3 57.4693 69.6245C58.4103 70.0186 59.3417 70.0064 60.1742 70.657C60.6889 71.0592 60.5645 71.7474 60.2155 72.194C61.9719 74.1199 63.5295 76.2269 65.2857 78.1603C66.0998 79.0565 66.9074 79.9538 67.6874 80.8788L67.9786 81.2271C68.7575 82.1671 69.9967 83.16 70.3526 84.3422C70.5741 85.0777 69.7865 86.0396 68.9903 85.7045C67.7691 85.1903 66.8973 83.8524 66.0721 82.8263L66.0183 82.7598C65.153 81.6965 64.3846 80.5739 63.6822 79.3976L63.4512 79.01C62.181 76.8738 60.9218 74.6583 60.1119 72.3115C60.0584 72.3665 60.0017 72.4166 59.942 72.4591C58.7752 73.2887 57.079 72.6508 55.9137 72.112C54.8136 71.6036 53.8051 70.8384 53.019 69.9162C51.3093 67.9109 50.5212 65.3137 51.0922 62.711C51.5759 60.5063 53.104 58.3618 55.1073 57.2466C54.1826 56.1821 53.7997 54.747 53.5449 53.344C53.2196 51.553 53.1548 49.7177 53.2431 47.9016C53.4193 44.2843 54.3502 40.7186 55.7893 37.4063C58.364 31.4795 62.9159 26.5219 68.6544 23.534ZM56.4328 63.0834C57.6516 62.855 58.7874 62.7999 59.9629 63.3155C61.238 63.8753 62.1354 64.7994 62.9696 65.882C63.9188 67.1135 61.4862 68.4589 60.8728 66.824L60.8548 66.7736C60.6905 66.2896 60.3963 65.8217 60.0236 65.391C59.9118 65.5623 59.7622 65.7132 59.5865 65.7995C59.3738 65.9042 59.0489 65.8317 58.9978 65.56C58.9411 65.2584 59.0038 64.8929 59.1778 64.6376L59.2016 64.6027C58.356 63.9223 57.3389 63.4252 56.4328 63.2653C56.3423 63.2492 56.3433 63.1001 56.4328 63.0834Z" fill="black"/>
<path fill-rule="evenodd" clip-rule="evenodd" d="M84.987 76.4503C87.04 74.0647 90.4977 73.8986 93.3619 74.4951C95.2 74.878 96.9896 75.5157 98.8565 75.7521C99.7284 75.8626 100.61 75.8956 101.488 75.8793C102.351 75.8634 103.215 75.6896 104.074 75.7219C104.207 75.7268 104.257 75.9003 104.142 75.9709C102.963 76.6953 101.374 76.9276 99.9807 77.0693C99.9851 77.1724 99.9913 77.273 100.006 77.3583C100.044 77.5858 100.078 77.8118 100.106 78.0408C100.169 78.5573 100.24 79.0721 100.311 79.5876C100.45 80.6022 100.494 81.6488 100.738 82.6458L100.781 82.8115C100.838 83.021 100.851 83.2099 100.832 83.3803L100.888 83.3546L101.067 83.2679L101.185 83.2126C101.613 83.0141 102.021 82.8695 102.525 82.9177C102.908 82.9543 103.23 83.2156 103.232 83.6249C103.242 85.4614 100.766 86.052 99.3507 86.4036L98.9355 86.5059C97.1334 86.9454 95.2935 87.3307 93.44 87.4229C90.4657 87.5706 87.1233 86.7501 85.1777 84.3375C83.3622 82.0866 83.0294 78.7249 84.987 76.4503ZM98.4944 84.1668C98.1823 81.4017 94.7843 81.2497 93.8069 83.0032C93.3731 80.559 86.9564 82.7919 87.4581 83.2778C89.3599 85.1195 92.2459 85.2853 94.7269 84.9447C95.9904 84.7711 97.255 84.4887 98.4944 84.1668ZM94.7234 76.9195L93.8691 76.7965L93.5326 76.7502C91.4148 76.4666 89.0332 76.3201 87.292 77.6778C86.6563 78.1734 86.2985 78.8198 86.1649 79.5142C87.8125 79.27 89.4661 79.0837 91.1246 78.9286L91.577 78.8871C92.6147 78.7935 93.652 78.6949 94.6887 78.5915L95.4255 78.5169L96.1619 78.4405C96.4211 78.4133 98.1678 78.3239 98.4962 78.384C98.5313 78.0889 98.577 77.4503 98.6511 77.1632C97.4102 77.2053 96.1747 77.1131 94.941 76.9492L94.7234 76.9195ZM98.6557 64.5605C99.9217 65.33 101.851 67.1243 100.489 69.032C98.8857 70.7141 96.5777 68.7855 95.4403 67.9132C94.3857 67.2373 93.2008 68.9758 94.1792 69.7652C102.398 75.8499 105.733 64.7617 99.296 63.6558C98.5873 63.5339 98.3241 64.3225 98.6557 64.5605ZM100.921 67.8022L100.982 67.7691L101.003 67.7567C101.038 67.7337 101.016 67.7361 100.935 67.7642L100.874 67.786V67.8289C100.89 67.8193 100.906 67.8121 100.921 67.8022ZM84.7081 60.9657L84.7079 60.928C84.7103 59.8589 85.3329 57.4181 86.8719 57.4181C87.8334 57.4181 88.4171 59.0792 88.5181 60.7917L88.5216 60.8615C88.5663 61.9261 88.2741 64.2532 86.8719 64.2532C85.4549 64.2532 84.7227 62.0492 84.7081 60.9657ZM107.366 60.6303L107.367 60.5926C107.364 59.5235 106.742 57.0827 105.203 57.0827C104.265 57.0827 103.687 58.6618 103.565 60.328L103.556 60.4563C103.496 61.485 103.769 63.9178 105.203 63.9178C106.62 63.9178 107.352 61.7138 107.366 60.6303ZM85.5862 50.1292C86.8422 49.9383 88.5055 50.3011 89.091 51.5782C89.3519 52.1472 89.0429 52.7763 88.3852 52.8079C86.7958 52.884 85.3703 52.5302 83.9752 53.5638C83.3748 54.0086 82.87 54.6246 82.4464 55.239L82.2861 55.4728L82.1533 55.6654C81.8657 56.0883 81.5933 56.5478 81.6359 57.058C81.6484 57.209 81.494 57.3524 81.3473 57.3463C80.433 57.3088 80.3346 56.1624 80.4548 55.4739C80.6784 54.1961 81.2969 52.9966 82.154 52.0305C83.0543 51.0159 84.2427 50.3336 85.5862 50.1292ZM102.885 51.6801C103.751 51.1233 104.859 50.9094 105.874 50.9914C107.874 51.1525 111.23 52.8531 110.789 55.2965C110.652 56.0501 109.604 56.4478 108.987 56.0296C108.323 55.5802 108.161 54.8816 107.667 54.2942C107.273 53.8249 106.773 53.4855 106.238 53.1963C105.71 52.911 105.1 52.7382 104.501 52.6752L104.402 52.6657C104.042 52.635 102.222 52.6432 102.489 53.3223C102.542 53.4553 102.344 53.5606 102.253 53.46C101.695 52.843 102.327 52.0392 102.885 51.6801Z" fill="black"/>
<path fill-rule="evenodd" clip-rule="evenodd" d="M62.0444 63.1169C63.2293 63.1169 63.7146 65.8755 63.7146 65.8755C66.7282 71.0718 69.629 76.2535 74.8047 79.8285C80.5502 82.1309 86.2014 86.0521 92.7479 86.482C95.6992 86.1721 96.5649 83.4708 100.21 84.4213C102.535 84.9863 105.146 86.1007 107.296 84.4911C109.113 83.3032 110.392 81.5037 111.959 80.0488C112.039 79.7863 112.56 82.5565 112.403 83.4929L112.281 84.0246C111.31 88.3117 110.329 93.3565 105.986 95.7131C104.663 96.4102 102.807 97.0829 101.338 96.69C93.5802 97.9271 85.1648 97.0219 78.3678 93.1519C75.9749 92.5302 74.195 90.622 72.3107 89.1806C67.702 85.1438 62.4203 80.0301 61.9281 73.8975C61.4359 67.7649 61.6551 63.1169 62.0444 63.1169ZM85.4856 75.2259C88.1263 70.9855 93.3725 71.6742 97.4548 73.6061C99.7099 72.075 102.685 72.3568 105.132 73.4355L105.132 73.4369C107.385 74.6699 109.092 76.6944 110.661 78.6308C111.043 79.1452 111.195 79.8364 110.658 80.0901C108.129 82.1746 102.874 80.9513 100.489 79.4014C98.7689 79.2627 99.1461 76.82 97.1602 78.5296C95.835 79.7753 94.1703 80.5476 92.3621 81.0054C88.319 82.3934 84.5966 82.1628 81.0755 79.9992C80.6226 79.9552 78.7672 78.9058 79.4264 78.5323C80.1435 78.726 84.1164 76.4457 85.4856 75.2259Z" fill="white"/>
<path fill-rule="evenodd" clip-rule="evenodd" d="M61.427 67.6756C61.454 67.4526 61.8002 67.4415 61.808 67.6756C61.9685 72.5819 63.5661 77.9608 66.2682 82.1616C72.7619 92.7647 86.0162 98.0764 98.773 96.2513C108.096 96.125 109.092 90.8425 111.409 83.4662C112.611 82.4788 113.202 82.8326 112.829 83.9901C109.956 92.8909 108.973 97.996 97.6074 97.8991C79.3581 100.504 59.5675 85.5827 61.427 67.6756ZM87.2091 71.6319C90.1865 70.3028 93.7294 70.4903 96.2163 72.3283L96.3917 72.3683C96.8272 72.4656 97.2451 72.5397 97.7347 72.4899C104.316 69.0255 108.709 75.0674 112.083 79.5911C112.337 79.5998 112.545 79.7995 112.476 80.0334L112.584 80.1489C112.159 81.2888 111.391 82.3892 110.341 83.0806C106.898 87.6649 104.327 86.2318 99.8411 84.3443C95.2286 83.6538 95.042 89.0909 88.6071 86.6002L88.3643 86.5211C86.2475 85.8219 83.8173 84.7615 82.2782 83.229C82.2279 83.1788 82.2771 83.082 82.3541 83.1071C85.9249 84.1836 90.5162 87.6985 94.1508 85.3304C95.0695 84.7139 95.8948 83.9654 96.922 83.5011C102.786 81.5391 104.846 89.2875 109.977 81.2431C105.799 81.9712 101.09 81.2473 97.967 78.4026C93.2985 84.0253 84.2119 83.1244 78.4346 79.632C77.6444 79.7458 76.4752 78.9642 77.2029 78.2202C77.9988 77.5876 79.2581 77.8356 80.2366 77.4925C83.3599 76.3813 84.0974 72.8397 87.2091 71.6319ZM97.6469 73.9831C94.347 71.6357 89.4117 71.2405 86.2536 74.0096C84.2814 75.9904 83.002 78.8329 79.8226 79.3568C85.2828 82.4997 93.1282 82.5525 97.3326 77.5519C97.4646 77.1196 98.1488 77.3061 98.2315 77.6818C101.242 79.7822 105.092 80.8984 108.842 80.2544C109.447 80.1551 110.043 80.014 110.625 79.8328L110.072 79.0721C107.129 75.0459 103.344 70.3575 97.7312 73.6689C97.6042 73.7331 97.5507 73.5688 97.5348 73.4845L97.4659 73.5349C97.5156 73.6389 97.9292 73.9815 97.6469 73.9831ZM111.16 80.9745C111.187 80.9992 111.21 81.0261 111.229 81.0542C111.321 81.0062 111.417 80.9573 111.516 80.9105L111.489 80.8909C111.383 80.921 111.273 80.9487 111.16 80.9745ZM61.8519 61.5874L61.8507 61.4264C61.8508 59.8071 62.286 61.8487 62.4814 62.2504C63.3216 63.7629 64.024 65.2598 64.9141 66.7343C68.4829 73.1549 69.0356 75.9379 76.2268 79.5954C76.761 80.0528 76.1998 80.8739 75.5361 80.7051C74.5434 80.4527 73.6072 79.8203 72.7425 79.3102C67.8457 76.7847 66.019 71.6327 63.822 67.1486C63.1768 65.3705 61.6885 63.4736 61.8519 61.5874Z" fill="black"/>
<path fill-rule="evenodd" clip-rule="evenodd" d="M112.791 66.0611C111.663 67.5775 109.57 68.0605 107.64 67.8937C103.477 67.493 102.167 62.7652 102.031 59.0906C104.822 59.8759 101.795 54.3144 111.337 53.7028C114.701 53.4225 113.773 55.454 115.259 56.9384C115.229 60.0536 114.71 63.4385 112.791 66.0611ZM92.9639 62.4816C90.5062 73.9909 77.048 71.2533 75.6343 60.8784C76.9397 59.957 76.5959 57.6819 78.2177 56.8576C80.788 55.2153 84.0011 55.2856 86.92 55.3241C90.6509 55.5805 91.7141 57.126 93.6306 58.8122C93.5384 59.9384 93.2725 61.2732 92.9639 62.4816ZM118.123 51.7968C117.985 51.7739 117.847 51.7522 117.709 51.732C117.601 51.6708 117.474 51.6237 117.327 51.5953C116.991 51.51 116.657 51.4525 116.324 51.4215C111.541 50.345 100.475 51.8735 100.018 55.9553C98.4949 56.4637 97.1768 56.0084 95.4114 56.0537C94.0675 50.4367 70.8348 51.2295 69.7174 54.616C69.7132 54.6148 69.709 54.6138 69.7047 54.6124C68.6311 54.2802 67.0483 54.3603 65.8195 54.3077C63.1957 54.2527 60.5688 54.4865 58.0017 55.0399C53.1945 55.8039 46.6337 56.6983 49.977 62.7013C49.9777 62.7023 49.9782 62.7035 49.979 62.7045L49.9795 62.704C50.5557 63.2946 51.5336 62.819 51.57 62.0195C50.4459 59.1756 52.9847 58.8341 54.9381 58.0168C59.7987 56.2706 64.7472 56.0285 69.7742 56.5687C70.1524 57.014 70.7263 57.4022 71.3328 57.6054C74.6939 58.1633 72.9226 60.6566 75.0472 61.0192C74.6569 69.7102 85.2086 74.4543 91.3225 68.7411C93.7636 66.3545 94.3455 62.819 94.9114 59.6322C95.2107 59.565 95.401 59.4014 95.5121 59.1848C96.2318 58.4663 96.684 57.8027 98.1071 57.6054C99.5302 57.4083 100.626 57.8041 100.774 57.9253C100.811 58.0006 100.851 58.076 100.898 58.1514C100.963 58.2639 101.052 58.3536 101.152 58.4242C99.7468 67.0787 106.466 72.552 113.248 68.0633C116.196 65.2909 116.818 61.0465 116.941 57.2581C117.341 57.017 117.594 56.5498 117.456 55.9623C117.265 55.1526 117.712 54.4515 118.424 54.0994C119.349 53.6423 119.185 51.9727 118.123 51.7968Z" fill="black"/>
</svg>
